<?xml version="1.0" encoding="UTF-8" standalone="no"?>
<!DOCTYPE svg PUBLIC "-//W3C//DTD SVG 1.1//EN"
 "http://www.w3.org/Graphics/SVG/1.1/DTD/svg11.dtd">
<!-- Generated by graphviz version 2.36.0 (20140111.2315)
 -->
<!-- Title: controllers_diagram Pages: 1 -->
<svg width="1124pt" height="1369pt"
 viewBox="0.00 0.00 1124.00 1369.24" xmlns="http://www.w3.org/2000/svg" xmlns:xlink="http://www.w3.org/1999/xlink">
<g id="graph0" class="graph" transform="scale(1 1) rotate(0) translate(4 1365.24)">
<title>controllers_diagram</title>
<polygon fill="white" stroke="none" points="-4,4 -4,-1365.24 1120,-1365.24 1120,4 -4,4"/>
<!-- _diagram_info -->
<g id="node1" class="node"><title>_diagram_info</title>
<text text-anchor="start" x="910" y="-227.6" font-family="Times,serif" font-size="13.00">Controllers diagram</text>
<text text-anchor="start" x="910" y="-213.6" font-family="Times,serif" font-size="13.00">Date: Aug 27 2014 &#45; 22:49</text>
<text text-anchor="start" x="910" y="-199.6" font-family="Times,serif" font-size="13.00">Migration version: 20130721165753</text>
<text text-anchor="start" x="910" y="-185.6" font-family="Times,serif" font-size="13.00">Generated by RailRoady 1.1.1</text>
<text text-anchor="start" x="910" y="-171.6" font-family="Times,serif" font-size="13.00">http://railroady.prestonlee.com</text>
</g>
<!-- Api::V1::BikeMfgQueriesController -->
<g id="node2" class="node"><title>Api::V1::BikeMfgQueriesController</title>
<path fill="none" stroke="black" d="M12,-763.05C12,-763.05 203,-763.05 203,-763.05 209,-763.05 215,-769.05 215,-775.05 215,-775.05 215,-844.05 215,-844.05 215,-850.05 209,-856.05 203,-856.05 203,-856.05 12,-856.05 12,-856.05 6,-856.05 -1.13687e-13,-850.05 -1.13687e-13,-844.05 -1.13687e-13,-844.05 -1.13687e-13,-775.05 -1.13687e-13,-775.05 -1.13687e-13,-769.05 6,-763.05 12,-763.05"/>
<text text-anchor="middle" x="107.5" y="-840.85" font-family="Times,serif" font-size="14.00">Api::V1::BikeMfgQueriesController</text>
<polyline fill="none" stroke="black" points="-1.13687e-13,-833.05 215,-833.05 "/>
<text text-anchor="start" x="8" y="-817.85" font-family="Times,serif" font-size="14.00">_callback_before_17</text>
<polyline fill="none" stroke="black" points="-1.13687e-13,-810.05 215,-810.05 "/>
<polyline fill="none" stroke="black" points="-1.13687e-13,-786.05 215,-786.05 "/>
<text text-anchor="start" x="8" y="-770.85" font-family="Times,serif" font-size="14.00">_layout</text>
</g>
<!-- SearchesController -->
<g id="node3" class="node"><title>SearchesController</title>
<path fill="none" stroke="black" d="M695.213,-763.798C695.213,-763.798 791.213,-763.798 791.213,-763.798 797.213,-763.798 803.213,-769.798 803.213,-775.798 803.213,-775.798 803.213,-844.798 803.213,-844.798 803.213,-850.798 797.213,-856.798 791.213,-856.798 791.213,-856.798 695.213,-856.798 695.213,-856.798 689.213,-856.798 683.213,-850.798 683.213,-844.798 683.213,-844.798 683.213,-775.798 683.213,-775.798 683.213,-769.798 689.213,-763.798 695.213,-763.798"/>
<text text-anchor="middle" x="743.213" y="-841.598" font-family="Times,serif" font-size="14.00">SearchesController</text>
<polyline fill="none" stroke="black" points="683.213,-833.798 803.213,-833.798 "/>
<text text-anchor="start" x="691.213" y="-818.598" font-family="Times,serif" font-size="14.00">index</text>
<polyline fill="none" stroke="black" points="683.213,-810.798 803.213,-810.798 "/>
<polyline fill="none" stroke="black" points="683.213,-786.798 803.213,-786.798 "/>
<text text-anchor="start" x="691.213" y="-771.598" font-family="Times,serif" font-size="14.00">_layout</text>
</g>
<!-- HookReservationsController -->
<g id="node4" class="node"><title>HookReservationsController</title>
<path fill="none" stroke="black" d="M593.144,-0.5C593.144,-0.5 741.144,-0.5 741.144,-0.5 747.144,-0.5 753.144,-6.5 753.144,-12.5 753.144,-12.5 753.144,-201.5 753.144,-201.5 753.144,-207.5 747.144,-213.5 741.144,-213.5 741.144,-213.5 593.144,-213.5 593.144,-213.5 587.144,-213.5 581.144,-207.5 581.144,-201.5 581.144,-201.5 581.144,-12.5 581.144,-12.5 581.144,-6.5 587.144,-0.5 593.144,-0.5"/>
<text text-anchor="middle" x="667.144" y="-198.3" font-family="Times,serif" font-size="14.00">HookReservationsController</text>
<polyline fill="none" stroke="black" points="581.144,-190.5 753.144,-190.5 "/>
<text text-anchor="start" x="589.144" y="-175.3" font-family="Times,serif" font-size="14.00">create</text>
<text text-anchor="start" x="589.144" y="-160.3" font-family="Times,serif" font-size="14.00">destroy</text>
<text text-anchor="start" x="589.144" y="-145.3" font-family="Times,serif" font-size="14.00">hook</text>
<text text-anchor="start" x="589.144" y="-130.3" font-family="Times,serif" font-size="14.00">hook=</text>
<text text-anchor="start" x="589.144" y="-115.3" font-family="Times,serif" font-size="14.00">new</text>
<text text-anchor="start" x="589.144" y="-100.3" font-family="Times,serif" font-size="14.00">reservation</text>
<text text-anchor="start" x="589.144" y="-85.3" font-family="Times,serif" font-size="14.00">reservation=</text>
<text text-anchor="start" x="589.144" y="-70.3" font-family="Times,serif" font-size="14.00">update</text>
<polyline fill="none" stroke="black" points="581.144,-62.5 753.144,-62.5 "/>
<polyline fill="none" stroke="black" points="581.144,-38.5 753.144,-38.5 "/>
<text text-anchor="start" x="589.144" y="-23.3" font-family="Times,serif" font-size="14.00">_layout</text>
<text text-anchor="start" x="589.144" y="-8.3" font-family="Times,serif" font-size="14.00">call_events</text>
</g>
<!-- AssignmentsController -->
<g id="node5" class="node"><title>AssignmentsController</title>
<path fill="none" stroke="black" d="M365.795,-1024.82C365.795,-1024.82 484.795,-1024.82 484.795,-1024.82 490.795,-1024.82 496.795,-1030.82 496.795,-1036.82 496.795,-1036.82 496.795,-1165.82 496.795,-1165.82 496.795,-1171.82 490.795,-1177.82 484.795,-1177.82 484.795,-1177.82 365.795,-1177.82 365.795,-1177.82 359.795,-1177.82 353.795,-1171.82 353.795,-1165.82 353.795,-1165.82 353.795,-1036.82 353.795,-1036.82 353.795,-1030.82 359.795,-1024.82 365.795,-1024.82"/>
<text text-anchor="middle" x="425.295" y="-1162.62" font-family="Times,serif" font-size="14.00">AssignmentsController</text>
<polyline fill="none" stroke="black" points="353.795,-1154.82 496.795,-1154.82 "/>
<text text-anchor="start" x="361.795" y="-1139.62" font-family="Times,serif" font-size="14.00">assignment</text>
<text text-anchor="start" x="361.795" y="-1124.62" font-family="Times,serif" font-size="14.00">assignment=</text>
<text text-anchor="start" x="361.795" y="-1109.62" font-family="Times,serif" font-size="14.00">create</text>
<text text-anchor="start" x="361.795" y="-1094.62" font-family="Times,serif" font-size="14.00">destroy</text>
<text text-anchor="start" x="361.795" y="-1079.62" font-family="Times,serif" font-size="14.00">update</text>
<polyline fill="none" stroke="black" points="353.795,-1071.82 496.795,-1071.82 "/>
<polyline fill="none" stroke="black" points="353.795,-1047.82 496.795,-1047.82 "/>
<text text-anchor="start" x="361.795" y="-1032.62" font-family="Times,serif" font-size="14.00">_layout</text>
</g>
<!-- MobileController -->
<g id="node6" class="node"><title>MobileController</title>
<path fill="none" stroke="black" d="M679.055,-1072.74C679.055,-1072.74 767.055,-1072.74 767.055,-1072.74 773.055,-1072.74 779.055,-1078.74 779.055,-1084.74 779.055,-1084.74 779.055,-1348.74 779.055,-1348.74 779.055,-1354.74 773.055,-1360.74 767.055,-1360.74 767.055,-1360.74 679.055,-1360.74 679.055,-1360.74 673.055,-1360.74 667.055,-1354.74 667.055,-1348.74 667.055,-1348.74 667.055,-1084.74 667.055,-1084.74 667.055,-1078.74 673.055,-1072.74 679.055,-1072.74"/>
<text text-anchor="middle" x="723.055" y="-1345.54" font-family="Times,serif" font-size="14.00">MobileController</text>
<polyline fill="none" stroke="black" points="667.055,-1337.74 779.055,-1337.74 "/>
<text text-anchor="start" x="675.055" y="-1322.54" font-family="Times,serif" font-size="14.00">add</text>
<text text-anchor="start" x="675.055" y="-1307.54" font-family="Times,serif" font-size="14.00">ajax_add</text>
<text text-anchor="start" x="675.055" y="-1292.54" font-family="Times,serif" font-size="14.00">ajax_find</text>
<text text-anchor="start" x="675.055" y="-1277.54" font-family="Times,serif" font-size="14.00">ajax_show</text>
<text text-anchor="start" x="675.055" y="-1262.54" font-family="Times,serif" font-size="14.00">convert_brands</text>
<text text-anchor="start" x="675.055" y="-1247.54" font-family="Times,serif" font-size="14.00">convert_units</text>
<text text-anchor="start" x="675.055" y="-1232.54" font-family="Times,serif" font-size="14.00">filter_bikes</text>
<text text-anchor="start" x="675.055" y="-1217.54" font-family="Times,serif" font-size="14.00">find</text>
<text text-anchor="start" x="675.055" y="-1202.54" font-family="Times,serif" font-size="14.00">find_submit</text>
<text text-anchor="start" x="675.055" y="-1187.54" font-family="Times,serif" font-size="14.00">generate_code</text>
<text text-anchor="start" x="675.055" y="-1172.54" font-family="Times,serif" font-size="14.00">home</text>
<text text-anchor="start" x="675.055" y="-1157.54" font-family="Times,serif" font-size="14.00">index</text>
<text text-anchor="start" x="675.055" y="-1142.54" font-family="Times,serif" font-size="14.00">show</text>
<text text-anchor="start" x="675.055" y="-1127.54" font-family="Times,serif" font-size="14.00">upload</text>
<polyline fill="none" stroke="black" points="667.055,-1119.74 779.055,-1119.74 "/>
<polyline fill="none" stroke="black" points="667.055,-1095.74 779.055,-1095.74 "/>
<text text-anchor="start" x="675.055" y="-1080.54" font-family="Times,serif" font-size="14.00">_layout</text>
</g>
<!-- DeparturesController -->
<g id="node7" class="node"><title>DeparturesController</title>
<path fill="none" stroke="black" d="M74.1612,-1132.48C74.1612,-1132.48 181.161,-1132.48 181.161,-1132.48 187.161,-1132.48 193.161,-1138.48 193.161,-1144.48 193.161,-1144.48 193.161,-1288.48 193.161,-1288.48 193.161,-1294.48 187.161,-1300.48 181.161,-1300.48 181.161,-1300.48 74.1612,-1300.48 74.1612,-1300.48 68.1612,-1300.48 62.1612,-1294.48 62.1612,-1288.48 62.1612,-1288.48 62.1612,-1144.48 62.1612,-1144.48 62.1612,-1138.48 68.1612,-1132.48 74.1612,-1132.48"/>
<text text-anchor="middle" x="127.661" y="-1285.28" font-family="Times,serif" font-size="14.00">DeparturesController</text>
<polyline fill="none" stroke="black" points="62.1612,-1277.48 193.161,-1277.48 "/>
<text text-anchor="start" x="70.1612" y="-1262.28" font-family="Times,serif" font-size="14.00">create</text>
<text text-anchor="start" x="70.1612" y="-1247.28" font-family="Times,serif" font-size="14.00">departure</text>
<text text-anchor="start" x="70.1612" y="-1232.28" font-family="Times,serif" font-size="14.00">departure=</text>
<text text-anchor="start" x="70.1612" y="-1217.28" font-family="Times,serif" font-size="14.00">destination</text>
<text text-anchor="start" x="70.1612" y="-1202.28" font-family="Times,serif" font-size="14.00">destination=</text>
<text text-anchor="start" x="70.1612" y="-1187.28" font-family="Times,serif" font-size="14.00">destroy</text>
<polyline fill="none" stroke="black" points="62.1612,-1179.48 193.161,-1179.48 "/>
<polyline fill="none" stroke="black" points="62.1612,-1155.48 193.161,-1155.48 "/>
<text text-anchor="start" x="70.1612" y="-1140.28" font-family="Times,serif" font-size="14.00">_layout</text>
</g>
<!-- ProgramsController -->
<g id="node8" class="node"><title>ProgramsController</title>
<path fill="none" stroke="black" d="M102.761,-336.535C102.761,-336.535 203.761,-336.535 203.761,-336.535 209.761,-336.535 215.761,-342.535 215.761,-348.535 215.761,-348.535 215.761,-567.535 215.761,-567.535 215.761,-573.535 209.761,-579.535 203.761,-579.535 203.761,-579.535 102.761,-579.535 102.761,-579.535 96.7614,-579.535 90.7614,-573.535 90.7614,-567.535 90.7614,-567.535 90.7614,-348.535 90.7614,-348.535 90.7614,-342.535 96.7614,-336.535 102.761,-336.535"/>
<text text-anchor="middle" x="153.261" y="-564.335" font-family="Times,serif" font-size="14.00">ProgramsController</text>
<polyline fill="none" stroke="black" points="90.7614,-556.535 215.761,-556.535 "/>
<text text-anchor="start" x="98.7614" y="-541.335" font-family="Times,serif" font-size="14.00">category</text>
<text text-anchor="start" x="98.7614" y="-526.335" font-family="Times,serif" font-size="14.00">category=</text>
<text text-anchor="start" x="98.7614" y="-511.335" font-family="Times,serif" font-size="14.00">create</text>
<text text-anchor="start" x="98.7614" y="-496.335" font-family="Times,serif" font-size="14.00">edit</text>
<text text-anchor="start" x="98.7614" y="-481.335" font-family="Times,serif" font-size="14.00">index</text>
<text text-anchor="start" x="98.7614" y="-466.335" font-family="Times,serif" font-size="14.00">new</text>
<text text-anchor="start" x="98.7614" y="-451.335" font-family="Times,serif" font-size="14.00">program</text>
<text text-anchor="start" x="98.7614" y="-436.335" font-family="Times,serif" font-size="14.00">program=</text>
<text text-anchor="start" x="98.7614" y="-421.335" font-family="Times,serif" font-size="14.00">show</text>
<text text-anchor="start" x="98.7614" y="-406.335" font-family="Times,serif" font-size="14.00">update</text>
<polyline fill="none" stroke="black" points="90.7614,-398.535 215.761,-398.535 "/>
<polyline fill="none" stroke="black" points="90.7614,-374.535 215.761,-374.535 "/>
<text text-anchor="start" x="98.7614" y="-359.335" font-family="Times,serif" font-size="14.00">_layout</text>
<text text-anchor="start" x="98.7614" y="-344.335" font-family="Times,serif" font-size="14.00">program_params</text>
</g>
<!-- BikesController -->
<g id="node9" class="node"><title>BikesController</title>
<path fill="none" stroke="black" d="M637.532,-232.346C637.532,-232.346 758.532,-232.346 758.532,-232.346 764.532,-232.346 770.532,-238.346 770.532,-244.346 770.532,-244.346 770.532,-673.346 770.532,-673.346 770.532,-679.346 764.532,-685.346 758.532,-685.346 758.532,-685.346 637.532,-685.346 637.532,-685.346 631.532,-685.346 625.532,-679.346 625.532,-673.346 625.532,-673.346 625.532,-244.346 625.532,-244.346 625.532,-238.346 631.532,-232.346 637.532,-232.346"/>
<text text-anchor="middle" x="698.032" y="-670.146" font-family="Times,serif" font-size="14.00">BikesController</text>
<polyline fill="none" stroke="black" points="625.532,-662.346 770.532,-662.346 "/>
<text text-anchor="start" x="633.532" y="-647.146" font-family="Times,serif" font-size="14.00">bike</text>
<text text-anchor="start" x="633.532" y="-632.146" font-family="Times,serif" font-size="14.00">bike=</text>
<text text-anchor="start" x="633.532" y="-617.146" font-family="Times,serif" font-size="14.00">bike_form</text>
<text text-anchor="start" x="633.532" y="-602.146" font-family="Times,serif" font-size="14.00">bike_form=</text>
<text text-anchor="start" x="633.532" y="-587.146" font-family="Times,serif" font-size="14.00">bikes</text>
<text text-anchor="start" x="633.532" y="-572.146" font-family="Times,serif" font-size="14.00">bikes=</text>
<text text-anchor="start" x="633.532" y="-557.146" font-family="Times,serif" font-size="14.00">commentable</text>
<text text-anchor="start" x="633.532" y="-542.146" font-family="Times,serif" font-size="14.00">commentable=</text>
<text text-anchor="start" x="633.532" y="-527.146" font-family="Times,serif" font-size="14.00">create</text>
<text text-anchor="start" x="633.532" y="-512.146" font-family="Times,serif" font-size="14.00">destroy</text>
<text text-anchor="start" x="633.532" y="-497.146" font-family="Times,serif" font-size="14.00">edit</text>
<text text-anchor="start" x="633.532" y="-482.146" font-family="Times,serif" font-size="14.00">hook</text>
<text text-anchor="start" x="633.532" y="-467.146" font-family="Times,serif" font-size="14.00">hook=</text>
<text text-anchor="start" x="633.532" y="-452.146" font-family="Times,serif" font-size="14.00">hook_reservation</text>
<text text-anchor="start" x="633.532" y="-437.146" font-family="Times,serif" font-size="14.00">hook_reservation=</text>
<text text-anchor="start" x="633.532" y="-422.146" font-family="Times,serif" font-size="14.00">index</text>
<text text-anchor="start" x="633.532" y="-407.146" font-family="Times,serif" font-size="14.00">new</text>
<text text-anchor="start" x="633.532" y="-392.146" font-family="Times,serif" font-size="14.00">qr</text>
<text text-anchor="start" x="633.532" y="-377.146" font-family="Times,serif" font-size="14.00">show</text>
<text text-anchor="start" x="633.532" y="-362.146" font-family="Times,serif" font-size="14.00">title_data</text>
<text text-anchor="start" x="633.532" y="-347.146" font-family="Times,serif" font-size="14.00">title_data=</text>
<text text-anchor="start" x="633.532" y="-332.146" font-family="Times,serif" font-size="14.00">update</text>
<polyline fill="none" stroke="black" points="625.532,-324.346 770.532,-324.346 "/>
<polyline fill="none" stroke="black" points="625.532,-300.346 770.532,-300.346 "/>
<text text-anchor="start" x="633.532" y="-285.146" font-family="Times,serif" font-size="14.00">_layout</text>
<text text-anchor="start" x="633.532" y="-270.146" font-family="Times,serif" font-size="14.00">bike_form_params</text>
<text text-anchor="start" x="633.532" y="-255.146" font-family="Times,serif" font-size="14.00">bike_post_created_path</text>
<text text-anchor="start" x="633.532" y="-240.146" font-family="Times,serif" font-size="14.00">bikes_status_report</text>
</g>
<!-- HooksController -->
<g id="node10" class="node"><title>HooksController</title>
<path fill="none" stroke="black" d="M142.38,-37.5838C142.38,-37.5838 225.38,-37.5838 225.38,-37.5838 231.38,-37.5838 237.38,-43.5838 237.38,-49.5838 237.38,-49.5838 237.38,-163.584 237.38,-163.584 237.38,-169.584 231.38,-175.584 225.38,-175.584 225.38,-175.584 142.38,-175.584 142.38,-175.584 136.38,-175.584 130.38,-169.584 130.38,-163.584 130.38,-163.584 130.38,-49.5838 130.38,-49.5838 130.38,-43.5838 136.38,-37.5838 142.38,-37.5838"/>
<text text-anchor="middle" x="183.88" y="-160.384" font-family="Times,serif" font-size="14.00">HooksController</text>
<polyline fill="none" stroke="black" points="130.38,-152.584 237.38,-152.584 "/>
<text text-anchor="start" x="138.38" y="-137.384" font-family="Times,serif" font-size="14.00">hook</text>
<text text-anchor="start" x="138.38" y="-122.384" font-family="Times,serif" font-size="14.00">hook=</text>
<text text-anchor="start" x="138.38" y="-107.384" font-family="Times,serif" font-size="14.00">index</text>
<text text-anchor="start" x="138.38" y="-92.3838" font-family="Times,serif" font-size="14.00">show</text>
<polyline fill="none" stroke="black" points="130.38,-84.5838 237.38,-84.5838 "/>
<polyline fill="none" stroke="black" points="130.38,-60.5838 237.38,-60.5838 "/>
<text text-anchor="start" x="138.38" y="-45.3838" font-family="Times,serif" font-size="14.00">_layout</text>
</g>
<!-- ApplicationController -->
<g id="node11" class="node"><title>ApplicationController</title>
<path fill="none" stroke="black" d="M369.365,-425.089C369.365,-425.089 481.365,-425.089 481.365,-425.089 487.365,-425.089 493.365,-431.089 493.365,-437.089 493.365,-437.089 493.365,-926.089 493.365,-926.089 493.365,-932.089 487.365,-938.089 481.365,-938.089 481.365,-938.089 369.365,-938.089 369.365,-938.089 363.365,-938.089 357.365,-932.089 357.365,-926.089 357.365,-926.089 357.365,-437.089 357.365,-437.089 357.365,-431.089 363.365,-425.089 369.365,-425.089"/>
<text text-anchor="middle" x="425.365" y="-922.889" font-family="Times,serif" font-size="14.00">ApplicationController</text>
<polyline fill="none" stroke="black" points="357.365,-915.089 493.365,-915.089 "/>
<text text-anchor="start" x="365.365" y="-899.889" font-family="Times,serif" font-size="14.00">_callback_after_16</text>
<text text-anchor="start" x="365.365" y="-884.889" font-family="Times,serif" font-size="14.00">bike</text>
<text text-anchor="start" x="365.365" y="-869.889" font-family="Times,serif" font-size="14.00">bike=</text>
<text text-anchor="start" x="365.365" y="-854.889" font-family="Times,serif" font-size="14.00">bikes</text>
<text text-anchor="start" x="365.365" y="-839.889" font-family="Times,serif" font-size="14.00">bikes=</text>
<text text-anchor="start" x="365.365" y="-824.889" font-family="Times,serif" font-size="14.00">comment</text>
<text text-anchor="start" x="365.365" y="-809.889" font-family="Times,serif" font-size="14.00">comment=</text>
<text text-anchor="start" x="365.365" y="-794.889" font-family="Times,serif" font-size="14.00">comment_body</text>
<text text-anchor="start" x="365.365" y="-779.889" font-family="Times,serif" font-size="14.00">comment_body=</text>
<text text-anchor="start" x="365.365" y="-764.889" font-family="Times,serif" font-size="14.00">fetch_failed?</text>
<text text-anchor="start" x="365.365" y="-749.889" font-family="Times,serif" font-size="14.00">hound_user</text>
<text text-anchor="start" x="365.365" y="-734.889" font-family="Times,serif" font-size="14.00">new_comment</text>
<text text-anchor="start" x="365.365" y="-719.889" font-family="Times,serif" font-size="14.00">program</text>
<text text-anchor="start" x="365.365" y="-704.889" font-family="Times,serif" font-size="14.00">program=</text>
<text text-anchor="start" x="365.365" y="-689.889" font-family="Times,serif" font-size="14.00">programs</text>
<text text-anchor="start" x="365.365" y="-674.889" font-family="Times,serif" font-size="14.00">programs=</text>
<text text-anchor="start" x="365.365" y="-659.889" font-family="Times,serif" font-size="14.00">project</text>
<text text-anchor="start" x="365.365" y="-644.889" font-family="Times,serif" font-size="14.00">project=</text>
<text text-anchor="start" x="365.365" y="-629.889" font-family="Times,serif" font-size="14.00">project_categories</text>
<text text-anchor="start" x="365.365" y="-614.889" font-family="Times,serif" font-size="14.00">project_categories=</text>
<text text-anchor="start" x="365.365" y="-599.889" font-family="Times,serif" font-size="14.00">project_category</text>
<text text-anchor="start" x="365.365" y="-584.889" font-family="Times,serif" font-size="14.00">project_category=</text>
<text text-anchor="start" x="365.365" y="-569.889" font-family="Times,serif" font-size="14.00">projects</text>
<text text-anchor="start" x="365.365" y="-554.889" font-family="Times,serif" font-size="14.00">projects=</text>
<text text-anchor="start" x="365.365" y="-539.889" font-family="Times,serif" font-size="14.00">record_found?</text>
<text text-anchor="start" x="365.365" y="-524.889" font-family="Times,serif" font-size="14.00">search_term</text>
<text text-anchor="start" x="365.365" y="-509.889" font-family="Times,serif" font-size="14.00">search_term=</text>
<text text-anchor="start" x="365.365" y="-494.889" font-family="Times,serif" font-size="14.00">verify_signatory</text>
<polyline fill="none" stroke="black" points="357.365,-487.089 493.365,-487.089 "/>
<polyline fill="none" stroke="black" points="357.365,-463.089 493.365,-463.089 "/>
<text text-anchor="start" x="365.365" y="-447.889" font-family="Times,serif" font-size="14.00">_layout</text>
<text text-anchor="start" x="365.365" y="-432.889" font-family="Times,serif" font-size="14.00">set_timezone</text>
</g>
<!-- ApplicationController&#45;&gt;Api::V1::BikeMfgQueriesController -->
<g id="edge1" class="edge"><title>ApplicationController&#45;&gt;Api::V1::BikeMfgQueriesController</title>
<path fill="none" stroke="black" d="M357.175,-709.039C315.857,-725.673 262.233,-747.259 215.278,-766.162"/>
</g>
<!-- ApplicationController&#45;&gt;SearchesController -->
<g id="edge2" class="edge"><title>ApplicationController&#45;&gt;SearchesController</title>
<path fill="none" stroke="black" d="M493.551,-709.2C549.916,-732.024 629.181,-764.122 683.176,-785.986"/>
</g>
<!-- ApplicationController&#45;&gt;HookReservationsController -->
<g id="edge3" class="edge"><title>ApplicationController&#45;&gt;HookReservationsController</title>
<path fill="none" stroke="black" d="M493.518,-519.622C534.717,-421.712 586.08,-299.648 622.218,-213.768"/>
</g>
<!-- ApplicationController&#45;&gt;AssignmentsController -->
<g id="edge4" class="edge"><title>ApplicationController&#45;&gt;AssignmentsController</title>
<path fill="none" stroke="black" d="M425.322,-938.142C425.317,-969.332 425.312,-999.073 425.308,-1024.42"/>
</g>
<!-- ApplicationController&#45;&gt;MobileController -->
<g id="edge5" class="edge"><title>ApplicationController&#45;&gt;MobileController</title>
<path fill="none" stroke="black" d="M493.474,-804.028C545.993,-898.44 617.74,-1027.42 666.972,-1115.92"/>
</g>
<!-- ApplicationController&#45;&gt;DeparturesController -->
<g id="edge6" class="edge"><title>ApplicationController&#45;&gt;DeparturesController</title>
<path fill="none" stroke="black" d="M357.252,-803.968C301.384,-904.348 223.758,-1043.82 174.619,-1132.11"/>
</g>
<!-- ApplicationController&#45;&gt;ProgramsController -->
<g id="edge7" class="edge"><title>ApplicationController&#45;&gt;ProgramsController</title>
<path fill="none" stroke="black" d="M357.053,-625.465C313.76,-589.897 258.183,-544.236 216.006,-509.584"/>
</g>
<!-- ApplicationController&#45;&gt;BikesController -->
<g id="edge8" class="edge"><title>ApplicationController&#45;&gt;BikesController</title>
<path fill="none" stroke="black" d="M493.467,-625.956C533.532,-593.226 584.191,-551.843 625.071,-518.447"/>
</g>
<!-- ApplicationController&#45;&gt;HooksController -->
<g id="edge9" class="edge"><title>ApplicationController&#45;&gt;HooksController</title>
<path fill="none" stroke="black" d="M357.294,-519.504C309.659,-406.08 248.42,-260.262 212.916,-175.724"/>
</g>
</g>
</svg>
