<?xml version="1.0" encoding="UTF-8" standalone="no"?>
<!DOCTYPE svg PUBLIC "-//W3C//DTD SVG 1.1//EN"
 "http://www.w3.org/Graphics/SVG/1.1/DTD/svg11.dtd">
<!-- Generated by graphviz version 2.26.3 (20100126.1600)
 -->
<!-- Title: controllers_diagram Pages: 1 -->
<svg width="892pt" height="850pt"
 viewBox="0.00 0.00 892.00 850.00" xmlns="http://www.w3.org/2000/svg" xmlns:xlink="http://www.w3.org/1999/xlink">
<g id="graph1" class="graph" transform="scale(1 1) rotate(0) translate(4 846)">
<title>controllers_diagram</title>
<polygon fill="white" stroke="white" points="-4,5 -4,-846 889,-846 889,5 -4,5"/>
<!-- _diagram_info -->
<g id="node1" class="node"><title>_diagram_info</title>
<text text-anchor="start" x="484" y="-78.3" font-family="Times Roman,serif" font-size="13.00">Controllers diagram</text>
<text text-anchor="start" x="484" y="-61.3" font-family="Times Roman,serif" font-size="13.00">Date: May 31 2012 &#45; 00:48</text>
<text text-anchor="start" x="484" y="-44.3" font-family="Times Roman,serif" font-size="13.00">Migration version: 20120506063455</text>
<text text-anchor="start" x="484" y="-27.3" font-family="Times Roman,serif" font-size="13.00">Generated by RailRoady 1.0.7</text>
<text text-anchor="start" x="484" y="-10.3" font-family="Times Roman,serif" font-size="13.00">http://railroady.prestonlee.com</text>
</g>
<!-- SurveyorController -->
<g id="node2" class="node"><title>SurveyorController</title>
<polyline fill="none" stroke="black" points="38,-601.5 252,-601.5 "/>
<path fill="none" stroke="black" d="M252,-601.5C258,-601.5 264,-607.5 264,-613.5"/>
<polyline fill="none" stroke="black" points="264,-613.5 264,-727.5 "/>
<path fill="none" stroke="black" d="M264,-727.5C264,-733.5 258,-739.5 252,-739.5"/>
<polyline fill="none" stroke="black" points="252,-739.5 38,-739.5 "/>
<path fill="none" stroke="black" d="M38,-739.5C32,-739.5 26,-733.5 26,-727.5"/>
<polyline fill="none" stroke="black" points="26,-727.5 26,-613.5 "/>
<path fill="none" stroke="black" d="M26,-613.5C26,-607.5 32,-601.5 38,-601.5"/>
<text text-anchor="middle" x="145" y="-722.9" font-family="Times Roman,serif" font-size="14.00">SurveyorController</text>
<polyline fill="none" stroke="black" points="26,-713.5 264,-713.5 "/>
<text text-anchor="start" x="34" y="-696.9" font-family="Times Roman,serif" font-size="14.00">_one_time_conditions_valid_72?</text>
<text text-anchor="start" x="34" y="-678.9" font-family="Times Roman,serif" font-size="14.00">_one_time_conditions_valid_76?</text>
<text text-anchor="start" x="34" y="-660.9" font-family="Times Roman,serif" font-size="14.00">_one_time_conditions_valid_80?</text>
<polyline fill="none" stroke="black" points="26,-651.5 264,-651.5 "/>
<polyline fill="none" stroke="black" points="26,-627.5 264,-627.5 "/>
<text text-anchor="start" x="34" y="-610.9" font-family="Times Roman,serif" font-size="14.00">_layout</text>
</g>
<!-- ProjectsController -->
<g id="node3" class="node"><title>ProjectsController</title>
<polyline fill="none" stroke="black" points="513,-526.5 629,-526.5 "/>
<path fill="none" stroke="black" d="M629,-526.5C635,-526.5 641,-532.5 641,-538.5"/>
<polyline fill="none" stroke="black" points="641,-538.5 641,-814.5 "/>
<path fill="none" stroke="black" d="M641,-814.5C641,-820.5 635,-826.5 629,-826.5"/>
<polyline fill="none" stroke="black" points="629,-826.5 513,-826.5 "/>
<path fill="none" stroke="black" d="M513,-826.5C507,-826.5 501,-820.5 501,-814.5"/>
<polyline fill="none" stroke="black" points="501,-814.5 501,-538.5 "/>
<path fill="none" stroke="black" d="M501,-538.5C501,-532.5 507,-526.5 513,-526.5"/>
<text text-anchor="middle" x="571" y="-809.9" font-family="Times Roman,serif" font-size="14.00">ProjectsController</text>
<polyline fill="none" stroke="black" points="501,-800.5 641,-800.5 "/>
<text text-anchor="start" x="509" y="-783.9" font-family="Times Roman,serif" font-size="14.00">bike</text>
<text text-anchor="start" x="509" y="-765.9" font-family="Times Roman,serif" font-size="14.00">category</text>
<text text-anchor="start" x="509" y="-747.9" font-family="Times Roman,serif" font-size="14.00">commentable</text>
<text text-anchor="start" x="509" y="-729.9" font-family="Times Roman,serif" font-size="14.00">create</text>
<text text-anchor="start" x="509" y="-711.9" font-family="Times Roman,serif" font-size="14.00">destroy</text>
<text text-anchor="start" x="509" y="-693.9" font-family="Times Roman,serif" font-size="14.00">index</text>
<text text-anchor="start" x="509" y="-675.9" font-family="Times Roman,serif" font-size="14.00">new</text>
<text text-anchor="start" x="509" y="-657.9" font-family="Times Roman,serif" font-size="14.00">project</text>
<text text-anchor="start" x="509" y="-639.9" font-family="Times Roman,serif" font-size="14.00">show</text>
<text text-anchor="start" x="509" y="-621.9" font-family="Times Roman,serif" font-size="14.00">transition</text>
<text text-anchor="start" x="509" y="-603.9" font-family="Times Roman,serif" font-size="14.00">update</text>
<polyline fill="none" stroke="black" points="501,-594.5 641,-594.5 "/>
<polyline fill="none" stroke="black" points="501,-570.5 641,-570.5 "/>
<text text-anchor="start" x="509" y="-553.9" font-family="Times Roman,serif" font-size="14.00">_layout</text>
<text text-anchor="start" x="509" y="-535.9" font-family="Times Roman,serif" font-size="14.00">project_params</text>
</g>
<!-- ApplicationController -->
<g id="node4" class="node"><title>ApplicationController</title>
<polyline fill="none" stroke="black" points="488,-151.5 702,-151.5 "/>
<path fill="none" stroke="black" d="M702,-151.5C708,-151.5 714,-157.5 714,-163.5"/>
<polyline fill="none" stroke="black" points="714,-163.5 714,-475.5 "/>
<path fill="none" stroke="black" d="M714,-475.5C714,-481.5 708,-487.5 702,-487.5"/>
<polyline fill="none" stroke="black" points="702,-487.5 488,-487.5 "/>
<path fill="none" stroke="black" d="M488,-487.5C482,-487.5 476,-481.5 476,-475.5"/>
<polyline fill="none" stroke="black" points="476,-475.5 476,-163.5 "/>
<path fill="none" stroke="black" d="M476,-163.5C476,-157.5 482,-151.5 488,-151.5"/>
<text text-anchor="middle" x="595" y="-470.9" font-family="Times Roman,serif" font-size="14.00">ApplicationController</text>
<polyline fill="none" stroke="black" points="476,-461.5 714,-461.5 "/>
<text text-anchor="start" x="484" y="-444.9" font-family="Times Roman,serif" font-size="14.00">_one_time_conditions_valid_70?</text>
<text text-anchor="start" x="484" y="-426.9" font-family="Times Roman,serif" font-size="14.00">bike</text>
<text text-anchor="start" x="484" y="-408.9" font-family="Times Roman,serif" font-size="14.00">bike_found?</text>
<text text-anchor="start" x="484" y="-390.9" font-family="Times Roman,serif" font-size="14.00">bikes</text>
<text text-anchor="start" x="484" y="-372.9" font-family="Times Roman,serif" font-size="14.00">comment</text>
<text text-anchor="start" x="484" y="-354.9" font-family="Times Roman,serif" font-size="14.00">comment_body</text>
<text text-anchor="start" x="484" y="-336.9" font-family="Times Roman,serif" font-size="14.00">new_comment</text>
<text text-anchor="start" x="484" y="-318.9" font-family="Times Roman,serif" font-size="14.00">program</text>
<text text-anchor="start" x="484" y="-300.9" font-family="Times Roman,serif" font-size="14.00">programs</text>
<text text-anchor="start" x="484" y="-282.9" font-family="Times Roman,serif" font-size="14.00">project</text>
<text text-anchor="start" x="484" y="-264.9" font-family="Times Roman,serif" font-size="14.00">project_categories</text>
<text text-anchor="start" x="484" y="-246.9" font-family="Times Roman,serif" font-size="14.00">project_category</text>
<text text-anchor="start" x="484" y="-228.9" font-family="Times Roman,serif" font-size="14.00">project_found?</text>
<text text-anchor="start" x="484" y="-210.9" font-family="Times Roman,serif" font-size="14.00">projects</text>
<polyline fill="none" stroke="black" points="476,-201.5 714,-201.5 "/>
<polyline fill="none" stroke="black" points="476,-177.5 714,-177.5 "/>
<text text-anchor="start" x="484" y="-160.9" font-family="Times Roman,serif" font-size="14.00">_layout</text>
</g>
<!-- BikesController -->
<g id="node5" class="node"><title>BikesController</title>
<polyline fill="none" stroke="black" points="188,-126.5 411,-126.5 "/>
<path fill="none" stroke="black" d="M411,-126.5C417,-126.5 423,-132.5 423,-138.5"/>
<polyline fill="none" stroke="black" points="423,-138.5 423,-504.5 "/>
<path fill="none" stroke="black" d="M423,-504.5C423,-510.5 417,-516.5 411,-516.5"/>
<polyline fill="none" stroke="black" points="411,-516.5 188,-516.5 "/>
<path fill="none" stroke="black" d="M188,-516.5C182,-516.5 176,-510.5 176,-504.5"/>
<polyline fill="none" stroke="black" points="176,-504.5 176,-138.5 "/>
<path fill="none" stroke="black" d="M176,-138.5C176,-132.5 182,-126.5 188,-126.5"/>
<text text-anchor="middle" x="299.5" y="-499.9" font-family="Times Roman,serif" font-size="14.00">BikesController</text>
<polyline fill="none" stroke="black" points="176,-490.5 423,-490.5 "/>
<text text-anchor="start" x="184" y="-473.9" font-family="Times Roman,serif" font-size="14.00">_one_time_conditions_valid_193?</text>
<text text-anchor="start" x="184" y="-455.9" font-family="Times Roman,serif" font-size="14.00">bike</text>
<text text-anchor="start" x="184" y="-437.9" font-family="Times Roman,serif" font-size="14.00">bikes</text>
<text text-anchor="start" x="184" y="-419.9" font-family="Times Roman,serif" font-size="14.00">commentable</text>
<text text-anchor="start" x="184" y="-401.9" font-family="Times Roman,serif" font-size="14.00">create</text>
<text text-anchor="start" x="184" y="-383.9" font-family="Times Roman,serif" font-size="14.00">depart</text>
<text text-anchor="start" x="184" y="-365.9" font-family="Times Roman,serif" font-size="14.00">edit</text>
<text text-anchor="start" x="184" y="-347.9" font-family="Times Roman,serif" font-size="14.00">hook</text>
<text text-anchor="start" x="184" y="-329.9" font-family="Times Roman,serif" font-size="14.00">index</text>
<text text-anchor="start" x="184" y="-311.9" font-family="Times Roman,serif" font-size="14.00">new</text>
<text text-anchor="start" x="184" y="-293.9" font-family="Times Roman,serif" font-size="14.00">reserve_hook</text>
<text text-anchor="start" x="184" y="-275.9" font-family="Times Roman,serif" font-size="14.00">send_away</text>
<text text-anchor="start" x="184" y="-257.9" font-family="Times Roman,serif" font-size="14.00">show</text>
<text text-anchor="start" x="184" y="-239.9" font-family="Times Roman,serif" font-size="14.00">update</text>
<text text-anchor="start" x="184" y="-221.9" font-family="Times Roman,serif" font-size="14.00">vacate_hook</text>
<polyline fill="none" stroke="black" points="176,-212.5 423,-212.5 "/>
<polyline fill="none" stroke="black" points="176,-188.5 423,-188.5 "/>
<text text-anchor="start" x="184" y="-171.9" font-family="Times Roman,serif" font-size="14.00">_layout</text>
<text text-anchor="start" x="184" y="-153.9" font-family="Times Roman,serif" font-size="14.00">bike_params</text>
<text text-anchor="start" x="184" y="-135.9" font-family="Times Roman,serif" font-size="14.00">verify_bike</text>
</g>
<!-- HooksController -->
<g id="node6" class="node"><title>HooksController</title>
<polyline fill="none" stroke="black" points="13,-451.5 117,-451.5 "/>
<path fill="none" stroke="black" d="M117,-451.5C123,-451.5 129,-457.5 129,-463.5"/>
<polyline fill="none" stroke="black" points="129,-463.5 129,-541.5 "/>
<path fill="none" stroke="black" d="M129,-541.5C129,-547.5 123,-553.5 117,-553.5"/>
<polyline fill="none" stroke="black" points="117,-553.5 13,-553.5 "/>
<path fill="none" stroke="black" d="M13,-553.5C7,-553.5 1,-547.5 1,-541.5"/>
<polyline fill="none" stroke="black" points="1,-541.5 1,-463.5 "/>
<path fill="none" stroke="black" d="M1,-463.5C1,-457.5 7,-451.5 13,-451.5"/>
<text text-anchor="middle" x="65" y="-536.9" font-family="Times Roman,serif" font-size="14.00">HooksController</text>
<polyline fill="none" stroke="black" points="1,-527.5 129,-527.5 "/>
<text text-anchor="start" x="9" y="-510.9" font-family="Times Roman,serif" font-size="14.00">show</text>
<polyline fill="none" stroke="black" points="1,-501.5 129,-501.5 "/>
<polyline fill="none" stroke="black" points="1,-477.5 129,-477.5 "/>
<text text-anchor="start" x="9" y="-460.9" font-family="Times Roman,serif" font-size="14.00">_layout</text>
</g>
<!-- ProjectCategoriesController -->
<g id="node7" class="node"><title>ProjectCategoriesController</title>
<polyline fill="none" stroke="black" points="688,-526.5 871,-526.5 "/>
<path fill="none" stroke="black" d="M871,-526.5C877,-526.5 883,-532.5 883,-538.5"/>
<polyline fill="none" stroke="black" points="883,-538.5 883,-652.5 "/>
<path fill="none" stroke="black" d="M883,-652.5C883,-658.5 877,-664.5 871,-664.5"/>
<polyline fill="none" stroke="black" points="871,-664.5 688,-664.5 "/>
<path fill="none" stroke="black" d="M688,-664.5C682,-664.5 676,-658.5 676,-652.5"/>
<polyline fill="none" stroke="black" points="676,-652.5 676,-538.5 "/>
<path fill="none" stroke="black" d="M676,-538.5C676,-532.5 682,-526.5 688,-526.5"/>
<text text-anchor="middle" x="779.5" y="-647.9" font-family="Times Roman,serif" font-size="14.00">ProjectCategoriesController</text>
<polyline fill="none" stroke="black" points="676,-638.5 883,-638.5 "/>
<text text-anchor="start" x="684" y="-621.9" font-family="Times Roman,serif" font-size="14.00">category</text>
<text text-anchor="start" x="684" y="-603.9" font-family="Times Roman,serif" font-size="14.00">projects</text>
<text text-anchor="start" x="684" y="-585.9" font-family="Times Roman,serif" font-size="14.00">show</text>
<polyline fill="none" stroke="black" points="676,-576.5 883,-576.5 "/>
<polyline fill="none" stroke="black" points="676,-552.5 883,-552.5 "/>
<text text-anchor="start" x="684" y="-535.9" font-family="Times Roman,serif" font-size="14.00">_layout</text>
</g>
<!-- ProgramsController -->
<g id="node8" class="node"><title>ProgramsController</title>
<polyline fill="none" stroke="black" points="313,-576.5 440,-576.5 "/>
<path fill="none" stroke="black" d="M440,-576.5C446,-576.5 452,-582.5 452,-588.5"/>
<polyline fill="none" stroke="black" points="452,-588.5 452,-828.5 "/>
<path fill="none" stroke="black" d="M452,-828.5C452,-834.5 446,-840.5 440,-840.5"/>
<polyline fill="none" stroke="black" points="440,-840.5 313,-840.5 "/>
<path fill="none" stroke="black" d="M313,-840.5C307,-840.5 301,-834.5 301,-828.5"/>
<polyline fill="none" stroke="black" points="301,-828.5 301,-588.5 "/>
<path fill="none" stroke="black" d="M301,-588.5C301,-582.5 307,-576.5 313,-576.5"/>
<text text-anchor="middle" x="376.5" y="-823.9" font-family="Times Roman,serif" font-size="14.00">ProgramsController</text>
<polyline fill="none" stroke="black" points="301,-814.5 452,-814.5 "/>
<text text-anchor="start" x="309" y="-797.9" font-family="Times Roman,serif" font-size="14.00">category</text>
<text text-anchor="start" x="309" y="-779.9" font-family="Times Roman,serif" font-size="14.00">create</text>
<text text-anchor="start" x="309" y="-761.9" font-family="Times Roman,serif" font-size="14.00">edit</text>
<text text-anchor="start" x="309" y="-743.9" font-family="Times Roman,serif" font-size="14.00">index</text>
<text text-anchor="start" x="309" y="-725.9" font-family="Times Roman,serif" font-size="14.00">new</text>
<text text-anchor="start" x="309" y="-707.9" font-family="Times Roman,serif" font-size="14.00">program</text>
<text text-anchor="start" x="309" y="-689.9" font-family="Times Roman,serif" font-size="14.00">projects</text>
<text text-anchor="start" x="309" y="-671.9" font-family="Times Roman,serif" font-size="14.00">show</text>
<text text-anchor="start" x="309" y="-653.9" font-family="Times Roman,serif" font-size="14.00">update</text>
<polyline fill="none" stroke="black" points="301,-644.5 452,-644.5 "/>
<polyline fill="none" stroke="black" points="301,-620.5 452,-620.5 "/>
<text text-anchor="start" x="309" y="-603.9" font-family="Times Roman,serif" font-size="14.00">_layout</text>
<text text-anchor="start" x="309" y="-585.9" font-family="Times Roman,serif" font-size="14.00">program_params</text>
</g>
</g>
</svg>
