<?xml version="1.0" encoding="UTF-8" standalone="no"?>
<!DOCTYPE svg PUBLIC "-//W3C//DTD SVG 1.1//EN"
 "http://www.w3.org/Graphics/SVG/1.1/DTD/svg11.dtd">
<!-- Generated by graphviz version 2.26.3 (20100126.1600)
 -->
<!-- Title: controllers_diagram Pages: 1 -->
<svg width="546pt" height="397pt"
 viewBox="0.00 0.00 546.00 397.00" xmlns="http://www.w3.org/2000/svg" xmlns:xlink="http://www.w3.org/1999/xlink">
<g id="graph1" class="graph" transform="scale(1 1) rotate(0) translate(4 393)">
<title>controllers_diagram</title>
<polygon fill="white" stroke="white" points="-4,5 -4,-393 543,-393 543,5 -4,5"/>
<!-- _diagram_info -->
<g id="node1" class="node"><title>_diagram_info</title>
<text text-anchor="start" x="295" y="-78.3" font-family="Times Roman,serif" font-size="13.00">Controllers diagram</text>
<text text-anchor="start" x="295" y="-61.3" font-family="Times Roman,serif" font-size="13.00">Date: Mar 16 2012 &#45; 04:31</text>
<text text-anchor="start" x="295" y="-44.3" font-family="Times Roman,serif" font-size="13.00">Migration version: 20120316082735</text>
<text text-anchor="start" x="295" y="-27.3" font-family="Times Roman,serif" font-size="13.00">Generated by RailRoady 1.0.4</text>
<text text-anchor="start" x="295" y="-10.3" font-family="Times Roman,serif" font-size="13.00">http://railroady.prestonlee.com</text>
</g>
<!-- ApplicationController -->
<g id="node2" class="node"><title>ApplicationController</title>
<polyline fill="none" stroke="black" points="299,-133.5 513,-133.5 "/>
<path fill="none" stroke="black" d="M513,-133.5C519,-133.5 525,-139.5 525,-145.5"/>
<polyline fill="none" stroke="black" points="525,-145.5 525,-241.5 "/>
<path fill="none" stroke="black" d="M525,-241.5C525,-247.5 519,-253.5 513,-253.5"/>
<polyline fill="none" stroke="black" points="513,-253.5 299,-253.5 "/>
<path fill="none" stroke="black" d="M299,-253.5C293,-253.5 287,-247.5 287,-241.5"/>
<polyline fill="none" stroke="black" points="287,-241.5 287,-145.5 "/>
<path fill="none" stroke="black" d="M287,-145.5C287,-139.5 293,-133.5 299,-133.5"/>
<text text-anchor="middle" x="406" y="-236.9" font-family="Times Roman,serif" font-size="14.00">ApplicationController</text>
<polyline fill="none" stroke="black" points="287,-227.5 525,-227.5 "/>
<text text-anchor="start" x="295" y="-210.9" font-family="Times Roman,serif" font-size="14.00">_one_time_conditions_valid_60?</text>
<polyline fill="none" stroke="black" points="287,-201.5 525,-201.5 "/>
<polyline fill="none" stroke="black" points="287,-177.5 525,-177.5 "/>
<text text-anchor="start" x="295" y="-160.9" font-family="Times Roman,serif" font-size="14.00">_layout</text>
<text text-anchor="start" x="295" y="-142.9" font-family="Times Roman,serif" font-size="14.00">_run_process_action_callbacks</text>
</g>
<!-- BikesController -->
<g id="node3" class="node"><title>BikesController</title>
<polyline fill="none" stroke="black" points="13,-1.5 227,-1.5 "/>
<path fill="none" stroke="black" d="M227,-1.5C233,-1.5 239,-7.5 239,-13.5"/>
<polyline fill="none" stroke="black" points="239,-13.5 239,-289.5 "/>
<path fill="none" stroke="black" d="M239,-289.5C239,-295.5 233,-301.5 227,-301.5"/>
<polyline fill="none" stroke="black" points="227,-301.5 13,-301.5 "/>
<path fill="none" stroke="black" d="M13,-301.5C7,-301.5 1,-295.5 1,-289.5"/>
<polyline fill="none" stroke="black" points="1,-289.5 1,-13.5 "/>
<path fill="none" stroke="black" d="M1,-13.5C1,-7.5 7,-1.5 13,-1.5"/>
<text text-anchor="middle" x="120" y="-284.9" font-family="Times Roman,serif" font-size="14.00">BikesController</text>
<polyline fill="none" stroke="black" points="1,-275.5 239,-275.5 "/>
<text text-anchor="start" x="9" y="-258.9" font-family="Times Roman,serif" font-size="14.00">_one_time_conditions_valid_94?</text>
<text text-anchor="start" x="9" y="-240.9" font-family="Times Roman,serif" font-size="14.00">create</text>
<text text-anchor="start" x="9" y="-222.9" font-family="Times Roman,serif" font-size="14.00">edit</text>
<text text-anchor="start" x="9" y="-204.9" font-family="Times Roman,serif" font-size="14.00">index</text>
<text text-anchor="start" x="9" y="-186.9" font-family="Times Roman,serif" font-size="14.00">new</text>
<text text-anchor="start" x="9" y="-168.9" font-family="Times Roman,serif" font-size="14.00">new_comment</text>
<text text-anchor="start" x="9" y="-150.9" font-family="Times Roman,serif" font-size="14.00">reserve_hook</text>
<text text-anchor="start" x="9" y="-132.9" font-family="Times Roman,serif" font-size="14.00">show</text>
<text text-anchor="start" x="9" y="-114.9" font-family="Times Roman,serif" font-size="14.00">update</text>
<text text-anchor="start" x="9" y="-96.9" font-family="Times Roman,serif" font-size="14.00">vacate_hook</text>
<polyline fill="none" stroke="black" points="1,-87.5 239,-87.5 "/>
<polyline fill="none" stroke="black" points="1,-63.5 239,-63.5 "/>
<text text-anchor="start" x="9" y="-46.9" font-family="Times Roman,serif" font-size="14.00">_layout</text>
<text text-anchor="start" x="9" y="-28.9" font-family="Times Roman,serif" font-size="14.00">_run_process_action_callbacks</text>
<text text-anchor="start" x="9" y="-10.9" font-family="Times Roman,serif" font-size="14.00">fetch_bike</text>
</g>
<!-- HooksController -->
<g id="node4" class="node"><title>HooksController</title>
<polyline fill="none" stroke="black" points="299,-287.5 403,-287.5 "/>
<path fill="none" stroke="black" d="M403,-287.5C409,-287.5 415,-293.5 415,-299.5"/>
<polyline fill="none" stroke="black" points="415,-299.5 415,-375.5 "/>
<path fill="none" stroke="black" d="M415,-375.5C415,-381.5 409,-387.5 403,-387.5"/>
<polyline fill="none" stroke="black" points="403,-387.5 299,-387.5 "/>
<path fill="none" stroke="black" d="M299,-387.5C293,-387.5 287,-381.5 287,-375.5"/>
<polyline fill="none" stroke="black" points="287,-375.5 287,-299.5 "/>
<path fill="none" stroke="black" d="M287,-299.5C287,-293.5 293,-287.5 299,-287.5"/>
<text text-anchor="middle" x="351" y="-370.9" font-family="Times Roman,serif" font-size="14.00">HooksController</text>
<polyline fill="none" stroke="black" points="287,-361.5 415,-361.5 "/>
<polyline fill="none" stroke="black" points="287,-337.5 415,-337.5 "/>
<polyline fill="none" stroke="black" points="287,-313.5 415,-313.5 "/>
<text text-anchor="start" x="295" y="-296.9" font-family="Times Roman,serif" font-size="14.00">_layout</text>
</g>
</g>
</svg>
