<?xml version="1.0" encoding="UTF-8" standalone="no"?>
<!DOCTYPE svg PUBLIC "-//W3C//DTD SVG 1.1//EN"
 "http://www.w3.org/Graphics/SVG/1.1/DTD/svg11.dtd">
<!-- Generated by graphviz version 2.26.3 (20100126.1600)
 -->
<!-- Title: controllers_diagram Pages: 1 -->
<svg width="580pt" height="471pt"
 viewBox="0.00 0.00 580.00 471.00" xmlns="http://www.w3.org/2000/svg" xmlns:xlink="http://www.w3.org/1999/xlink">
<g id="graph1" class="graph" transform="scale(1 1) rotate(0) translate(4 467)">
<title>controllers_diagram</title>
<polygon fill="white" stroke="white" points="-4,5 -4,-467 577,-467 577,5 -4,5"/>
<!-- _diagram_info -->
<g id="node1" class="node"><title>_diagram_info</title>
<text text-anchor="start" x="329" y="-98.3" font-family="Times Roman,serif" font-size="13.00">Controllers diagram</text>
<text text-anchor="start" x="329" y="-81.3" font-family="Times Roman,serif" font-size="13.00">Date: Mar 17 2012 &#45; 00:12</text>
<text text-anchor="start" x="329" y="-64.3" font-family="Times Roman,serif" font-size="13.00">Migration version: 20120316082735</text>
<text text-anchor="start" x="329" y="-47.3" font-family="Times Roman,serif" font-size="13.00">Generated by RailRoady 1.0.4</text>
<text text-anchor="start" x="329" y="-30.3" font-family="Times Roman,serif" font-size="13.00">http://railroady.prestonlee.com</text>
</g>
<!-- ProjectsController -->
<g id="node2" class="node"><title>ProjectsController</title>
<polyline fill="none" stroke="black" points="173,-341.5 289,-341.5 "/>
<path fill="none" stroke="black" d="M289,-341.5C295,-341.5 301,-347.5 301,-353.5"/>
<polyline fill="none" stroke="black" points="301,-353.5 301,-449.5 "/>
<path fill="none" stroke="black" d="M301,-449.5C301,-455.5 295,-461.5 289,-461.5"/>
<polyline fill="none" stroke="black" points="289,-461.5 173,-461.5 "/>
<path fill="none" stroke="black" d="M173,-461.5C167,-461.5 161,-455.5 161,-449.5"/>
<polyline fill="none" stroke="black" points="161,-449.5 161,-353.5 "/>
<path fill="none" stroke="black" d="M161,-353.5C161,-347.5 167,-341.5 173,-341.5"/>
<text text-anchor="middle" x="231" y="-444.9" font-family="Times Roman,serif" font-size="14.00">ProjectsController</text>
<polyline fill="none" stroke="black" points="161,-435.5 301,-435.5 "/>
<text text-anchor="start" x="169" y="-418.9" font-family="Times Roman,serif" font-size="14.00">index</text>
<text text-anchor="start" x="169" y="-400.9" font-family="Times Roman,serif" font-size="14.00">show</text>
<polyline fill="none" stroke="black" points="161,-391.5 301,-391.5 "/>
<polyline fill="none" stroke="black" points="161,-367.5 301,-367.5 "/>
<text text-anchor="start" x="169" y="-350.9" font-family="Times Roman,serif" font-size="14.00">_layout</text>
</g>
<!-- ApplicationController -->
<g id="node3" class="node"><title>ApplicationController</title>
<polyline fill="none" stroke="black" points="333,-161.5 547,-161.5 "/>
<path fill="none" stroke="black" d="M547,-161.5C553,-161.5 559,-167.5 559,-173.5"/>
<polyline fill="none" stroke="black" points="559,-173.5 559,-269.5 "/>
<path fill="none" stroke="black" d="M559,-269.5C559,-275.5 553,-281.5 547,-281.5"/>
<polyline fill="none" stroke="black" points="547,-281.5 333,-281.5 "/>
<path fill="none" stroke="black" d="M333,-281.5C327,-281.5 321,-275.5 321,-269.5"/>
<polyline fill="none" stroke="black" points="321,-269.5 321,-173.5 "/>
<path fill="none" stroke="black" d="M321,-173.5C321,-167.5 327,-161.5 333,-161.5"/>
<text text-anchor="middle" x="440" y="-264.9" font-family="Times Roman,serif" font-size="14.00">ApplicationController</text>
<polyline fill="none" stroke="black" points="321,-255.5 559,-255.5 "/>
<text text-anchor="start" x="329" y="-238.9" font-family="Times Roman,serif" font-size="14.00">_one_time_conditions_valid_60?</text>
<polyline fill="none" stroke="black" points="321,-229.5 559,-229.5 "/>
<polyline fill="none" stroke="black" points="321,-205.5 559,-205.5 "/>
<text text-anchor="start" x="329" y="-188.9" font-family="Times Roman,serif" font-size="14.00">_layout</text>
<text text-anchor="start" x="329" y="-170.9" font-family="Times Roman,serif" font-size="14.00">_run_process_action_callbacks</text>
</g>
<!-- BikesController -->
<g id="node4" class="node"><title>BikesController</title>
<polyline fill="none" stroke="black" points="53,-1.5 276,-1.5 "/>
<path fill="none" stroke="black" d="M276,-1.5C282,-1.5 288,-7.5 288,-13.5"/>
<polyline fill="none" stroke="black" points="288,-13.5 288,-289.5 "/>
<path fill="none" stroke="black" d="M288,-289.5C288,-295.5 282,-301.5 276,-301.5"/>
<polyline fill="none" stroke="black" points="276,-301.5 53,-301.5 "/>
<path fill="none" stroke="black" d="M53,-301.5C47,-301.5 41,-295.5 41,-289.5"/>
<polyline fill="none" stroke="black" points="41,-289.5 41,-13.5 "/>
<path fill="none" stroke="black" d="M41,-13.5C41,-7.5 47,-1.5 53,-1.5"/>
<text text-anchor="middle" x="164.5" y="-284.9" font-family="Times Roman,serif" font-size="14.00">BikesController</text>
<polyline fill="none" stroke="black" points="41,-275.5 288,-275.5 "/>
<text text-anchor="start" x="49" y="-258.9" font-family="Times Roman,serif" font-size="14.00">_one_time_conditions_valid_120?</text>
<text text-anchor="start" x="49" y="-240.9" font-family="Times Roman,serif" font-size="14.00">create</text>
<text text-anchor="start" x="49" y="-222.9" font-family="Times Roman,serif" font-size="14.00">edit</text>
<text text-anchor="start" x="49" y="-204.9" font-family="Times Roman,serif" font-size="14.00">index</text>
<text text-anchor="start" x="49" y="-186.9" font-family="Times Roman,serif" font-size="14.00">new</text>
<text text-anchor="start" x="49" y="-168.9" font-family="Times Roman,serif" font-size="14.00">new_comment</text>
<text text-anchor="start" x="49" y="-150.9" font-family="Times Roman,serif" font-size="14.00">reserve_hook</text>
<text text-anchor="start" x="49" y="-132.9" font-family="Times Roman,serif" font-size="14.00">show</text>
<text text-anchor="start" x="49" y="-114.9" font-family="Times Roman,serif" font-size="14.00">update</text>
<text text-anchor="start" x="49" y="-96.9" font-family="Times Roman,serif" font-size="14.00">vacate_hook</text>
<polyline fill="none" stroke="black" points="41,-87.5 288,-87.5 "/>
<polyline fill="none" stroke="black" points="41,-63.5 288,-63.5 "/>
<text text-anchor="start" x="49" y="-46.9" font-family="Times Roman,serif" font-size="14.00">_layout</text>
<text text-anchor="start" x="49" y="-28.9" font-family="Times Roman,serif" font-size="14.00">_run_process_action_callbacks</text>
<text text-anchor="start" x="49" y="-10.9" font-family="Times Roman,serif" font-size="14.00">fetch_bike</text>
</g>
<!-- HooksController -->
<g id="node5" class="node"><title>HooksController</title>
<polyline fill="none" stroke="black" points="13,-341.5 117,-341.5 "/>
<path fill="none" stroke="black" d="M117,-341.5C123,-341.5 129,-347.5 129,-353.5"/>
<polyline fill="none" stroke="black" points="129,-353.5 129,-429.5 "/>
<path fill="none" stroke="black" d="M129,-429.5C129,-435.5 123,-441.5 117,-441.5"/>
<polyline fill="none" stroke="black" points="117,-441.5 13,-441.5 "/>
<path fill="none" stroke="black" d="M13,-441.5C7,-441.5 1,-435.5 1,-429.5"/>
<polyline fill="none" stroke="black" points="1,-429.5 1,-353.5 "/>
<path fill="none" stroke="black" d="M1,-353.5C1,-347.5 7,-341.5 13,-341.5"/>
<text text-anchor="middle" x="65" y="-424.9" font-family="Times Roman,serif" font-size="14.00">HooksController</text>
<polyline fill="none" stroke="black" points="1,-415.5 129,-415.5 "/>
<polyline fill="none" stroke="black" points="1,-391.5 129,-391.5 "/>
<polyline fill="none" stroke="black" points="1,-367.5 129,-367.5 "/>
<text text-anchor="start" x="9" y="-350.9" font-family="Times Roman,serif" font-size="14.00">_layout</text>
</g>
<!-- ProgramsController -->
<g id="node6" class="node"><title>ProgramsController</title>
<polyline fill="none" stroke="black" points="353,-321.5 480,-321.5 "/>
<path fill="none" stroke="black" d="M480,-321.5C486,-321.5 492,-327.5 492,-333.5"/>
<polyline fill="none" stroke="black" points="492,-333.5 492,-411.5 "/>
<path fill="none" stroke="black" d="M492,-411.5C492,-417.5 486,-423.5 480,-423.5"/>
<polyline fill="none" stroke="black" points="480,-423.5 353,-423.5 "/>
<path fill="none" stroke="black" d="M353,-423.5C347,-423.5 341,-417.5 341,-411.5"/>
<polyline fill="none" stroke="black" points="341,-411.5 341,-333.5 "/>
<path fill="none" stroke="black" d="M341,-333.5C341,-327.5 347,-321.5 353,-321.5"/>
<text text-anchor="middle" x="416.5" y="-406.9" font-family="Times Roman,serif" font-size="14.00">ProgramsController</text>
<polyline fill="none" stroke="black" points="341,-397.5 492,-397.5 "/>
<text text-anchor="start" x="349" y="-380.9" font-family="Times Roman,serif" font-size="14.00">index</text>
<polyline fill="none" stroke="black" points="341,-371.5 492,-371.5 "/>
<polyline fill="none" stroke="black" points="341,-347.5 492,-347.5 "/>
<text text-anchor="start" x="349" y="-330.9" font-family="Times Roman,serif" font-size="14.00">_layout</text>
</g>
</g>
</svg>
