<?xml version="1.0" encoding="UTF-8" standalone="no"?>
<!DOCTYPE svg PUBLIC "-//W3C//DTD SVG 1.1//EN"
 "http://www.w3.org/Graphics/SVG/1.1/DTD/svg11.dtd">
<!-- Generated by graphviz version 2.26.3 (20100126.1600)
 -->
<!-- Title: controllers_diagram Pages: 1 -->
<svg width="810pt" height="879pt"
 viewBox="0.00 0.00 810.00 879.00" xmlns="http://www.w3.org/2000/svg" xmlns:xlink="http://www.w3.org/1999/xlink">
<g id="graph1" class="graph" transform="scale(1 1) rotate(0) translate(4 875)">
<title>controllers_diagram</title>
<polygon fill="white" stroke="white" points="-4,5 -4,-875 807,-875 807,5 -4,5"/>
<!-- _diagram_info -->
<g id="node1" class="node"><title>_diagram_info</title>
<text text-anchor="start" x="559" y="-78.3" font-family="Times Roman,serif" font-size="13.00">Controllers diagram</text>
<text text-anchor="start" x="559" y="-61.3" font-family="Times Roman,serif" font-size="13.00">Date: Jun 28 2012 &#45; 01:41</text>
<text text-anchor="start" x="559" y="-44.3" font-family="Times Roman,serif" font-size="13.00">Migration version: 20120628030935</text>
<text text-anchor="start" x="559" y="-27.3" font-family="Times Roman,serif" font-size="13.00">Generated by RailRoady 1.0.7</text>
<text text-anchor="start" x="559" y="-10.3" font-family="Times Roman,serif" font-size="13.00">http://railroady.prestonlee.com</text>
</g>
<!-- SurveyorController -->
<g id="node2" class="node"><title>SurveyorController</title>
<polyline fill="none" stroke="black" points="113,-601.5 336,-601.5 "/>
<path fill="none" stroke="black" d="M336,-601.5C342,-601.5 348,-607.5 348,-613.5"/>
<polyline fill="none" stroke="black" points="348,-613.5 348,-727.5 "/>
<path fill="none" stroke="black" d="M348,-727.5C348,-733.5 342,-739.5 336,-739.5"/>
<polyline fill="none" stroke="black" points="336,-739.5 113,-739.5 "/>
<path fill="none" stroke="black" d="M113,-739.5C107,-739.5 101,-733.5 101,-727.5"/>
<polyline fill="none" stroke="black" points="101,-727.5 101,-613.5 "/>
<path fill="none" stroke="black" d="M101,-613.5C101,-607.5 107,-601.5 113,-601.5"/>
<text text-anchor="middle" x="224.5" y="-722.9" font-family="Times Roman,serif" font-size="14.00">SurveyorController</text>
<polyline fill="none" stroke="black" points="101,-713.5 348,-713.5 "/>
<text text-anchor="start" x="109" y="-696.9" font-family="Times Roman,serif" font-size="14.00">_one_time_conditions_valid_136?</text>
<text text-anchor="start" x="109" y="-678.9" font-family="Times Roman,serif" font-size="14.00">_one_time_conditions_valid_140?</text>
<text text-anchor="start" x="109" y="-660.9" font-family="Times Roman,serif" font-size="14.00">_one_time_conditions_valid_144?</text>
<polyline fill="none" stroke="black" points="101,-651.5 348,-651.5 "/>
<polyline fill="none" stroke="black" points="101,-627.5 348,-627.5 "/>
<text text-anchor="start" x="109" y="-610.9" font-family="Times Roman,serif" font-size="14.00">_layout</text>
</g>
<!-- ProjectsController -->
<g id="node3" class="node"><title>ProjectsController</title>
<polyline fill="none" stroke="black" points="613,-551.5 729,-551.5 "/>
<path fill="none" stroke="black" d="M729,-551.5C735,-551.5 741,-557.5 741,-563.5"/>
<polyline fill="none" stroke="black" points="741,-563.5 741,-857.5 "/>
<path fill="none" stroke="black" d="M741,-857.5C741,-863.5 735,-869.5 729,-869.5"/>
<polyline fill="none" stroke="black" points="729,-869.5 613,-869.5 "/>
<path fill="none" stroke="black" d="M613,-869.5C607,-869.5 601,-863.5 601,-857.5"/>
<polyline fill="none" stroke="black" points="601,-857.5 601,-563.5 "/>
<path fill="none" stroke="black" d="M601,-563.5C601,-557.5 607,-551.5 613,-551.5"/>
<text text-anchor="middle" x="671" y="-852.9" font-family="Times Roman,serif" font-size="14.00">ProjectsController</text>
<polyline fill="none" stroke="black" points="601,-843.5 741,-843.5 "/>
<text text-anchor="start" x="609" y="-826.9" font-family="Times Roman,serif" font-size="14.00">bike</text>
<text text-anchor="start" x="609" y="-808.9" font-family="Times Roman,serif" font-size="14.00">category</text>
<text text-anchor="start" x="609" y="-790.9" font-family="Times Roman,serif" font-size="14.00">commentable</text>
<text text-anchor="start" x="609" y="-772.9" font-family="Times Roman,serif" font-size="14.00">create</text>
<text text-anchor="start" x="609" y="-754.9" font-family="Times Roman,serif" font-size="14.00">destroy</text>
<text text-anchor="start" x="609" y="-736.9" font-family="Times Roman,serif" font-size="14.00">index</text>
<text text-anchor="start" x="609" y="-718.9" font-family="Times Roman,serif" font-size="14.00">new</text>
<text text-anchor="start" x="609" y="-700.9" font-family="Times Roman,serif" font-size="14.00">project</text>
<text text-anchor="start" x="609" y="-682.9" font-family="Times Roman,serif" font-size="14.00">show</text>
<text text-anchor="start" x="609" y="-664.9" font-family="Times Roman,serif" font-size="14.00">transition</text>
<text text-anchor="start" x="609" y="-646.9" font-family="Times Roman,serif" font-size="14.00">update</text>
<polyline fill="none" stroke="black" points="601,-637.5 741,-637.5 "/>
<polyline fill="none" stroke="black" points="601,-613.5 741,-613.5 "/>
<text text-anchor="start" x="609" y="-596.9" font-family="Times Roman,serif" font-size="14.00">_layout</text>
<text text-anchor="start" x="609" y="-578.9" font-family="Times Roman,serif" font-size="14.00">call_event</text>
<text text-anchor="start" x="609" y="-560.9" font-family="Times Roman,serif" font-size="14.00">project_params</text>
</g>
<!-- ApplicationController -->
<g id="node4" class="node"><title>ApplicationController</title>
<polyline fill="none" stroke="black" points="563,-151.5 786,-151.5 "/>
<path fill="none" stroke="black" d="M786,-151.5C792,-151.5 798,-157.5 798,-163.5"/>
<polyline fill="none" stroke="black" points="798,-163.5 798,-493.5 "/>
<path fill="none" stroke="black" d="M798,-493.5C798,-499.5 792,-505.5 786,-505.5"/>
<polyline fill="none" stroke="black" points="786,-505.5 563,-505.5 "/>
<path fill="none" stroke="black" d="M563,-505.5C557,-505.5 551,-499.5 551,-493.5"/>
<polyline fill="none" stroke="black" points="551,-493.5 551,-163.5 "/>
<path fill="none" stroke="black" d="M551,-163.5C551,-157.5 557,-151.5 563,-151.5"/>
<text text-anchor="middle" x="674.5" y="-488.9" font-family="Times Roman,serif" font-size="14.00">ApplicationController</text>
<polyline fill="none" stroke="black" points="551,-479.5 798,-479.5 "/>
<text text-anchor="start" x="559" y="-462.9" font-family="Times Roman,serif" font-size="14.00">_one_time_conditions_valid_134?</text>
<text text-anchor="start" x="559" y="-444.9" font-family="Times Roman,serif" font-size="14.00">bike</text>
<text text-anchor="start" x="559" y="-426.9" font-family="Times Roman,serif" font-size="14.00">bike_found?</text>
<text text-anchor="start" x="559" y="-408.9" font-family="Times Roman,serif" font-size="14.00">bikes</text>
<text text-anchor="start" x="559" y="-390.9" font-family="Times Roman,serif" font-size="14.00">comment</text>
<text text-anchor="start" x="559" y="-372.9" font-family="Times Roman,serif" font-size="14.00">comment_body</text>
<text text-anchor="start" x="559" y="-354.9" font-family="Times Roman,serif" font-size="14.00">id_from_label</text>
<text text-anchor="start" x="559" y="-336.9" font-family="Times Roman,serif" font-size="14.00">new_comment</text>
<text text-anchor="start" x="559" y="-318.9" font-family="Times Roman,serif" font-size="14.00">program</text>
<text text-anchor="start" x="559" y="-300.9" font-family="Times Roman,serif" font-size="14.00">programs</text>
<text text-anchor="start" x="559" y="-282.9" font-family="Times Roman,serif" font-size="14.00">project</text>
<text text-anchor="start" x="559" y="-264.9" font-family="Times Roman,serif" font-size="14.00">project_categories</text>
<text text-anchor="start" x="559" y="-246.9" font-family="Times Roman,serif" font-size="14.00">project_category</text>
<text text-anchor="start" x="559" y="-228.9" font-family="Times Roman,serif" font-size="14.00">project_found?</text>
<text text-anchor="start" x="559" y="-210.9" font-family="Times Roman,serif" font-size="14.00">projects</text>
<polyline fill="none" stroke="black" points="551,-201.5 798,-201.5 "/>
<polyline fill="none" stroke="black" points="551,-177.5 798,-177.5 "/>
<text text-anchor="start" x="559" y="-160.9" font-family="Times Roman,serif" font-size="14.00">_layout</text>
</g>
<!-- BikesController -->
<g id="node5" class="node"><title>BikesController</title>
<polyline fill="none" stroke="black" points="263,-101.5 486,-101.5 "/>
<path fill="none" stroke="black" d="M486,-101.5C492,-101.5 498,-107.5 498,-113.5"/>
<polyline fill="none" stroke="black" points="498,-113.5 498,-497.5 "/>
<path fill="none" stroke="black" d="M498,-497.5C498,-503.5 492,-509.5 486,-509.5"/>
<polyline fill="none" stroke="black" points="486,-509.5 263,-509.5 "/>
<path fill="none" stroke="black" d="M263,-509.5C257,-509.5 251,-503.5 251,-497.5"/>
<polyline fill="none" stroke="black" points="251,-497.5 251,-113.5 "/>
<path fill="none" stroke="black" d="M251,-113.5C251,-107.5 257,-101.5 263,-101.5"/>
<text text-anchor="middle" x="374.5" y="-492.9" font-family="Times Roman,serif" font-size="14.00">BikesController</text>
<polyline fill="none" stroke="black" points="251,-483.5 498,-483.5 "/>
<text text-anchor="start" x="259" y="-466.9" font-family="Times Roman,serif" font-size="14.00">_one_time_conditions_valid_203?</text>
<text text-anchor="start" x="259" y="-448.9" font-family="Times Roman,serif" font-size="14.00">bike</text>
<text text-anchor="start" x="259" y="-430.9" font-family="Times Roman,serif" font-size="14.00">bikes</text>
<text text-anchor="start" x="259" y="-412.9" font-family="Times Roman,serif" font-size="14.00">change_hook</text>
<text text-anchor="start" x="259" y="-394.9" font-family="Times Roman,serif" font-size="14.00">commentable</text>
<text text-anchor="start" x="259" y="-376.9" font-family="Times Roman,serif" font-size="14.00">create</text>
<text text-anchor="start" x="259" y="-358.9" font-family="Times Roman,serif" font-size="14.00">depart</text>
<text text-anchor="start" x="259" y="-340.9" font-family="Times Roman,serif" font-size="14.00">edit</text>
<text text-anchor="start" x="259" y="-322.9" font-family="Times Roman,serif" font-size="14.00">hook</text>
<text text-anchor="start" x="259" y="-304.9" font-family="Times Roman,serif" font-size="14.00">index</text>
<text text-anchor="start" x="259" y="-286.9" font-family="Times Roman,serif" font-size="14.00">new</text>
<text text-anchor="start" x="259" y="-268.9" font-family="Times Roman,serif" font-size="14.00">reserve_hook</text>
<text text-anchor="start" x="259" y="-250.9" font-family="Times Roman,serif" font-size="14.00">send_away</text>
<text text-anchor="start" x="259" y="-232.9" font-family="Times Roman,serif" font-size="14.00">show</text>
<text text-anchor="start" x="259" y="-214.9" font-family="Times Roman,serif" font-size="14.00">update</text>
<text text-anchor="start" x="259" y="-196.9" font-family="Times Roman,serif" font-size="14.00">vacate_hook</text>
<polyline fill="none" stroke="black" points="251,-187.5 498,-187.5 "/>
<polyline fill="none" stroke="black" points="251,-163.5 498,-163.5 "/>
<text text-anchor="start" x="259" y="-146.9" font-family="Times Roman,serif" font-size="14.00">_layout</text>
<text text-anchor="start" x="259" y="-128.9" font-family="Times Roman,serif" font-size="14.00">bike_params</text>
<text text-anchor="start" x="259" y="-110.9" font-family="Times Roman,serif" font-size="14.00">verify_bike</text>
</g>
<!-- HooksController -->
<g id="node6" class="node"><title>HooksController</title>
<polyline fill="none" stroke="black" points="88,-26.5 192,-26.5 "/>
<path fill="none" stroke="black" d="M192,-26.5C198,-26.5 204,-32.5 204,-38.5"/>
<polyline fill="none" stroke="black" points="204,-38.5 204,-134.5 "/>
<path fill="none" stroke="black" d="M204,-134.5C204,-140.5 198,-146.5 192,-146.5"/>
<polyline fill="none" stroke="black" points="192,-146.5 88,-146.5 "/>
<path fill="none" stroke="black" d="M88,-146.5C82,-146.5 76,-140.5 76,-134.5"/>
<polyline fill="none" stroke="black" points="76,-134.5 76,-38.5 "/>
<path fill="none" stroke="black" d="M76,-38.5C76,-32.5 82,-26.5 88,-26.5"/>
<text text-anchor="middle" x="140" y="-129.9" font-family="Times Roman,serif" font-size="14.00">HooksController</text>
<polyline fill="none" stroke="black" points="76,-120.5 204,-120.5 "/>
<text text-anchor="start" x="84" y="-103.9" font-family="Times Roman,serif" font-size="14.00">hook</text>
<text text-anchor="start" x="84" y="-85.9" font-family="Times Roman,serif" font-size="14.00">show</text>
<polyline fill="none" stroke="black" points="76,-76.5 204,-76.5 "/>
<polyline fill="none" stroke="black" points="76,-52.5 204,-52.5 "/>
<text text-anchor="start" x="84" y="-35.9" font-family="Times Roman,serif" font-size="14.00">_layout</text>
</g>
<!-- ProjectCategoriesController -->
<g id="node7" class="node"><title>ProjectCategoriesController</title>
<polyline fill="none" stroke="black" points="13,-426.5 196,-426.5 "/>
<path fill="none" stroke="black" d="M196,-426.5C202,-426.5 208,-432.5 208,-438.5"/>
<polyline fill="none" stroke="black" points="208,-438.5 208,-552.5 "/>
<path fill="none" stroke="black" d="M208,-552.5C208,-558.5 202,-564.5 196,-564.5"/>
<polyline fill="none" stroke="black" points="196,-564.5 13,-564.5 "/>
<path fill="none" stroke="black" d="M13,-564.5C7,-564.5 1,-558.5 1,-552.5"/>
<polyline fill="none" stroke="black" points="1,-552.5 1,-438.5 "/>
<path fill="none" stroke="black" d="M1,-438.5C1,-432.5 7,-426.5 13,-426.5"/>
<text text-anchor="middle" x="104.5" y="-547.9" font-family="Times Roman,serif" font-size="14.00">ProjectCategoriesController</text>
<polyline fill="none" stroke="black" points="1,-538.5 208,-538.5 "/>
<text text-anchor="start" x="9" y="-521.9" font-family="Times Roman,serif" font-size="14.00">category</text>
<text text-anchor="start" x="9" y="-503.9" font-family="Times Roman,serif" font-size="14.00">projects</text>
<text text-anchor="start" x="9" y="-485.9" font-family="Times Roman,serif" font-size="14.00">show</text>
<polyline fill="none" stroke="black" points="1,-476.5 208,-476.5 "/>
<polyline fill="none" stroke="black" points="1,-452.5 208,-452.5 "/>
<text text-anchor="start" x="9" y="-435.9" font-family="Times Roman,serif" font-size="14.00">_layout</text>
</g>
<!-- ProgramsController -->
<g id="node8" class="node"><title>ProgramsController</title>
<polyline fill="none" stroke="black" points="413,-551.5 540,-551.5 "/>
<path fill="none" stroke="black" d="M540,-551.5C546,-551.5 552,-557.5 552,-563.5"/>
<polyline fill="none" stroke="black" points="552,-563.5 552,-803.5 "/>
<path fill="none" stroke="black" d="M552,-803.5C552,-809.5 546,-815.5 540,-815.5"/>
<polyline fill="none" stroke="black" points="540,-815.5 413,-815.5 "/>
<path fill="none" stroke="black" d="M413,-815.5C407,-815.5 401,-809.5 401,-803.5"/>
<polyline fill="none" stroke="black" points="401,-803.5 401,-563.5 "/>
<path fill="none" stroke="black" d="M401,-563.5C401,-557.5 407,-551.5 413,-551.5"/>
<text text-anchor="middle" x="476.5" y="-798.9" font-family="Times Roman,serif" font-size="14.00">ProgramsController</text>
<polyline fill="none" stroke="black" points="401,-789.5 552,-789.5 "/>
<text text-anchor="start" x="409" y="-772.9" font-family="Times Roman,serif" font-size="14.00">category</text>
<text text-anchor="start" x="409" y="-754.9" font-family="Times Roman,serif" font-size="14.00">create</text>
<text text-anchor="start" x="409" y="-736.9" font-family="Times Roman,serif" font-size="14.00">edit</text>
<text text-anchor="start" x="409" y="-718.9" font-family="Times Roman,serif" font-size="14.00">index</text>
<text text-anchor="start" x="409" y="-700.9" font-family="Times Roman,serif" font-size="14.00">new</text>
<text text-anchor="start" x="409" y="-682.9" font-family="Times Roman,serif" font-size="14.00">program</text>
<text text-anchor="start" x="409" y="-664.9" font-family="Times Roman,serif" font-size="14.00">projects</text>
<text text-anchor="start" x="409" y="-646.9" font-family="Times Roman,serif" font-size="14.00">show</text>
<text text-anchor="start" x="409" y="-628.9" font-family="Times Roman,serif" font-size="14.00">update</text>
<polyline fill="none" stroke="black" points="401,-619.5 552,-619.5 "/>
<polyline fill="none" stroke="black" points="401,-595.5 552,-595.5 "/>
<text text-anchor="start" x="409" y="-578.9" font-family="Times Roman,serif" font-size="14.00">_layout</text>
<text text-anchor="start" x="409" y="-560.9" font-family="Times Roman,serif" font-size="14.00">program_params</text>
</g>
<!-- TimeEntriesController -->
<g id="node9" class="node"><title>TimeEntriesController</title>
<polyline fill="none" stroke="black" points="38,-201.5 181,-201.5 "/>
<path fill="none" stroke="black" d="M181,-201.5C187,-201.5 193,-207.5 193,-213.5"/>
<polyline fill="none" stroke="black" points="193,-213.5 193,-363.5 "/>
<path fill="none" stroke="black" d="M193,-363.5C193,-369.5 187,-375.5 181,-375.5"/>
<polyline fill="none" stroke="black" points="181,-375.5 38,-375.5 "/>
<path fill="none" stroke="black" d="M38,-375.5C32,-375.5 26,-369.5 26,-363.5"/>
<polyline fill="none" stroke="black" points="26,-363.5 26,-213.5 "/>
<path fill="none" stroke="black" d="M26,-213.5C26,-207.5 32,-201.5 38,-201.5"/>
<text text-anchor="middle" x="109.5" y="-358.9" font-family="Times Roman,serif" font-size="14.00">TimeEntriesController</text>
<polyline fill="none" stroke="black" points="26,-349.5 193,-349.5 "/>
<text text-anchor="start" x="34" y="-332.9" font-family="Times Roman,serif" font-size="14.00">create</text>
<text text-anchor="start" x="34" y="-314.9" font-family="Times Roman,serif" font-size="14.00">enter</text>
<text text-anchor="start" x="34" y="-296.9" font-family="Times Roman,serif" font-size="14.00">new</text>
<text text-anchor="start" x="34" y="-278.9" font-family="Times Roman,serif" font-size="14.00">show</text>
<polyline fill="none" stroke="black" points="26,-269.5 193,-269.5 "/>
<polyline fill="none" stroke="black" points="26,-245.5 193,-245.5 "/>
<text text-anchor="start" x="34" y="-228.9" font-family="Times Roman,serif" font-size="14.00">_layout</text>
<text text-anchor="start" x="34" y="-210.9" font-family="Times Roman,serif" font-size="14.00">scope</text>
</g>
</g>
</svg>
