<?xml version="1.0" encoding="UTF-8" standalone="no"?>
<!DOCTYPE svg PUBLIC "-//W3C//DTD SVG 1.1//EN"
 "http://www.w3.org/Graphics/SVG/1.1/DTD/svg11.dtd">
<!-- Generated by graphviz version 2.26.3 (20100126.1600)
 -->
<!-- Title: controllers_diagram Pages: 1 -->
<svg width="635pt" height="707pt"
 viewBox="0.00 0.00 635.00 707.00" xmlns="http://www.w3.org/2000/svg" xmlns:xlink="http://www.w3.org/1999/xlink">
<g id="graph1" class="graph" transform="scale(1 1) rotate(0) translate(4 703)">
<title>controllers_diagram</title>
<polygon fill="white" stroke="white" points="-4,5 -4,-703 632,-703 632,5 -4,5"/>
<!-- _diagram_info -->
<g id="node1" class="node"><title>_diagram_info</title>
<text text-anchor="start" x="9" y="-562.3" font-family="Times Roman,serif" font-size="13.00">Controllers diagram</text>
<text text-anchor="start" x="9" y="-545.3" font-family="Times Roman,serif" font-size="13.00">Date: Mar 23 2012 &#45; 03:15</text>
<text text-anchor="start" x="9" y="-528.3" font-family="Times Roman,serif" font-size="13.00">Migration version: 20120321122710</text>
<text text-anchor="start" x="9" y="-511.3" font-family="Times Roman,serif" font-size="13.00">Generated by RailRoady 1.0.4</text>
<text text-anchor="start" x="9" y="-494.3" font-family="Times Roman,serif" font-size="13.00">http://railroady.prestonlee.com</text>
</g>
<!-- ProjectsController -->
<g id="node2" class="node"><title>ProjectsController</title>
<polyline fill="none" stroke="black" points="299,-155.5 513,-155.5 "/>
<path fill="none" stroke="black" d="M513,-155.5C519,-155.5 525,-161.5 525,-167.5"/>
<polyline fill="none" stroke="black" points="525,-167.5 525,-371.5 "/>
<path fill="none" stroke="black" d="M525,-371.5C525,-377.5 519,-383.5 513,-383.5"/>
<polyline fill="none" stroke="black" points="513,-383.5 299,-383.5 "/>
<path fill="none" stroke="black" d="M299,-383.5C293,-383.5 287,-377.5 287,-371.5"/>
<polyline fill="none" stroke="black" points="287,-371.5 287,-167.5 "/>
<path fill="none" stroke="black" d="M287,-167.5C287,-161.5 293,-155.5 299,-155.5"/>
<text text-anchor="middle" x="406" y="-366.9" font-family="Times Roman,serif" font-size="14.00">ProjectsController</text>
<polyline fill="none" stroke="black" points="287,-357.5 525,-357.5 "/>
<text text-anchor="start" x="295" y="-340.9" font-family="Times Roman,serif" font-size="14.00">_one_time_conditions_valid_88?</text>
<text text-anchor="start" x="295" y="-322.9" font-family="Times Roman,serif" font-size="14.00">_one_time_conditions_valid_90?</text>
<text text-anchor="start" x="295" y="-304.9" font-family="Times Roman,serif" font-size="14.00">index</text>
<text text-anchor="start" x="295" y="-286.9" font-family="Times Roman,serif" font-size="14.00">show</text>
<polyline fill="none" stroke="black" points="287,-277.5 525,-277.5 "/>
<polyline fill="none" stroke="black" points="287,-253.5 525,-253.5 "/>
<text text-anchor="start" x="295" y="-236.9" font-family="Times Roman,serif" font-size="14.00">_layout</text>
<text text-anchor="start" x="295" y="-218.9" font-family="Times Roman,serif" font-size="14.00">_run_process_action_callbacks</text>
<text text-anchor="start" x="295" y="-200.9" font-family="Times Roman,serif" font-size="14.00">find_program</text>
<text text-anchor="start" x="295" y="-182.9" font-family="Times Roman,serif" font-size="14.00">get_bike_and_project_instances</text>
<text text-anchor="start" x="295" y="-164.9" font-family="Times Roman,serif" font-size="14.00">scope_projects</text>
</g>
<!-- ApplicationController -->
<g id="node3" class="node"><title>ApplicationController</title>
<polyline fill="none" stroke="black" points="299,-419.5 513,-419.5 "/>
<path fill="none" stroke="black" d="M513,-419.5C519,-419.5 525,-425.5 525,-431.5"/>
<polyline fill="none" stroke="black" points="525,-431.5 525,-545.5 "/>
<path fill="none" stroke="black" d="M525,-545.5C525,-551.5 519,-557.5 513,-557.5"/>
<polyline fill="none" stroke="black" points="513,-557.5 299,-557.5 "/>
<path fill="none" stroke="black" d="M299,-557.5C293,-557.5 287,-551.5 287,-545.5"/>
<polyline fill="none" stroke="black" points="287,-545.5 287,-431.5 "/>
<path fill="none" stroke="black" d="M287,-431.5C287,-425.5 293,-419.5 299,-419.5"/>
<text text-anchor="middle" x="406" y="-540.9" font-family="Times Roman,serif" font-size="14.00">ApplicationController</text>
<polyline fill="none" stroke="black" points="287,-531.5 525,-531.5 "/>
<text text-anchor="start" x="295" y="-514.9" font-family="Times Roman,serif" font-size="14.00">_one_time_conditions_valid_60?</text>
<text text-anchor="start" x="295" y="-496.9" font-family="Times Roman,serif" font-size="14.00">new_comment</text>
<polyline fill="none" stroke="black" points="287,-487.5 525,-487.5 "/>
<polyline fill="none" stroke="black" points="287,-463.5 525,-463.5 "/>
<text text-anchor="start" x="295" y="-446.9" font-family="Times Roman,serif" font-size="14.00">_layout</text>
<text text-anchor="start" x="295" y="-428.9" font-family="Times Roman,serif" font-size="14.00">_run_process_action_callbacks</text>
</g>
<!-- BikesController -->
<g id="node4" class="node"><title>BikesController</title>
<polyline fill="none" stroke="black" points="13,-155.5 236,-155.5 "/>
<path fill="none" stroke="black" d="M236,-155.5C242,-155.5 248,-161.5 248,-167.5"/>
<polyline fill="none" stroke="black" points="248,-167.5 248,-425.5 "/>
<path fill="none" stroke="black" d="M248,-425.5C248,-431.5 242,-437.5 236,-437.5"/>
<polyline fill="none" stroke="black" points="236,-437.5 13,-437.5 "/>
<path fill="none" stroke="black" d="M13,-437.5C7,-437.5 1,-431.5 1,-425.5"/>
<polyline fill="none" stroke="black" points="1,-425.5 1,-167.5 "/>
<path fill="none" stroke="black" d="M1,-167.5C1,-161.5 7,-155.5 13,-155.5"/>
<text text-anchor="middle" x="124.5" y="-420.9" font-family="Times Roman,serif" font-size="14.00">BikesController</text>
<polyline fill="none" stroke="black" points="1,-411.5 248,-411.5 "/>
<text text-anchor="start" x="9" y="-394.9" font-family="Times Roman,serif" font-size="14.00">_one_time_conditions_valid_130?</text>
<text text-anchor="start" x="9" y="-376.9" font-family="Times Roman,serif" font-size="14.00">create</text>
<text text-anchor="start" x="9" y="-358.9" font-family="Times Roman,serif" font-size="14.00">edit</text>
<text text-anchor="start" x="9" y="-340.9" font-family="Times Roman,serif" font-size="14.00">index</text>
<text text-anchor="start" x="9" y="-322.9" font-family="Times Roman,serif" font-size="14.00">new</text>
<text text-anchor="start" x="9" y="-304.9" font-family="Times Roman,serif" font-size="14.00">reserve_hook</text>
<text text-anchor="start" x="9" y="-286.9" font-family="Times Roman,serif" font-size="14.00">show</text>
<text text-anchor="start" x="9" y="-268.9" font-family="Times Roman,serif" font-size="14.00">update</text>
<text text-anchor="start" x="9" y="-250.9" font-family="Times Roman,serif" font-size="14.00">vacate_hook</text>
<polyline fill="none" stroke="black" points="1,-241.5 248,-241.5 "/>
<polyline fill="none" stroke="black" points="1,-217.5 248,-217.5 "/>
<text text-anchor="start" x="9" y="-200.9" font-family="Times Roman,serif" font-size="14.00">_layout</text>
<text text-anchor="start" x="9" y="-182.9" font-family="Times Roman,serif" font-size="14.00">_run_process_action_callbacks</text>
<text text-anchor="start" x="9" y="-164.9" font-family="Times Roman,serif" font-size="14.00">fetch_bike</text>
</g>
<!-- HooksController -->
<g id="node5" class="node"><title>HooksController</title>
<polyline fill="none" stroke="black" points="343,-1.5 447,-1.5 "/>
<path fill="none" stroke="black" d="M447,-1.5C453,-1.5 459,-7.5 459,-13.5"/>
<polyline fill="none" stroke="black" points="459,-13.5 459,-91.5 "/>
<path fill="none" stroke="black" d="M459,-91.5C459,-97.5 453,-103.5 447,-103.5"/>
<polyline fill="none" stroke="black" points="447,-103.5 343,-103.5 "/>
<path fill="none" stroke="black" d="M343,-103.5C337,-103.5 331,-97.5 331,-91.5"/>
<polyline fill="none" stroke="black" points="331,-91.5 331,-13.5 "/>
<path fill="none" stroke="black" d="M331,-13.5C331,-7.5 337,-1.5 343,-1.5"/>
<text text-anchor="middle" x="395" y="-86.9" font-family="Times Roman,serif" font-size="14.00">HooksController</text>
<polyline fill="none" stroke="black" points="331,-77.5 459,-77.5 "/>
<text text-anchor="start" x="339" y="-60.9" font-family="Times Roman,serif" font-size="14.00">show</text>
<polyline fill="none" stroke="black" points="331,-51.5 459,-51.5 "/>
<polyline fill="none" stroke="black" points="331,-27.5 459,-27.5 "/>
<text text-anchor="start" x="339" y="-10.9" font-family="Times Roman,serif" font-size="14.00">_layout</text>
</g>
<!-- ProjectCategoriesController -->
<g id="node6" class="node"><title>ProjectCategoriesController</title>
<polyline fill="none" stroke="black" points="431,-595.5 614,-595.5 "/>
<path fill="none" stroke="black" d="M614,-595.5C620,-595.5 626,-601.5 626,-607.5"/>
<polyline fill="none" stroke="black" points="626,-607.5 626,-685.5 "/>
<path fill="none" stroke="black" d="M626,-685.5C626,-691.5 620,-697.5 614,-697.5"/>
<polyline fill="none" stroke="black" points="614,-697.5 431,-697.5 "/>
<path fill="none" stroke="black" d="M431,-697.5C425,-697.5 419,-691.5 419,-685.5"/>
<polyline fill="none" stroke="black" points="419,-685.5 419,-607.5 "/>
<path fill="none" stroke="black" d="M419,-607.5C419,-601.5 425,-595.5 431,-595.5"/>
<text text-anchor="middle" x="522.5" y="-680.9" font-family="Times Roman,serif" font-size="14.00">ProjectCategoriesController</text>
<polyline fill="none" stroke="black" points="419,-671.5 626,-671.5 "/>
<text text-anchor="start" x="427" y="-654.9" font-family="Times Roman,serif" font-size="14.00">show</text>
<polyline fill="none" stroke="black" points="419,-645.5 626,-645.5 "/>
<polyline fill="none" stroke="black" points="419,-621.5 626,-621.5 "/>
<text text-anchor="start" x="427" y="-604.9" font-family="Times Roman,serif" font-size="14.00">_layout</text>
</g>
<!-- ProgramsController -->
<g id="node7" class="node"><title>ProgramsController</title>
<polyline fill="none" stroke="black" points="145,-1.5 272,-1.5 "/>
<path fill="none" stroke="black" d="M272,-1.5C278,-1.5 284,-7.5 284,-13.5"/>
<polyline fill="none" stroke="black" points="284,-13.5 284,-109.5 "/>
<path fill="none" stroke="black" d="M284,-109.5C284,-115.5 278,-121.5 272,-121.5"/>
<polyline fill="none" stroke="black" points="272,-121.5 145,-121.5 "/>
<path fill="none" stroke="black" d="M145,-121.5C139,-121.5 133,-115.5 133,-109.5"/>
<polyline fill="none" stroke="black" points="133,-109.5 133,-13.5 "/>
<path fill="none" stroke="black" d="M133,-13.5C133,-7.5 139,-1.5 145,-1.5"/>
<text text-anchor="middle" x="208.5" y="-104.9" font-family="Times Roman,serif" font-size="14.00">ProgramsController</text>
<polyline fill="none" stroke="black" points="133,-95.5 284,-95.5 "/>
<text text-anchor="start" x="141" y="-78.9" font-family="Times Roman,serif" font-size="14.00">index</text>
<text text-anchor="start" x="141" y="-60.9" font-family="Times Roman,serif" font-size="14.00">show</text>
<polyline fill="none" stroke="black" points="133,-51.5 284,-51.5 "/>
<polyline fill="none" stroke="black" points="133,-27.5 284,-27.5 "/>
<text text-anchor="start" x="141" y="-10.9" font-family="Times Roman,serif" font-size="14.00">_layout</text>
</g>
</g>
</svg>
