<?xml version="1.0" encoding="UTF-8" standalone="no"?>
<!DOCTYPE svg PUBLIC "-//W3C//DTD SVG 1.1//EN"
 "http://www.w3.org/Graphics/SVG/1.1/DTD/svg11.dtd">
<!-- Generated by graphviz version 2.26.3 (20100126.1600)
 -->
<!-- Title: controllers_diagram Pages: 1 -->
<svg width="723pt" height="832pt"
 viewBox="0.00 0.00 723.00 832.00" xmlns="http://www.w3.org/2000/svg" xmlns:xlink="http://www.w3.org/1999/xlink">
<g id="graph1" class="graph" transform="scale(1 1) rotate(0) translate(4 828)">
<title>controllers_diagram</title>
<polygon fill="white" stroke="white" points="-4,5 -4,-828 720,-828 720,5 -4,5"/>
<!-- _diagram_info -->
<g id="node1" class="node"><title>_diagram_info</title>
<text text-anchor="start" x="9" y="-728.3" font-family="Times Roman,serif" font-size="13.00">Controllers diagram</text>
<text text-anchor="start" x="9" y="-711.3" font-family="Times Roman,serif" font-size="13.00">Date: Apr 09 2012 &#45; 02:16</text>
<text text-anchor="start" x="9" y="-694.3" font-family="Times Roman,serif" font-size="13.00">Migration version: 20120408043657</text>
<text text-anchor="start" x="9" y="-677.3" font-family="Times Roman,serif" font-size="13.00">Generated by RailRoady 1.0.7</text>
<text text-anchor="start" x="9" y="-660.3" font-family="Times Roman,serif" font-size="13.00">http://railroady.prestonlee.com</text>
</g>
<!-- ProjectsController -->
<g id="node2" class="node"><title>ProjectsController</title>
<polyline fill="none" stroke="black" points="513,-551.5 629,-551.5 "/>
<path fill="none" stroke="black" d="M629,-551.5C635,-551.5 641,-557.5 641,-563.5"/>
<polyline fill="none" stroke="black" points="641,-563.5 641,-803.5 "/>
<path fill="none" stroke="black" d="M641,-803.5C641,-809.5 635,-815.5 629,-815.5"/>
<polyline fill="none" stroke="black" points="629,-815.5 513,-815.5 "/>
<path fill="none" stroke="black" d="M513,-815.5C507,-815.5 501,-809.5 501,-803.5"/>
<polyline fill="none" stroke="black" points="501,-803.5 501,-563.5 "/>
<path fill="none" stroke="black" d="M501,-563.5C501,-557.5 507,-551.5 513,-551.5"/>
<text text-anchor="middle" x="571" y="-798.9" font-family="Times Roman,serif" font-size="14.00">ProjectsController</text>
<polyline fill="none" stroke="black" points="501,-789.5 641,-789.5 "/>
<text text-anchor="start" x="509" y="-772.9" font-family="Times Roman,serif" font-size="14.00">bike</text>
<text text-anchor="start" x="509" y="-754.9" font-family="Times Roman,serif" font-size="14.00">category</text>
<text text-anchor="start" x="509" y="-736.9" font-family="Times Roman,serif" font-size="14.00">commentable</text>
<text text-anchor="start" x="509" y="-718.9" font-family="Times Roman,serif" font-size="14.00">create</text>
<text text-anchor="start" x="509" y="-700.9" font-family="Times Roman,serif" font-size="14.00">destroy</text>
<text text-anchor="start" x="509" y="-682.9" font-family="Times Roman,serif" font-size="14.00">index</text>
<text text-anchor="start" x="509" y="-664.9" font-family="Times Roman,serif" font-size="14.00">new</text>
<text text-anchor="start" x="509" y="-646.9" font-family="Times Roman,serif" font-size="14.00">project</text>
<text text-anchor="start" x="509" y="-628.9" font-family="Times Roman,serif" font-size="14.00">show</text>
<text text-anchor="start" x="509" y="-610.9" font-family="Times Roman,serif" font-size="14.00">update</text>
<polyline fill="none" stroke="black" points="501,-601.5 641,-601.5 "/>
<polyline fill="none" stroke="black" points="501,-577.5 641,-577.5 "/>
<text text-anchor="start" x="509" y="-560.9" font-family="Times Roman,serif" font-size="14.00">_layout</text>
</g>
<!-- ApplicationController -->
<g id="node3" class="node"><title>ApplicationController</title>
<polyline fill="none" stroke="black" points="488,-176.5 702,-176.5 "/>
<path fill="none" stroke="black" d="M702,-176.5C708,-176.5 714,-182.5 714,-188.5"/>
<polyline fill="none" stroke="black" points="714,-188.5 714,-500.5 "/>
<path fill="none" stroke="black" d="M714,-500.5C714,-506.5 708,-512.5 702,-512.5"/>
<polyline fill="none" stroke="black" points="702,-512.5 488,-512.5 "/>
<path fill="none" stroke="black" d="M488,-512.5C482,-512.5 476,-506.5 476,-500.5"/>
<polyline fill="none" stroke="black" points="476,-500.5 476,-188.5 "/>
<path fill="none" stroke="black" d="M476,-188.5C476,-182.5 482,-176.5 488,-176.5"/>
<text text-anchor="middle" x="595" y="-495.9" font-family="Times Roman,serif" font-size="14.00">ApplicationController</text>
<polyline fill="none" stroke="black" points="476,-486.5 714,-486.5 "/>
<text text-anchor="start" x="484" y="-469.9" font-family="Times Roman,serif" font-size="14.00">_one_time_conditions_valid_60?</text>
<text text-anchor="start" x="484" y="-451.9" font-family="Times Roman,serif" font-size="14.00">bike</text>
<text text-anchor="start" x="484" y="-433.9" font-family="Times Roman,serif" font-size="14.00">bike_found?</text>
<text text-anchor="start" x="484" y="-415.9" font-family="Times Roman,serif" font-size="14.00">bikes</text>
<text text-anchor="start" x="484" y="-397.9" font-family="Times Roman,serif" font-size="14.00">comment</text>
<text text-anchor="start" x="484" y="-379.9" font-family="Times Roman,serif" font-size="14.00">comment_body</text>
<text text-anchor="start" x="484" y="-361.9" font-family="Times Roman,serif" font-size="14.00">new_comment</text>
<text text-anchor="start" x="484" y="-343.9" font-family="Times Roman,serif" font-size="14.00">program</text>
<text text-anchor="start" x="484" y="-325.9" font-family="Times Roman,serif" font-size="14.00">programs</text>
<text text-anchor="start" x="484" y="-307.9" font-family="Times Roman,serif" font-size="14.00">project</text>
<text text-anchor="start" x="484" y="-289.9" font-family="Times Roman,serif" font-size="14.00">project_categories</text>
<text text-anchor="start" x="484" y="-271.9" font-family="Times Roman,serif" font-size="14.00">project_category</text>
<text text-anchor="start" x="484" y="-253.9" font-family="Times Roman,serif" font-size="14.00">project_found?</text>
<text text-anchor="start" x="484" y="-235.9" font-family="Times Roman,serif" font-size="14.00">projects</text>
<polyline fill="none" stroke="black" points="476,-226.5 714,-226.5 "/>
<polyline fill="none" stroke="black" points="476,-202.5 714,-202.5 "/>
<text text-anchor="start" x="484" y="-185.9" font-family="Times Roman,serif" font-size="14.00">_layout</text>
</g>
<!-- BikesController -->
<g id="node4" class="node"><title>BikesController</title>
<polyline fill="none" stroke="black" points="188,-151.5 411,-151.5 "/>
<path fill="none" stroke="black" d="M411,-151.5C417,-151.5 423,-157.5 423,-163.5"/>
<polyline fill="none" stroke="black" points="423,-163.5 423,-511.5 "/>
<path fill="none" stroke="black" d="M423,-511.5C423,-517.5 417,-523.5 411,-523.5"/>
<polyline fill="none" stroke="black" points="411,-523.5 188,-523.5 "/>
<path fill="none" stroke="black" d="M188,-523.5C182,-523.5 176,-517.5 176,-511.5"/>
<polyline fill="none" stroke="black" points="176,-511.5 176,-163.5 "/>
<path fill="none" stroke="black" d="M176,-163.5C176,-157.5 182,-151.5 188,-151.5"/>
<text text-anchor="middle" x="299.5" y="-506.9" font-family="Times Roman,serif" font-size="14.00">BikesController</text>
<polyline fill="none" stroke="black" points="176,-497.5 423,-497.5 "/>
<text text-anchor="start" x="184" y="-480.9" font-family="Times Roman,serif" font-size="14.00">_one_time_conditions_valid_158?</text>
<text text-anchor="start" x="184" y="-462.9" font-family="Times Roman,serif" font-size="14.00">bike</text>
<text text-anchor="start" x="184" y="-444.9" font-family="Times Roman,serif" font-size="14.00">bikes</text>
<text text-anchor="start" x="184" y="-426.9" font-family="Times Roman,serif" font-size="14.00">commentable</text>
<text text-anchor="start" x="184" y="-408.9" font-family="Times Roman,serif" font-size="14.00">create</text>
<text text-anchor="start" x="184" y="-390.9" font-family="Times Roman,serif" font-size="14.00">depart</text>
<text text-anchor="start" x="184" y="-372.9" font-family="Times Roman,serif" font-size="14.00">edit</text>
<text text-anchor="start" x="184" y="-354.9" font-family="Times Roman,serif" font-size="14.00">hook</text>
<text text-anchor="start" x="184" y="-336.9" font-family="Times Roman,serif" font-size="14.00">index</text>
<text text-anchor="start" x="184" y="-318.9" font-family="Times Roman,serif" font-size="14.00">new</text>
<text text-anchor="start" x="184" y="-300.9" font-family="Times Roman,serif" font-size="14.00">reserve_hook</text>
<text text-anchor="start" x="184" y="-282.9" font-family="Times Roman,serif" font-size="14.00">send_away</text>
<text text-anchor="start" x="184" y="-264.9" font-family="Times Roman,serif" font-size="14.00">show</text>
<text text-anchor="start" x="184" y="-246.9" font-family="Times Roman,serif" font-size="14.00">update</text>
<text text-anchor="start" x="184" y="-228.9" font-family="Times Roman,serif" font-size="14.00">vacate_hook</text>
<polyline fill="none" stroke="black" points="176,-219.5 423,-219.5 "/>
<polyline fill="none" stroke="black" points="176,-195.5 423,-195.5 "/>
<text text-anchor="start" x="184" y="-178.9" font-family="Times Roman,serif" font-size="14.00">_layout</text>
<text text-anchor="start" x="184" y="-160.9" font-family="Times Roman,serif" font-size="14.00">fetch_bike</text>
</g>
<!-- HooksController -->
<g id="node5" class="node"><title>HooksController</title>
<polyline fill="none" stroke="black" points="13,-501.5 117,-501.5 "/>
<path fill="none" stroke="black" d="M117,-501.5C123,-501.5 129,-507.5 129,-513.5"/>
<polyline fill="none" stroke="black" points="129,-513.5 129,-591.5 "/>
<path fill="none" stroke="black" d="M129,-591.5C129,-597.5 123,-603.5 117,-603.5"/>
<polyline fill="none" stroke="black" points="117,-603.5 13,-603.5 "/>
<path fill="none" stroke="black" d="M13,-603.5C7,-603.5 1,-597.5 1,-591.5"/>
<polyline fill="none" stroke="black" points="1,-591.5 1,-513.5 "/>
<path fill="none" stroke="black" d="M1,-513.5C1,-507.5 7,-501.5 13,-501.5"/>
<text text-anchor="middle" x="65" y="-586.9" font-family="Times Roman,serif" font-size="14.00">HooksController</text>
<polyline fill="none" stroke="black" points="1,-577.5 129,-577.5 "/>
<text text-anchor="start" x="9" y="-560.9" font-family="Times Roman,serif" font-size="14.00">show</text>
<polyline fill="none" stroke="black" points="1,-551.5 129,-551.5 "/>
<polyline fill="none" stroke="black" points="1,-527.5 129,-527.5 "/>
<text text-anchor="start" x="9" y="-510.9" font-family="Times Roman,serif" font-size="14.00">_layout</text>
</g>
<!-- ProjectCategoriesController -->
<g id="node6" class="node"><title>ProjectCategoriesController</title>
<polyline fill="none" stroke="black" points="488,-1.5 671,-1.5 "/>
<path fill="none" stroke="black" d="M671,-1.5C677,-1.5 683,-7.5 683,-13.5"/>
<polyline fill="none" stroke="black" points="683,-13.5 683,-127.5 "/>
<path fill="none" stroke="black" d="M683,-127.5C683,-133.5 677,-139.5 671,-139.5"/>
<polyline fill="none" stroke="black" points="671,-139.5 488,-139.5 "/>
<path fill="none" stroke="black" d="M488,-139.5C482,-139.5 476,-133.5 476,-127.5"/>
<polyline fill="none" stroke="black" points="476,-127.5 476,-13.5 "/>
<path fill="none" stroke="black" d="M476,-13.5C476,-7.5 482,-1.5 488,-1.5"/>
<text text-anchor="middle" x="579.5" y="-122.9" font-family="Times Roman,serif" font-size="14.00">ProjectCategoriesController</text>
<polyline fill="none" stroke="black" points="476,-113.5 683,-113.5 "/>
<text text-anchor="start" x="484" y="-96.9" font-family="Times Roman,serif" font-size="14.00">category</text>
<text text-anchor="start" x="484" y="-78.9" font-family="Times Roman,serif" font-size="14.00">projects</text>
<text text-anchor="start" x="484" y="-60.9" font-family="Times Roman,serif" font-size="14.00">show</text>
<polyline fill="none" stroke="black" points="476,-51.5 683,-51.5 "/>
<polyline fill="none" stroke="black" points="476,-27.5 683,-27.5 "/>
<text text-anchor="start" x="484" y="-10.9" font-family="Times Roman,serif" font-size="14.00">_layout</text>
</g>
<!-- ProgramsController -->
<g id="node7" class="node"><title>ProgramsController</title>
<polyline fill="none" stroke="black" points="313,-576.5 440,-576.5 "/>
<path fill="none" stroke="black" d="M440,-576.5C446,-576.5 452,-582.5 452,-588.5"/>
<polyline fill="none" stroke="black" points="452,-588.5 452,-810.5 "/>
<path fill="none" stroke="black" d="M452,-810.5C452,-816.5 446,-822.5 440,-822.5"/>
<polyline fill="none" stroke="black" points="440,-822.5 313,-822.5 "/>
<path fill="none" stroke="black" d="M313,-822.5C307,-822.5 301,-816.5 301,-810.5"/>
<polyline fill="none" stroke="black" points="301,-810.5 301,-588.5 "/>
<path fill="none" stroke="black" d="M301,-588.5C301,-582.5 307,-576.5 313,-576.5"/>
<text text-anchor="middle" x="376.5" y="-805.9" font-family="Times Roman,serif" font-size="14.00">ProgramsController</text>
<polyline fill="none" stroke="black" points="301,-796.5 452,-796.5 "/>
<text text-anchor="start" x="309" y="-779.9" font-family="Times Roman,serif" font-size="14.00">category</text>
<text text-anchor="start" x="309" y="-761.9" font-family="Times Roman,serif" font-size="14.00">create</text>
<text text-anchor="start" x="309" y="-743.9" font-family="Times Roman,serif" font-size="14.00">edit</text>
<text text-anchor="start" x="309" y="-725.9" font-family="Times Roman,serif" font-size="14.00">index</text>
<text text-anchor="start" x="309" y="-707.9" font-family="Times Roman,serif" font-size="14.00">new</text>
<text text-anchor="start" x="309" y="-689.9" font-family="Times Roman,serif" font-size="14.00">program</text>
<text text-anchor="start" x="309" y="-671.9" font-family="Times Roman,serif" font-size="14.00">projects</text>
<text text-anchor="start" x="309" y="-653.9" font-family="Times Roman,serif" font-size="14.00">show</text>
<text text-anchor="start" x="309" y="-635.9" font-family="Times Roman,serif" font-size="14.00">update</text>
<polyline fill="none" stroke="black" points="301,-626.5 452,-626.5 "/>
<polyline fill="none" stroke="black" points="301,-602.5 452,-602.5 "/>
<text text-anchor="start" x="309" y="-585.9" font-family="Times Roman,serif" font-size="14.00">_layout</text>
</g>
</g>
</svg>
