<?xml version="1.0" encoding="UTF-8" standalone="no"?>
<!DOCTYPE svg PUBLIC "-//W3C//DTD SVG 1.1//EN"
 "http://www.w3.org/Graphics/SVG/1.1/DTD/svg11.dtd">
<!-- Generated by graphviz version 2.26.3 (20100126.1600)
 -->
<!-- Title: controllers_diagram Pages: 1 -->
<svg width="557pt" height="703pt"
 viewBox="0.00 0.00 557.00 703.00" xmlns="http://www.w3.org/2000/svg" xmlns:xlink="http://www.w3.org/1999/xlink">
<g id="graph1" class="graph" transform="scale(1 1) rotate(0) translate(4 699)">
<title>controllers_diagram</title>
<polygon fill="white" stroke="white" points="-4,5 -4,-699 554,-699 554,5 -4,5"/>
<!-- _diagram_info -->
<g id="node1" class="node"><title>_diagram_info</title>
<text text-anchor="start" x="9" y="-562.3" font-family="Times Roman,serif" font-size="13.00">Controllers diagram</text>
<text text-anchor="start" x="9" y="-545.3" font-family="Times Roman,serif" font-size="13.00">Date: Mar 18 2012 &#45; 01:57</text>
<text text-anchor="start" x="9" y="-528.3" font-family="Times Roman,serif" font-size="13.00">Migration version: 20120317082740</text>
<text text-anchor="start" x="9" y="-511.3" font-family="Times Roman,serif" font-size="13.00">Generated by RailRoady 1.0.4</text>
<text text-anchor="start" x="9" y="-494.3" font-family="Times Roman,serif" font-size="13.00">http://railroady.prestonlee.com</text>
</g>
<!-- ProjectsController -->
<g id="node2" class="node"><title>ProjectsController</title>
<polyline fill="none" stroke="black" points="299,-155.5 513,-155.5 "/>
<path fill="none" stroke="black" d="M513,-155.5C519,-155.5 525,-161.5 525,-167.5"/>
<polyline fill="none" stroke="black" points="525,-167.5 525,-353.5 "/>
<path fill="none" stroke="black" d="M525,-353.5C525,-359.5 519,-365.5 513,-365.5"/>
<polyline fill="none" stroke="black" points="513,-365.5 299,-365.5 "/>
<path fill="none" stroke="black" d="M299,-365.5C293,-365.5 287,-359.5 287,-353.5"/>
<polyline fill="none" stroke="black" points="287,-353.5 287,-167.5 "/>
<path fill="none" stroke="black" d="M287,-167.5C287,-161.5 293,-155.5 299,-155.5"/>
<text text-anchor="middle" x="406" y="-348.9" font-family="Times Roman,serif" font-size="14.00">ProjectsController</text>
<polyline fill="none" stroke="black" points="287,-339.5 525,-339.5 "/>
<text text-anchor="start" x="295" y="-322.9" font-family="Times Roman,serif" font-size="14.00">_one_time_conditions_valid_88?</text>
<text text-anchor="start" x="295" y="-304.9" font-family="Times Roman,serif" font-size="14.00">_one_time_conditions_valid_90?</text>
<text text-anchor="start" x="295" y="-286.9" font-family="Times Roman,serif" font-size="14.00">index</text>
<text text-anchor="start" x="295" y="-268.9" font-family="Times Roman,serif" font-size="14.00">show</text>
<polyline fill="none" stroke="black" points="287,-259.5 525,-259.5 "/>
<polyline fill="none" stroke="black" points="287,-235.5 525,-235.5 "/>
<text text-anchor="start" x="295" y="-218.9" font-family="Times Roman,serif" font-size="14.00">_layout</text>
<text text-anchor="start" x="295" y="-200.9" font-family="Times Roman,serif" font-size="14.00">_run_process_action_callbacks</text>
<text text-anchor="start" x="295" y="-182.9" font-family="Times Roman,serif" font-size="14.00">find_program</text>
<text text-anchor="start" x="295" y="-164.9" font-family="Times Roman,serif" font-size="14.00">scope_projects</text>
</g>
<!-- ApplicationController -->
<g id="node3" class="node"><title>ApplicationController</title>
<polyline fill="none" stroke="black" points="299,-397.5 513,-397.5 "/>
<path fill="none" stroke="black" d="M513,-397.5C519,-397.5 525,-403.5 525,-409.5"/>
<polyline fill="none" stroke="black" points="525,-409.5 525,-523.5 "/>
<path fill="none" stroke="black" d="M525,-523.5C525,-529.5 519,-535.5 513,-535.5"/>
<polyline fill="none" stroke="black" points="513,-535.5 299,-535.5 "/>
<path fill="none" stroke="black" d="M299,-535.5C293,-535.5 287,-529.5 287,-523.5"/>
<polyline fill="none" stroke="black" points="287,-523.5 287,-409.5 "/>
<path fill="none" stroke="black" d="M287,-409.5C287,-403.5 293,-397.5 299,-397.5"/>
<text text-anchor="middle" x="406" y="-518.9" font-family="Times Roman,serif" font-size="14.00">ApplicationController</text>
<polyline fill="none" stroke="black" points="287,-509.5 525,-509.5 "/>
<text text-anchor="start" x="295" y="-492.9" font-family="Times Roman,serif" font-size="14.00">_one_time_conditions_valid_60?</text>
<text text-anchor="start" x="295" y="-474.9" font-family="Times Roman,serif" font-size="14.00">new_comment</text>
<polyline fill="none" stroke="black" points="287,-465.5 525,-465.5 "/>
<polyline fill="none" stroke="black" points="287,-441.5 525,-441.5 "/>
<text text-anchor="start" x="295" y="-424.9" font-family="Times Roman,serif" font-size="14.00">_layout</text>
<text text-anchor="start" x="295" y="-406.9" font-family="Times Roman,serif" font-size="14.00">_run_process_action_callbacks</text>
</g>
<!-- BikesController -->
<g id="node4" class="node"><title>BikesController</title>
<polyline fill="none" stroke="black" points="13,-155.5 236,-155.5 "/>
<path fill="none" stroke="black" d="M236,-155.5C242,-155.5 248,-161.5 248,-167.5"/>
<polyline fill="none" stroke="black" points="248,-167.5 248,-425.5 "/>
<path fill="none" stroke="black" d="M248,-425.5C248,-431.5 242,-437.5 236,-437.5"/>
<polyline fill="none" stroke="black" points="236,-437.5 13,-437.5 "/>
<path fill="none" stroke="black" d="M13,-437.5C7,-437.5 1,-431.5 1,-425.5"/>
<polyline fill="none" stroke="black" points="1,-425.5 1,-167.5 "/>
<path fill="none" stroke="black" d="M1,-167.5C1,-161.5 7,-155.5 13,-155.5"/>
<text text-anchor="middle" x="124.5" y="-420.9" font-family="Times Roman,serif" font-size="14.00">BikesController</text>
<polyline fill="none" stroke="black" points="1,-411.5 248,-411.5 "/>
<text text-anchor="start" x="9" y="-394.9" font-family="Times Roman,serif" font-size="14.00">_one_time_conditions_valid_130?</text>
<text text-anchor="start" x="9" y="-376.9" font-family="Times Roman,serif" font-size="14.00">create</text>
<text text-anchor="start" x="9" y="-358.9" font-family="Times Roman,serif" font-size="14.00">edit</text>
<text text-anchor="start" x="9" y="-340.9" font-family="Times Roman,serif" font-size="14.00">index</text>
<text text-anchor="start" x="9" y="-322.9" font-family="Times Roman,serif" font-size="14.00">new</text>
<text text-anchor="start" x="9" y="-304.9" font-family="Times Roman,serif" font-size="14.00">reserve_hook</text>
<text text-anchor="start" x="9" y="-286.9" font-family="Times Roman,serif" font-size="14.00">show</text>
<text text-anchor="start" x="9" y="-268.9" font-family="Times Roman,serif" font-size="14.00">update</text>
<text text-anchor="start" x="9" y="-250.9" font-family="Times Roman,serif" font-size="14.00">vacate_hook</text>
<polyline fill="none" stroke="black" points="1,-241.5 248,-241.5 "/>
<polyline fill="none" stroke="black" points="1,-217.5 248,-217.5 "/>
<text text-anchor="start" x="9" y="-200.9" font-family="Times Roman,serif" font-size="14.00">_layout</text>
<text text-anchor="start" x="9" y="-182.9" font-family="Times Roman,serif" font-size="14.00">_run_process_action_callbacks</text>
<text text-anchor="start" x="9" y="-164.9" font-family="Times Roman,serif" font-size="14.00">fetch_bike</text>
</g>
<!-- HooksController -->
<g id="node5" class="node"><title>HooksController</title>
<polyline fill="none" stroke="black" points="145,-1.5 249,-1.5 "/>
<path fill="none" stroke="black" d="M249,-1.5C255,-1.5 261,-7.5 261,-13.5"/>
<polyline fill="none" stroke="black" points="261,-13.5 261,-91.5 "/>
<path fill="none" stroke="black" d="M261,-91.5C261,-97.5 255,-103.5 249,-103.5"/>
<polyline fill="none" stroke="black" points="249,-103.5 145,-103.5 "/>
<path fill="none" stroke="black" d="M145,-103.5C139,-103.5 133,-97.5 133,-91.5"/>
<polyline fill="none" stroke="black" points="133,-91.5 133,-13.5 "/>
<path fill="none" stroke="black" d="M133,-13.5C133,-7.5 139,-1.5 145,-1.5"/>
<text text-anchor="middle" x="197" y="-86.9" font-family="Times Roman,serif" font-size="14.00">HooksController</text>
<polyline fill="none" stroke="black" points="133,-77.5 261,-77.5 "/>
<text text-anchor="start" x="141" y="-60.9" font-family="Times Roman,serif" font-size="14.00">show</text>
<polyline fill="none" stroke="black" points="133,-51.5 261,-51.5 "/>
<polyline fill="none" stroke="black" points="133,-27.5 261,-27.5 "/>
<text text-anchor="start" x="141" y="-10.9" font-family="Times Roman,serif" font-size="14.00">_layout</text>
</g>
<!-- ProgramsController -->
<g id="node6" class="node"><title>ProgramsController</title>
<polyline fill="none" stroke="black" points="409,-573.5 536,-573.5 "/>
<path fill="none" stroke="black" d="M536,-573.5C542,-573.5 548,-579.5 548,-585.5"/>
<polyline fill="none" stroke="black" points="548,-585.5 548,-681.5 "/>
<path fill="none" stroke="black" d="M548,-681.5C548,-687.5 542,-693.5 536,-693.5"/>
<polyline fill="none" stroke="black" points="536,-693.5 409,-693.5 "/>
<path fill="none" stroke="black" d="M409,-693.5C403,-693.5 397,-687.5 397,-681.5"/>
<polyline fill="none" stroke="black" points="397,-681.5 397,-585.5 "/>
<path fill="none" stroke="black" d="M397,-585.5C397,-579.5 403,-573.5 409,-573.5"/>
<text text-anchor="middle" x="472.5" y="-676.9" font-family="Times Roman,serif" font-size="14.00">ProgramsController</text>
<polyline fill="none" stroke="black" points="397,-667.5 548,-667.5 "/>
<text text-anchor="start" x="405" y="-650.9" font-family="Times Roman,serif" font-size="14.00">index</text>
<text text-anchor="start" x="405" y="-632.9" font-family="Times Roman,serif" font-size="14.00">show</text>
<polyline fill="none" stroke="black" points="397,-623.5 548,-623.5 "/>
<polyline fill="none" stroke="black" points="397,-599.5 548,-599.5 "/>
<text text-anchor="start" x="405" y="-582.9" font-family="Times Roman,serif" font-size="14.00">_layout</text>
</g>
</g>
</svg>
