<?xml version="1.0" encoding="UTF-8" standalone="no"?>
<!DOCTYPE svg PUBLIC "-//W3C//DTD SVG 1.1//EN"
 "http://www.w3.org/Graphics/SVG/1.1/DTD/svg11.dtd">
<!-- Generated by graphviz version 2.26.3 (20100126.1600)
 -->
<!-- Title: controllers_diagram Pages: 1 -->
<svg width="710pt" height="707pt"
 viewBox="0.00 0.00 710.00 707.00" xmlns="http://www.w3.org/2000/svg" xmlns:xlink="http://www.w3.org/1999/xlink">
<g id="graph1" class="graph" transform="scale(1 1) rotate(0) translate(4 703)">
<title>controllers_diagram</title>
<polygon fill="white" stroke="white" points="-4,5 -4,-703 707,-703 707,5 -4,5"/>
<!-- _diagram_info -->
<g id="node1" class="node"><title>_diagram_info</title>
<text text-anchor="start" x="185" y="-584.3" font-family="Times Roman,serif" font-size="13.00">Controllers diagram</text>
<text text-anchor="start" x="185" y="-567.3" font-family="Times Roman,serif" font-size="13.00">Date: Mar 27 2012 &#45; 02:07</text>
<text text-anchor="start" x="185" y="-550.3" font-family="Times Roman,serif" font-size="13.00">Migration version: 20120321122710</text>
<text text-anchor="start" x="185" y="-533.3" font-family="Times Roman,serif" font-size="13.00">Generated by RailRoady 1.0.4</text>
<text text-anchor="start" x="185" y="-516.3" font-family="Times Roman,serif" font-size="13.00">http://railroady.prestonlee.com</text>
</g>
<!-- ProjectsController -->
<g id="node2" class="node"><title>ProjectsController</title>
<polyline fill="none" stroke="black" points="167,-155.5 381,-155.5 "/>
<path fill="none" stroke="black" d="M381,-155.5C387,-155.5 393,-161.5 393,-167.5"/>
<polyline fill="none" stroke="black" points="393,-167.5 393,-443.5 "/>
<path fill="none" stroke="black" d="M393,-443.5C393,-449.5 387,-455.5 381,-455.5"/>
<polyline fill="none" stroke="black" points="381,-455.5 167,-455.5 "/>
<path fill="none" stroke="black" d="M167,-455.5C161,-455.5 155,-449.5 155,-443.5"/>
<polyline fill="none" stroke="black" points="155,-443.5 155,-167.5 "/>
<path fill="none" stroke="black" d="M155,-167.5C155,-161.5 161,-155.5 167,-155.5"/>
<text text-anchor="middle" x="274" y="-438.9" font-family="Times Roman,serif" font-size="14.00">ProjectsController</text>
<polyline fill="none" stroke="black" points="155,-429.5 393,-429.5 "/>
<text text-anchor="start" x="163" y="-412.9" font-family="Times Roman,serif" font-size="14.00">_one_time_conditions_valid_96?</text>
<text text-anchor="start" x="163" y="-394.9" font-family="Times Roman,serif" font-size="14.00">_one_time_conditions_valid_98?</text>
<text text-anchor="start" x="163" y="-376.9" font-family="Times Roman,serif" font-size="14.00">create</text>
<text text-anchor="start" x="163" y="-358.9" font-family="Times Roman,serif" font-size="14.00">destroy</text>
<text text-anchor="start" x="163" y="-340.9" font-family="Times Roman,serif" font-size="14.00">index</text>
<text text-anchor="start" x="163" y="-322.9" font-family="Times Roman,serif" font-size="14.00">new</text>
<text text-anchor="start" x="163" y="-304.9" font-family="Times Roman,serif" font-size="14.00">show</text>
<text text-anchor="start" x="163" y="-286.9" font-family="Times Roman,serif" font-size="14.00">update</text>
<polyline fill="none" stroke="black" points="155,-277.5 393,-277.5 "/>
<polyline fill="none" stroke="black" points="155,-253.5 393,-253.5 "/>
<text text-anchor="start" x="163" y="-236.9" font-family="Times Roman,serif" font-size="14.00">_layout</text>
<text text-anchor="start" x="163" y="-218.9" font-family="Times Roman,serif" font-size="14.00">_run_process_action_callbacks</text>
<text text-anchor="start" x="163" y="-200.9" font-family="Times Roman,serif" font-size="14.00">find_program</text>
<text text-anchor="start" x="163" y="-182.9" font-family="Times Roman,serif" font-size="14.00">get_bike_and_project_instances</text>
<text text-anchor="start" x="163" y="-164.9" font-family="Times Roman,serif" font-size="14.00">scope_projects</text>
</g>
<!-- ApplicationController -->
<g id="node3" class="node"><title>ApplicationController</title>
<polyline fill="none" stroke="black" points="475,-485.5 689,-485.5 "/>
<path fill="none" stroke="black" d="M689,-485.5C695,-485.5 701,-491.5 701,-497.5"/>
<polyline fill="none" stroke="black" points="701,-497.5 701,-611.5 "/>
<path fill="none" stroke="black" d="M701,-611.5C701,-617.5 695,-623.5 689,-623.5"/>
<polyline fill="none" stroke="black" points="689,-623.5 475,-623.5 "/>
<path fill="none" stroke="black" d="M475,-623.5C469,-623.5 463,-617.5 463,-611.5"/>
<polyline fill="none" stroke="black" points="463,-611.5 463,-497.5 "/>
<path fill="none" stroke="black" d="M463,-497.5C463,-491.5 469,-485.5 475,-485.5"/>
<text text-anchor="middle" x="582" y="-606.9" font-family="Times Roman,serif" font-size="14.00">ApplicationController</text>
<polyline fill="none" stroke="black" points="463,-597.5 701,-597.5 "/>
<text text-anchor="start" x="471" y="-580.9" font-family="Times Roman,serif" font-size="14.00">_one_time_conditions_valid_60?</text>
<text text-anchor="start" x="471" y="-562.9" font-family="Times Roman,serif" font-size="14.00">new_comment</text>
<polyline fill="none" stroke="black" points="463,-553.5 701,-553.5 "/>
<polyline fill="none" stroke="black" points="463,-529.5 701,-529.5 "/>
<text text-anchor="start" x="471" y="-512.9" font-family="Times Roman,serif" font-size="14.00">_layout</text>
<text text-anchor="start" x="471" y="-494.9" font-family="Times Roman,serif" font-size="14.00">_run_process_action_callbacks</text>
</g>
<!-- BikesController -->
<g id="node4" class="node"><title>BikesController</title>
<polyline fill="none" stroke="black" points="453,-155.5 676,-155.5 "/>
<path fill="none" stroke="black" d="M676,-155.5C682,-155.5 688,-161.5 688,-167.5"/>
<polyline fill="none" stroke="black" points="688,-167.5 688,-425.5 "/>
<path fill="none" stroke="black" d="M688,-425.5C688,-431.5 682,-437.5 676,-437.5"/>
<polyline fill="none" stroke="black" points="676,-437.5 453,-437.5 "/>
<path fill="none" stroke="black" d="M453,-437.5C447,-437.5 441,-431.5 441,-425.5"/>
<polyline fill="none" stroke="black" points="441,-425.5 441,-167.5 "/>
<path fill="none" stroke="black" d="M441,-167.5C441,-161.5 447,-155.5 453,-155.5"/>
<text text-anchor="middle" x="564.5" y="-420.9" font-family="Times Roman,serif" font-size="14.00">BikesController</text>
<polyline fill="none" stroke="black" points="441,-411.5 688,-411.5 "/>
<text text-anchor="start" x="449" y="-394.9" font-family="Times Roman,serif" font-size="14.00">_one_time_conditions_valid_134?</text>
<text text-anchor="start" x="449" y="-376.9" font-family="Times Roman,serif" font-size="14.00">create</text>
<text text-anchor="start" x="449" y="-358.9" font-family="Times Roman,serif" font-size="14.00">edit</text>
<text text-anchor="start" x="449" y="-340.9" font-family="Times Roman,serif" font-size="14.00">index</text>
<text text-anchor="start" x="449" y="-322.9" font-family="Times Roman,serif" font-size="14.00">new</text>
<text text-anchor="start" x="449" y="-304.9" font-family="Times Roman,serif" font-size="14.00">reserve_hook</text>
<text text-anchor="start" x="449" y="-286.9" font-family="Times Roman,serif" font-size="14.00">show</text>
<text text-anchor="start" x="449" y="-268.9" font-family="Times Roman,serif" font-size="14.00">update</text>
<text text-anchor="start" x="449" y="-250.9" font-family="Times Roman,serif" font-size="14.00">vacate_hook</text>
<polyline fill="none" stroke="black" points="441,-241.5 688,-241.5 "/>
<polyline fill="none" stroke="black" points="441,-217.5 688,-217.5 "/>
<text text-anchor="start" x="449" y="-200.9" font-family="Times Roman,serif" font-size="14.00">_layout</text>
<text text-anchor="start" x="449" y="-182.9" font-family="Times Roman,serif" font-size="14.00">_run_process_action_callbacks</text>
<text text-anchor="start" x="449" y="-164.9" font-family="Times Roman,serif" font-size="14.00">fetch_bike</text>
</g>
<!-- HooksController -->
<g id="node5" class="node"><title>HooksController</title>
<polyline fill="none" stroke="black" points="13,-595.5 117,-595.5 "/>
<path fill="none" stroke="black" d="M117,-595.5C123,-595.5 129,-601.5 129,-607.5"/>
<polyline fill="none" stroke="black" points="129,-607.5 129,-685.5 "/>
<path fill="none" stroke="black" d="M129,-685.5C129,-691.5 123,-697.5 117,-697.5"/>
<polyline fill="none" stroke="black" points="117,-697.5 13,-697.5 "/>
<path fill="none" stroke="black" d="M13,-697.5C7,-697.5 1,-691.5 1,-685.5"/>
<polyline fill="none" stroke="black" points="1,-685.5 1,-607.5 "/>
<path fill="none" stroke="black" d="M1,-607.5C1,-601.5 7,-595.5 13,-595.5"/>
<text text-anchor="middle" x="65" y="-680.9" font-family="Times Roman,serif" font-size="14.00">HooksController</text>
<polyline fill="none" stroke="black" points="1,-671.5 129,-671.5 "/>
<text text-anchor="start" x="9" y="-654.9" font-family="Times Roman,serif" font-size="14.00">show</text>
<polyline fill="none" stroke="black" points="1,-645.5 129,-645.5 "/>
<polyline fill="none" stroke="black" points="1,-621.5 129,-621.5 "/>
<text text-anchor="start" x="9" y="-604.9" font-family="Times Roman,serif" font-size="14.00">_layout</text>
</g>
<!-- ProjectCategoriesController -->
<g id="node6" class="node"><title>ProjectCategoriesController</title>
<polyline fill="none" stroke="black" points="299,-1.5 482,-1.5 "/>
<path fill="none" stroke="black" d="M482,-1.5C488,-1.5 494,-7.5 494,-13.5"/>
<polyline fill="none" stroke="black" points="494,-13.5 494,-91.5 "/>
<path fill="none" stroke="black" d="M494,-91.5C494,-97.5 488,-103.5 482,-103.5"/>
<polyline fill="none" stroke="black" points="482,-103.5 299,-103.5 "/>
<path fill="none" stroke="black" d="M299,-103.5C293,-103.5 287,-97.5 287,-91.5"/>
<polyline fill="none" stroke="black" points="287,-91.5 287,-13.5 "/>
<path fill="none" stroke="black" d="M287,-13.5C287,-7.5 293,-1.5 299,-1.5"/>
<text text-anchor="middle" x="390.5" y="-86.9" font-family="Times Roman,serif" font-size="14.00">ProjectCategoriesController</text>
<polyline fill="none" stroke="black" points="287,-77.5 494,-77.5 "/>
<text text-anchor="start" x="295" y="-60.9" font-family="Times Roman,serif" font-size="14.00">show</text>
<polyline fill="none" stroke="black" points="287,-51.5 494,-51.5 "/>
<polyline fill="none" stroke="black" points="287,-27.5 494,-27.5 "/>
<text text-anchor="start" x="295" y="-10.9" font-family="Times Roman,serif" font-size="14.00">_layout</text>
</g>
<!-- ProgramsController -->
<g id="node7" class="node"><title>ProgramsController</title>
<polyline fill="none" stroke="black" points="541,-1.5 668,-1.5 "/>
<path fill="none" stroke="black" d="M668,-1.5C674,-1.5 680,-7.5 680,-13.5"/>
<polyline fill="none" stroke="black" points="680,-13.5 680,-109.5 "/>
<path fill="none" stroke="black" d="M680,-109.5C680,-115.5 674,-121.5 668,-121.5"/>
<polyline fill="none" stroke="black" points="668,-121.5 541,-121.5 "/>
<path fill="none" stroke="black" d="M541,-121.5C535,-121.5 529,-115.5 529,-109.5"/>
<polyline fill="none" stroke="black" points="529,-109.5 529,-13.5 "/>
<path fill="none" stroke="black" d="M529,-13.5C529,-7.5 535,-1.5 541,-1.5"/>
<text text-anchor="middle" x="604.5" y="-104.9" font-family="Times Roman,serif" font-size="14.00">ProgramsController</text>
<polyline fill="none" stroke="black" points="529,-95.5 680,-95.5 "/>
<text text-anchor="start" x="537" y="-78.9" font-family="Times Roman,serif" font-size="14.00">index</text>
<text text-anchor="start" x="537" y="-60.9" font-family="Times Roman,serif" font-size="14.00">show</text>
<polyline fill="none" stroke="black" points="529,-51.5 680,-51.5 "/>
<polyline fill="none" stroke="black" points="529,-27.5 680,-27.5 "/>
<text text-anchor="start" x="537" y="-10.9" font-family="Times Roman,serif" font-size="14.00">_layout</text>
</g>
</g>
</svg>
