<?xml version="1.0" encoding="UTF-8" standalone="no"?>
<!DOCTYPE svg PUBLIC "-//W3C//DTD SVG 1.1//EN"
 "http://www.w3.org/Graphics/SVG/1.1/DTD/svg11.dtd">
<!-- Generated by graphviz version 2.26.3 (20100126.1600)
 -->
<!-- Title: controllers_diagram Pages: 1 -->
<svg width="476pt" height="437pt"
 viewBox="0.00 0.00 476.00 437.00" xmlns="http://www.w3.org/2000/svg" xmlns:xlink="http://www.w3.org/1999/xlink">
<g id="graph1" class="graph" transform="scale(1 1) rotate(0) translate(4 433)">
<title>controllers_diagram</title>
<polygon fill="white" stroke="white" points="-4,5 -4,-433 473,-433 473,5 -4,5"/>
<!-- _diagram_info -->
<g id="node1" class="node"><title>_diagram_info</title>
<text text-anchor="start" x="225" y="-312.3" font-family="Times Roman,serif" font-size="13.00">Controllers diagram</text>
<text text-anchor="start" x="225" y="-295.3" font-family="Times Roman,serif" font-size="13.00">Date: Mar 02 2012 &#45; 23:48</text>
<text text-anchor="start" x="225" y="-278.3" font-family="Times Roman,serif" font-size="13.00">Migration version: 20120303031743</text>
<text text-anchor="start" x="225" y="-261.3" font-family="Times Roman,serif" font-size="13.00">Generated by RailRoady 1.0.4</text>
<text text-anchor="start" x="225" y="-244.3" font-family="Times Roman,serif" font-size="13.00">http://railroady.prestonlee.com</text>
</g>
<!-- ApplicationController -->
<g id="node2" class="node"><title>ApplicationController</title>
<polyline fill="none" stroke="black" points="13,-73.5 227,-73.5 "/>
<path fill="none" stroke="black" d="M227,-73.5C233,-73.5 239,-79.5 239,-85.5"/>
<polyline fill="none" stroke="black" points="239,-85.5 239,-181.5 "/>
<path fill="none" stroke="black" d="M239,-181.5C239,-187.5 233,-193.5 227,-193.5"/>
<polyline fill="none" stroke="black" points="227,-193.5 13,-193.5 "/>
<path fill="none" stroke="black" d="M13,-193.5C7,-193.5 1,-187.5 1,-181.5"/>
<polyline fill="none" stroke="black" points="1,-181.5 1,-85.5 "/>
<path fill="none" stroke="black" d="M1,-85.5C1,-79.5 7,-73.5 13,-73.5"/>
<text text-anchor="middle" x="120" y="-176.9" font-family="Times Roman,serif" font-size="14.00">ApplicationController</text>
<polyline fill="none" stroke="black" points="1,-167.5 239,-167.5 "/>
<text text-anchor="start" x="9" y="-150.9" font-family="Times Roman,serif" font-size="14.00">_one_time_conditions_valid_60?</text>
<polyline fill="none" stroke="black" points="1,-141.5 239,-141.5 "/>
<polyline fill="none" stroke="black" points="1,-117.5 239,-117.5 "/>
<text text-anchor="start" x="9" y="-100.9" font-family="Times Roman,serif" font-size="14.00">_layout</text>
<text text-anchor="start" x="9" y="-82.9" font-family="Times Roman,serif" font-size="14.00">_run_process_action_callbacks</text>
</g>
<!-- BikesController -->
<g id="node3" class="node"><title>BikesController</title>
<polyline fill="none" stroke="black" points="67,-235.5 165,-235.5 "/>
<path fill="none" stroke="black" d="M165,-235.5C171,-235.5 177,-241.5 177,-247.5"/>
<polyline fill="none" stroke="black" points="177,-247.5 177,-415.5 "/>
<path fill="none" stroke="black" d="M177,-415.5C177,-421.5 171,-427.5 165,-427.5"/>
<polyline fill="none" stroke="black" points="165,-427.5 67,-427.5 "/>
<path fill="none" stroke="black" d="M67,-427.5C61,-427.5 55,-421.5 55,-415.5"/>
<polyline fill="none" stroke="black" points="55,-415.5 55,-247.5 "/>
<path fill="none" stroke="black" d="M55,-247.5C55,-241.5 61,-235.5 67,-235.5"/>
<text text-anchor="middle" x="116" y="-410.9" font-family="Times Roman,serif" font-size="14.00">BikesController</text>
<polyline fill="none" stroke="black" points="55,-401.5 177,-401.5 "/>
<text text-anchor="start" x="63" y="-384.9" font-family="Times Roman,serif" font-size="14.00">create</text>
<text text-anchor="start" x="63" y="-366.9" font-family="Times Roman,serif" font-size="14.00">edit</text>
<text text-anchor="start" x="63" y="-348.9" font-family="Times Roman,serif" font-size="14.00">index</text>
<text text-anchor="start" x="63" y="-330.9" font-family="Times Roman,serif" font-size="14.00">new</text>
<text text-anchor="start" x="63" y="-312.9" font-family="Times Roman,serif" font-size="14.00">show</text>
<text text-anchor="start" x="63" y="-294.9" font-family="Times Roman,serif" font-size="14.00">update</text>
<polyline fill="none" stroke="black" points="55,-285.5 177,-285.5 "/>
<polyline fill="none" stroke="black" points="55,-261.5 177,-261.5 "/>
<text text-anchor="start" x="63" y="-244.9" font-family="Times Roman,serif" font-size="14.00">_layout</text>
</g>
<!-- HooksController -->
<g id="node4" class="node"><title>HooksController</title>
<polyline fill="none" stroke="black" points="283,-1.5 387,-1.5 "/>
<path fill="none" stroke="black" d="M387,-1.5C393,-1.5 399,-7.5 399,-13.5"/>
<polyline fill="none" stroke="black" points="399,-13.5 399,-89.5 "/>
<path fill="none" stroke="black" d="M399,-89.5C399,-95.5 393,-101.5 387,-101.5"/>
<polyline fill="none" stroke="black" points="387,-101.5 283,-101.5 "/>
<path fill="none" stroke="black" d="M283,-101.5C277,-101.5 271,-95.5 271,-89.5"/>
<polyline fill="none" stroke="black" points="271,-89.5 271,-13.5 "/>
<path fill="none" stroke="black" d="M271,-13.5C271,-7.5 277,-1.5 283,-1.5"/>
<text text-anchor="middle" x="335" y="-84.9" font-family="Times Roman,serif" font-size="14.00">HooksController</text>
<polyline fill="none" stroke="black" points="271,-75.5 399,-75.5 "/>
<polyline fill="none" stroke="black" points="271,-51.5 399,-51.5 "/>
<polyline fill="none" stroke="black" points="271,-27.5 399,-27.5 "/>
<text text-anchor="start" x="279" y="-10.9" font-family="Times Roman,serif" font-size="14.00">_layout</text>
</g>
</g>
</svg>
