<?xml version="1.0" encoding="UTF-8" standalone="no"?>
<!DOCTYPE svg PUBLIC "-//W3C//DTD SVG 1.1//EN"
 "http://www.w3.org/Graphics/SVG/1.1/DTD/svg11.dtd">
<!-- Generated by graphviz version 2.26.3 (20100126.1600)
 -->
<!-- Title: models_diagram Pages: 1 -->
<svg width="724pt" height="476pt"
 viewBox="0.00 0.00 724.00 476.00" xmlns="http://www.w3.org/2000/svg" xmlns:xlink="http://www.w3.org/1999/xlink">
<g id="graph1" class="graph" transform="scale(1 1) rotate(0) translate(4 472)">
<title>models_diagram</title>
<polygon fill="white" stroke="white" points="-4,5 -4,-472 721,-472 721,5 -4,5"/>
<!-- _diagram_info -->
<g id="node1" class="node"><title>_diagram_info</title>
<text text-anchor="start" x="8" y="-381.8" font-family="Times Roman,serif" font-size="13.00">Models diagram</text>
<text text-anchor="start" x="8" y="-364.8" font-family="Times Roman,serif" font-size="13.00">Date: Mar 03 2012 &#45; 06:55</text>
<text text-anchor="start" x="8" y="-347.8" font-family="Times Roman,serif" font-size="13.00">Migration version: 20120303055945</text>
<text text-anchor="start" x="8" y="-330.8" font-family="Times Roman,serif" font-size="13.00">Generated by RailRoady 1.0.4</text>
<text text-anchor="start" x="8" y="-313.8" font-family="Times Roman,serif" font-size="13.00">http://railroady.prestonlee.com</text>
</g>
<!-- Bike -->
<g id="node2" class="node"><title>Bike</title>
<polyline fill="none" stroke="black" points="279.5,-244 432.5,-244 "/>
<path fill="none" stroke="black" d="M432.5,-244C438.5,-244 444.5,-250 444.5,-256"/>
<polyline fill="none" stroke="black" points="444.5,-256 444.5,-446 "/>
<path fill="none" stroke="black" d="M444.5,-446C444.5,-452 438.5,-458 432.5,-458"/>
<polyline fill="none" stroke="black" points="432.5,-458 279.5,-458 "/>
<path fill="none" stroke="black" d="M279.5,-458C273.5,-458 267.5,-452 267.5,-446"/>
<polyline fill="none" stroke="black" points="267.5,-446 267.5,-256 "/>
<path fill="none" stroke="black" d="M267.5,-256C267.5,-250 273.5,-244 279.5,-244"/>
<text text-anchor="middle" x="356" y="-441.4" font-family="Times Roman,serif" font-size="14.00">Bike</text>
<polyline fill="none" stroke="black" points="267.5,-432 444.5,-432 "/>
<text text-anchor="start" x="275.5" y="-415.4" font-family="Times Roman,serif" font-size="14.00">color :string</text>
<text text-anchor="start" x="275.5" y="-397.4" font-family="Times Roman,serif" font-size="14.00">value :float</text>
<text text-anchor="start" x="275.5" y="-379.4" font-family="Times Roman,serif" font-size="14.00">seat_tube_height :float</text>
<text text-anchor="start" x="275.5" y="-361.4" font-family="Times Roman,serif" font-size="14.00">top_tube_length :float</text>
<text text-anchor="start" x="275.5" y="-343.4" font-family="Times Roman,serif" font-size="14.00">created_at :datetime</text>
<text text-anchor="start" x="275.5" y="-325.4" font-family="Times Roman,serif" font-size="14.00">updated_at :datetime</text>
<text text-anchor="start" x="275.5" y="-307.4" font-family="Times Roman,serif" font-size="14.00">mfg :string</text>
<text text-anchor="start" x="275.5" y="-289.4" font-family="Times Roman,serif" font-size="14.00">model :string</text>
<text text-anchor="start" x="275.5" y="-271.4" font-family="Times Roman,serif" font-size="14.00">number :integer</text>
<text text-anchor="start" x="275.5" y="-253.4" font-family="Times Roman,serif" font-size="14.00">hook_number :integer</text>
</g>
<!-- Hook -->
<g id="node3" class="node"><title>Hook</title>
<polyline fill="none" stroke="black" points="227.5,-37 368.5,-37 "/>
<path fill="none" stroke="black" d="M368.5,-37C374.5,-37 380.5,-43 380.5,-49"/>
<polyline fill="none" stroke="black" points="380.5,-49 380.5,-131 "/>
<path fill="none" stroke="black" d="M380.5,-131C380.5,-137 374.5,-143 368.5,-143"/>
<polyline fill="none" stroke="black" points="368.5,-143 227.5,-143 "/>
<path fill="none" stroke="black" d="M227.5,-143C221.5,-143 215.5,-137 215.5,-131"/>
<polyline fill="none" stroke="black" points="215.5,-131 215.5,-49 "/>
<path fill="none" stroke="black" d="M215.5,-49C215.5,-43 221.5,-37 227.5,-37"/>
<text text-anchor="middle" x="298" y="-126.4" font-family="Times Roman,serif" font-size="14.00">Hook</text>
<polyline fill="none" stroke="black" points="215.5,-117 380.5,-117 "/>
<text text-anchor="start" x="223.5" y="-100.4" font-family="Times Roman,serif" font-size="14.00">number :integer</text>
<text text-anchor="start" x="223.5" y="-82.4" font-family="Times Roman,serif" font-size="14.00">created_at :datetime</text>
<text text-anchor="start" x="223.5" y="-64.4" font-family="Times Roman,serif" font-size="14.00">updated_at :datetime</text>
<text text-anchor="start" x="223.5" y="-46.4" font-family="Times Roman,serif" font-size="14.00">bike_number :integer</text>
</g>
<!-- Bike&#45;&gt;Hook -->
<g id="edge4" class="edge"><title>Bike&#45;&gt;Hook</title>
<path fill="none" stroke="black" d="M330.349,-235.569C323.901,-206.556 317.23,-176.537 311.633,-151.35"/>
<ellipse fill="none" stroke="black" cx="331.29" cy="-239.807" rx="4.00001" ry="4.00001"/>
<ellipse fill="black" stroke="black" cx="310.723" cy="-147.254" rx="4.00001" ry="4.00001"/>
</g>
<!-- Comment -->
<g id="node5" class="node"><title>Comment</title>
<polyline fill="none" stroke="black" points="410,-1 582,-1 "/>
<path fill="none" stroke="black" d="M582,-1C588,-1 594,-7 594,-13"/>
<polyline fill="none" stroke="black" points="594,-13 594,-167 "/>
<path fill="none" stroke="black" d="M594,-167C594,-173 588,-179 582,-179"/>
<polyline fill="none" stroke="black" points="582,-179 410,-179 "/>
<path fill="none" stroke="black" d="M410,-179C404,-179 398,-173 398,-167"/>
<polyline fill="none" stroke="black" points="398,-167 398,-13 "/>
<path fill="none" stroke="black" d="M398,-13C398,-7 404,-1 410,-1"/>
<text text-anchor="middle" x="496" y="-162.4" font-family="Times Roman,serif" font-size="14.00">Comment</text>
<polyline fill="none" stroke="black" points="398,-153 594,-153 "/>
<text text-anchor="start" x="406" y="-136.4" font-family="Times Roman,serif" font-size="14.00">commentable_type :string</text>
<text text-anchor="start" x="406" y="-118.4" font-family="Times Roman,serif" font-size="14.00">title :string</text>
<text text-anchor="start" x="406" y="-100.4" font-family="Times Roman,serif" font-size="14.00">body :text</text>
<text text-anchor="start" x="406" y="-82.4" font-family="Times Roman,serif" font-size="14.00">subject :string</text>
<text text-anchor="start" x="406" y="-64.4" font-family="Times Roman,serif" font-size="14.00">lft :integer</text>
<text text-anchor="start" x="406" y="-46.4" font-family="Times Roman,serif" font-size="14.00">rgt :integer</text>
<text text-anchor="start" x="406" y="-28.4" font-family="Times Roman,serif" font-size="14.00">created_at :datetime</text>
<text text-anchor="start" x="406" y="-10.4" font-family="Times Roman,serif" font-size="14.00">updated_at :datetime</text>
</g>
<!-- Bike&#45;&gt;Comment -->
<g id="edge2" class="edge"><title>Bike&#45;&gt;Comment</title>
<path fill="none" stroke="black" d="M417.351,-236.625C426.006,-220.489 434.84,-204.02 443.313,-188.223"/>
<ellipse fill="none" stroke="black" cx="415.44" cy="-240.187" rx="4.00002" ry="4.00002"/>
<polygon fill="black" stroke="black" points="443.529,-187.82 452.222,-181.135 445.893,-183.414 448.256,-179.008 448.256,-179.008 448.256,-179.008 445.893,-183.414 444.291,-176.881 443.529,-187.82 443.529,-187.82"/>
<text text-anchor="middle" x="496" y="-203.4" font-family="Times Roman,serif" font-size="14.00">comment_threads</text>
</g>
<!-- User -->
<g id="node4" class="node"><title>User</title>
<polyline fill="none" stroke="black" points="474,-235 704,-235 "/>
<path fill="none" stroke="black" d="M704,-235C710,-235 716,-241 716,-247"/>
<polyline fill="none" stroke="black" points="716,-247 716,-455 "/>
<path fill="none" stroke="black" d="M716,-455C716,-461 710,-467 704,-467"/>
<polyline fill="none" stroke="black" points="704,-467 474,-467 "/>
<path fill="none" stroke="black" d="M474,-467C468,-467 462,-461 462,-455"/>
<polyline fill="none" stroke="black" points="462,-455 462,-247 "/>
<path fill="none" stroke="black" d="M462,-247C462,-241 468,-235 474,-235"/>
<text text-anchor="middle" x="589" y="-450.4" font-family="Times Roman,serif" font-size="14.00">User</text>
<polyline fill="none" stroke="black" points="462,-441 716,-441 "/>
<text text-anchor="start" x="470" y="-424.4" font-family="Times Roman,serif" font-size="14.00">email :string</text>
<text text-anchor="start" x="470" y="-406.4" font-family="Times Roman,serif" font-size="14.00">encrypted_password :string</text>
<text text-anchor="start" x="470" y="-388.4" font-family="Times Roman,serif" font-size="14.00">reset_password_token :string</text>
<text text-anchor="start" x="470" y="-370.4" font-family="Times Roman,serif" font-size="14.00">reset_password_sent_at :datetime</text>
<text text-anchor="start" x="470" y="-352.4" font-family="Times Roman,serif" font-size="14.00">remember_created_at :datetime</text>
<text text-anchor="start" x="470" y="-334.4" font-family="Times Roman,serif" font-size="14.00">current_sign_in_at :datetime</text>
<text text-anchor="start" x="470" y="-316.4" font-family="Times Roman,serif" font-size="14.00">last_sign_in_at :datetime</text>
<text text-anchor="start" x="470" y="-298.4" font-family="Times Roman,serif" font-size="14.00">current_sign_in_ip :string</text>
<text text-anchor="start" x="470" y="-280.4" font-family="Times Roman,serif" font-size="14.00">last_sign_in_ip :string</text>
<text text-anchor="start" x="470" y="-262.4" font-family="Times Roman,serif" font-size="14.00">created_at :datetime</text>
<text text-anchor="start" x="470" y="-244.4" font-family="Times Roman,serif" font-size="14.00">updated_at :datetime</text>
</g>
<!-- Comment&#45;&gt;Comment -->
<g id="edge6" class="edge"><title>Comment&#45;&gt;Comment</title>
<path fill="none" stroke="black" d="M601.931,-104.972C608.227,-101.396 612,-96.4057 612,-90 612,-84.1395 608.842,-79.4633 603.483,-75.9714"/>
<ellipse fill="none" stroke="black" cx="597.845" cy="-106.722" rx="4.00001" ry="4.00001"/>
<polygon fill="black" stroke="black" points="603.259,-75.8688 596.042,-67.6119 598.713,-73.7858 594.168,-71.7029 594.168,-71.7029 594.168,-71.7029 598.713,-73.7858 592.293,-75.7938 603.259,-75.8688 603.259,-75.8688"/>
<text text-anchor="middle" x="639.5" y="-86.4" font-family="Times Roman,serif" font-size="14.00">children</text>
</g>
</g>
</svg>
