<?xml version="1.0" encoding="UTF-8" standalone="no"?>
<!DOCTYPE svg PUBLIC "-//W3C//DTD SVG 1.1//EN"
 "http://www.w3.org/Graphics/SVG/1.1/DTD/svg11.dtd">
<!-- Generated by graphviz version 2.36.0 (20140111.2315)
 -->
<!-- Title: models_diagram Pages: 1 -->
<svg width="1713pt" height="1306pt"
 viewBox="0.00 0.00 1713.00 1306.00" xmlns="http://www.w3.org/2000/svg" xmlns:xlink="http://www.w3.org/1999/xlink">
<g id="graph0" class="graph" transform="scale(1 1) rotate(0) translate(4 1302)">
<title>models_diagram</title>
<polygon fill="white" stroke="none" points="-4,4 -4,-1302 1709,-1302 1709,4 -4,4"/>
<!-- _diagram_info -->
<g id="node1" class="node"><title>_diagram_info</title>
<text text-anchor="start" x="8" y="-1283.6" font-family="Times,serif" font-size="13.00">Models diagram</text>
<text text-anchor="start" x="8" y="-1269.6" font-family="Times,serif" font-size="13.00">Date: Aug 27 2014 &#45; 22:49</text>
<text text-anchor="start" x="8" y="-1255.6" font-family="Times,serif" font-size="13.00">Migration version: 20130721165753</text>
<text text-anchor="start" x="8" y="-1241.6" font-family="Times,serif" font-size="13.00">Generated by RailRoady 1.1.1</text>
<text text-anchor="start" x="8" y="-1227.6" font-family="Times,serif" font-size="13.00">http://railroady.prestonlee.com</text>
</g>
<!-- BikeNumber -->
<g id="node2" class="node"><title>BikeNumber</title>
<polygon fill="none" stroke="black" points="-0.5,-1045 -0.5,-1091 86.5,-1091 86.5,-1045 -0.5,-1045"/>
<text text-anchor="middle" x="43" y="-1075.8" font-family="Times,serif" font-size="14.00">BikeNumber</text>
<polyline fill="none" stroke="black" points="-0.5,-1068 86.5,-1068 "/>
<text text-anchor="middle" x="43" y="-1052.8" font-family="Times,serif" font-size="14.00"> </text>
</g>
<!-- Bike -->
<g id="node3" class="node"><title>Bike</title>
<path fill="none" stroke="black" d="M888.5,-454.5C888.5,-454.5 1007.5,-454.5 1007.5,-454.5 1013.5,-454.5 1019.5,-460.5 1019.5,-466.5 1019.5,-466.5 1019.5,-653.5 1019.5,-653.5 1019.5,-659.5 1013.5,-665.5 1007.5,-665.5 1007.5,-665.5 888.5,-665.5 888.5,-665.5 882.5,-665.5 876.5,-659.5 876.5,-653.5 876.5,-653.5 876.5,-466.5 876.5,-466.5 876.5,-460.5 882.5,-454.5 888.5,-454.5"/>
<text text-anchor="middle" x="948" y="-650.3" font-family="Times,serif" font-size="14.00">Bike</text>
<polyline fill="none" stroke="black" points="876.5,-642.5 1019.5,-642.5 "/>
<text text-anchor="start" x="884.5" y="-627.3" font-family="Times,serif" font-size="14.00">id :integer</text>
<text text-anchor="start" x="884.5" y="-612.3" font-family="Times,serif" font-size="14.00">color :string</text>
<text text-anchor="start" x="884.5" y="-597.3" font-family="Times,serif" font-size="14.00">value :float</text>
<text text-anchor="start" x="884.5" y="-582.3" font-family="Times,serif" font-size="14.00">seat_tube_height :float</text>
<text text-anchor="start" x="884.5" y="-567.3" font-family="Times,serif" font-size="14.00">top_tube_length :float</text>
<text text-anchor="start" x="884.5" y="-552.3" font-family="Times,serif" font-size="14.00">wheel_size :integer</text>
<text text-anchor="start" x="884.5" y="-537.3" font-family="Times,serif" font-size="14.00">bike_model_id :integer</text>
<text text-anchor="start" x="884.5" y="-522.3" font-family="Times,serif" font-size="14.00">number_record :string</text>
<text text-anchor="start" x="884.5" y="-507.3" font-family="Times,serif" font-size="14.00">quality :string</text>
<text text-anchor="start" x="884.5" y="-492.3" font-family="Times,serif" font-size="14.00">condition :string</text>
<text text-anchor="start" x="884.5" y="-477.3" font-family="Times,serif" font-size="14.00">created_at :datetime</text>
<text text-anchor="start" x="884.5" y="-462.3" font-family="Times,serif" font-size="14.00">updated_at :datetime</text>
</g>
<!-- Assignment -->
<g id="node4" class="node"><title>Assignment</title>
<path fill="none" stroke="black" d="M1102.5,-235.5C1102.5,-235.5 1223.5,-235.5 1223.5,-235.5 1229.5,-235.5 1235.5,-241.5 1235.5,-247.5 1235.5,-247.5 1235.5,-344.5 1235.5,-344.5 1235.5,-350.5 1229.5,-356.5 1223.5,-356.5 1223.5,-356.5 1102.5,-356.5 1102.5,-356.5 1096.5,-356.5 1090.5,-350.5 1090.5,-344.5 1090.5,-344.5 1090.5,-247.5 1090.5,-247.5 1090.5,-241.5 1096.5,-235.5 1102.5,-235.5"/>
<text text-anchor="middle" x="1163" y="-341.3" font-family="Times,serif" font-size="14.00">Assignment</text>
<polyline fill="none" stroke="black" points="1090.5,-333.5 1235.5,-333.5 "/>
<text text-anchor="start" x="1098.5" y="-318.3" font-family="Times,serif" font-size="14.00">id :integer</text>
<text text-anchor="start" x="1098.5" y="-303.3" font-family="Times,serif" font-size="14.00">bike_id :integer</text>
<text text-anchor="start" x="1098.5" y="-288.3" font-family="Times,serif" font-size="14.00">application_id :integer</text>
<text text-anchor="start" x="1098.5" y="-273.3" font-family="Times,serif" font-size="14.00">application_type :string</text>
<text text-anchor="start" x="1098.5" y="-258.3" font-family="Times,serif" font-size="14.00">created_at :datetime</text>
<text text-anchor="start" x="1098.5" y="-243.3" font-family="Times,serif" font-size="14.00">updated_at :datetime</text>
</g>
<!-- Bike&#45;&gt;Assignment -->
<g id="edge6" class="edge"><title>Bike&#45;&gt;Assignment</title>
<path fill="none" stroke="#d0c607" d="M1024.72,-465.508C1052.51,-431.647 1083.29,-394.136 1108.74,-363.117"/>
<ellipse fill="none" stroke="#d0c607" cx="1022.13" cy="-468.666" rx="4.00002" ry="4.00002"/>
<ellipse fill="#d0c607" stroke="#d0c607" cx="1111.55" cy="-359.692" rx="4.00002" ry="4.00002"/>
</g>
<!-- Hook -->
<g id="node8" class="node"><title>Hook</title>
<path fill="none" stroke="black" d="M755,-250.5C755,-250.5 869,-250.5 869,-250.5 875,-250.5 881,-256.5 881,-262.5 881,-262.5 881,-329.5 881,-329.5 881,-335.5 875,-341.5 869,-341.5 869,-341.5 755,-341.5 755,-341.5 749,-341.5 743,-335.5 743,-329.5 743,-329.5 743,-262.5 743,-262.5 743,-256.5 749,-250.5 755,-250.5"/>
<text text-anchor="middle" x="812" y="-326.3" font-family="Times,serif" font-size="14.00">Hook</text>
<polyline fill="none" stroke="black" points="743,-318.5 881,-318.5 "/>
<text text-anchor="start" x="751" y="-303.3" font-family="Times,serif" font-size="14.00">id :integer</text>
<text text-anchor="start" x="751" y="-288.3" font-family="Times,serif" font-size="14.00">number_record :string</text>
<text text-anchor="start" x="751" y="-273.3" font-family="Times,serif" font-size="14.00">created_at :datetime</text>
<text text-anchor="start" x="751" y="-258.3" font-family="Times,serif" font-size="14.00">updated_at :datetime</text>
</g>
<!-- Bike&#45;&gt;Hook -->
<g id="edge5" class="edge"><title>Bike&#45;&gt;Hook</title>
<path fill="none" stroke="#5ea6db" d="M883.143,-446.937C865.247,-412.901 847.067,-377.124 833.507,-349.057"/>
<ellipse fill="none" stroke="#5ea6db" cx="885.17" cy="-450.783" rx="4.00002" ry="4.00002"/>
<ellipse fill="#5ea6db" stroke="#5ea6db" cx="831.718" cy="-345.33" rx="4.00002" ry="4.00002"/>
</g>
<!-- Comment -->
<g id="node12" class="node"><title>Comment</title>
<path fill="none" stroke="black" d="M1265.5,-190.5C1265.5,-190.5 1400.5,-190.5 1400.5,-190.5 1406.5,-190.5 1412.5,-196.5 1412.5,-202.5 1412.5,-202.5 1412.5,-389.5 1412.5,-389.5 1412.5,-395.5 1406.5,-401.5 1400.5,-401.5 1400.5,-401.5 1265.5,-401.5 1265.5,-401.5 1259.5,-401.5 1253.5,-395.5 1253.5,-389.5 1253.5,-389.5 1253.5,-202.5 1253.5,-202.5 1253.5,-196.5 1259.5,-190.5 1265.5,-190.5"/>
<text text-anchor="middle" x="1333" y="-386.3" font-family="Times,serif" font-size="14.00">Comment</text>
<polyline fill="none" stroke="black" points="1253.5,-378.5 1412.5,-378.5 "/>
<text text-anchor="start" x="1261.5" y="-363.3" font-family="Times,serif" font-size="14.00">id :integer</text>
<text text-anchor="start" x="1261.5" y="-348.3" font-family="Times,serif" font-size="14.00">commentable_id :integer</text>
<text text-anchor="start" x="1261.5" y="-333.3" font-family="Times,serif" font-size="14.00">commentable_type :string</text>
<text text-anchor="start" x="1261.5" y="-318.3" font-family="Times,serif" font-size="14.00">title :string</text>
<text text-anchor="start" x="1261.5" y="-303.3" font-family="Times,serif" font-size="14.00">body :text</text>
<text text-anchor="start" x="1261.5" y="-288.3" font-family="Times,serif" font-size="14.00">subject :string</text>
<text text-anchor="start" x="1261.5" y="-273.3" font-family="Times,serif" font-size="14.00">user_id :integer</text>
<text text-anchor="start" x="1261.5" y="-258.3" font-family="Times,serif" font-size="14.00">parent_id :integer</text>
<text text-anchor="start" x="1261.5" y="-243.3" font-family="Times,serif" font-size="14.00">lft :integer</text>
<text text-anchor="start" x="1261.5" y="-228.3" font-family="Times,serif" font-size="14.00">rgt :integer</text>
<text text-anchor="start" x="1261.5" y="-213.3" font-family="Times,serif" font-size="14.00">created_at :datetime</text>
<text text-anchor="start" x="1261.5" y="-198.3" font-family="Times,serif" font-size="14.00">updated_at :datetime</text>
</g>
<!-- Bike&#45;&gt;Comment -->
<g id="edge2" class="edge"><title>Bike&#45;&gt;Comment</title>
<path fill="none" stroke="#45f3d1" d="M1027.03,-527.022C1089.65,-499.437 1177.37,-455.622 1244,-402 1244.59,-401.522 1245.19,-401.04 1245.78,-400.554"/>
<ellipse fill="none" stroke="#45f3d1" cx="1023.19" cy="-528.703" rx="4.00002" ry="4.00002"/>
<polygon fill="#45f3d1" stroke="#45f3d1" points="1245.81,-400.525 1256.33,-397.427 1249.61,-397.268 1253.4,-394.012 1253.4,-394.012 1253.4,-394.012 1249.61,-397.268 1250.47,-390.597 1245.81,-400.525 1245.81,-400.525"/>
<text text-anchor="middle" x="1264" y="-424.3" font-family="Times,serif" font-size="14.00">comment_threads</text>
</g>
<!-- HookReservation -->
<g id="node13" class="node"><title>HookReservation</title>
<path fill="none" stroke="black" d="M588.5,-1C588.5,-1 695.5,-1 695.5,-1 701.5,-1 707.5,-7 707.5,-13 707.5,-13 707.5,-125 707.5,-125 707.5,-131 701.5,-137 695.5,-137 695.5,-137 588.5,-137 588.5,-137 582.5,-137 576.5,-131 576.5,-125 576.5,-125 576.5,-13 576.5,-13 576.5,-7 582.5,-1 588.5,-1"/>
<text text-anchor="middle" x="642" y="-121.8" font-family="Times,serif" font-size="14.00">HookReservation</text>
<polyline fill="none" stroke="black" points="576.5,-114 707.5,-114 "/>
<text text-anchor="start" x="584.5" y="-98.8" font-family="Times,serif" font-size="14.00">id :integer</text>
<text text-anchor="start" x="584.5" y="-83.8" font-family="Times,serif" font-size="14.00">bike_id :integer</text>
<text text-anchor="start" x="584.5" y="-68.8" font-family="Times,serif" font-size="14.00">hook_id :integer</text>
<text text-anchor="start" x="584.5" y="-53.8" font-family="Times,serif" font-size="14.00">bike_state :string</text>
<text text-anchor="start" x="584.5" y="-38.8" font-family="Times,serif" font-size="14.00">hook_state :string</text>
<text text-anchor="start" x="584.5" y="-23.8" font-family="Times,serif" font-size="14.00">created_at :datetime</text>
<text text-anchor="start" x="584.5" y="-8.8" font-family="Times,serif" font-size="14.00">updated_at :datetime</text>
</g>
<!-- Bike&#45;&gt;HookReservation -->
<g id="edge4" class="edge"><title>Bike&#45;&gt;HookReservation</title>
<path fill="none" stroke="#881da2" d="M870.204,-463.666C866.213,-460.257 862.139,-457.015 858,-454 809.698,-418.81 773.496,-446.849 734,-402 671.007,-330.47 650.79,-219.344 644.502,-145.637"/>
<ellipse fill="none" stroke="#881da2" cx="873.409" cy="-466.503" rx="4.00002" ry="4.00002"/>
<ellipse fill="#881da2" stroke="#881da2" cx="644.154" cy="-141.274" rx="4" ry="4"/>
</g>
<!-- BikeBrand -->
<g id="node23" class="node"><title>BikeBrand</title>
<ellipse fill="none" stroke="black" cx="948" cy="-296" rx="48.6179" ry="18"/>
<text text-anchor="middle" x="948" y="-292.3" font-family="Times,serif" font-size="14.00">BikeBrand</text>
</g>
<!-- Bike&#45;&gt;BikeBrand -->
<g id="edge3" class="edge"><title>Bike&#45;&gt;BikeBrand</title>
<path fill="none" stroke="#957277" d="M948,-446.246C948,-400.441 948,-351.601 948,-322.719"/>
<ellipse fill="none" stroke="#957277" cx="948" cy="-450.321" rx="4" ry="4"/>
<ellipse fill="#957277" stroke="#957277" cx="948" cy="-318.421" rx="4" ry="4"/>
</g>
<!-- Hound::Action -->
<g id="node24" class="node"><title>Hound::Action</title>
<ellipse fill="none" stroke="black" cx="1033" cy="-69" rx="63.5411" ry="18"/>
<text text-anchor="middle" x="1033" y="-65.3" font-family="Times,serif" font-size="14.00">Hound::Action</text>
</g>
<!-- Bike&#45;&gt;Hound::Action -->
<g id="edge7" class="edge"><title>Bike&#45;&gt;Hound::Action</title>
<path fill="none" stroke="#1f9fe3" d="M992.87,-446.445C997.572,-431.669 1001.8,-416.592 1005,-402 1029.42,-290.805 1032.84,-154.351 1033.12,-97.2004"/>
<ellipse fill="none" stroke="#1f9fe3" cx="991.606" cy="-450.336" rx="4.00001" ry="4.00001"/>
<polygon fill="#1f9fe3" stroke="#1f9fe3" points="1033.12,-97.1667 1037.64,-87.1752 1033.13,-92.1667 1033.14,-87.1667 1033.14,-87.1667 1033.14,-87.1667 1033.13,-92.1667 1028.64,-87.1581 1033.12,-97.1667 1033.12,-97.1667"/>
<text text-anchor="middle" x="1049.5" y="-292.3" font-family="Times,serif" font-size="14.00">actions</text>
</g>
<!-- BikeForm -->
<g id="node5" class="node"><title>BikeForm</title>
<polygon fill="none" stroke="black" points="105,-1045 105,-1091 177,-1091 177,-1045 105,-1045"/>
<text text-anchor="middle" x="141" y="-1075.8" font-family="Times,serif" font-size="14.00">BikeForm</text>
<polyline fill="none" stroke="black" points="105,-1068 177,-1068 "/>
<text text-anchor="middle" x="141" y="-1052.8" font-family="Times,serif" font-size="14.00"> </text>
</g>
<!-- Signature -->
<g id="node6" class="node"><title>Signature</title>
<path fill="none" stroke="black" d="M1477.5,-844.5C1477.5,-844.5 1584.5,-844.5 1584.5,-844.5 1590.5,-844.5 1596.5,-850.5 1596.5,-856.5 1596.5,-856.5 1596.5,-923.5 1596.5,-923.5 1596.5,-929.5 1590.5,-935.5 1584.5,-935.5 1584.5,-935.5 1477.5,-935.5 1477.5,-935.5 1471.5,-935.5 1465.5,-929.5 1465.5,-923.5 1465.5,-923.5 1465.5,-856.5 1465.5,-856.5 1465.5,-850.5 1471.5,-844.5 1477.5,-844.5"/>
<text text-anchor="middle" x="1531" y="-920.3" font-family="Times,serif" font-size="14.00">Signature</text>
<polyline fill="none" stroke="black" points="1465.5,-912.5 1596.5,-912.5 "/>
<text text-anchor="start" x="1473.5" y="-897.3" font-family="Times,serif" font-size="14.00">id :integer</text>
<text text-anchor="start" x="1473.5" y="-882.3" font-family="Times,serif" font-size="14.00">uname :string</text>
<text text-anchor="start" x="1473.5" y="-867.3" font-family="Times,serif" font-size="14.00">created_at :datetime</text>
<text text-anchor="start" x="1473.5" y="-852.3" font-family="Times,serif" font-size="14.00">updated_at :datetime</text>
</g>
<!-- Signature&#45;&gt;Hound::Action -->
<g id="edge11" class="edge"><title>Signature&#45;&gt;Hound::Action</title>
<path fill="none" stroke="#be9d18" d="M1535.44,-836.078C1538.49,-795.138 1542,-737.016 1542,-686 1542,-686 1542,-686 1542,-295 1542,-224.16 1529.2,-183.702 1464,-156 1343.76,-104.911 1191.56,-83.6911 1103.94,-75.2393"/>
<ellipse fill="none" stroke="#be9d18" cx="1535.12" cy="-840.298" rx="4" ry="4"/>
<polygon fill="#be9d18" stroke="#be9d18" points="1103.8,-75.2262 1094.26,-69.814 1098.82,-74.7603 1093.84,-74.2944 1093.84,-74.2944 1093.84,-74.2944 1098.82,-74.7603 1093.42,-78.7748 1103.8,-75.2262 1103.8,-75.2262"/>
<text text-anchor="middle" x="1561.5" y="-556.3" font-family="Times,serif" font-size="14.00">actions</text>
</g>
<!-- Ability -->
<g id="node7" class="node"><title>Ability</title>
<polygon fill="none" stroke="black" points="195.5,-1045 195.5,-1091 250.5,-1091 250.5,-1045 195.5,-1045"/>
<text text-anchor="middle" x="223" y="-1075.8" font-family="Times,serif" font-size="14.00">Ability</text>
<polyline fill="none" stroke="black" points="195.5,-1068 250.5,-1068 "/>
<text text-anchor="middle" x="223" y="-1052.8" font-family="Times,serif" font-size="14.00"> </text>
</g>
<!-- Hook&#45;&gt;Bike -->
<g id="edge15" class="edge"><title>Hook&#45;&gt;Bike</title>
<path fill="none" stroke="#739f14" d="M844.536,-349.057C860.115,-377.124 879.078,-412.901 896.517,-446.937"/>
<ellipse fill="none" stroke="#739f14" cx="842.393" cy="-345.217" rx="4.00002" ry="4.00002"/>
<ellipse fill="#739f14" stroke="#739f14" cx="898.47" cy="-450.759" rx="4.00002" ry="4.00002"/>
</g>
<!-- Hook&#45;&gt;HookReservation -->
<g id="edge14" class="edge"><title>Hook&#45;&gt;HookReservation</title>
<path fill="none" stroke="#b3db58" d="M773.235,-243.693C750.891,-214.12 722.421,-176.439 697.712,-143.737"/>
<ellipse fill="none" stroke="#b3db58" cx="775.799" cy="-247.087" rx="4.00002" ry="4.00002"/>
<ellipse fill="#b3db58" stroke="#b3db58" cx="695.235" cy="-140.458" rx="4.00002" ry="4.00002"/>
<text text-anchor="middle" x="746.5" y="-160.3" font-family="Times,serif" font-size="14.00">reservation</text>
</g>
<!-- Hook&#45;&gt;Hound::Action -->
<g id="edge16" class="edge"><title>Hook&#45;&gt;Hound::Action</title>
<path fill="none" stroke="#2f8704" d="M846.678,-243.357C859.461,-225.721 874.601,-206.34 890,-190 925.556,-152.272 972.51,-114.84 1002.74,-92.065"/>
<ellipse fill="none" stroke="#2f8704" cx="844.047" cy="-247.026" rx="4.00002" ry="4.00002"/>
<polygon fill="#2f8704" stroke="#2f8704" points="1002.78,-92.0288 1013.49,-89.6462 1006.79,-89.0353 1010.79,-86.0418 1010.79,-86.0418 1010.79,-86.0418 1006.79,-89.0353 1008.1,-82.4374 1002.78,-92.0288 1002.78,-92.0288"/>
<text text-anchor="middle" x="941.5" y="-160.3" font-family="Times,serif" font-size="14.00">actions</text>
</g>
<!-- BikeReport -->
<g id="node9" class="node"><title>BikeReport</title>
<polygon fill="none" stroke="black" points="268.5,-1045 268.5,-1091 347.5,-1091 347.5,-1045 268.5,-1045"/>
<text text-anchor="middle" x="308" y="-1075.8" font-family="Times,serif" font-size="14.00">BikeReport</text>
<polyline fill="none" stroke="black" points="268.5,-1068 347.5,-1068 "/>
<text text-anchor="middle" x="308" y="-1052.8" font-family="Times,serif" font-size="14.00"> </text>
</g>
<!-- Program -->
<g id="node10" class="node"><title>Program</title>
<path fill="none" stroke="black" d="M1269.5,-704.5C1269.5,-704.5 1376.5,-704.5 1376.5,-704.5 1382.5,-704.5 1388.5,-710.5 1388.5,-716.5 1388.5,-716.5 1388.5,-813.5 1388.5,-813.5 1388.5,-819.5 1382.5,-825.5 1376.5,-825.5 1376.5,-825.5 1269.5,-825.5 1269.5,-825.5 1263.5,-825.5 1257.5,-819.5 1257.5,-813.5 1257.5,-813.5 1257.5,-716.5 1257.5,-716.5 1257.5,-710.5 1263.5,-704.5 1269.5,-704.5"/>
<text text-anchor="middle" x="1323" y="-810.3" font-family="Times,serif" font-size="14.00">Program</text>
<polyline fill="none" stroke="black" points="1257.5,-802.5 1388.5,-802.5 "/>
<text text-anchor="start" x="1265.5" y="-787.3" font-family="Times,serif" font-size="14.00">id :integer</text>
<text text-anchor="start" x="1265.5" y="-772.3" font-family="Times,serif" font-size="14.00">name :string</text>
<text text-anchor="start" x="1265.5" y="-757.3" font-family="Times,serif" font-size="14.00">label :string</text>
<text text-anchor="start" x="1265.5" y="-742.3" font-family="Times,serif" font-size="14.00">created_at :datetime</text>
<text text-anchor="start" x="1265.5" y="-727.3" font-family="Times,serif" font-size="14.00">updated_at :datetime</text>
<text text-anchor="start" x="1265.5" y="-712.3" font-family="Times,serif" font-size="14.00">closed_at :datetime</text>
</g>
<!-- Program&#45;&gt;Bike -->
<g id="edge20" class="edge"><title>Program&#45;&gt;Bike</title>
<path fill="none" stroke="#2957f5" d="M1248.08,-723.443C1184.62,-689.088 1093.83,-639.942 1028.76,-604.717"/>
<polygon fill="#2957f5" stroke="#2957f5" points="1248.46,-723.647 1255.11,-732.365 1252.85,-726.027 1257.25,-728.408 1257.25,-728.408 1257.25,-728.408 1252.85,-726.027 1259.39,-724.45 1248.46,-723.647 1248.46,-723.647"/>
<polygon fill="#2957f5" stroke="#2957f5" points="1028.55,-604.603 1021.9,-595.885 1024.15,-602.223 1019.75,-599.842 1019.75,-599.842 1019.75,-599.842 1024.15,-602.223 1017.61,-603.8 1028.55,-604.603 1028.55,-604.603"/>
</g>
<!-- Program&#45;&gt;Assignment -->
<g id="edge19" class="edge"><title>Program&#45;&gt;Assignment</title>
<path fill="none" stroke="#c6eafb" d="M1314.35,-696.21C1303.68,-625.217 1281.98,-511.53 1243,-420 1235.1,-401.439 1224.43,-382.591 1213.46,-365.409"/>
<ellipse fill="none" stroke="#c6eafb" cx="1314.95" cy="-700.267" rx="4.00001" ry="4.00001"/>
<polygon fill="#c6eafb" stroke="#c6eafb" points="1213.17,-364.964 1211.48,-354.129 1210.44,-360.775 1207.71,-356.586 1207.71,-356.586 1207.71,-356.586 1210.44,-360.775 1203.94,-359.043 1213.17,-364.964 1213.17,-364.964"/>
</g>
<!-- Program&#45;&gt;Hound::Action -->
<g id="edge21" class="edge"><title>Program&#45;&gt;Hound::Action</title>
<path fill="none" stroke="#0f39ef" d="M1363.04,-697.112C1402.75,-626.574 1460.9,-510.794 1484,-402 1503.57,-309.833 1541.42,-264.701 1484,-190 1437.44,-129.438 1214.79,-92.9887 1100.72,-77.9873"/>
<ellipse fill="none" stroke="#0f39ef" cx="1360.99" cy="-700.737" rx="4.00002" ry="4.00002"/>
<polygon fill="#0f39ef" stroke="#0f39ef" points="1100.61,-77.9734 1091.27,-72.2249 1095.65,-77.3305 1090.69,-76.6875 1090.69,-76.6875 1090.69,-76.6875 1095.65,-77.3305 1090.11,-81.1502 1100.61,-77.9734 1100.61,-77.9734"/>
<text text-anchor="middle" x="1498.5" y="-424.3" font-family="Times,serif" font-size="14.00">actions</text>
</g>
<!-- Settings -->
<g id="node11" class="node"><title>Settings</title>
<polygon fill="none" stroke="black" stroke-dasharray="1,5" points="1353.5,-1277 1294.5,-1277 1294.5,-1241 1353.5,-1241 1353.5,-1277"/>
<text text-anchor="middle" x="1324" y="-1255.3" font-family="Times,serif" font-size="14.00">Settings</text>
</g>
<!-- Comment&#45;&gt;Comment -->
<g id="edge23" class="edge"><title>Comment&#45;&gt;Comment</title>
<path fill="none" stroke="#498176" d="M1420.09,-314.107C1426.25,-309.988 1430,-303.952 1430,-296 1430,-288.725 1426.86,-283.054 1421.61,-278.986"/>
<ellipse fill="none" stroke="#498176" cx="1416.13" cy="-316.059" rx="4.00002" ry="4.00002"/>
<polygon fill="#498176" stroke="#498176" points="1421.37,-278.861 1414.65,-270.199 1416.96,-276.518 1412.54,-274.175 1412.54,-274.175 1412.54,-274.175 1416.96,-276.518 1410.43,-278.15 1421.37,-278.861 1421.37,-278.861"/>
<text text-anchor="middle" x="1452.5" y="-292.3" font-family="Times,serif" font-size="14.00">children</text>
</g>
<!-- Departure -->
<g id="node14" class="node"><title>Departure</title>
<path fill="none" stroke="black" d="M1067.5,-704.5C1067.5,-704.5 1188.5,-704.5 1188.5,-704.5 1194.5,-704.5 1200.5,-710.5 1200.5,-716.5 1200.5,-716.5 1200.5,-813.5 1200.5,-813.5 1200.5,-819.5 1194.5,-825.5 1188.5,-825.5 1188.5,-825.5 1067.5,-825.5 1067.5,-825.5 1061.5,-825.5 1055.5,-819.5 1055.5,-813.5 1055.5,-813.5 1055.5,-716.5 1055.5,-716.5 1055.5,-710.5 1061.5,-704.5 1067.5,-704.5"/>
<text text-anchor="middle" x="1128" y="-810.3" font-family="Times,serif" font-size="14.00">Departure</text>
<polyline fill="none" stroke="black" points="1055.5,-802.5 1200.5,-802.5 "/>
<text text-anchor="start" x="1063.5" y="-787.3" font-family="Times,serif" font-size="14.00">id :integer</text>
<text text-anchor="start" x="1063.5" y="-772.3" font-family="Times,serif" font-size="14.00">value :float</text>
<text text-anchor="start" x="1063.5" y="-757.3" font-family="Times,serif" font-size="14.00">application_id :integer</text>
<text text-anchor="start" x="1063.5" y="-742.3" font-family="Times,serif" font-size="14.00">application_type :string</text>
<text text-anchor="start" x="1063.5" y="-727.3" font-family="Times,serif" font-size="14.00">created_at :datetime</text>
<text text-anchor="start" x="1063.5" y="-712.3" font-family="Times,serif" font-size="14.00">updated_at :datetime</text>
</g>
<!-- Departure&#45;&gt;Bike -->
<g id="edge27" class="edge"><title>Departure&#45;&gt;Bike</title>
<path fill="none" stroke="#9f56e8" d="M1069.83,-698.402C1055.55,-682.292 1040.04,-664.797 1025.02,-647.858"/>
<ellipse fill="none" stroke="#9f56e8" cx="1072.56" cy="-701.472" rx="4.00002" ry="4.00002"/>
<ellipse fill="#9f56e8" stroke="#9f56e8" cx="1022.16" cy="-644.638" rx="4.00002" ry="4.00002"/>
</g>
<!-- Departure&#45;&gt;Assignment -->
<g id="edge26" class="edge"><title>Departure&#45;&gt;Assignment</title>
<path fill="none" stroke="#a26c18" d="M1133.07,-696.303C1139.71,-607.713 1151.28,-453.346 1157.92,-364.736"/>
<ellipse fill="none" stroke="#a26c18" cx="1132.77" cy="-700.391" rx="4" ry="4"/>
<ellipse fill="#a26c18" stroke="#a26c18" cx="1158.23" cy="-360.622" rx="4" ry="4"/>
</g>
<!-- HookNumber -->
<g id="node15" class="node"><title>HookNumber</title>
<polygon fill="none" stroke="black" points="366,-1045 366,-1091 458,-1091 458,-1045 366,-1045"/>
<text text-anchor="middle" x="412" y="-1075.8" font-family="Times,serif" font-size="14.00">HookNumber</text>
<polyline fill="none" stroke="black" points="366,-1068 458,-1068 "/>
<text text-anchor="middle" x="412" y="-1052.8" font-family="Times,serif" font-size="14.00"> </text>
</g>
<!-- Destination -->
<g id="node16" class="node"><title>Destination</title>
<path fill="none" stroke="black" d="M937.5,-1015C937.5,-1015 1044.5,-1015 1044.5,-1015 1050.5,-1015 1056.5,-1021 1056.5,-1027 1056.5,-1027 1056.5,-1109 1056.5,-1109 1056.5,-1115 1050.5,-1121 1044.5,-1121 1044.5,-1121 937.5,-1121 937.5,-1121 931.5,-1121 925.5,-1115 925.5,-1109 925.5,-1109 925.5,-1027 925.5,-1027 925.5,-1021 931.5,-1015 937.5,-1015"/>
<text text-anchor="middle" x="991" y="-1105.8" font-family="Times,serif" font-size="14.00">Destination</text>
<polyline fill="none" stroke="black" points="925.5,-1098 1056.5,-1098 "/>
<text text-anchor="start" x="933.5" y="-1082.8" font-family="Times,serif" font-size="14.00">id :integer</text>
<text text-anchor="start" x="933.5" y="-1067.8" font-family="Times,serif" font-size="14.00">name :string</text>
<text text-anchor="start" x="933.5" y="-1052.8" font-family="Times,serif" font-size="14.00">label :string</text>
<text text-anchor="start" x="933.5" y="-1037.8" font-family="Times,serif" font-size="14.00">created_at :datetime</text>
<text text-anchor="start" x="933.5" y="-1022.8" font-family="Times,serif" font-size="14.00">updated_at :datetime</text>
</g>
<!-- Destination&#45;&gt;Bike -->
<g id="edge31" class="edge"><title>Destination&#45;&gt;Bike</title>
<path fill="none" stroke="#677c88" d="M972.55,-1005.28C959.121,-956.987 942.095,-887.883 935,-826 928.824,-772.131 932.543,-758.167 935,-704 935.419,-694.759 935.99,-685.192 936.66,-675.588"/>
<polygon fill="#677c88" stroke="#677c88" points="972.563,-1005.32 970.937,-1016.17 973.916,-1010.14 975.269,-1014.95 975.269,-1014.95 975.269,-1014.95 973.916,-1010.14 979.602,-1013.73 972.563,-1005.32 972.563,-1005.32"/>
<polygon fill="#677c88" stroke="#677c88" points="936.662,-675.551 941.879,-665.906 937.027,-670.565 937.391,-665.578 937.391,-665.578 937.391,-665.578 937.027,-670.565 932.903,-665.25 936.662,-675.551 936.662,-675.551"/>
</g>
<!-- Destination&#45;&gt;Departure -->
<g id="edge32" class="edge"><title>Destination&#45;&gt;Departure</title>
<path fill="none" stroke="#6bee59" d="M1018.16,-1007.32C1040.76,-957.665 1072.96,-886.93 1096.65,-834.875"/>
<ellipse fill="none" stroke="#6bee59" cx="1016.36" cy="-1011.27" rx="4.00002" ry="4.00002"/>
<polygon fill="#6bee59" stroke="#6bee59" points="1096.68,-834.811 1104.92,-827.573 1098.75,-830.26 1100.82,-825.709 1100.82,-825.709 1100.82,-825.709 1098.75,-830.26 1096.73,-823.845 1096.68,-834.811 1096.68,-834.811"/>
</g>
<!-- Destination&#45;&gt;Hound::Action -->
<g id="edge33" class="edge"><title>Destination&#45;&gt;Hound::Action</title>
<path fill="none" stroke="#9c8f45" d="M961.09,-1007.71C875.284,-833.79 640.307,-328.56 734,-190 784.842,-114.812 891.364,-86.7277 962.551,-76.242"/>
<ellipse fill="none" stroke="#9c8f45" cx="962.921" cy="-1011.41" rx="4.00002" ry="4.00002"/>
<polygon fill="#9c8f45" stroke="#9c8f45" points="962.882,-76.196 973.406,-79.2762 967.834,-75.5075 972.787,-74.8191 972.787,-74.8191 972.787,-74.8191 967.834,-75.5075 972.167,-70.3619 962.882,-76.196 962.882,-76.196"/>
<text text-anchor="middle" x="827.5" y="-556.3" font-family="Times,serif" font-size="14.00">actions</text>
</g>
<!-- Allotment -->
<g id="node26" class="node"><title>Allotment</title>
<ellipse fill="none" stroke="black" cx="991" cy="-765" rx="46.1964" ry="18"/>
<text text-anchor="middle" x="991" y="-761.3" font-family="Times,serif" font-size="14.00">Allotment</text>
</g>
<!-- Destination&#45;&gt;Allotment -->
<g id="edge30" class="edge"><title>Destination&#45;&gt;Allotment</title>
<path fill="none" stroke="#28e647" d="M991,-1006.59C991,-941.669 991,-841.355 991,-793.38"/>
<ellipse fill="none" stroke="#28e647" cx="991" cy="-1010.91" rx="4" ry="4"/>
<polygon fill="#28e647" stroke="#28e647" points="991,-793.164 995.5,-783.164 991,-788.164 991,-783.164 991,-783.164 991,-783.164 991,-788.164 986.5,-783.164 991,-793.164 991,-793.164"/>
</g>
<!-- Value::Validator -->
<g id="node17" class="node"><title>Value::Validator</title>
<polygon fill="none" stroke="black" stroke-dasharray="1,5" points="1478.25,-1277 1371.75,-1277 1371.75,-1241 1478.25,-1241 1478.25,-1277"/>
<text text-anchor="middle" x="1425" y="-1255.3" font-family="Times,serif" font-size="14.00">Value::Validator</text>
</g>
<!-- Value::Color -->
<g id="node18" class="node"><title>Value::Color</title>
<polygon fill="none" stroke="black" stroke-dasharray="1,5" points="1583.25,-1277 1496.75,-1277 1496.75,-1241 1583.25,-1241 1583.25,-1277"/>
<text text-anchor="middle" x="1540" y="-1255.3" font-family="Times,serif" font-size="14.00">Value::Color</text>
</g>
<!-- Value::Linear -->
<g id="node19" class="node"><title>Value::Linear</title>
<polygon fill="none" stroke="black" stroke-dasharray="1,5" points="1694,-1277 1602,-1277 1602,-1241 1694,-1241 1694,-1277"/>
<text text-anchor="middle" x="1648" y="-1255.3" font-family="Times,serif" font-size="14.00">Value::Linear</text>
</g>
<!-- DepartedQuery -->
<g id="node20" class="node"><title>DepartedQuery</title>
<polygon fill="none" stroke="black" points="476,-1045 476,-1091 576,-1091 576,-1045 476,-1045"/>
<text text-anchor="middle" x="526" y="-1075.8" font-family="Times,serif" font-size="14.00">DepartedQuery</text>
<polyline fill="none" stroke="black" points="476,-1068 576,-1068 "/>
<text text-anchor="middle" x="526" y="-1052.8" font-family="Times,serif" font-size="14.00"> </text>
</g>
<!-- User -->
<g id="node21" class="node"><title>User</title>
<path fill="none" stroke="black" d="M1517,-955C1517,-955 1693,-955 1693,-955 1699,-955 1705,-961 1705,-967 1705,-967 1705,-1169 1705,-1169 1705,-1175 1699,-1181 1693,-1181 1693,-1181 1517,-1181 1517,-1181 1511,-1181 1505,-1175 1505,-1169 1505,-1169 1505,-967 1505,-967 1505,-961 1511,-955 1517,-955"/>
<text text-anchor="middle" x="1605" y="-1165.8" font-family="Times,serif" font-size="14.00">User</text>
<polyline fill="none" stroke="black" points="1505,-1158 1705,-1158 "/>
<text text-anchor="start" x="1513" y="-1142.8" font-family="Times,serif" font-size="14.00">id :integer</text>
<text text-anchor="start" x="1513" y="-1127.8" font-family="Times,serif" font-size="14.00">email :string</text>
<text text-anchor="start" x="1513" y="-1112.8" font-family="Times,serif" font-size="14.00">encrypted_password :string</text>
<text text-anchor="start" x="1513" y="-1097.8" font-family="Times,serif" font-size="14.00">reset_password_token :string</text>
<text text-anchor="start" x="1513" y="-1082.8" font-family="Times,serif" font-size="14.00">reset_password_sent_at :datetime</text>
<text text-anchor="start" x="1513" y="-1067.8" font-family="Times,serif" font-size="14.00">remember_created_at :datetime</text>
<text text-anchor="start" x="1513" y="-1052.8" font-family="Times,serif" font-size="14.00">sign_in_count :integer</text>
<text text-anchor="start" x="1513" y="-1037.8" font-family="Times,serif" font-size="14.00">current_sign_in_at :datetime</text>
<text text-anchor="start" x="1513" y="-1022.8" font-family="Times,serif" font-size="14.00">last_sign_in_at :datetime</text>
<text text-anchor="start" x="1513" y="-1007.8" font-family="Times,serif" font-size="14.00">current_sign_in_ip :string</text>
<text text-anchor="start" x="1513" y="-992.8" font-family="Times,serif" font-size="14.00">last_sign_in_ip :string</text>
<text text-anchor="start" x="1513" y="-977.8" font-family="Times,serif" font-size="14.00">created_at :datetime</text>
<text text-anchor="start" x="1513" y="-962.8" font-family="Times,serif" font-size="14.00">updated_at :datetime</text>
</g>
<!-- Object -->
<g id="node22" class="node"><title>Object</title>
<ellipse fill="none" stroke="black" cx="266" cy="-1259" rx="34.1708" ry="18"/>
<text text-anchor="middle" x="266" y="-1255.3" font-family="Times,serif" font-size="14.00">Object</text>
</g>
<!-- Object&#45;&gt;BikeNumber -->
<g id="edge1" class="edge"><title>Object&#45;&gt;BikeNumber</title>
<path fill="none" stroke="black" d="M251.324,-1242.54C243.29,-1234.84 232.791,-1225.93 222,-1220 170.743,-1191.82 140.259,-1220.24 96,-1182 68.4541,-1158.2 54.237,-1116.97 47.7177,-1091.44"/>
</g>
<!-- Object&#45;&gt;BikeForm -->
<g id="edge10" class="edge"><title>Object&#45;&gt;BikeForm</title>
<path fill="none" stroke="black" d="M248.795,-1243.23C228.173,-1225.26 195.235,-1195.64 186,-1182 166.589,-1153.32 153.58,-1115.01 146.737,-1091.18"/>
</g>
<!-- Object&#45;&gt;Ability -->
<g id="edge13" class="edge"><title>Object&#45;&gt;Ability</title>
<path fill="none" stroke="black" d="M262.108,-1240.89C254.294,-1206.55 236.701,-1129.22 228.028,-1091.1"/>
</g>
<!-- Object&#45;&gt;BikeReport -->
<g id="edge18" class="edge"><title>Object&#45;&gt;BikeReport</title>
<path fill="none" stroke="black" d="M269.801,-1240.89C277.434,-1206.55 294.617,-1129.22 303.089,-1091.1"/>
</g>
<!-- Object&#45;&gt;HookNumber -->
<g id="edge29" class="edge"><title>Object&#45;&gt;HookNumber</title>
<path fill="none" stroke="black" d="M286.706,-1244.29C306.455,-1230.42 336.066,-1207.43 356,-1182 378.152,-1153.74 394.904,-1115.31 404.084,-1091.34"/>
</g>
<!-- Object&#45;&gt;DepartedQuery -->
<g id="edge35" class="edge"><title>Object&#45;&gt;DepartedQuery</title>
<path fill="none" stroke="black" d="M298.595,-1253.07C341.729,-1245.04 418.017,-1225.44 467,-1182 494.816,-1157.33 511.533,-1116.37 519.739,-1091.13"/>
</g>
<!-- ActiveRecord::Base -->
<g id="node25" class="node"><title>ActiveRecord::Base</title>
<ellipse fill="none" stroke="black" cx="1195" cy="-1259" rx="81.3646" ry="18"/>
<text text-anchor="middle" x="1195" y="-1255.3" font-family="Times,serif" font-size="14.00">ActiveRecord::Base</text>
</g>
<!-- ActiveRecord::Base&#45;&gt;Bike -->
<g id="edge8" class="edge"><title>ActiveRecord::Base&#45;&gt;Bike</title>
<path fill="none" stroke="black" d="M1127.42,-1248.97C1053.59,-1237.57 942.425,-1215.31 917,-1182 803.117,-1032.8 858.233,-799.802 905.316,-665.661"/>
</g>
<!-- ActiveRecord::Base&#45;&gt;Assignment -->
<g id="edge9" class="edge"><title>ActiveRecord::Base&#45;&gt;Assignment</title>
<path fill="none" stroke="black" d="M1200.16,-1240.99C1209.68,-1208.09 1229,-1133.34 1229,-1069 1229,-1069 1229,-1069 1229,-559 1229,-496.91 1230.37,-480.157 1215,-420 1209.58,-398.773 1201.07,-376.457 1192.5,-356.748"/>
</g>
<!-- ActiveRecord::Base&#45;&gt;Signature -->
<g id="edge12" class="edge"><title>ActiveRecord::Base&#45;&gt;Signature</title>
<path fill="none" stroke="black" d="M1225.87,-1242.31C1242.89,-1234.35 1264.64,-1225.27 1285,-1220 1321.35,-1210.6 1425.6,-1227.67 1453,-1202 1534.63,-1125.51 1458.76,-1059.49 1496,-954 1498.17,-947.865 1500.9,-941.623 1503.87,-935.57"/>
</g>
<!-- ActiveRecord::Base&#45;&gt;Hook -->
<g id="edge17" class="edge"><title>ActiveRecord::Base&#45;&gt;Hook</title>
<path fill="none" stroke="black" d="M1114.37,-1256.97C990.87,-1250.64 769,-1218.48 769,-1069 769,-1069 769,-1069 769,-559 769,-481.791 787.408,-393.454 800.136,-341.604"/>
</g>
<!-- ActiveRecord::Base&#45;&gt;Program -->
<g id="edge22" class="edge"><title>ActiveRecord::Base&#45;&gt;Program</title>
<path fill="none" stroke="black" d="M1213.71,-1241.1C1223.94,-1230.79 1235.94,-1216.79 1243,-1202 1302.55,-1077.14 1317.92,-912.669 1321.79,-825.768"/>
</g>
<!-- ActiveRecord::Base&#45;&gt;Comment -->
<g id="edge24" class="edge"><title>ActiveRecord::Base&#45;&gt;Comment</title>
<path fill="none" stroke="black" d="M1225.41,-1242.26C1290.82,-1207.37 1439,-1122.45 1439,-1069 1439,-1069 1439,-1069 1439,-559 1439,-496.91 1447.53,-477.86 1425,-420 1421.57,-411.178 1417.31,-402.438 1412.54,-393.926"/>
</g>
<!-- ActiveRecord::Base&#45;&gt;HookReservation -->
<g id="edge25" class="edge"><title>ActiveRecord::Base&#45;&gt;HookReservation</title>
<path fill="none" stroke="black" d="M1115.67,-1255.15C1026.85,-1249.47 880.263,-1232.51 765,-1182 684.93,-1146.91 604,-1156.42 604,-1069 604,-1069 604,-1069 604,-295 604,-241.519 614.567,-181.873 624.557,-137.437"/>
</g>
<!-- ActiveRecord::Base&#45;&gt;Departure -->
<g id="edge28" class="edge"><title>ActiveRecord::Base&#45;&gt;Departure</title>
<path fill="none" stroke="black" d="M1192.65,-1240.78C1183.7,-1175.04 1151.42,-938.001 1136.14,-825.744"/>
</g>
<!-- ActiveRecord::Base&#45;&gt;Destination -->
<g id="edge34" class="edge"><title>ActiveRecord::Base&#45;&gt;Destination</title>
<path fill="none" stroke="black" d="M1176.9,-1241.23C1148.13,-1214.58 1090.8,-1161.46 1047.37,-1121.23"/>
</g>
<!-- ActiveRecord::Base&#45;&gt;User -->
<g id="edge36" class="edge"><title>ActiveRecord::Base&#45;&gt;User</title>
<path fill="none" stroke="black" d="M1225.83,-1242.15C1242.83,-1234.14 1264.59,-1225.07 1285,-1220 1329.6,-1208.93 1450.13,-1223 1491,-1202 1501.96,-1196.37 1512.3,-1189.19 1521.95,-1181.1"/>
</g>
</g>
</svg>
