<?xml version="1.0" encoding="UTF-8" standalone="no"?>
<!DOCTYPE svg PUBLIC "-//W3C//DTD SVG 1.1//EN"
 "http://www.w3.org/Graphics/SVG/1.1/DTD/svg11.dtd">
<!-- Generated by graphviz version 2.26.3 (20100126.1600)
 -->
<!-- Title: models_diagram Pages: 1 -->
<svg width="2200pt" height="1126pt"
 viewBox="0.00 0.00 2200.00 1126.00" xmlns="http://www.w3.org/2000/svg" xmlns:xlink="http://www.w3.org/1999/xlink">
<g id="graph1" class="graph" transform="scale(1 1) rotate(0) translate(4 1122)">
<title>models_diagram</title>
<polygon fill="white" stroke="white" points="-4,5 -4,-1122 2197,-1122 2197,5 -4,5"/>
<!-- _diagram_info -->
<g id="node1" class="node"><title>_diagram_info</title>
<text text-anchor="start" x="8" y="-1013.8" font-family="Times Roman,serif" font-size="13.00">Models diagram</text>
<text text-anchor="start" x="8" y="-996.8" font-family="Times Roman,serif" font-size="13.00">Date: Mar 10 2013 &#45; 17:29</text>
<text text-anchor="start" x="8" y="-979.8" font-family="Times Roman,serif" font-size="13.00">Migration version: 20130307213843</text>
<text text-anchor="start" x="8" y="-962.8" font-family="Times Roman,serif" font-size="13.00">Generated by RailRoady 1.1.0</text>
<text text-anchor="start" x="8" y="-945.8" font-family="Times Roman,serif" font-size="13.00">http://railroady.prestonlee.com</text>
</g>
<!-- Program -->
<g id="node2" class="node"><title>Program</title>
<polyline fill="none" stroke="black" points="657.5,-912 798.5,-912 "/>
<path fill="none" stroke="black" d="M798.5,-912C804.5,-912 810.5,-918 810.5,-924"/>
<polyline fill="none" stroke="black" points="810.5,-924 810.5,-1042 "/>
<path fill="none" stroke="black" d="M810.5,-1042C810.5,-1048 804.5,-1054 798.5,-1054"/>
<polyline fill="none" stroke="black" points="798.5,-1054 657.5,-1054 "/>
<path fill="none" stroke="black" d="M657.5,-1054C651.5,-1054 645.5,-1048 645.5,-1042"/>
<polyline fill="none" stroke="black" points="645.5,-1042 645.5,-924 "/>
<path fill="none" stroke="black" d="M645.5,-924C645.5,-918 651.5,-912 657.5,-912"/>
<text text-anchor="middle" x="728" y="-1037.4" font-family="Times Roman,serif" font-size="14.00">Program</text>
<polyline fill="none" stroke="black" points="645.5,-1028 810.5,-1028 "/>
<text text-anchor="start" x="653.5" y="-1011.4" font-family="Times Roman,serif" font-size="14.00">id :integer</text>
<text text-anchor="start" x="653.5" y="-993.4" font-family="Times Roman,serif" font-size="14.00">name :string</text>
<text text-anchor="start" x="653.5" y="-975.4" font-family="Times Roman,serif" font-size="14.00">label :string</text>
<text text-anchor="start" x="653.5" y="-957.4" font-family="Times Roman,serif" font-size="14.00">created_at :datetime</text>
<text text-anchor="start" x="653.5" y="-939.4" font-family="Times Roman,serif" font-size="14.00">updated_at :datetime</text>
<text text-anchor="start" x="653.5" y="-921.4" font-family="Times Roman,serif" font-size="14.00">closed_at :datetime</text>
</g>
<!-- Bike -->
<g id="node7" class="node"><title>Bike</title>
<polyline fill="none" stroke="black" points="469.5,-523 622.5,-523 "/>
<path fill="none" stroke="black" d="M622.5,-523C628.5,-523 634.5,-529 634.5,-535"/>
<polyline fill="none" stroke="black" points="634.5,-535 634.5,-797 "/>
<path fill="none" stroke="black" d="M634.5,-797C634.5,-803 628.5,-809 622.5,-809"/>
<polyline fill="none" stroke="black" points="622.5,-809 469.5,-809 "/>
<path fill="none" stroke="black" d="M469.5,-809C463.5,-809 457.5,-803 457.5,-797"/>
<polyline fill="none" stroke="black" points="457.5,-797 457.5,-535 "/>
<path fill="none" stroke="black" d="M457.5,-535C457.5,-529 463.5,-523 469.5,-523"/>
<text text-anchor="middle" x="546" y="-792.4" font-family="Times Roman,serif" font-size="14.00">Bike</text>
<polyline fill="none" stroke="black" points="457.5,-783 634.5,-783 "/>
<text text-anchor="start" x="465.5" y="-766.4" font-family="Times Roman,serif" font-size="14.00">id :integer</text>
<text text-anchor="start" x="465.5" y="-748.4" font-family="Times Roman,serif" font-size="14.00">color :string</text>
<text text-anchor="start" x="465.5" y="-730.4" font-family="Times Roman,serif" font-size="14.00">value :float</text>
<text text-anchor="start" x="465.5" y="-712.4" font-family="Times Roman,serif" font-size="14.00">seat_tube_height :float</text>
<text text-anchor="start" x="465.5" y="-694.4" font-family="Times Roman,serif" font-size="14.00">top_tube_length :float</text>
<text text-anchor="start" x="465.5" y="-676.4" font-family="Times Roman,serif" font-size="14.00">wheel_size :integer</text>
<text text-anchor="start" x="465.5" y="-658.4" font-family="Times Roman,serif" font-size="14.00">created_at :datetime</text>
<text text-anchor="start" x="465.5" y="-640.4" font-family="Times Roman,serif" font-size="14.00">updated_at :datetime</text>
<text text-anchor="start" x="465.5" y="-622.4" font-family="Times Roman,serif" font-size="14.00">allotment_id :integer</text>
<text text-anchor="start" x="465.5" y="-604.4" font-family="Times Roman,serif" font-size="14.00">allotment_type :string</text>
<text text-anchor="start" x="465.5" y="-586.4" font-family="Times Roman,serif" font-size="14.00">bike_model_id :integer</text>
<text text-anchor="start" x="465.5" y="-568.4" font-family="Times Roman,serif" font-size="14.00">number :string</text>
<text text-anchor="start" x="465.5" y="-550.4" font-family="Times Roman,serif" font-size="14.00">quality :string</text>
<text text-anchor="start" x="465.5" y="-532.4" font-family="Times Roman,serif" font-size="14.00">condition :string</text>
</g>
<!-- Program&#45;&gt;Bike -->
<g id="edge4" class="edge"><title>Program&#45;&gt;Bike</title>
<path fill="none" stroke="#1ecb75" d="M682.157,-903.153C667.241,-877.172 650.156,-847.415 633.245,-817.959"/>
<polygon fill="#1ecb75" stroke="#1ecb75" points="682.177,-903.187 683.253,-914.1 684.666,-907.523 687.156,-911.859 687.156,-911.859 687.156,-911.859 684.666,-907.523 691.058,-909.618 682.177,-903.187 682.177,-903.187"/>
<polygon fill="#1ecb75" stroke="#1ecb75" points="633.223,-817.921 632.146,-807.008 630.733,-813.585 628.244,-809.249 628.244,-809.249 628.244,-809.249 630.733,-813.585 624.341,-811.49 633.223,-817.921 633.223,-817.921"/>
</g>
<!-- Allotment -->
<g id="node19" class="node"><title>Allotment</title>
<ellipse fill="none" stroke="black" cx="716" cy="-666" rx="58.8978" ry="18.3848"/>
<text text-anchor="middle" x="716" y="-662.4" font-family="Times Roman,serif" font-size="14.00">Allotment</text>
</g>
<!-- Program&#45;&gt;Allotment -->
<g id="edge2" class="edge"><title>Program&#45;&gt;Allotment</title>
<path fill="none" stroke="#c41a0d" d="M724.991,-903.524C722.417,-835.514 718.855,-741.418 717.087,-694.702"/>
<ellipse fill="none" stroke="#c41a0d" cx="725.156" cy="-907.862" rx="4" ry="4"/>
<polygon fill="#c41a0d" stroke="#c41a0d" points="717.086,-694.675 721.204,-684.512 716.896,-689.678 716.707,-684.682 716.707,-684.682 716.707,-684.682 716.896,-689.678 712.21,-684.852 717.086,-694.675 717.086,-694.675"/>
</g>
<!-- ResponseSet -->
<g id="node3" class="node"><title>ResponseSet</title>
<polyline fill="none" stroke="black" points="839.5,-849 1052.5,-849 "/>
<path fill="none" stroke="black" d="M1052.5,-849C1058.5,-849 1064.5,-855 1064.5,-861"/>
<polyline fill="none" stroke="black" points="1064.5,-861 1064.5,-1105 "/>
<path fill="none" stroke="black" d="M1064.5,-1105C1064.5,-1111 1058.5,-1117 1052.5,-1117"/>
<polyline fill="none" stroke="black" points="1052.5,-1117 839.5,-1117 "/>
<path fill="none" stroke="black" d="M839.5,-1117C833.5,-1117 827.5,-1111 827.5,-1105"/>
<polyline fill="none" stroke="black" points="827.5,-1105 827.5,-861 "/>
<path fill="none" stroke="black" d="M827.5,-861C827.5,-855 833.5,-849 839.5,-849"/>
<text text-anchor="middle" x="946" y="-1100.4" font-family="Times Roman,serif" font-size="14.00">ResponseSet</text>
<polyline fill="none" stroke="black" points="827.5,-1091 1064.5,-1091 "/>
<text text-anchor="start" x="835.5" y="-1074.4" font-family="Times Roman,serif" font-size="14.00">id :integer</text>
<text text-anchor="start" x="835.5" y="-1056.4" font-family="Times Roman,serif" font-size="14.00">user_id :integer</text>
<text text-anchor="start" x="835.5" y="-1038.4" font-family="Times Roman,serif" font-size="14.00">survey_id :integer</text>
<text text-anchor="start" x="835.5" y="-1020.4" font-family="Times Roman,serif" font-size="14.00">access_code :string</text>
<text text-anchor="start" x="835.5" y="-1002.4" font-family="Times Roman,serif" font-size="14.00">started_at :datetime</text>
<text text-anchor="start" x="835.5" y="-984.4" font-family="Times Roman,serif" font-size="14.00">completed_at :datetime</text>
<text text-anchor="start" x="835.5" y="-966.4" font-family="Times Roman,serif" font-size="14.00">created_at :datetime</text>
<text text-anchor="start" x="835.5" y="-948.4" font-family="Times Roman,serif" font-size="14.00">updated_at :datetime</text>
<text text-anchor="start" x="835.5" y="-930.4" font-family="Times Roman,serif" font-size="14.00">api_id :string</text>
<text text-anchor="start" x="835.5" y="-912.4" font-family="Times Roman,serif" font-size="14.00">surveyable_id :integer</text>
<text text-anchor="start" x="835.5" y="-894.4" font-family="Times Roman,serif" font-size="14.00">surveyable_type :string</text>
<text text-anchor="start" x="835.5" y="-876.4" font-family="Times Roman,serif" font-size="14.00">surveyable_process_id :integer</text>
<text text-anchor="start" x="835.5" y="-858.4" font-family="Times Roman,serif" font-size="14.00">surveyable_process_type :string</text>
</g>
<!-- Response -->
<g id="node22" class="node"><title>Response</title>
<ellipse fill="none" stroke="black" cx="946" cy="-666" rx="56.7776" ry="18.3848"/>
<text text-anchor="middle" x="946" y="-662.4" font-family="Times Roman,serif" font-size="14.00">Response</text>
</g>
<!-- ResponseSet&#45;&gt;Response -->
<g id="edge6" class="edge"><title>ResponseSet&#45;&gt;Response</title>
<path fill="none" stroke="#6902ee" d="M946,-840.381C946,-785.649 946,-728.367 946,-694.99"/>
<ellipse fill="none" stroke="#6902ee" cx="946" cy="-844.563" rx="4" ry="4"/>
<polygon fill="#6902ee" stroke="#6902ee" points="946,-694.626 950.5,-684.626 946,-689.626 946,-684.626 946,-684.626 946,-684.626 946,-689.626 941.5,-684.626 946,-694.626 946,-694.626"/>
</g>
<!-- BikeNumber -->
<g id="node4" class="node"><title>BikeNumber</title>
<polygon fill="none" stroke="black" points="1081.5,-957 1081.5,-1009 1182.5,-1009 1182.5,-957 1081.5,-957"/>
<text text-anchor="middle" x="1132" y="-992.4" font-family="Times Roman,serif" font-size="14.00">BikeNumber</text>
<polyline fill="none" stroke="black" points="1081.5,-983 1182.5,-983 "/>
<text text-anchor="middle" x="1132" y="-966.4" font-family="Times Roman,serif" font-size="14.00"> </text>
</g>
<!-- Value::Linear -->
<g id="node5" class="node"><title>Value::Linear</title>
<polygon fill="none" stroke="black" stroke-dasharray="1,5" points="1306,-1001 1200,-1001 1200,-965 1306,-965 1306,-1001"/>
<text text-anchor="middle" x="1253" y="-979.4" font-family="Times Roman,serif" font-size="14.00">Value::Linear</text>
</g>
<!-- Value::Color -->
<g id="node6" class="node"><title>Value::Color</title>
<polygon fill="none" stroke="black" stroke-dasharray="1,5" points="1424,-1001 1324,-1001 1324,-965 1424,-965 1424,-1001"/>
<text text-anchor="middle" x="1374" y="-979.4" font-family="Times Roman,serif" font-size="14.00">Value::Color</text>
</g>
<!-- HookReservation -->
<g id="node9" class="node"><title>HookReservation</title>
<polyline fill="none" stroke="black" points="400.5,-1 541.5,-1 "/>
<path fill="none" stroke="black" d="M541.5,-1C547.5,-1 553.5,-7 553.5,-13"/>
<polyline fill="none" stroke="black" points="553.5,-13 553.5,-149 "/>
<path fill="none" stroke="black" d="M553.5,-149C553.5,-155 547.5,-161 541.5,-161"/>
<polyline fill="none" stroke="black" points="541.5,-161 400.5,-161 "/>
<path fill="none" stroke="black" d="M400.5,-161C394.5,-161 388.5,-155 388.5,-149"/>
<polyline fill="none" stroke="black" points="388.5,-149 388.5,-13 "/>
<path fill="none" stroke="black" d="M388.5,-13C388.5,-7 394.5,-1 400.5,-1"/>
<text text-anchor="middle" x="471" y="-144.4" font-family="Times Roman,serif" font-size="14.00">HookReservation</text>
<polyline fill="none" stroke="black" points="388.5,-135 553.5,-135 "/>
<text text-anchor="start" x="396.5" y="-118.4" font-family="Times Roman,serif" font-size="14.00">id :integer</text>
<text text-anchor="start" x="396.5" y="-100.4" font-family="Times Roman,serif" font-size="14.00">bike_id :integer</text>
<text text-anchor="start" x="396.5" y="-82.4" font-family="Times Roman,serif" font-size="14.00">hook_id :integer</text>
<text text-anchor="start" x="396.5" y="-64.4" font-family="Times Roman,serif" font-size="14.00">bike_state :string</text>
<text text-anchor="start" x="396.5" y="-46.4" font-family="Times Roman,serif" font-size="14.00">hook_state :string</text>
<text text-anchor="start" x="396.5" y="-28.4" font-family="Times Roman,serif" font-size="14.00">created_at :datetime</text>
<text text-anchor="start" x="396.5" y="-10.4" font-family="Times Roman,serif" font-size="14.00">updated_at :datetime</text>
</g>
<!-- Bike&#45;&gt;HookReservation -->
<g id="edge10" class="edge"><title>Bike&#45;&gt;HookReservation</title>
<path fill="none" stroke="#8f8b8e" d="M468.793,-515.139C463.201,-499.524 458.422,-483.642 455,-468 432.975,-367.337 443.051,-248.522 454.688,-169.353"/>
<ellipse fill="none" stroke="#8f8b8e" cx="470.221" cy="-519.026" rx="4.00001" ry="4.00001"/>
<ellipse fill="#8f8b8e" stroke="#8f8b8e" cx="455.298" cy="-165.294" rx="4.00001" ry="4.00001"/>
</g>
<!-- Hook -->
<g id="node11" class="node"><title>Hook</title>
<polyline fill="none" stroke="black" points="475.5,-289 616.5,-289 "/>
<path fill="none" stroke="black" d="M616.5,-289C622.5,-289 628.5,-295 628.5,-301"/>
<polyline fill="none" stroke="black" points="628.5,-301 628.5,-383 "/>
<path fill="none" stroke="black" d="M628.5,-383C628.5,-389 622.5,-395 616.5,-395"/>
<polyline fill="none" stroke="black" points="616.5,-395 475.5,-395 "/>
<path fill="none" stroke="black" d="M475.5,-395C469.5,-395 463.5,-389 463.5,-383"/>
<polyline fill="none" stroke="black" points="463.5,-383 463.5,-301 "/>
<path fill="none" stroke="black" d="M463.5,-301C463.5,-295 469.5,-289 475.5,-289"/>
<text text-anchor="middle" x="546" y="-378.4" font-family="Times Roman,serif" font-size="14.00">Hook</text>
<polyline fill="none" stroke="black" points="463.5,-369 628.5,-369 "/>
<text text-anchor="start" x="471.5" y="-352.4" font-family="Times Roman,serif" font-size="14.00">id :integer</text>
<text text-anchor="start" x="471.5" y="-334.4" font-family="Times Roman,serif" font-size="14.00">number :string</text>
<text text-anchor="start" x="471.5" y="-316.4" font-family="Times Roman,serif" font-size="14.00">created_at :datetime</text>
<text text-anchor="start" x="471.5" y="-298.4" font-family="Times Roman,serif" font-size="14.00">updated_at :datetime</text>
</g>
<!-- Bike&#45;&gt;Hook -->
<g id="edge12" class="edge"><title>Bike&#45;&gt;Hook</title>
<path fill="none" stroke="#0a166e" d="M539.264,-514.942C539.165,-475.52 539.601,-435.229 540.572,-403.466"/>
<ellipse fill="none" stroke="#0a166e" cx="539.277" cy="-518.946" rx="4" ry="4"/>
<ellipse fill="#0a166e" stroke="#0a166e" cx="540.714" cy="-399.16" rx="4" ry="4"/>
</g>
<!-- Comment -->
<g id="node15" class="node"><title>Comment</title>
<polyline fill="none" stroke="black" points="658,-217 830,-217 "/>
<path fill="none" stroke="black" d="M830,-217C836,-217 842,-223 842,-229"/>
<polyline fill="none" stroke="black" points="842,-229 842,-455 "/>
<path fill="none" stroke="black" d="M842,-455C842,-461 836,-467 830,-467"/>
<polyline fill="none" stroke="black" points="830,-467 658,-467 "/>
<path fill="none" stroke="black" d="M658,-467C652,-467 646,-461 646,-455"/>
<polyline fill="none" stroke="black" points="646,-455 646,-229 "/>
<path fill="none" stroke="black" d="M646,-229C646,-223 652,-217 658,-217"/>
<text text-anchor="middle" x="744" y="-450.4" font-family="Times Roman,serif" font-size="14.00">Comment</text>
<polyline fill="none" stroke="black" points="646,-441 842,-441 "/>
<text text-anchor="start" x="654" y="-424.4" font-family="Times Roman,serif" font-size="14.00">id :integer</text>
<text text-anchor="start" x="654" y="-406.4" font-family="Times Roman,serif" font-size="14.00">commentable_id :integer</text>
<text text-anchor="start" x="654" y="-388.4" font-family="Times Roman,serif" font-size="14.00">commentable_type :string</text>
<text text-anchor="start" x="654" y="-370.4" font-family="Times Roman,serif" font-size="14.00">title :string</text>
<text text-anchor="start" x="654" y="-352.4" font-family="Times Roman,serif" font-size="14.00">body :text</text>
<text text-anchor="start" x="654" y="-334.4" font-family="Times Roman,serif" font-size="14.00">subject :string</text>
<text text-anchor="start" x="654" y="-316.4" font-family="Times Roman,serif" font-size="14.00">user_id :integer</text>
<text text-anchor="start" x="654" y="-298.4" font-family="Times Roman,serif" font-size="14.00">parent_id :integer</text>
<text text-anchor="start" x="654" y="-280.4" font-family="Times Roman,serif" font-size="14.00">lft :integer</text>
<text text-anchor="start" x="654" y="-262.4" font-family="Times Roman,serif" font-size="14.00">rgt :integer</text>
<text text-anchor="start" x="654" y="-244.4" font-family="Times Roman,serif" font-size="14.00">created_at :datetime</text>
<text text-anchor="start" x="654" y="-226.4" font-family="Times Roman,serif" font-size="14.00">updated_at :datetime</text>
</g>
<!-- Bike&#45;&gt;Comment -->
<g id="edge8" class="edge"><title>Bike&#45;&gt;Comment</title>
<path fill="none" stroke="#2c88ea" d="M637.665,-516.003C645.8,-502.691 654.001,-489.271 662.048,-476.104"/>
<ellipse fill="none" stroke="#2c88ea" cx="635.508" cy="-519.533" rx="4.00002" ry="4.00002"/>
<polygon fill="#2c88ea" stroke="#2c88ea" points="662.096,-476.024 671.151,-469.838 664.704,-471.758 667.311,-467.491 667.311,-467.491 667.311,-467.491 664.704,-471.758 663.471,-465.145 662.096,-476.024 662.096,-476.024"/>
<text text-anchor="middle" x="712" y="-491.4" font-family="Times Roman,serif" font-size="14.00">comment_threads</text>
</g>
<!-- Destination -->
<g id="node8" class="node"><title>Destination</title>
<polyline fill="none" stroke="black" points="475.5,-921 616.5,-921 "/>
<path fill="none" stroke="black" d="M616.5,-921C622.5,-921 628.5,-927 628.5,-933"/>
<polyline fill="none" stroke="black" points="628.5,-933 628.5,-1033 "/>
<path fill="none" stroke="black" d="M628.5,-1033C628.5,-1039 622.5,-1045 616.5,-1045"/>
<polyline fill="none" stroke="black" points="616.5,-1045 475.5,-1045 "/>
<path fill="none" stroke="black" d="M475.5,-1045C469.5,-1045 463.5,-1039 463.5,-1033"/>
<polyline fill="none" stroke="black" points="463.5,-1033 463.5,-933 "/>
<path fill="none" stroke="black" d="M463.5,-933C463.5,-927 469.5,-921 475.5,-921"/>
<text text-anchor="middle" x="546" y="-1028.4" font-family="Times Roman,serif" font-size="14.00">Destination</text>
<polyline fill="none" stroke="black" points="463.5,-1019 628.5,-1019 "/>
<text text-anchor="start" x="471.5" y="-1002.4" font-family="Times Roman,serif" font-size="14.00">id :integer</text>
<text text-anchor="start" x="471.5" y="-984.4" font-family="Times Roman,serif" font-size="14.00">name :string</text>
<text text-anchor="start" x="471.5" y="-966.4" font-family="Times Roman,serif" font-size="14.00">label :string</text>
<text text-anchor="start" x="471.5" y="-948.4" font-family="Times Roman,serif" font-size="14.00">created_at :datetime</text>
<text text-anchor="start" x="471.5" y="-930.4" font-family="Times Roman,serif" font-size="14.00">updated_at :datetime</text>
</g>
<!-- Destination&#45;&gt;Bike -->
<g id="edge16" class="edge"><title>Destination&#45;&gt;Bike</title>
<path fill="none" stroke="#ee9802" d="M546,-910.747C546,-883.494 546,-851.35 546,-819.476"/>
<polygon fill="#ee9802" stroke="#ee9802" points="546,-910.749 541.5,-920.749 546,-915.749 546,-920.749 546,-920.749 546,-920.749 546,-915.749 550.5,-920.749 546,-910.749 546,-910.749"/>
<polygon fill="#ee9802" stroke="#ee9802" points="546,-819.144 550.5,-809.144 546,-814.144 546,-809.144 546,-809.144 546,-809.144 546,-814.144 541.5,-809.144 546,-819.144 546,-819.144"/>
</g>
<!-- Destination&#45;&gt;Allotment -->
<g id="edge14" class="edge"><title>Destination&#45;&gt;Allotment</title>
<path fill="none" stroke="#1b00bd" d="M585.642,-913.852C603.481,-882.342 624.616,-844.458 643,-810 664.455,-769.786 688.109,-722.556 702.511,-693.451"/>
<ellipse fill="none" stroke="#1b00bd" cx="583.627" cy="-917.408" rx="4.00002" ry="4.00002"/>
<polygon fill="#1b00bd" stroke="#1b00bd" points="702.596,-693.278 711.058,-686.304 704.81,-688.795 707.023,-684.311 707.023,-684.311 707.023,-684.311 704.81,-688.795 702.988,-682.319 702.596,-693.278 702.596,-693.278"/>
</g>
<!-- BikeForm -->
<g id="node10" class="node"><title>BikeForm</title>
<polygon fill="none" stroke="black" points="1442,-957 1442,-1009 1522,-1009 1522,-957 1442,-957"/>
<text text-anchor="middle" x="1482" y="-992.4" font-family="Times Roman,serif" font-size="14.00">BikeForm</text>
<polyline fill="none" stroke="black" points="1442,-983 1522,-983 "/>
<text text-anchor="middle" x="1482" y="-966.4" font-family="Times Roman,serif" font-size="14.00"> </text>
</g>
<!-- Hook&#45;&gt;Bike -->
<g id="edge20" class="edge"><title>Hook&#45;&gt;Bike</title>
<path fill="none" stroke="#d2b251" d="M551.428,-403.466C552.399,-435.229 552.835,-475.52 552.736,-514.942"/>
<ellipse fill="none" stroke="#d2b251" cx="551.286" cy="-399.16" rx="4" ry="4"/>
<ellipse fill="#d2b251" stroke="#d2b251" cx="552.723" cy="-518.946" rx="4" ry="4"/>
</g>
<!-- Hook&#45;&gt;HookReservation -->
<g id="edge18" class="edge"><title>Hook&#45;&gt;HookReservation</title>
<path fill="none" stroke="#6ff358" d="M528.453,-280.936C518.866,-247.573 506.824,-205.669 496.245,-168.853"/>
<ellipse fill="none" stroke="#6ff358" cx="529.627" cy="-285.024" rx="4.00001" ry="4.00001"/>
<ellipse fill="#6ff358" stroke="#6ff358" cx="495.116" cy="-164.923" rx="4.00001" ry="4.00001"/>
<text text-anchor="middle" x="544.5" y="-185.4" font-family="Times Roman,serif" font-size="14.00">reservation</text>
</g>
<!-- User -->
<g id="node12" class="node"><title>User</title>
<polyline fill="none" stroke="black" points="1552,-849 1782,-849 "/>
<path fill="none" stroke="black" d="M1782,-849C1788,-849 1794,-855 1794,-861"/>
<polyline fill="none" stroke="black" points="1794,-861 1794,-1105 "/>
<path fill="none" stroke="black" d="M1794,-1105C1794,-1111 1788,-1117 1782,-1117"/>
<polyline fill="none" stroke="black" points="1782,-1117 1552,-1117 "/>
<path fill="none" stroke="black" d="M1552,-1117C1546,-1117 1540,-1111 1540,-1105"/>
<polyline fill="none" stroke="black" points="1540,-1105 1540,-861 "/>
<path fill="none" stroke="black" d="M1540,-861C1540,-855 1546,-849 1552,-849"/>
<text text-anchor="middle" x="1667" y="-1100.4" font-family="Times Roman,serif" font-size="14.00">User</text>
<polyline fill="none" stroke="black" points="1540,-1091 1794,-1091 "/>
<text text-anchor="start" x="1548" y="-1074.4" font-family="Times Roman,serif" font-size="14.00">id :integer</text>
<text text-anchor="start" x="1548" y="-1056.4" font-family="Times Roman,serif" font-size="14.00">email :string</text>
<text text-anchor="start" x="1548" y="-1038.4" font-family="Times Roman,serif" font-size="14.00">encrypted_password :string</text>
<text text-anchor="start" x="1548" y="-1020.4" font-family="Times Roman,serif" font-size="14.00">reset_password_token :string</text>
<text text-anchor="start" x="1548" y="-1002.4" font-family="Times Roman,serif" font-size="14.00">reset_password_sent_at :datetime</text>
<text text-anchor="start" x="1548" y="-984.4" font-family="Times Roman,serif" font-size="14.00">remember_created_at :datetime</text>
<text text-anchor="start" x="1548" y="-966.4" font-family="Times Roman,serif" font-size="14.00">sign_in_count :integer</text>
<text text-anchor="start" x="1548" y="-948.4" font-family="Times Roman,serif" font-size="14.00">current_sign_in_at :datetime</text>
<text text-anchor="start" x="1548" y="-930.4" font-family="Times Roman,serif" font-size="14.00">last_sign_in_at :datetime</text>
<text text-anchor="start" x="1548" y="-912.4" font-family="Times Roman,serif" font-size="14.00">current_sign_in_ip :string</text>
<text text-anchor="start" x="1548" y="-894.4" font-family="Times Roman,serif" font-size="14.00">last_sign_in_ip :string</text>
<text text-anchor="start" x="1548" y="-876.4" font-family="Times Roman,serif" font-size="14.00">created_at :datetime</text>
<text text-anchor="start" x="1548" y="-858.4" font-family="Times Roman,serif" font-size="14.00">updated_at :datetime</text>
</g>
<!-- Departure -->
<g id="node13" class="node"><title>Departure</title>
<polyline fill="none" stroke="black" points="1823.5,-930 1964.5,-930 "/>
<path fill="none" stroke="black" d="M1964.5,-930C1970.5,-930 1976.5,-936 1976.5,-942"/>
<polyline fill="none" stroke="black" points="1976.5,-942 1976.5,-1024 "/>
<path fill="none" stroke="black" d="M1976.5,-1024C1976.5,-1030 1970.5,-1036 1964.5,-1036"/>
<polyline fill="none" stroke="black" points="1964.5,-1036 1823.5,-1036 "/>
<path fill="none" stroke="black" d="M1823.5,-1036C1817.5,-1036 1811.5,-1030 1811.5,-1024"/>
<polyline fill="none" stroke="black" points="1811.5,-1024 1811.5,-942 "/>
<path fill="none" stroke="black" d="M1811.5,-942C1811.5,-936 1817.5,-930 1823.5,-930"/>
<text text-anchor="middle" x="1894" y="-1019.4" font-family="Times Roman,serif" font-size="14.00">Departure</text>
<polyline fill="none" stroke="black" points="1811.5,-1010 1976.5,-1010 "/>
<text text-anchor="start" x="1819.5" y="-993.4" font-family="Times Roman,serif" font-size="14.00">id :integer</text>
<text text-anchor="start" x="1819.5" y="-975.4" font-family="Times Roman,serif" font-size="14.00">value :float</text>
<text text-anchor="start" x="1819.5" y="-957.4" font-family="Times Roman,serif" font-size="14.00">created_at :datetime</text>
<text text-anchor="start" x="1819.5" y="-939.4" font-family="Times Roman,serif" font-size="14.00">updated_at :datetime</text>
</g>
<!-- Assignment -->
<g id="node14" class="node"><title>Assignment</title>
<polyline fill="none" stroke="black" points="280,-921 434,-921 "/>
<path fill="none" stroke="black" d="M434,-921C440,-921 446,-927 446,-933"/>
<polyline fill="none" stroke="black" points="446,-933 446,-1033 "/>
<path fill="none" stroke="black" d="M446,-1033C446,-1039 440,-1045 434,-1045"/>
<polyline fill="none" stroke="black" points="434,-1045 280,-1045 "/>
<path fill="none" stroke="black" d="M280,-1045C274,-1045 268,-1039 268,-1033"/>
<polyline fill="none" stroke="black" points="268,-1033 268,-933 "/>
<path fill="none" stroke="black" d="M268,-933C268,-927 274,-921 280,-921"/>
<text text-anchor="middle" x="357" y="-1028.4" font-family="Times Roman,serif" font-size="14.00">Assignment</text>
<polyline fill="none" stroke="black" points="268,-1019 446,-1019 "/>
<text text-anchor="start" x="276" y="-1002.4" font-family="Times Roman,serif" font-size="14.00">id :integer</text>
<text text-anchor="start" x="276" y="-984.4" font-family="Times Roman,serif" font-size="14.00">application_id :integer</text>
<text text-anchor="start" x="276" y="-966.4" font-family="Times Roman,serif" font-size="14.00">application_type :string</text>
<text text-anchor="start" x="276" y="-948.4" font-family="Times Roman,serif" font-size="14.00">created_at :datetime</text>
<text text-anchor="start" x="276" y="-930.4" font-family="Times Roman,serif" font-size="14.00">updated_at :datetime</text>
</g>
<!-- Assignment&#45;&gt;Bike -->
<g id="edge22" class="edge"><title>Assignment&#45;&gt;Bike</title>
<path fill="none" stroke="#6f57d2" d="M398.212,-913.877C415.363,-885.111 435.992,-850.51 456.323,-816.41"/>
<ellipse fill="none" stroke="#6f57d2" cx="396.163" cy="-917.314" rx="4.00002" ry="4.00002"/>
<ellipse fill="#6f57d2" stroke="#6f57d2" cx="458.607" cy="-812.579" rx="4.00002" ry="4.00002"/>
</g>
<!-- Comment&#45;&gt;Comment -->
<g id="edge24" class="edge"><title>Comment&#45;&gt;Comment</title>
<path fill="none" stroke="#c34250" d="M849.525,-361.915C856.065,-357.211 860,-350.572 860,-342 860,-334.142 856.693,-327.909 851.105,-323.301"/>
<ellipse fill="none" stroke="#c34250" cx="845.67" cy="-364.043" rx="4.00002" ry="4.00002"/>
<polygon fill="#c34250" stroke="#c34250" points="850.779,-323.108 844.455,-314.149 846.473,-320.566 842.168,-318.024 842.168,-318.024 842.168,-318.024 846.473,-320.566 839.88,-321.9 850.779,-323.108 850.779,-323.108"/>
<text text-anchor="middle" x="887.5" y="-338.4" font-family="Times Roman,serif" font-size="14.00">children</text>
</g>
<!-- HookNumber -->
<g id="node16" class="node"><title>HookNumber</title>
<polygon fill="none" stroke="black" points="1993.5,-957 1993.5,-1009 2100.5,-1009 2100.5,-957 1993.5,-957"/>
<text text-anchor="middle" x="2047" y="-992.4" font-family="Times Roman,serif" font-size="14.00">HookNumber</text>
<polyline fill="none" stroke="black" points="1993.5,-983 2100.5,-983 "/>
<text text-anchor="middle" x="2047" y="-966.4" font-family="Times Roman,serif" font-size="14.00"> </text>
</g>
<!-- Settings -->
<g id="node17" class="node"><title>Settings</title>
<polygon fill="none" stroke="black" stroke-dasharray="1,5" points="2192,-1001 2118,-1001 2118,-965 2192,-965 2192,-1001"/>
<text text-anchor="middle" x="2155" y="-979.4" font-family="Times Roman,serif" font-size="14.00">Settings</text>
</g>
</g>
</svg>
