<?xml version="1.0" encoding="UTF-8" standalone="no"?>
<!DOCTYPE svg PUBLIC "-//W3C//DTD SVG 1.1//EN"
 "http://www.w3.org/Graphics/SVG/1.1/DTD/svg11.dtd">
<!-- Generated by graphviz version 2.26.3 (20100126.1600)
 -->
<!-- Title: models_diagram Pages: 1 -->
<svg width="873pt" height="438pt"
 viewBox="0.00 0.00 873.00 438.00" xmlns="http://www.w3.org/2000/svg" xmlns:xlink="http://www.w3.org/1999/xlink">
<g id="graph1" class="graph" transform="scale(1 1) rotate(0) translate(4 434)">
<title>models_diagram</title>
<polygon fill="white" stroke="white" points="-4,5 -4,-434 870,-434 870,5 -4,5"/>
<!-- _diagram_info -->
<g id="node1" class="node"><title>_diagram_info</title>
<text text-anchor="start" x="8" y="-413.8" font-family="Times Roman,serif" font-size="13.00">Models diagram</text>
<text text-anchor="start" x="8" y="-396.8" font-family="Times Roman,serif" font-size="13.00">Date: Mar 27 2012 &#45; 02:07</text>
<text text-anchor="start" x="8" y="-379.8" font-family="Times Roman,serif" font-size="13.00">Migration version: 20120321122710</text>
<text text-anchor="start" x="8" y="-362.8" font-family="Times Roman,serif" font-size="13.00">Generated by RailRoady 1.0.4</text>
<text text-anchor="start" x="8" y="-345.8" font-family="Times Roman,serif" font-size="13.00">http://railroady.prestonlee.com</text>
</g>
<!-- Program -->
<g id="node2" class="node"><title>Program</title>
<ellipse fill="none" stroke="black" cx="303" cy="-279" rx="53.033" ry="18.3848"/>
<text text-anchor="middle" x="303" y="-275.4" font-family="Times Roman,serif" font-size="14.00">Program</text>
</g>
<!-- Project -->
<g id="node12" class="node"><title>Project</title>
<ellipse fill="none" stroke="black" cx="384" cy="-187" rx="45.9619" ry="18.3848"/>
<text text-anchor="middle" x="384" y="-183.4" font-family="Times Roman,serif" font-size="14.00">Project</text>
</g>
<!-- Program&#45;&gt;Project -->
<g id="edge4" class="edge"><title>Program&#45;&gt;Project</title>
<path fill="none" stroke="black" d="M323.918,-255.241C335.541,-242.04 349.998,-225.62 361.817,-212.195"/>
<ellipse fill="none" stroke="black" cx="321.261" cy="-258.259" rx="4.00002" ry="4.00002"/>
<polygon fill="black" stroke="black" points="361.822,-212.19 371.808,-207.658 365.126,-208.437 368.43,-204.684 368.43,-204.684 368.43,-204.684 365.126,-208.437 365.053,-201.71 361.822,-212.19 361.822,-212.19"/>
</g>
<!-- FriendlyId::Slug -->
<g id="node15" class="node"><title>FriendlyId::Slug</title>
<ellipse fill="none" stroke="black" cx="233" cy="-187" rx="86.9741" ry="18.3848"/>
<text text-anchor="middle" x="233" y="-183.4" font-family="Times Roman,serif" font-size="14.00">FriendlyId::Slug</text>
</g>
<!-- Program&#45;&gt;FriendlyId::Slug -->
<g id="edge2" class="edge"><title>Program&#45;&gt;FriendlyId::Slug</title>
<path fill="none" stroke="black" d="M284.047,-254.091C274.474,-241.509 262.856,-226.239 253.123,-213.448"/>
<ellipse fill="none" stroke="black" cx="286.748" cy="-257.64" rx="4.00002" ry="4.00002"/>
<polygon fill="black" stroke="black" points="253.096,-213.412 250.622,-202.729 250.068,-209.433 247.041,-205.453 247.041,-205.453 247.041,-205.453 250.068,-209.433 243.459,-208.178 253.096,-213.412 253.096,-213.412"/>
<text text-anchor="middle" x="291.5" y="-229.4" font-family="Times Roman,serif" font-size="14.00">slugs</text>
</g>
<!-- Bike -->
<g id="node3" class="node"><title>Bike</title>
<ellipse fill="none" stroke="black" cx="185" cy="-111" rx="32.0265" ry="18.3848"/>
<text text-anchor="middle" x="185" y="-107.4" font-family="Times Roman,serif" font-size="14.00">Bike</text>
</g>
<!-- Hook -->
<g id="node9" class="node"><title>Hook</title>
<ellipse fill="none" stroke="black" cx="152" cy="-19" rx="36.7696" ry="18.3848"/>
<text text-anchor="middle" x="152" y="-15.4" font-family="Times Roman,serif" font-size="14.00">Hook</text>
</g>
<!-- Bike&#45;&gt;Hook -->
<g id="edge8" class="edge"><title>Bike&#45;&gt;Hook</title>
<path fill="none" stroke="black" d="M171.193,-85.9677C169.299,-82.0281 167.495,-77.9508 166,-74 162.582,-64.9692 159.729,-54.7926 157.51,-45.6709"/>
<ellipse fill="none" stroke="black" cx="173.088" cy="-89.732" rx="4.00002" ry="4.00002"/>
<ellipse fill="black" stroke="black" cx="156.555" cy="-41.5502" rx="4.00001" ry="4.00001"/>
</g>
<!-- Comment -->
<g id="node11" class="node"><title>Comment</title>
<ellipse fill="none" stroke="black" cx="276" cy="-19" rx="58.1882" ry="18.3848"/>
<text text-anchor="middle" x="276" y="-15.4" font-family="Times Roman,serif" font-size="14.00">Comment</text>
</g>
<!-- Bike&#45;&gt;Comment -->
<g id="edge6" class="edge"><title>Bike&#45;&gt;Comment</title>
<path fill="none" stroke="black" d="M179.707,-84.4284C179.189,-74.7418 180.416,-64.1721 186,-56 193.295,-45.3242 204.273,-37.7246 216.08,-32.3162"/>
<ellipse fill="none" stroke="black" cx="180.139" cy="-88.6518" rx="4" ry="4"/>
<polygon fill="black" stroke="black" points="216.403,-32.1855 227.361,-32.6026 221.037,-30.3086 225.672,-28.4317 225.672,-28.4317 225.672,-28.4317 221.037,-30.3086 223.982,-24.2607 216.403,-32.1855 216.403,-32.1855"/>
<text text-anchor="middle" x="248" y="-61.4" font-family="Times Roman,serif" font-size="14.00">comment_threads</text>
</g>
<!-- Project::Youth -->
<g id="node4" class="node"><title>Project::Youth</title>
<ellipse fill="none" stroke="black" cx="546" cy="-111" rx="79.9031" ry="18.3848"/>
<text text-anchor="middle" x="546" y="-107.4" font-family="Times Roman,serif" font-size="14.00">Project::Youth</text>
</g>
<!-- Project::Spec::Youth -->
<g id="node5" class="node"><title>Project::Spec::Youth</title>
<ellipse fill="none" stroke="black" cx="540" cy="-19" rx="109.101" ry="18.3848"/>
<text text-anchor="middle" x="540" y="-15.4" font-family="Times Roman,serif" font-size="14.00">Project::Spec::Youth</text>
</g>
<!-- Project::Youth&#45;&gt;Project::Spec::Youth -->
<g id="edge10" class="edge"><title>Project::Youth&#45;&gt;Project::Spec::Youth</title>
<path fill="none" stroke="black" d="M544.241,-84.029C543.458,-72.0163 542.537,-57.9017 541.754,-45.8975"/>
<ellipse fill="none" stroke="black" cx="544.525" cy="-88.3909" rx="4" ry="4"/>
<ellipse fill="black" stroke="black" cx="541.473" cy="-41.5814" rx="4" ry="4"/>
<text text-anchor="middle" x="558.5" y="-61.4" font-family="Times Roman,serif" font-size="14.00">spec</text>
</g>
<!-- Project::Spec::Eab -->
<g id="node6" class="node"><title>Project::Spec::Eab</title>
<ellipse fill="none" stroke="black" cx="766" cy="-19" rx="98.9949" ry="18.3848"/>
<text text-anchor="middle" x="766" y="-15.4" font-family="Times Roman,serif" font-size="14.00">Project::Spec::Eab</text>
</g>
<!-- Project::Spec -->
<g id="node7" class="node"><title>Project::Spec</title>
<polygon fill="none" stroke="black" stroke-dasharray="1,5" points="572,-401 466,-401 466,-365 572,-365 572,-401"/>
<text text-anchor="middle" x="519" y="-379.4" font-family="Times Roman,serif" font-size="14.00">Project::Spec</text>
</g>
<!-- Project::Eab -->
<g id="node8" class="node"><title>Project::Eab</title>
<ellipse fill="none" stroke="black" cx="749" cy="-111" rx="70.0036" ry="18.3848"/>
<text text-anchor="middle" x="749" y="-107.4" font-family="Times Roman,serif" font-size="14.00">Project::Eab</text>
</g>
<!-- Project::Eab&#45;&gt;Project::Spec::Eab -->
<g id="edge14" class="edge"><title>Project::Eab&#45;&gt;Project::Spec::Eab</title>
<path fill="none" stroke="black" d="M753.907,-84.4467C756.16,-72.2543 758.825,-57.828 761.08,-45.6267"/>
<ellipse fill="none" stroke="black" cx="753.167" cy="-88.449" rx="4.00001" ry="4.00001"/>
<ellipse fill="black" stroke="black" cx="761.838" cy="-41.5233" rx="4.00001" ry="4.00001"/>
<text text-anchor="middle" x="774.5" y="-61.4" font-family="Times Roman,serif" font-size="14.00">spec</text>
</g>
<!-- User -->
<g id="node10" class="node"><title>User</title>
<ellipse fill="none" stroke="black" cx="624" cy="-383" rx="33.9411" ry="18.3848"/>
<text text-anchor="middle" x="624" y="-379.4" font-family="Times Roman,serif" font-size="14.00">User</text>
</g>
<!-- Comment&#45;&gt;Comment -->
<g id="edge18" class="edge"><title>Comment&#45;&gt;Comment</title>
<path fill="none" stroke="black" d="M335.51,-26.9887C345.28,-25.8512 352,-23.1883 352,-19 352,-15.0992 346.17,-12.5215 337.477,-11.267"/>
<ellipse fill="none" stroke="black" cx="331.496" cy="-27.2759" rx="4" ry="4"/>
<polygon fill="black" stroke="black" points="337.472,-11.2666 327.878,-5.95414 332.489,-10.8527 327.506,-10.4387 327.506,-10.4387 327.506,-10.4387 332.489,-10.8527 327.133,-14.9233 337.472,-11.2666 337.472,-11.2666"/>
<text text-anchor="middle" x="379.5" y="-15.4" font-family="Times Roman,serif" font-size="14.00">children</text>
</g>
<!-- Project&#45;&gt;Bike -->
<g id="edge20" class="edge"><title>Project&#45;&gt;Bike</title>
<path fill="none" stroke="black" d="M342.65,-171.208C306.298,-157.325 253.992,-137.349 219.757,-124.274"/>
<ellipse fill="none" stroke="black" cx="346.506" cy="-172.681" rx="4.00001" ry="4.00001"/>
<ellipse fill="black" stroke="black" cx="215.627" cy="-122.697" rx="4.00001" ry="4.00001"/>
</g>
<!-- Project&#45;&gt;Project::Youth -->
<g id="edge12" class="edge"><title>Project&#45;&gt;Project::Youth</title>
<path fill="none" stroke="black" d="M414.091,-172.883C441.359,-160.091 481.571,-141.226 510.422,-127.691"/>
</g>
<!-- Project&#45;&gt;Project::Eab -->
<g id="edge16" class="edge"><title>Project&#45;&gt;Project::Eab</title>
<path fill="none" stroke="black" d="M425.161,-178.43C490.974,-164.726 619.972,-137.866 693.746,-122.505"/>
</g>
<!-- Project&#45;&gt;Comment -->
<g id="edge22" class="edge"><title>Project&#45;&gt;Comment</title>
<path fill="none" stroke="black" d="M359.572,-164.291C350.188,-154.494 340.049,-142.437 333,-130 316.018,-100.037 327.18,-85.8497 310,-56 307.685,-51.9785 304.865,-48.031 301.849,-44.3002"/>
<ellipse fill="none" stroke="black" cx="362.475" cy="-167.234" rx="4.00002" ry="4.00002"/>
<polygon fill="black" stroke="black" points="301.639,-44.0602 298.44,-33.5712 298.346,-40.2974 295.053,-36.5346 295.053,-36.5346 295.053,-36.5346 298.346,-40.2974 291.667,-39.498 301.639,-44.0602 301.639,-44.0602"/>
<text text-anchor="middle" x="395" y="-107.4" font-family="Times Roman,serif" font-size="14.00">comment_threads</text>
</g>
<!-- ProjectCategory -->
<g id="node13" class="node"><title>ProjectCategory</title>
<ellipse fill="none" stroke="black" cx="358" cy="-383" rx="90.0096" ry="18.3848"/>
<text text-anchor="middle" x="358" y="-379.4" font-family="Times Roman,serif" font-size="14.00">ProjectCategory</text>
</g>
<!-- ProjectCategory&#45;&gt;Program -->
<g id="edge24" class="edge"><title>ProjectCategory&#45;&gt;Program</title>
<path fill="none" stroke="black" d="M344.18,-356.868C336.068,-341.528 325.824,-322.159 317.583,-306.576"/>
<ellipse fill="none" stroke="black" cx="346.297" cy="-360.871" rx="4.00002" ry="4.00002"/>
<polygon fill="black" stroke="black" points="317.423,-306.272 316.726,-295.328 315.085,-301.852 312.748,-297.432 312.748,-297.432 312.748,-297.432 315.085,-301.852 308.77,-299.536 317.423,-306.272 317.423,-306.272"/>
</g>
<!-- ProjectCategory&#45;&gt;Project -->
<g id="edge26" class="edge"><title>ProjectCategory&#45;&gt;Project</title>
<path fill="none" stroke="black" d="M361.833,-354.107C366.755,-317.002 375.247,-252.985 380.168,-215.885"/>
<polygon fill="black" stroke="black" points="361.808,-354.294 356.032,-363.615 361.151,-359.25 360.493,-364.207 360.493,-364.207 360.493,-364.207 361.151,-359.25 364.954,-364.798 361.808,-354.294 361.808,-354.294"/>
<polygon fill="black" stroke="black" points="380.199,-215.65 385.975,-206.328 380.857,-210.693 381.515,-205.736 381.515,-205.736 381.515,-205.736 380.857,-210.693 377.054,-205.145 380.199,-215.65 380.199,-215.65"/>
</g>
</g>
</svg>
