<?xml version="1.0" encoding="UTF-8" standalone="no"?>
<!DOCTYPE svg PUBLIC "-//W3C//DTD SVG 1.1//EN"
 "http://www.w3.org/Graphics/SVG/1.1/DTD/svg11.dtd">
<!-- Generated by graphviz version 2.26.3 (20100126.1600)
 -->
<!-- Title: models_diagram Pages: 1 -->
<svg width="1238pt" height="802pt"
 viewBox="0.00 0.00 1238.00 802.00" xmlns="http://www.w3.org/2000/svg" xmlns:xlink="http://www.w3.org/1999/xlink">
<g id="graph1" class="graph" transform="scale(1 1) rotate(0) translate(4 798)">
<title>models_diagram</title>
<polygon fill="white" stroke="white" points="-4,5 -4,-798 1235,-798 1235,5 -4,5"/>
<!-- _diagram_info -->
<g id="node1" class="node"><title>_diagram_info</title>
<text text-anchor="start" x="8" y="-707.8" font-family="Times Roman,serif" font-size="13.00">Models diagram</text>
<text text-anchor="start" x="8" y="-690.8" font-family="Times Roman,serif" font-size="13.00">Date: Mar 17 2012 &#45; 00:11</text>
<text text-anchor="start" x="8" y="-673.8" font-family="Times Roman,serif" font-size="13.00">Migration version: 20120316082735</text>
<text text-anchor="start" x="8" y="-656.8" font-family="Times Roman,serif" font-size="13.00">Generated by RailRoady 1.0.4</text>
<text text-anchor="start" x="8" y="-639.8" font-family="Times Roman,serif" font-size="13.00">http://railroady.prestonlee.com</text>
</g>
<!-- Program -->
<g id="node2" class="node"><title>Program</title>
<polyline fill="none" stroke="black" points="279.5,-624 446.5,-624 "/>
<path fill="none" stroke="black" d="M446.5,-624C452.5,-624 458.5,-630 458.5,-636"/>
<polyline fill="none" stroke="black" points="458.5,-636 458.5,-718 "/>
<path fill="none" stroke="black" d="M458.5,-718C458.5,-724 452.5,-730 446.5,-730"/>
<polyline fill="none" stroke="black" points="446.5,-730 279.5,-730 "/>
<path fill="none" stroke="black" d="M279.5,-730C273.5,-730 267.5,-724 267.5,-718"/>
<polyline fill="none" stroke="black" points="267.5,-718 267.5,-636 "/>
<path fill="none" stroke="black" d="M267.5,-636C267.5,-630 273.5,-624 279.5,-624"/>
<text text-anchor="middle" x="363" y="-713.4" font-family="Times Roman,serif" font-size="14.00">Program</text>
<polyline fill="none" stroke="black" points="267.5,-704 458.5,-704 "/>
<text text-anchor="start" x="275.5" y="-687.4" font-family="Times Roman,serif" font-size="14.00">title :string</text>
<text text-anchor="start" x="275.5" y="-669.4" font-family="Times Roman,serif" font-size="14.00">program_category :string</text>
<text text-anchor="start" x="275.5" y="-651.4" font-family="Times Roman,serif" font-size="14.00">created_at :datetime</text>
<text text-anchor="start" x="275.5" y="-633.4" font-family="Times Roman,serif" font-size="14.00">updated_at :datetime</text>
</g>
<!-- Project -->
<g id="node11" class="node"><title>Project</title>
<polyline fill="none" stroke="black" points="290,-397 446,-397 "/>
<path fill="none" stroke="black" d="M446,-397C452,-397 458,-403 458,-409"/>
<polyline fill="none" stroke="black" points="458,-409 458,-509 "/>
<path fill="none" stroke="black" d="M458,-509C458,-515 452,-521 446,-521"/>
<polyline fill="none" stroke="black" points="446,-521 290,-521 "/>
<path fill="none" stroke="black" d="M290,-521C284,-521 278,-515 278,-509"/>
<polyline fill="none" stroke="black" points="278,-509 278,-409 "/>
<path fill="none" stroke="black" d="M278,-409C278,-403 284,-397 290,-397"/>
<text text-anchor="middle" x="368" y="-504.4" font-family="Times Roman,serif" font-size="14.00">Project</text>
<polyline fill="none" stroke="black" points="278,-495 458,-495 "/>
<text text-anchor="start" x="286" y="-478.4" font-family="Times Roman,serif" font-size="14.00">project_category :string</text>
<text text-anchor="start" x="286" y="-460.4" font-family="Times Roman,serif" font-size="14.00">projectable_type :string</text>
<text text-anchor="start" x="286" y="-442.4" font-family="Times Roman,serif" font-size="14.00">label :string</text>
<text text-anchor="start" x="286" y="-424.4" font-family="Times Roman,serif" font-size="14.00">created_at :datetime</text>
<text text-anchor="start" x="286" y="-406.4" font-family="Times Roman,serif" font-size="14.00">updated_at :datetime</text>
</g>
<!-- Program&#45;&gt;Project -->
<g id="edge2" class="edge"><title>Program&#45;&gt;Project</title>
<path fill="none" stroke="black" d="M364.404,-615.783C365.005,-589.59 365.711,-558.807 366.337,-531.485"/>
<ellipse fill="none" stroke="black" cx="364.309" cy="-619.951" rx="4" ry="4"/>
<polygon fill="black" stroke="black" points="366.344,-531.197 371.072,-521.303 366.459,-526.199 366.573,-521.2 366.573,-521.2 366.573,-521.2 366.459,-526.199 362.075,-521.097 366.344,-531.197 366.344,-531.197"/>
</g>
<!-- Bike -->
<g id="node3" class="node"><title>Bike</title>
<polyline fill="none" stroke="black" points="487.5,-579 640.5,-579 "/>
<path fill="none" stroke="black" d="M640.5,-579C646.5,-579 652.5,-585 652.5,-591"/>
<polyline fill="none" stroke="black" points="652.5,-591 652.5,-763 "/>
<path fill="none" stroke="black" d="M652.5,-763C652.5,-769 646.5,-775 640.5,-775"/>
<polyline fill="none" stroke="black" points="640.5,-775 487.5,-775 "/>
<path fill="none" stroke="black" d="M487.5,-775C481.5,-775 475.5,-769 475.5,-763"/>
<polyline fill="none" stroke="black" points="475.5,-763 475.5,-591 "/>
<path fill="none" stroke="black" d="M475.5,-591C475.5,-585 481.5,-579 487.5,-579"/>
<text text-anchor="middle" x="564" y="-758.4" font-family="Times Roman,serif" font-size="14.00">Bike</text>
<polyline fill="none" stroke="black" points="475.5,-749 652.5,-749 "/>
<text text-anchor="start" x="483.5" y="-732.4" font-family="Times Roman,serif" font-size="14.00">color :string</text>
<text text-anchor="start" x="483.5" y="-714.4" font-family="Times Roman,serif" font-size="14.00">value :float</text>
<text text-anchor="start" x="483.5" y="-696.4" font-family="Times Roman,serif" font-size="14.00">seat_tube_height :float</text>
<text text-anchor="start" x="483.5" y="-678.4" font-family="Times Roman,serif" font-size="14.00">top_tube_length :float</text>
<text text-anchor="start" x="483.5" y="-660.4" font-family="Times Roman,serif" font-size="14.00">created_at :datetime</text>
<text text-anchor="start" x="483.5" y="-642.4" font-family="Times Roman,serif" font-size="14.00">updated_at :datetime</text>
<text text-anchor="start" x="483.5" y="-624.4" font-family="Times Roman,serif" font-size="14.00">mfg :string</text>
<text text-anchor="start" x="483.5" y="-606.4" font-family="Times Roman,serif" font-size="14.00">model :string</text>
<text text-anchor="start" x="483.5" y="-588.4" font-family="Times Roman,serif" font-size="14.00">number :string</text>
</g>
<!-- Hook -->
<g id="node8" class="node"><title>Hook</title>
<polyline fill="none" stroke="black" points="487.5,-415 628.5,-415 "/>
<path fill="none" stroke="black" d="M628.5,-415C634.5,-415 640.5,-421 640.5,-427"/>
<polyline fill="none" stroke="black" points="640.5,-427 640.5,-491 "/>
<path fill="none" stroke="black" d="M640.5,-491C640.5,-497 634.5,-503 628.5,-503"/>
<polyline fill="none" stroke="black" points="628.5,-503 487.5,-503 "/>
<path fill="none" stroke="black" d="M487.5,-503C481.5,-503 475.5,-497 475.5,-491"/>
<polyline fill="none" stroke="black" points="475.5,-491 475.5,-427 "/>
<path fill="none" stroke="black" d="M475.5,-427C475.5,-421 481.5,-415 487.5,-415"/>
<text text-anchor="middle" x="558" y="-486.4" font-family="Times Roman,serif" font-size="14.00">Hook</text>
<polyline fill="none" stroke="black" points="475.5,-477 640.5,-477 "/>
<text text-anchor="start" x="483.5" y="-460.4" font-family="Times Roman,serif" font-size="14.00">number :integer</text>
<text text-anchor="start" x="483.5" y="-442.4" font-family="Times Roman,serif" font-size="14.00">created_at :datetime</text>
<text text-anchor="start" x="483.5" y="-424.4" font-family="Times Roman,serif" font-size="14.00">updated_at :datetime</text>
</g>
<!-- Bike&#45;&gt;Hook -->
<g id="edge6" class="edge"><title>Bike&#45;&gt;Hook</title>
<path fill="none" stroke="black" d="M561.076,-570.764C560.507,-550.075 559.934,-529.253 559.439,-511.282"/>
<ellipse fill="none" stroke="black" cx="561.188" cy="-574.843" rx="4" ry="4"/>
<ellipse fill="black" stroke="black" cx="559.328" cy="-507.235" rx="4" ry="4"/>
</g>
<!-- Comment -->
<g id="node10" class="node"><title>Comment</title>
<polyline fill="none" stroke="black" points="539,-163 711,-163 "/>
<path fill="none" stroke="black" d="M711,-163C717,-163 723,-169 723,-175"/>
<polyline fill="none" stroke="black" points="723,-175 723,-329 "/>
<path fill="none" stroke="black" d="M723,-329C723,-335 717,-341 711,-341"/>
<polyline fill="none" stroke="black" points="711,-341 539,-341 "/>
<path fill="none" stroke="black" d="M539,-341C533,-341 527,-335 527,-329"/>
<polyline fill="none" stroke="black" points="527,-329 527,-175 "/>
<path fill="none" stroke="black" d="M527,-175C527,-169 533,-163 539,-163"/>
<text text-anchor="middle" x="625" y="-324.4" font-family="Times Roman,serif" font-size="14.00">Comment</text>
<polyline fill="none" stroke="black" points="527,-315 723,-315 "/>
<text text-anchor="start" x="535" y="-298.4" font-family="Times Roman,serif" font-size="14.00">commentable_type :string</text>
<text text-anchor="start" x="535" y="-280.4" font-family="Times Roman,serif" font-size="14.00">title :string</text>
<text text-anchor="start" x="535" y="-262.4" font-family="Times Roman,serif" font-size="14.00">body :text</text>
<text text-anchor="start" x="535" y="-244.4" font-family="Times Roman,serif" font-size="14.00">subject :string</text>
<text text-anchor="start" x="535" y="-226.4" font-family="Times Roman,serif" font-size="14.00">lft :integer</text>
<text text-anchor="start" x="535" y="-208.4" font-family="Times Roman,serif" font-size="14.00">rgt :integer</text>
<text text-anchor="start" x="535" y="-190.4" font-family="Times Roman,serif" font-size="14.00">created_at :datetime</text>
<text text-anchor="start" x="535" y="-172.4" font-family="Times Roman,serif" font-size="14.00">updated_at :datetime</text>
</g>
<!-- Bike&#45;&gt;Comment -->
<g id="edge4" class="edge"><title>Bike&#45;&gt;Comment</title>
<path fill="none" stroke="black" d="M630.794,-571.434C638.283,-555.391 644.74,-538.629 649,-522 663.207,-466.547 658.494,-402.833 649.634,-351.228"/>
<ellipse fill="none" stroke="black" cx="629.014" cy="-575.145" rx="4.00002" ry="4.00002"/>
<polygon fill="black" stroke="black" points="649.578,-350.917 652.24,-340.279 648.694,-345.995 647.811,-341.074 647.811,-341.074 647.811,-341.074 648.694,-345.995 643.382,-341.869 649.578,-350.917 649.578,-350.917"/>
<text text-anchor="middle" x="720" y="-455.4" font-family="Times Roman,serif" font-size="14.00">comment_threads</text>
</g>
<!-- Bike&#45;&gt;Project -->
<g id="edge8" class="edge"><title>Bike&#45;&gt;Project</title>
<path fill="none" stroke="black" d="M478.139,-572.53C474.404,-568.273 470.68,-564.081 467,-560 457.288,-549.23 446.788,-538.054 436.38,-527.232"/>
<ellipse fill="none" stroke="black" cx="480.987" cy="-575.794" rx="4.00002" ry="4.00002"/>
<ellipse fill="black" stroke="black" cx="433.392" cy="-524.138" rx="4.00002" ry="4.00002"/>
</g>
<!-- Project::Youth -->
<g id="node4" class="node"><title>Project::Youth</title>
<polyline fill="none" stroke="black" points="290,-190 446,-190 "/>
<path fill="none" stroke="black" d="M446,-190C452,-190 458,-196 458,-202"/>
<polyline fill="none" stroke="black" points="458,-202 458,-302 "/>
<path fill="none" stroke="black" d="M458,-302C458,-308 452,-314 446,-314"/>
<polyline fill="none" stroke="black" points="446,-314 290,-314 "/>
<path fill="none" stroke="black" d="M290,-314C284,-314 278,-308 278,-302"/>
<polyline fill="none" stroke="black" points="278,-302 278,-202 "/>
<path fill="none" stroke="black" d="M278,-202C278,-196 284,-190 290,-190"/>
<text text-anchor="middle" x="368" y="-297.4" font-family="Times Roman,serif" font-size="14.00">Project::Youth</text>
<polyline fill="none" stroke="black" points="278,-288 458,-288 "/>
<text text-anchor="start" x="286" y="-271.4" font-family="Times Roman,serif" font-size="14.00">project_category :string</text>
<text text-anchor="start" x="286" y="-253.4" font-family="Times Roman,serif" font-size="14.00">projectable_type :string</text>
<text text-anchor="start" x="286" y="-235.4" font-family="Times Roman,serif" font-size="14.00">label :string</text>
<text text-anchor="start" x="286" y="-217.4" font-family="Times Roman,serif" font-size="14.00">created_at :datetime</text>
<text text-anchor="start" x="286" y="-199.4" font-family="Times Roman,serif" font-size="14.00">updated_at :datetime</text>
</g>
<!-- Project::Spec::Youth -->
<g id="node5" class="node"><title>Project::Spec::Youth</title>
<polyline fill="none" stroke="black" points="297.5,-1 438.5,-1 "/>
<path fill="none" stroke="black" d="M438.5,-1C444.5,-1 450.5,-7 450.5,-13"/>
<polyline fill="none" stroke="black" points="450.5,-13 450.5,-95 "/>
<path fill="none" stroke="black" d="M450.5,-95C450.5,-101 444.5,-107 438.5,-107"/>
<polyline fill="none" stroke="black" points="438.5,-107 297.5,-107 "/>
<path fill="none" stroke="black" d="M297.5,-107C291.5,-107 285.5,-101 285.5,-95"/>
<polyline fill="none" stroke="black" points="285.5,-95 285.5,-13 "/>
<path fill="none" stroke="black" d="M285.5,-13C285.5,-7 291.5,-1 297.5,-1"/>
<text text-anchor="middle" x="368" y="-90.4" font-family="Times Roman,serif" font-size="14.00">Project::Spec::Youth</text>
<polyline fill="none" stroke="black" points="285.5,-81 450.5,-81 "/>
<text text-anchor="start" x="293.5" y="-64.4" font-family="Times Roman,serif" font-size="14.00">state :string</text>
<text text-anchor="start" x="293.5" y="-46.4" font-family="Times Roman,serif" font-size="14.00">specable_type :string</text>
<text text-anchor="start" x="293.5" y="-28.4" font-family="Times Roman,serif" font-size="14.00">created_at :datetime</text>
<text text-anchor="start" x="293.5" y="-10.4" font-family="Times Roman,serif" font-size="14.00">updated_at :datetime</text>
</g>
<!-- Project::Youth&#45;&gt;Project::Spec::Youth -->
<g id="edge10" class="edge"><title>Project::Youth&#45;&gt;Project::Spec::Youth</title>
<path fill="none" stroke="black" d="M368,-181.691C368,-160.053 368,-136.414 368,-115.422"/>
<ellipse fill="none" stroke="black" cx="368" cy="-185.895" rx="4" ry="4"/>
<ellipse fill="black" stroke="black" cx="368" cy="-111.213" rx="4" ry="4"/>
<text text-anchor="middle" x="383.5" y="-131.4" font-family="Times Roman,serif" font-size="14.00">spec</text>
</g>
<!-- Project::Spec::Eab -->
<g id="node6" class="node"><title>Project::Spec::Eab</title>
<polyline fill="none" stroke="black" points="681.5,-624 822.5,-624 "/>
<path fill="none" stroke="black" d="M822.5,-624C828.5,-624 834.5,-630 834.5,-636"/>
<polyline fill="none" stroke="black" points="834.5,-636 834.5,-718 "/>
<path fill="none" stroke="black" d="M834.5,-718C834.5,-724 828.5,-730 822.5,-730"/>
<polyline fill="none" stroke="black" points="822.5,-730 681.5,-730 "/>
<path fill="none" stroke="black" d="M681.5,-730C675.5,-730 669.5,-724 669.5,-718"/>
<polyline fill="none" stroke="black" points="669.5,-718 669.5,-636 "/>
<path fill="none" stroke="black" d="M669.5,-636C669.5,-630 675.5,-624 681.5,-624"/>
<text text-anchor="middle" x="752" y="-713.4" font-family="Times Roman,serif" font-size="14.00">Project::Spec::Eab</text>
<polyline fill="none" stroke="black" points="669.5,-704 834.5,-704 "/>
<text text-anchor="start" x="677.5" y="-687.4" font-family="Times Roman,serif" font-size="14.00">state :string</text>
<text text-anchor="start" x="677.5" y="-669.4" font-family="Times Roman,serif" font-size="14.00">specable_type :string</text>
<text text-anchor="start" x="677.5" y="-651.4" font-family="Times Roman,serif" font-size="14.00">created_at :datetime</text>
<text text-anchor="start" x="677.5" y="-633.4" font-family="Times Roman,serif" font-size="14.00">updated_at :datetime</text>
</g>
<!-- Project::Spec -->
<g id="node7" class="node"><title>Project::Spec</title>
<polygon fill="none" stroke="black" stroke-dasharray="1,5" points="958,-695 852,-695 852,-659 958,-659 958,-695"/>
<text text-anchor="middle" x="905" y="-673.4" font-family="Times Roman,serif" font-size="14.00">Project::Spec</text>
</g>
<!-- User -->
<g id="node9" class="node"><title>User</title>
<polyline fill="none" stroke="black" points="988,-561 1218,-561 "/>
<path fill="none" stroke="black" d="M1218,-561C1224,-561 1230,-567 1230,-573"/>
<polyline fill="none" stroke="black" points="1230,-573 1230,-781 "/>
<path fill="none" stroke="black" d="M1230,-781C1230,-787 1224,-793 1218,-793"/>
<polyline fill="none" stroke="black" points="1218,-793 988,-793 "/>
<path fill="none" stroke="black" d="M988,-793C982,-793 976,-787 976,-781"/>
<polyline fill="none" stroke="black" points="976,-781 976,-573 "/>
<path fill="none" stroke="black" d="M976,-573C976,-567 982,-561 988,-561"/>
<text text-anchor="middle" x="1103" y="-776.4" font-family="Times Roman,serif" font-size="14.00">User</text>
<polyline fill="none" stroke="black" points="976,-767 1230,-767 "/>
<text text-anchor="start" x="984" y="-750.4" font-family="Times Roman,serif" font-size="14.00">email :string</text>
<text text-anchor="start" x="984" y="-732.4" font-family="Times Roman,serif" font-size="14.00">encrypted_password :string</text>
<text text-anchor="start" x="984" y="-714.4" font-family="Times Roman,serif" font-size="14.00">reset_password_token :string</text>
<text text-anchor="start" x="984" y="-696.4" font-family="Times Roman,serif" font-size="14.00">reset_password_sent_at :datetime</text>
<text text-anchor="start" x="984" y="-678.4" font-family="Times Roman,serif" font-size="14.00">remember_created_at :datetime</text>
<text text-anchor="start" x="984" y="-660.4" font-family="Times Roman,serif" font-size="14.00">current_sign_in_at :datetime</text>
<text text-anchor="start" x="984" y="-642.4" font-family="Times Roman,serif" font-size="14.00">last_sign_in_at :datetime</text>
<text text-anchor="start" x="984" y="-624.4" font-family="Times Roman,serif" font-size="14.00">current_sign_in_ip :string</text>
<text text-anchor="start" x="984" y="-606.4" font-family="Times Roman,serif" font-size="14.00">last_sign_in_ip :string</text>
<text text-anchor="start" x="984" y="-588.4" font-family="Times Roman,serif" font-size="14.00">created_at :datetime</text>
<text text-anchor="start" x="984" y="-570.4" font-family="Times Roman,serif" font-size="14.00">updated_at :datetime</text>
</g>
<!-- Comment&#45;&gt;Comment -->
<g id="edge14" class="edge"><title>Comment&#45;&gt;Comment</title>
<path fill="none" stroke="black" d="M730.931,-266.972C737.227,-263.396 741,-258.406 741,-252 741,-246.139 737.842,-241.463 732.483,-237.971"/>
<ellipse fill="none" stroke="black" cx="726.845" cy="-268.722" rx="4.00001" ry="4.00001"/>
<polygon fill="black" stroke="black" points="732.259,-237.869 725.042,-229.612 727.713,-235.786 723.168,-233.703 723.168,-233.703 723.168,-233.703 727.713,-235.786 721.293,-237.794 732.259,-237.869 732.259,-237.869"/>
<text text-anchor="middle" x="768.5" y="-248.4" font-family="Times Roman,serif" font-size="14.00">children</text>
</g>
<!-- Project&#45;&gt;Project::Youth -->
<g id="edge12" class="edge"><title>Project&#45;&gt;Project::Youth</title>
<path fill="none" stroke="black" d="M368,-396.893C368,-370.694 368,-340.258 368,-314.063"/>
</g>
<!-- Project&#45;&gt;Comment -->
<g id="edge16" class="edge"><title>Project&#45;&gt;Comment</title>
<path fill="none" stroke="black" d="M451.503,-391.743C473.043,-374.393 496.513,-355.489 519.031,-337.352"/>
<ellipse fill="none" stroke="black" cx="448.224" cy="-394.384" rx="4.00002" ry="4.00002"/>
<polygon fill="black" stroke="black" points="519.163,-337.246 529.774,-334.478 523.057,-334.109 526.951,-330.973 526.951,-330.973 526.951,-330.973 523.057,-334.109 524.129,-327.468 519.163,-337.246 519.163,-337.246"/>
<text text-anchor="middle" x="550" y="-365.4" font-family="Times Roman,serif" font-size="14.00">comment_threads</text>
</g>
</g>
</svg>
