<?xml version="1.0" encoding="UTF-8" standalone="no"?>
<!DOCTYPE svg PUBLIC "-//W3C//DTD SVG 1.1//EN"
 "http://www.w3.org/Graphics/SVG/1.1/DTD/svg11.dtd">
<!-- Generated by graphviz version 2.26.3 (20100126.1600)
 -->
<!-- Title: models_diagram Pages: 1 -->
<svg width="515pt" height="194pt"
 viewBox="0.00 0.00 515.00 194.00" xmlns="http://www.w3.org/2000/svg" xmlns:xlink="http://www.w3.org/1999/xlink">
<g id="graph1" class="graph" transform="scale(1 1) rotate(0) translate(4 190)">
<title>models_diagram</title>
<polygon fill="white" stroke="white" points="-4,5 -4,-190 512,-190 512,5 -4,5"/>
<!-- _diagram_info -->
<g id="node1" class="node"><title>_diagram_info</title>
<text text-anchor="start" x="8" y="-169.8" font-family="Times Roman,serif" font-size="13.00">Models diagram</text>
<text text-anchor="start" x="8" y="-152.8" font-family="Times Roman,serif" font-size="13.00">Date: Mar 03 2012 &#45; 06:55</text>
<text text-anchor="start" x="8" y="-135.8" font-family="Times Roman,serif" font-size="13.00">Migration version: 20120303055945</text>
<text text-anchor="start" x="8" y="-118.8" font-family="Times Roman,serif" font-size="13.00">Generated by RailRoady 1.0.4</text>
<text text-anchor="start" x="8" y="-101.8" font-family="Times Roman,serif" font-size="13.00">http://railroady.prestonlee.com</text>
</g>
<!-- Bike -->
<g id="node2" class="node"><title>Bike</title>
<ellipse fill="none" stroke="black" cx="300" cy="-139" rx="32.0265" ry="18.3848"/>
<text text-anchor="middle" x="300" y="-135.4" font-family="Times Roman,serif" font-size="14.00">Bike</text>
</g>
<!-- Hook -->
<g id="node3" class="node"><title>Hook</title>
<ellipse fill="none" stroke="black" cx="263" cy="-19" rx="36.7696" ry="18.3848"/>
<text text-anchor="middle" x="263" y="-15.4" font-family="Times Roman,serif" font-size="14.00">Hook</text>
</g>
<!-- Bike&#45;&gt;Hook -->
<g id="edge4" class="edge"><title>Bike&#45;&gt;Hook</title>
<path fill="none" stroke="black" d="M291.938,-112.854C285.759,-92.8132 277.271,-65.2832 271.086,-45.2236"/>
<ellipse fill="none" stroke="black" cx="293.202" cy="-116.952" rx="4.00001" ry="4.00001"/>
<ellipse fill="black" stroke="black" cx="269.851" cy="-41.2194" rx="4.00001" ry="4.00001"/>
</g>
<!-- Comment -->
<g id="node5" class="node"><title>Comment</title>
<ellipse fill="none" stroke="black" cx="376" cy="-19" rx="58.1882" ry="18.3848"/>
<text text-anchor="middle" x="376" y="-15.4" font-family="Times Roman,serif" font-size="14.00">Comment</text>
</g>
<!-- Bike&#45;&gt;Comment -->
<g id="edge2" class="edge"><title>Bike&#45;&gt;Comment</title>
<path fill="none" stroke="black" d="M315.503,-114.522C328.143,-94.5636 345.973,-66.4113 359.001,-45.8403"/>
<ellipse fill="none" stroke="black" cx="313.191" cy="-118.172" rx="4.00002" ry="4.00002"/>
<polygon fill="black" stroke="black" points="359.087,-45.7052 368.239,-39.6648 361.762,-41.4811 364.437,-37.257 364.437,-37.257 364.437,-37.257 361.762,-41.4811 360.636,-34.8493 359.087,-45.7052 359.087,-45.7052"/>
<text text-anchor="middle" x="413" y="-61.4" font-family="Times Roman,serif" font-size="14.00">comment_threads</text>
</g>
<!-- User -->
<g id="node4" class="node"><title>User</title>
<ellipse fill="none" stroke="black" cx="384" cy="-139" rx="33.9411" ry="18.3848"/>
<text text-anchor="middle" x="384" y="-135.4" font-family="Times Roman,serif" font-size="14.00">User</text>
</g>
<!-- Comment&#45;&gt;Comment -->
<g id="edge6" class="edge"><title>Comment&#45;&gt;Comment</title>
<path fill="none" stroke="black" d="M435.51,-26.9887C445.28,-25.8512 452,-23.1883 452,-19 452,-15.0992 446.17,-12.5215 437.477,-11.267"/>
<ellipse fill="none" stroke="black" cx="431.496" cy="-27.2759" rx="4" ry="4"/>
<polygon fill="black" stroke="black" points="437.472,-11.2666 427.878,-5.95414 432.489,-10.8527 427.506,-10.4387 427.506,-10.4387 427.506,-10.4387 432.489,-10.8527 427.133,-14.9233 437.472,-11.2666 437.472,-11.2666"/>
<text text-anchor="middle" x="479.5" y="-15.4" font-family="Times Roman,serif" font-size="14.00">children</text>
</g>
</g>
</svg>
