<?xml version="1.0" encoding="UTF-8" standalone="no"?>
<!DOCTYPE svg PUBLIC "-//W3C//DTD SVG 1.1//EN"
 "http://www.w3.org/Graphics/SVG/1.1/DTD/svg11.dtd">
<!-- Generated by graphviz version 2.26.3 (20100126.1600)
 -->
<!-- Title: models_diagram Pages: 1 -->
<svg width="1484pt" height="530pt"
 viewBox="0.00 0.00 1484.00 530.00" xmlns="http://www.w3.org/2000/svg" xmlns:xlink="http://www.w3.org/1999/xlink">
<g id="graph1" class="graph" transform="scale(1 1) rotate(0) translate(4 526)">
<title>models_diagram</title>
<polygon fill="white" stroke="white" points="-4,5 -4,-526 1481,-526 1481,5 -4,5"/>
<!-- _diagram_info -->
<g id="node1" class="node"><title>_diagram_info</title>
<text text-anchor="start" x="594" y="-505.8" font-family="Times Roman,serif" font-size="13.00">Models diagram</text>
<text text-anchor="start" x="594" y="-488.8" font-family="Times Roman,serif" font-size="13.00">Date: May 31 2012 &#45; 00:48</text>
<text text-anchor="start" x="594" y="-471.8" font-family="Times Roman,serif" font-size="13.00">Migration version: 20120506063455</text>
<text text-anchor="start" x="594" y="-454.8" font-family="Times Roman,serif" font-size="13.00">Generated by RailRoady 1.0.7</text>
<text text-anchor="start" x="594" y="-437.8" font-family="Times Roman,serif" font-size="13.00">http://railroady.prestonlee.com</text>
</g>
<!-- Program -->
<g id="node2" class="node"><title>Program</title>
<ellipse fill="none" stroke="black" cx="889" cy="-371" rx="53.033" ry="18.3848"/>
<text text-anchor="middle" x="889" y="-367.4" font-family="Times Roman,serif" font-size="14.00">Program</text>
</g>
<!-- Project -->
<g id="node16" class="node"><title>Project</title>
<ellipse fill="none" stroke="black" cx="970" cy="-279" rx="45.9619" ry="18.3848"/>
<text text-anchor="middle" x="970" y="-275.4" font-family="Times Roman,serif" font-size="14.00">Project</text>
</g>
<!-- Program&#45;&gt;Project -->
<g id="edge4" class="edge"><title>Program&#45;&gt;Project</title>
<path fill="none" stroke="#9ce4cc" d="M909.918,-347.241C921.541,-334.04 935.998,-317.62 947.817,-304.195"/>
<ellipse fill="none" stroke="#9ce4cc" cx="907.261" cy="-350.259" rx="4.00002" ry="4.00002"/>
<polygon fill="#9ce4cc" stroke="#9ce4cc" points="947.822,-304.19 957.808,-299.658 951.126,-300.437 954.43,-296.684 954.43,-296.684 954.43,-296.684 951.126,-300.437 951.053,-293.71 947.822,-304.19 947.822,-304.19"/>
</g>
<!-- FriendlyId::Slug -->
<g id="node21" class="node"><title>FriendlyId::Slug</title>
<ellipse fill="none" stroke="black" cx="819" cy="-279" rx="86.9741" ry="18.3848"/>
<text text-anchor="middle" x="819" y="-275.4" font-family="Times Roman,serif" font-size="14.00">FriendlyId::Slug</text>
</g>
<!-- Program&#45;&gt;FriendlyId::Slug -->
<g id="edge2" class="edge"><title>Program&#45;&gt;FriendlyId::Slug</title>
<path fill="none" stroke="#0d47be" d="M870.047,-346.091C860.474,-333.509 848.856,-318.239 839.123,-305.448"/>
<ellipse fill="none" stroke="#0d47be" cx="872.748" cy="-349.64" rx="4.00002" ry="4.00002"/>
<polygon fill="#0d47be" stroke="#0d47be" points="839.096,-305.412 836.622,-294.729 836.068,-301.433 833.041,-297.453 833.041,-297.453 833.041,-297.453 836.068,-301.433 829.459,-300.178 839.096,-305.412 839.096,-305.412"/>
<text text-anchor="middle" x="878.5" y="-321.4" font-family="Times Roman,serif" font-size="14.00">slugs</text>
</g>
<!-- ResponseSet -->
<g id="node3" class="node"><title>ResponseSet</title>
<ellipse fill="none" stroke="black" cx="999" cy="-111" rx="73.0388" ry="18.3848"/>
<text text-anchor="middle" x="999" y="-107.4" font-family="Times Roman,serif" font-size="14.00">ResponseSet</text>
</g>
<!-- Response -->
<g id="node24" class="node"><title>Response</title>
<ellipse fill="none" stroke="black" cx="999" cy="-19" rx="56.7776" ry="18.3848"/>
<text text-anchor="middle" x="999" y="-15.4" font-family="Times Roman,serif" font-size="14.00">Response</text>
</g>
<!-- ResponseSet&#45;&gt;Response -->
<g id="edge6" class="edge"><title>ResponseSet&#45;&gt;Response</title>
<path fill="none" stroke="#d6107a" d="M999,-84.029C999,-72.5994 999,-59.2671 999,-47.6601"/>
<ellipse fill="none" stroke="#d6107a" cx="999" cy="-88.3824" rx="4" ry="4"/>
<polygon fill="#d6107a" stroke="#d6107a" points="999,-47.5899 1003.5,-37.5898 999,-42.5899 999,-37.5899 999,-37.5899 999,-37.5899 999,-42.5899 994.5,-37.5899 999,-47.5899 999,-47.5899"/>
</g>
<!-- Bike -->
<g id="node4" class="node"><title>Bike</title>
<ellipse fill="none" stroke="black" cx="1052" cy="-203" rx="32.0265" ry="18.3848"/>
<text text-anchor="middle" x="1052" y="-199.4" font-family="Times Roman,serif" font-size="14.00">Bike</text>
</g>
<!-- Bike&#45;&gt;ResponseSet -->
<g id="edge12" class="edge"><title>Bike&#45;&gt;ResponseSet</title>
<path fill="none" stroke="#1c30ad" d="M1018.38,-188.293C1009.5,-182.672 1001.01,-175.312 996,-166 991.41,-157.467 990.924,-147.073 992.011,-137.628"/>
<ellipse fill="none" stroke="#1c30ad" cx="1022.06" cy="-190.427" rx="4.00002" ry="4.00002"/>
<ellipse fill="#1c30ad" stroke="#1c30ad" cx="992.667" cy="-133.59" rx="4.00001" ry="4.00001"/>
<text text-anchor="middle" x="1031" y="-153.4" font-family="Times Roman,serif" font-size="14.00">inspection</text>
</g>
<!-- Hook -->
<g id="node12" class="node"><title>Hook</title>
<ellipse fill="none" stroke="black" cx="1127" cy="-111" rx="36.7696" ry="18.3848"/>
<text text-anchor="middle" x="1127" y="-107.4" font-family="Times Roman,serif" font-size="14.00">Hook</text>
</g>
<!-- Bike&#45;&gt;Hook -->
<g id="edge10" class="edge"><title>Bike&#45;&gt;Hook</title>
<path fill="none" stroke="#4478a0" d="M1069.42,-179.377C1076.83,-169.541 1085.67,-158.086 1094,-148 1097.77,-143.437 1101.89,-138.656 1105.91,-134.104"/>
<ellipse fill="none" stroke="#4478a0" cx="1066.94" cy="-182.689" rx="4.00002" ry="4.00002"/>
<ellipse fill="#4478a0" stroke="#4478a0" cx="1108.62" cy="-131.066" rx="4.00002" ry="4.00002"/>
</g>
<!-- Comment -->
<g id="node15" class="node"><title>Comment</title>
<ellipse fill="none" stroke="black" cx="1244" cy="-111" rx="58.1882" ry="18.3848"/>
<text text-anchor="middle" x="1244" y="-107.4" font-family="Times Roman,serif" font-size="14.00">Comment</text>
</g>
<!-- Bike&#45;&gt;Comment -->
<g id="edge8" class="edge"><title>Bike&#45;&gt;Comment</title>
<path fill="none" stroke="#8844ad" d="M1075.23,-181.495C1090.9,-167.14 1109.52,-150.458 1114,-148 1117.58,-146.036 1155.73,-135.261 1189.78,-125.841"/>
<ellipse fill="none" stroke="#8844ad" cx="1072.12" cy="-184.343" rx="4.00002" ry="4.00002"/>
<polygon fill="#8844ad" stroke="#8844ad" points="1190.07,-125.762 1200.91,-127.439 1194.89,-124.432 1199.71,-123.101 1199.71,-123.101 1199.71,-123.101 1194.89,-124.432 1198.51,-118.764 1190.07,-125.762 1190.07,-125.762"/>
<text text-anchor="middle" x="1176" y="-153.4" font-family="Times Roman,serif" font-size="14.00">comment_threads</text>
</g>
<!-- Project::Youth -->
<g id="node5" class="node"><title>Project::Youth</title>
<ellipse fill="none" stroke="black" cx="685" cy="-203" rx="79.9031" ry="18.3848"/>
<text text-anchor="middle" x="685" y="-199.4" font-family="Times Roman,serif" font-size="14.00">Project::Youth</text>
</g>
<!-- Project::YouthDetail -->
<g id="node10" class="node"><title>Project::YouthDetail</title>
<ellipse fill="none" stroke="black" cx="565" cy="-111" rx="109.101" ry="18.3848"/>
<text text-anchor="middle" x="565" y="-107.4" font-family="Times Roman,serif" font-size="14.00">Project::YouthDetail</text>
</g>
<!-- Project::Youth&#45;&gt;Project::YouthDetail -->
<g id="edge14" class="edge"><title>Project::Youth&#45;&gt;Project::YouthDetail</title>
<path fill="none" stroke="#9f1fb8" d="M655.454,-180.348C637.205,-166.357 613.839,-148.444 595.428,-134.328"/>
<ellipse fill="none" stroke="#9f1fb8" cx="658.688" cy="-182.828" rx="4.00002" ry="4.00002"/>
<ellipse fill="#9f1fb8" stroke="#9f1fb8" cx="592.062" cy="-131.748" rx="4.00002" ry="4.00002"/>
<text text-anchor="middle" x="655.5" y="-153.4" font-family="Times Roman,serif" font-size="14.00">detail</text>
</g>
<!-- Project::Scrap -->
<g id="node6" class="node"><title>Project::Scrap</title>
<ellipse fill="none" stroke="black" cx="903" cy="-203" rx="79.196" ry="18.3848"/>
<text text-anchor="middle" x="903" y="-199.4" font-family="Times Roman,serif" font-size="14.00">Project::Scrap</text>
</g>
<!-- Project::ScrapDetail -->
<g id="node9" class="node"><title>Project::ScrapDetail</title>
<ellipse fill="none" stroke="black" cx="800" cy="-111" rx="108.187" ry="18.3848"/>
<text text-anchor="middle" x="800" y="-107.4" font-family="Times Roman,serif" font-size="14.00">Project::ScrapDetail</text>
</g>
<!-- Project::Scrap&#45;&gt;Project::ScrapDetail -->
<g id="edge18" class="edge"><title>Project::Scrap&#45;&gt;Project::ScrapDetail</title>
<path fill="none" stroke="#fe6fa7" d="M876.495,-179.326C861.287,-165.742 842.24,-148.729 826.957,-135.078"/>
<ellipse fill="none" stroke="#fe6fa7" cx="879.667" cy="-182.159" rx="4.00002" ry="4.00002"/>
<ellipse fill="#fe6fa7" stroke="#fe6fa7" cx="823.643" cy="-132.118" rx="4.00002" ry="4.00002"/>
<text text-anchor="middle" x="880.5" y="-153.4" font-family="Times Roman,serif" font-size="14.00">detail</text>
</g>
<!-- Project::Eab -->
<g id="node7" class="node"><title>Project::Eab</title>
<ellipse fill="none" stroke="black" cx="168" cy="-203" rx="70.0036" ry="18.3848"/>
<text text-anchor="middle" x="168" y="-199.4" font-family="Times Roman,serif" font-size="14.00">Project::Eab</text>
</g>
<!-- Project::EabDetail -->
<g id="node8" class="node"><title>Project::EabDetail</title>
<ellipse fill="none" stroke="black" cx="99" cy="-111" rx="98.9949" ry="18.3848"/>
<text text-anchor="middle" x="99" y="-107.4" font-family="Times Roman,serif" font-size="14.00">Project::EabDetail</text>
</g>
<!-- Project::Eab&#45;&gt;Project::EabDetail -->
<g id="edge22" class="edge"><title>Project::Eab&#45;&gt;Project::EabDetail</title>
<path fill="none" stroke="#333972" d="M149.318,-178.091C139.522,-165.029 127.554,-149.072 117.748,-135.997"/>
<ellipse fill="none" stroke="#333972" cx="151.968" cy="-181.624" rx="4.00002" ry="4.00002"/>
<ellipse fill="#333972" stroke="#333972" cx="115.24" cy="-132.653" rx="4.00002" ry="4.00002"/>
<text text-anchor="middle" x="159.5" y="-153.4" font-family="Times Roman,serif" font-size="14.00">detail</text>
</g>
<!-- Project::ResponseSet -->
<g id="node37" class="node"><title>Project::ResponseSet</title>
<ellipse fill="none" stroke="black" cx="565" cy="-19" rx="113.844" ry="18.3848"/>
<text text-anchor="middle" x="565" y="-15.4" font-family="Times Roman,serif" font-size="14.00">Project::ResponseSet</text>
</g>
<!-- Project::YouthDetail&#45;&gt;Project::ResponseSet -->
<g id="edge30" class="edge"><title>Project::YouthDetail&#45;&gt;Project::ResponseSet</title>
<path fill="none" stroke="#ce40e4" d="M565,-84.029C565,-72.0163 565,-57.9017 565,-45.8975"/>
<ellipse fill="none" stroke="#ce40e4" cx="565" cy="-88.3824" rx="4" ry="4"/>
<ellipse fill="#ce40e4" stroke="#ce40e4" cx="565" cy="-41.5899" rx="4" ry="4"/>
<text text-anchor="middle" x="600" y="-61.4" font-family="Times Roman,serif" font-size="14.00">inspection</text>
</g>
<!-- ProjectDetail -->
<g id="node11" class="node"><title>ProjectDetail</title>
<ellipse fill="none" stroke="black" cx="493" cy="-203" rx="74.9533" ry="18.3848"/>
<text text-anchor="middle" x="493" y="-199.4" font-family="Times Roman,serif" font-size="14.00">ProjectDetail</text>
</g>
<!-- ProjectDetail&#45;&gt;Project::EabDetail -->
<g id="edge26" class="edge"><title>ProjectDetail&#45;&gt;Project::EabDetail</title>
<path fill="none" stroke="black" d="M438.216,-190.208C365.479,-173.223 237.354,-143.306 161.104,-125.502"/>
</g>
<!-- ProjectDetail&#45;&gt;Project::ScrapDetail -->
<g id="edge28" class="edge"><title>ProjectDetail&#45;&gt;Project::ScrapDetail</title>
<path fill="none" stroke="black" d="M524.203,-185.905C547.514,-173.771 580.482,-157.936 611,-148 631.745,-141.246 680.453,-131.763 723.225,-124.089"/>
</g>
<!-- ProjectDetail&#45;&gt;Project::YouthDetail -->
<g id="edge32" class="edge"><title>ProjectDetail&#45;&gt;Project::YouthDetail</title>
<path fill="none" stroke="black" d="M502.391,-184.605C508.445,-173.514 516.872,-159.379 526,-148 531.256,-141.448 537.637,-134.93 543.701,-129.231"/>
</g>
<!-- ProjectDetailVersion -->
<g id="node14" class="node"><title>ProjectDetailVersion</title>
<ellipse fill="none" stroke="black" cx="327" cy="-111" rx="111.016" ry="18.3848"/>
<text text-anchor="middle" x="327" y="-107.4" font-family="Times Roman,serif" font-size="14.00">ProjectDetailVersion</text>
</g>
<!-- ProjectDetail&#45;&gt;ProjectDetailVersion -->
<g id="edge34" class="edge"><title>ProjectDetail&#45;&gt;ProjectDetailVersion</title>
<path fill="none" stroke="#1e7443" d="M455.033,-181.958C429.092,-167.581 394.733,-148.539 368.14,-133.8"/>
<ellipse fill="none" stroke="#1e7443" cx="458.667" cy="-183.972" rx="4.00002" ry="4.00002"/>
<polygon fill="#1e7443" stroke="#1e7443" points="367.831,-133.629 361.265,-124.846 363.457,-131.205 359.084,-128.782 359.084,-128.782 359.084,-128.782 363.457,-131.205 356.903,-132.717 367.831,-133.629 367.831,-133.629"/>
<text text-anchor="middle" x="454" y="-153.4" font-family="Times Roman,serif" font-size="14.00">versions</text>
</g>
<!-- User -->
<g id="node13" class="node"><title>User</title>
<ellipse fill="none" stroke="black" cx="1086" cy="-475" rx="33.9411" ry="18.3848"/>
<text text-anchor="middle" x="1086" y="-471.4" font-family="Times Roman,serif" font-size="14.00">User</text>
</g>
<!-- Comment&#45;&gt;Comment -->
<g id="edge38" class="edge"><title>Comment&#45;&gt;Comment</title>
<path fill="none" stroke="#04365c" d="M1303.51,-118.989C1313.28,-117.851 1320,-115.188 1320,-111 1320,-107.099 1314.17,-104.522 1305.48,-103.267"/>
<ellipse fill="none" stroke="#04365c" cx="1299.5" cy="-119.276" rx="4" ry="4"/>
<polygon fill="#04365c" stroke="#04365c" points="1305.47,-103.267 1295.88,-97.9541 1300.49,-102.853 1295.51,-102.439 1295.51,-102.439 1295.51,-102.439 1300.49,-102.853 1295.13,-106.923 1305.47,-103.267 1305.47,-103.267"/>
<text text-anchor="middle" x="1347.5" y="-107.4" font-family="Times Roman,serif" font-size="14.00">children</text>
</g>
<!-- Project&#45;&gt;Bike -->
<g id="edge40" class="edge"><title>Project&#45;&gt;Bike</title>
<path fill="none" stroke="#6ada8b" d="M994.733,-256.077C1005.57,-246.036 1018.21,-234.318 1028.86,-224.451"/>
<ellipse fill="none" stroke="#6ada8b" cx="991.541" cy="-259.035" rx="4.00002" ry="4.00002"/>
<ellipse fill="#6ada8b" stroke="#6ada8b" cx="1031.93" cy="-221.601" rx="4.00002" ry="4.00002"/>
</g>
<!-- Project&#45;&gt;Project::Youth -->
<g id="edge16" class="edge"><title>Project&#45;&gt;Project::Youth</title>
<path fill="none" stroke="black" d="M935.532,-266.564C928.76,-264.271 921.684,-261.978 915,-260 857.013,-242.836 789.783,-226.59 743.045,-215.866"/>
</g>
<!-- Project&#45;&gt;Project::Scrap -->
<g id="edge20" class="edge"><title>Project&#45;&gt;Project::Scrap</title>
<path fill="none" stroke="black" d="M954.46,-261.373C943.868,-249.358 929.875,-233.485 919.155,-221.325"/>
</g>
<!-- Project&#45;&gt;Project::Eab -->
<g id="edge24" class="edge"><title>Project&#45;&gt;Project::Eab</title>
<path fill="none" stroke="black" d="M936.956,-265.953C929.814,-263.596 922.234,-261.434 915,-260 633.32,-204.151 555.047,-256.806 270,-222 254.623,-220.122 238.066,-217.362 222.858,-214.524"/>
</g>
<!-- Project&#45;&gt;Comment -->
<g id="edge44" class="edge"><title>Project&#45;&gt;Comment</title>
<path fill="none" stroke="#9e9095" d="M1022.67,-272.683C1084.95,-262.196 1186.62,-234.984 1238,-166 1243.59,-158.5 1245.79,-148.75 1246.38,-139.546"/>
<ellipse fill="none" stroke="#9e9095" cx="1018.47" cy="-273.359" rx="4.00001" ry="4.00001"/>
<polygon fill="#9e9095" stroke="#9e9095" points="1246.38,-139.535 1250.95,-129.567 1246.41,-134.535 1246.45,-129.535 1246.45,-129.535 1246.45,-129.535 1246.41,-134.535 1241.95,-129.503 1246.38,-139.535 1246.38,-139.535"/>
<text text-anchor="middle" x="1284" y="-199.4" font-family="Times Roman,serif" font-size="14.00">comment_threads</text>
</g>
<!-- Detail -->
<g id="node45" class="node"><title>Detail</title>
<ellipse fill="none" stroke="black" cx="1435" cy="-203" rx="41.0122" ry="18.3848"/>
<text text-anchor="middle" x="1435" y="-199.4" font-family="Times Roman,serif" font-size="14.00">Detail</text>
</g>
<!-- Project&#45;&gt;Detail -->
<g id="edge42" class="edge"><title>Project&#45;&gt;Detail</title>
<path fill="none" stroke="#a9937f" d="M1023.91,-275.472C1103.04,-269.407 1254.8,-254.387 1380,-222 1385.01,-220.705 1390.21,-219.168 1395.33,-217.538"/>
<ellipse fill="none" stroke="#a9937f" cx="1019.55" cy="-275.8" rx="4" ry="4"/>
<ellipse fill="#a9937f" stroke="#a9937f" cx="1399.47" cy="-216.173" rx="4.00001" ry="4.00001"/>
</g>
<!-- SurveyorUtil -->
<g id="node17" class="node"><title>SurveyorUtil</title>
<polygon fill="none" stroke="black" stroke-dasharray="1,5" points="1242,-493 1138,-493 1138,-457 1242,-457 1242,-493"/>
<text text-anchor="middle" x="1190" y="-471.4" font-family="Times Roman,serif" font-size="14.00">SurveyorUtil</text>
</g>
<!-- PaperTrailContext -->
<g id="node18" class="node"><title>PaperTrailContext</title>
<polygon fill="none" stroke="black" stroke-dasharray="1,5" points="1400,-493 1260,-493 1260,-457 1400,-457 1400,-493"/>
<text text-anchor="middle" x="1330" y="-471.4" font-family="Times Roman,serif" font-size="14.00">PaperTrailContext</text>
</g>
<!-- ProjectCategory -->
<g id="node19" class="node"><title>ProjectCategory</title>
<ellipse fill="none" stroke="black" cx="944" cy="-475" rx="90.0096" ry="18.3848"/>
<text text-anchor="middle" x="944" y="-471.4" font-family="Times Roman,serif" font-size="14.00">ProjectCategory</text>
</g>
<!-- ProjectCategory&#45;&gt;Program -->
<g id="edge48" class="edge"><title>ProjectCategory&#45;&gt;Program</title>
<path fill="none" stroke="#427a32" d="M930.18,-448.868C922.068,-433.528 911.824,-414.159 903.583,-398.576"/>
<ellipse fill="none" stroke="#427a32" cx="932.297" cy="-452.871" rx="4.00002" ry="4.00002"/>
<polygon fill="#427a32" stroke="#427a32" points="903.423,-398.272 902.726,-387.328 901.085,-393.852 898.748,-389.432 898.748,-389.432 898.748,-389.432 901.085,-393.852 894.77,-391.536 903.423,-398.272 903.423,-398.272"/>
</g>
<!-- ProjectCategory&#45;&gt;Project -->
<g id="edge46" class="edge"><title>ProjectCategory&#45;&gt;Project</title>
<path fill="none" stroke="#f46612" d="M947.56,-448.16C952.428,-411.467 961.126,-345.895 966.144,-308.072"/>
<ellipse fill="none" stroke="#f46612" cx="947.019" cy="-452.241" rx="4.00001" ry="4.00001"/>
<polygon fill="#f46612" stroke="#f46612" points="966.199,-307.65 971.975,-298.328 966.857,-302.693 967.515,-297.736 967.515,-297.736 967.515,-297.736 966.857,-302.693 963.054,-297.145 966.199,-307.65 966.199,-307.65"/>
</g>
<!-- Version -->
<g id="node40" class="node"><title>Version</title>
<ellipse fill="none" stroke="black" cx="327" cy="-203" rx="48.0833" ry="18.3848"/>
<text text-anchor="middle" x="327" y="-199.4" font-family="Times Roman,serif" font-size="14.00">Version</text>
</g>
<!-- Version&#45;&gt;ProjectDetailVersion -->
<g id="edge36" class="edge"><title>Version&#45;&gt;ProjectDetailVersion</title>
<path fill="none" stroke="black" d="M327,-184.382C327,-168.421 327,-145.543 327,-129.59"/>
</g>
</g>
</svg>
