<?xml version="1.0" encoding="UTF-8" standalone="no"?>
<!DOCTYPE svg PUBLIC "-//W3C//DTD SVG 1.1//EN"
 "http://www.w3.org/Graphics/SVG/1.1/DTD/svg11.dtd">
<!-- Generated by graphviz version 2.26.3 (20100126.1600)
 -->
<!-- Title: models_diagram Pages: 1 -->
<svg width="1551pt" height="1256pt"
 viewBox="0.00 0.00 1551.00 1256.00" xmlns="http://www.w3.org/2000/svg" xmlns:xlink="http://www.w3.org/1999/xlink">
<g id="graph1" class="graph" transform="scale(1 1) rotate(0) translate(4 1252)">
<title>models_diagram</title>
<polygon fill="white" stroke="white" points="-4,5 -4,-1252 1548,-1252 1548,5 -4,5"/>
<!-- _diagram_info -->
<g id="node1" class="node"><title>_diagram_info</title>
<text text-anchor="start" x="555" y="-1161.8" font-family="Times Roman,serif" font-size="13.00">Models diagram</text>
<text text-anchor="start" x="555" y="-1144.8" font-family="Times Roman,serif" font-size="13.00">Date: May 31 2012 &#45; 00:48</text>
<text text-anchor="start" x="555" y="-1127.8" font-family="Times Roman,serif" font-size="13.00">Migration version: 20120506063455</text>
<text text-anchor="start" x="555" y="-1110.8" font-family="Times Roman,serif" font-size="13.00">Generated by RailRoady 1.0.7</text>
<text text-anchor="start" x="555" y="-1093.8" font-family="Times Roman,serif" font-size="13.00">http://railroady.prestonlee.com</text>
</g>
<!-- Program -->
<g id="node2" class="node"><title>Program</title>
<polyline fill="none" stroke="black" points="755.5,-815 896.5,-815 "/>
<path fill="none" stroke="black" d="M896.5,-815C902.5,-815 908.5,-821 908.5,-827"/>
<polyline fill="none" stroke="black" points="908.5,-827 908.5,-963 "/>
<path fill="none" stroke="black" d="M908.5,-963C908.5,-969 902.5,-975 896.5,-975"/>
<polyline fill="none" stroke="black" points="896.5,-975 755.5,-975 "/>
<path fill="none" stroke="black" d="M755.5,-975C749.5,-975 743.5,-969 743.5,-963"/>
<polyline fill="none" stroke="black" points="743.5,-963 743.5,-827 "/>
<path fill="none" stroke="black" d="M743.5,-827C743.5,-821 749.5,-815 755.5,-815"/>
<text text-anchor="middle" x="826" y="-958.4" font-family="Times Roman,serif" font-size="14.00">Program</text>
<polyline fill="none" stroke="black" points="743.5,-949 908.5,-949 "/>
<text text-anchor="start" x="751.5" y="-932.4" font-family="Times Roman,serif" font-size="14.00">title :string</text>
<text text-anchor="start" x="751.5" y="-914.4" font-family="Times Roman,serif" font-size="14.00">created_at :datetime</text>
<text text-anchor="start" x="751.5" y="-896.4" font-family="Times Roman,serif" font-size="14.00">updated_at :datetime</text>
<text text-anchor="start" x="751.5" y="-878.4" font-family="Times Roman,serif" font-size="14.00">cosed_at :datetime</text>
<text text-anchor="start" x="751.5" y="-860.4" font-family="Times Roman,serif" font-size="14.00">slug :string</text>
<text text-anchor="start" x="751.5" y="-842.4" font-family="Times Roman,serif" font-size="14.00">max_open :integer</text>
<text text-anchor="start" x="751.5" y="-824.4" font-family="Times Roman,serif" font-size="14.00">max_total :integer</text>
</g>
<!-- Project -->
<g id="node16" class="node"><title>Project</title>
<polyline fill="none" stroke="black" points="856.5,-599 1015.5,-599 "/>
<path fill="none" stroke="black" d="M1015.5,-599C1021.5,-599 1027.5,-605 1027.5,-611"/>
<polyline fill="none" stroke="black" points="1027.5,-611 1027.5,-747 "/>
<path fill="none" stroke="black" d="M1027.5,-747C1027.5,-753 1021.5,-759 1015.5,-759"/>
<polyline fill="none" stroke="black" points="1015.5,-759 856.5,-759 "/>
<path fill="none" stroke="black" d="M856.5,-759C850.5,-759 844.5,-753 844.5,-747"/>
<polyline fill="none" stroke="black" points="844.5,-747 844.5,-611 "/>
<path fill="none" stroke="black" d="M844.5,-611C844.5,-605 850.5,-599 856.5,-599"/>
<text text-anchor="middle" x="936" y="-742.4" font-family="Times Roman,serif" font-size="14.00">Project</text>
<polyline fill="none" stroke="black" points="844.5,-733 1027.5,-733 "/>
<text text-anchor="start" x="852.5" y="-716.4" font-family="Times Roman,serif" font-size="14.00">prog_type :string</text>
<text text-anchor="start" x="852.5" y="-698.4" font-family="Times Roman,serif" font-size="14.00">label :string</text>
<text text-anchor="start" x="852.5" y="-680.4" font-family="Times Roman,serif" font-size="14.00">created_at :datetime</text>
<text text-anchor="start" x="852.5" y="-662.4" font-family="Times Roman,serif" font-size="14.00">updated_at :datetime</text>
<text text-anchor="start" x="852.5" y="-644.4" font-family="Times Roman,serif" font-size="14.00">closed_at :datetime</text>
<text text-anchor="start" x="852.5" y="-626.4" font-family="Times Roman,serif" font-size="14.00">state :string</text>
<text text-anchor="start" x="852.5" y="-608.4" font-family="Times Roman,serif" font-size="14.00">completion_state :string</text>
</g>
<!-- Program&#45;&gt;Project -->
<g id="edge4" class="edge"><title>Program&#45;&gt;Project</title>
<path fill="none" stroke="#96c019" d="M870.51,-807.599C877.108,-794.642 883.915,-781.275 890.533,-768.281"/>
<ellipse fill="none" stroke="#96c019" cx="868.619" cy="-811.312" rx="4.00002" ry="4.00002"/>
<polygon fill="#96c019" stroke="#96c019" points="890.541,-768.265 899.089,-761.396 892.81,-763.81 895.079,-759.354 895.079,-759.354 895.079,-759.354 892.81,-763.81 891.069,-757.312 890.541,-768.265 890.541,-768.265"/>
</g>
<!-- FriendlyId::Slug -->
<g id="node21" class="node"><title>FriendlyId::Slug</title>
<ellipse fill="none" stroke="black" cx="740" cy="-679" rx="86.9741" ry="18.3848"/>
<text text-anchor="middle" x="740" y="-675.4" font-family="Times Roman,serif" font-size="14.00">FriendlyId::Slug</text>
</g>
<!-- Program&#45;&gt;FriendlyId::Slug -->
<g id="edge2" class="edge"><title>Program&#45;&gt;FriendlyId::Slug</title>
<path fill="none" stroke="#d10850" d="M791.101,-807.348C776.831,-771.505 761.325,-732.561 751.182,-707.085"/>
<ellipse fill="none" stroke="#d10850" cx="792.619" cy="-811.16" rx="4.00001" ry="4.00001"/>
<polygon fill="#d10850" stroke="#d10850" points="751.141,-706.981 751.622,-696.026 749.291,-702.336 747.441,-697.69 747.441,-697.69 747.441,-697.69 749.291,-702.336 743.261,-699.355 751.141,-706.981 751.141,-706.981"/>
<text text-anchor="middle" x="803.5" y="-783.4" font-family="Times Roman,serif" font-size="14.00">slugs</text>
</g>
<!-- ResponseSet -->
<g id="node3" class="node"><title>ResponseSet</title>
<polyline fill="none" stroke="black" points="796,-102 954,-102 "/>
<path fill="none" stroke="black" d="M954,-102C960,-102 966,-108 966,-114"/>
<polyline fill="none" stroke="black" points="966,-114 966,-250 "/>
<path fill="none" stroke="black" d="M966,-250C966,-256 960,-262 954,-262"/>
<polyline fill="none" stroke="black" points="954,-262 796,-262 "/>
<path fill="none" stroke="black" d="M796,-262C790,-262 784,-256 784,-250"/>
<polyline fill="none" stroke="black" points="784,-250 784,-114 "/>
<path fill="none" stroke="black" d="M784,-114C784,-108 790,-102 796,-102"/>
<text text-anchor="middle" x="875" y="-245.4" font-family="Times Roman,serif" font-size="14.00">ResponseSet</text>
<polyline fill="none" stroke="black" points="784,-236 966,-236 "/>
<text text-anchor="start" x="792" y="-219.4" font-family="Times Roman,serif" font-size="14.00">access_code :string</text>
<text text-anchor="start" x="792" y="-201.4" font-family="Times Roman,serif" font-size="14.00">started_at :datetime</text>
<text text-anchor="start" x="792" y="-183.4" font-family="Times Roman,serif" font-size="14.00">completed_at :datetime</text>
<text text-anchor="start" x="792" y="-165.4" font-family="Times Roman,serif" font-size="14.00">created_at :datetime</text>
<text text-anchor="start" x="792" y="-147.4" font-family="Times Roman,serif" font-size="14.00">updated_at :datetime</text>
<text text-anchor="start" x="792" y="-129.4" font-family="Times Roman,serif" font-size="14.00">surveyable_type :string</text>
<text text-anchor="start" x="792" y="-111.4" font-family="Times Roman,serif" font-size="14.00">biz_process_type :string</text>
</g>
<!-- Response -->
<g id="node24" class="node"><title>Response</title>
<ellipse fill="none" stroke="black" cx="875" cy="-19" rx="56.7776" ry="18.3848"/>
<text text-anchor="middle" x="875" y="-15.4" font-family="Times Roman,serif" font-size="14.00">Response</text>
</g>
<!-- ResponseSet&#45;&gt;Response -->
<g id="edge6" class="edge"><title>ResponseSet&#45;&gt;Response</title>
<path fill="none" stroke="#40a2ab" d="M875,-93.7846C875,-77.2119 875,-61.012 875,-47.9511"/>
<ellipse fill="none" stroke="#40a2ab" cx="875" cy="-97.9326" rx="4" ry="4"/>
<polygon fill="#40a2ab" stroke="#40a2ab" points="875,-47.779 879.5,-37.7789 875,-42.779 875,-37.779 875,-37.779 875,-37.779 875,-42.779 870.5,-37.779 875,-47.779 875,-47.779"/>
</g>
<!-- Bike -->
<g id="node4" class="node"><title>Bike</title>
<polyline fill="none" stroke="black" points="981.5,-327 1134.5,-327 "/>
<path fill="none" stroke="black" d="M1134.5,-327C1140.5,-327 1146.5,-333 1146.5,-339"/>
<polyline fill="none" stroke="black" points="1146.5,-339 1146.5,-547 "/>
<path fill="none" stroke="black" d="M1146.5,-547C1146.5,-553 1140.5,-559 1134.5,-559"/>
<polyline fill="none" stroke="black" points="1134.5,-559 981.5,-559 "/>
<path fill="none" stroke="black" d="M981.5,-559C975.5,-559 969.5,-553 969.5,-547"/>
<polyline fill="none" stroke="black" points="969.5,-547 969.5,-339 "/>
<path fill="none" stroke="black" d="M969.5,-339C969.5,-333 975.5,-327 981.5,-327"/>
<text text-anchor="middle" x="1058" y="-542.4" font-family="Times Roman,serif" font-size="14.00">Bike</text>
<polyline fill="none" stroke="black" points="969.5,-533 1146.5,-533 "/>
<text text-anchor="start" x="977.5" y="-516.4" font-family="Times Roman,serif" font-size="14.00">color :string</text>
<text text-anchor="start" x="977.5" y="-498.4" font-family="Times Roman,serif" font-size="14.00">value :float</text>
<text text-anchor="start" x="977.5" y="-480.4" font-family="Times Roman,serif" font-size="14.00">seat_tube_height :float</text>
<text text-anchor="start" x="977.5" y="-462.4" font-family="Times Roman,serif" font-size="14.00">top_tube_length :float</text>
<text text-anchor="start" x="977.5" y="-444.4" font-family="Times Roman,serif" font-size="14.00">created_at :datetime</text>
<text text-anchor="start" x="977.5" y="-426.4" font-family="Times Roman,serif" font-size="14.00">updated_at :datetime</text>
<text text-anchor="start" x="977.5" y="-408.4" font-family="Times Roman,serif" font-size="14.00">departed_at :datetime</text>
<text text-anchor="start" x="977.5" y="-390.4" font-family="Times Roman,serif" font-size="14.00">mfg :string</text>
<text text-anchor="start" x="977.5" y="-372.4" font-family="Times Roman,serif" font-size="14.00">model :string</text>
<text text-anchor="start" x="977.5" y="-354.4" font-family="Times Roman,serif" font-size="14.00">number :string</text>
<text text-anchor="start" x="977.5" y="-336.4" font-family="Times Roman,serif" font-size="14.00">location_state :string</text>
</g>
<!-- Bike&#45;&gt;ResponseSet -->
<g id="edge12" class="edge"><title>Bike&#45;&gt;ResponseSet</title>
<path fill="none" stroke="#51f18d" d="M971.745,-319.981C959.711,-302.818 947.556,-285.481 936.116,-269.165"/>
<ellipse fill="none" stroke="#51f18d" cx="974.105" cy="-323.346" rx="4.00002" ry="4.00002"/>
<ellipse fill="#51f18d" stroke="#51f18d" cx="933.555" cy="-265.513" rx="4.00002" ry="4.00002"/>
<text text-anchor="middle" x="997" y="-295.4" font-family="Times Roman,serif" font-size="14.00">inspection</text>
</g>
<!-- Hook -->
<g id="node12" class="node"><title>Hook</title>
<polyline fill="none" stroke="black" points="995.5,-138 1136.5,-138 "/>
<path fill="none" stroke="black" d="M1136.5,-138C1142.5,-138 1148.5,-144 1148.5,-150"/>
<polyline fill="none" stroke="black" points="1148.5,-150 1148.5,-214 "/>
<path fill="none" stroke="black" d="M1148.5,-214C1148.5,-220 1142.5,-226 1136.5,-226"/>
<polyline fill="none" stroke="black" points="1136.5,-226 995.5,-226 "/>
<path fill="none" stroke="black" d="M995.5,-226C989.5,-226 983.5,-220 983.5,-214"/>
<polyline fill="none" stroke="black" points="983.5,-214 983.5,-150 "/>
<path fill="none" stroke="black" d="M983.5,-150C983.5,-144 989.5,-138 995.5,-138"/>
<text text-anchor="middle" x="1066" y="-209.4" font-family="Times Roman,serif" font-size="14.00">Hook</text>
<polyline fill="none" stroke="black" points="983.5,-200 1148.5,-200 "/>
<text text-anchor="start" x="991.5" y="-183.4" font-family="Times Roman,serif" font-size="14.00">number :string</text>
<text text-anchor="start" x="991.5" y="-165.4" font-family="Times Roman,serif" font-size="14.00">created_at :datetime</text>
<text text-anchor="start" x="991.5" y="-147.4" font-family="Times Roman,serif" font-size="14.00">updated_at :datetime</text>
</g>
<!-- Bike&#45;&gt;Hook -->
<g id="edge10" class="edge"><title>Bike&#45;&gt;Hook</title>
<path fill="none" stroke="#1cd286" d="M1061.82,-318.253C1062.73,-288.625 1063.65,-258.601 1064.4,-234.306"/>
<ellipse fill="none" stroke="#1cd286" cx="1061.69" cy="-322.623" rx="4" ry="4"/>
<ellipse fill="#1cd286" stroke="#1cd286" cx="1064.52" cy="-230.293" rx="4" ry="4"/>
</g>
<!-- Comment -->
<g id="node15" class="node"><title>Comment</title>
<polyline fill="none" stroke="black" points="1178,-93 1350,-93 "/>
<path fill="none" stroke="black" d="M1350,-93C1356,-93 1362,-99 1362,-105"/>
<polyline fill="none" stroke="black" points="1362,-105 1362,-259 "/>
<path fill="none" stroke="black" d="M1362,-259C1362,-265 1356,-271 1350,-271"/>
<polyline fill="none" stroke="black" points="1350,-271 1178,-271 "/>
<path fill="none" stroke="black" d="M1178,-271C1172,-271 1166,-265 1166,-259"/>
<polyline fill="none" stroke="black" points="1166,-259 1166,-105 "/>
<path fill="none" stroke="black" d="M1166,-105C1166,-99 1172,-93 1178,-93"/>
<text text-anchor="middle" x="1264" y="-254.4" font-family="Times Roman,serif" font-size="14.00">Comment</text>
<polyline fill="none" stroke="black" points="1166,-245 1362,-245 "/>
<text text-anchor="start" x="1174" y="-228.4" font-family="Times Roman,serif" font-size="14.00">commentable_type :string</text>
<text text-anchor="start" x="1174" y="-210.4" font-family="Times Roman,serif" font-size="14.00">title :string</text>
<text text-anchor="start" x="1174" y="-192.4" font-family="Times Roman,serif" font-size="14.00">body :text</text>
<text text-anchor="start" x="1174" y="-174.4" font-family="Times Roman,serif" font-size="14.00">subject :string</text>
<text text-anchor="start" x="1174" y="-156.4" font-family="Times Roman,serif" font-size="14.00">lft :integer</text>
<text text-anchor="start" x="1174" y="-138.4" font-family="Times Roman,serif" font-size="14.00">rgt :integer</text>
<text text-anchor="start" x="1174" y="-120.4" font-family="Times Roman,serif" font-size="14.00">created_at :datetime</text>
<text text-anchor="start" x="1174" y="-102.4" font-family="Times Roman,serif" font-size="14.00">updated_at :datetime</text>
</g>
<!-- Bike&#45;&gt;Comment -->
<g id="edge8" class="edge"><title>Bike&#45;&gt;Comment</title>
<path fill="none" stroke="#3f09a7" d="M1076.22,-319.201C1081.37,-308.492 1087.85,-298.513 1096,-290 1115.55,-269.582 1132.1,-285.381 1157,-272 1157.09,-271.95 1157.19,-271.899 1157.28,-271.849"/>
<ellipse fill="none" stroke="#3f09a7" cx="1074.49" cy="-323.07" rx="4.00002" ry="4.00002"/>
<polygon fill="#3f09a7" stroke="#3f09a7" points="1157.26,-271.86 1168.18,-270.819 1161.61,-269.385 1165.95,-266.909 1165.95,-266.909 1165.95,-266.909 1161.61,-269.385 1163.72,-262.999 1157.26,-271.86 1157.26,-271.86"/>
<text text-anchor="middle" x="1158" y="-295.4" font-family="Times Roman,serif" font-size="14.00">comment_threads</text>
</g>
<!-- Project::Youth -->
<g id="node5" class="node"><title>Project::Youth</title>
<polyline fill="none" stroke="black" points="551.5,-363 710.5,-363 "/>
<path fill="none" stroke="black" d="M710.5,-363C716.5,-363 722.5,-369 722.5,-375"/>
<polyline fill="none" stroke="black" points="722.5,-375 722.5,-511 "/>
<path fill="none" stroke="black" d="M722.5,-511C722.5,-517 716.5,-523 710.5,-523"/>
<polyline fill="none" stroke="black" points="710.5,-523 551.5,-523 "/>
<path fill="none" stroke="black" d="M551.5,-523C545.5,-523 539.5,-517 539.5,-511"/>
<polyline fill="none" stroke="black" points="539.5,-511 539.5,-375 "/>
<path fill="none" stroke="black" d="M539.5,-375C539.5,-369 545.5,-363 551.5,-363"/>
<text text-anchor="middle" x="631" y="-506.4" font-family="Times Roman,serif" font-size="14.00">Project::Youth</text>
<polyline fill="none" stroke="black" points="539.5,-497 722.5,-497 "/>
<text text-anchor="start" x="547.5" y="-480.4" font-family="Times Roman,serif" font-size="14.00">prog_type :string</text>
<text text-anchor="start" x="547.5" y="-462.4" font-family="Times Roman,serif" font-size="14.00">label :string</text>
<text text-anchor="start" x="547.5" y="-444.4" font-family="Times Roman,serif" font-size="14.00">created_at :datetime</text>
<text text-anchor="start" x="547.5" y="-426.4" font-family="Times Roman,serif" font-size="14.00">updated_at :datetime</text>
<text text-anchor="start" x="547.5" y="-408.4" font-family="Times Roman,serif" font-size="14.00">closed_at :datetime</text>
<text text-anchor="start" x="547.5" y="-390.4" font-family="Times Roman,serif" font-size="14.00">state :string</text>
<text text-anchor="start" x="547.5" y="-372.4" font-family="Times Roman,serif" font-size="14.00">completion_state :string</text>
</g>
<!-- Project::YouthDetail -->
<g id="node10" class="node"><title>Project::YouthDetail</title>
<polyline fill="none" stroke="black" points="371.5,-120 572.5,-120 "/>
<path fill="none" stroke="black" d="M572.5,-120C578.5,-120 584.5,-126 584.5,-132"/>
<polyline fill="none" stroke="black" points="584.5,-132 584.5,-232 "/>
<path fill="none" stroke="black" d="M584.5,-232C584.5,-238 578.5,-244 572.5,-244"/>
<polyline fill="none" stroke="black" points="572.5,-244 371.5,-244 "/>
<path fill="none" stroke="black" d="M371.5,-244C365.5,-244 359.5,-238 359.5,-232"/>
<polyline fill="none" stroke="black" points="359.5,-232 359.5,-132 "/>
<path fill="none" stroke="black" d="M359.5,-132C359.5,-126 365.5,-120 371.5,-120"/>
<text text-anchor="middle" x="472" y="-227.4" font-family="Times Roman,serif" font-size="14.00">Project::YouthDetail</text>
<polyline fill="none" stroke="black" points="359.5,-218 584.5,-218 "/>
<text text-anchor="start" x="367.5" y="-201.4" font-family="Times Roman,serif" font-size="14.00">proj_type :string</text>
<text text-anchor="start" x="367.5" y="-183.4" font-family="Times Roman,serif" font-size="14.00">state :string</text>
<text text-anchor="start" x="367.5" y="-165.4" font-family="Times Roman,serif" font-size="14.00">created_at :datetime</text>
<text text-anchor="start" x="367.5" y="-147.4" font-family="Times Roman,serif" font-size="14.00">updated_at :datetime</text>
<text text-anchor="start" x="367.5" y="-129.4" font-family="Times Roman,serif" font-size="14.00">inspection_access_code :string</text>
</g>
<!-- Project::Youth&#45;&gt;Project::YouthDetail -->
<g id="edge14" class="edge"><title>Project::Youth&#45;&gt;Project::YouthDetail</title>
<path fill="none" stroke="#2509ae" d="M577.803,-355.677C557.096,-321.686 533.705,-283.29 514.193,-251.26"/>
<ellipse fill="none" stroke="#2509ae" cx="580.133" cy="-359.502" rx="4.00002" ry="4.00002"/>
<ellipse fill="#2509ae" stroke="#2509ae" cx="511.916" cy="-247.522" rx="4.00002" ry="4.00002"/>
<text text-anchor="middle" x="566.5" y="-295.4" font-family="Times Roman,serif" font-size="14.00">detail</text>
</g>
<!-- Project::Scrap -->
<g id="node6" class="node"><title>Project::Scrap</title>
<polyline fill="none" stroke="black" points="771.5,-363 930.5,-363 "/>
<path fill="none" stroke="black" d="M930.5,-363C936.5,-363 942.5,-369 942.5,-375"/>
<polyline fill="none" stroke="black" points="942.5,-375 942.5,-511 "/>
<path fill="none" stroke="black" d="M942.5,-511C942.5,-517 936.5,-523 930.5,-523"/>
<polyline fill="none" stroke="black" points="930.5,-523 771.5,-523 "/>
<path fill="none" stroke="black" d="M771.5,-523C765.5,-523 759.5,-517 759.5,-511"/>
<polyline fill="none" stroke="black" points="759.5,-511 759.5,-375 "/>
<path fill="none" stroke="black" d="M759.5,-375C759.5,-369 765.5,-363 771.5,-363"/>
<text text-anchor="middle" x="851" y="-506.4" font-family="Times Roman,serif" font-size="14.00">Project::Scrap</text>
<polyline fill="none" stroke="black" points="759.5,-497 942.5,-497 "/>
<text text-anchor="start" x="767.5" y="-480.4" font-family="Times Roman,serif" font-size="14.00">prog_type :string</text>
<text text-anchor="start" x="767.5" y="-462.4" font-family="Times Roman,serif" font-size="14.00">label :string</text>
<text text-anchor="start" x="767.5" y="-444.4" font-family="Times Roman,serif" font-size="14.00">created_at :datetime</text>
<text text-anchor="start" x="767.5" y="-426.4" font-family="Times Roman,serif" font-size="14.00">updated_at :datetime</text>
<text text-anchor="start" x="767.5" y="-408.4" font-family="Times Roman,serif" font-size="14.00">closed_at :datetime</text>
<text text-anchor="start" x="767.5" y="-390.4" font-family="Times Roman,serif" font-size="14.00">state :string</text>
<text text-anchor="start" x="767.5" y="-372.4" font-family="Times Roman,serif" font-size="14.00">completion_state :string</text>
</g>
<!-- Project::ScrapDetail -->
<g id="node9" class="node"><title>Project::ScrapDetail</title>
<polyline fill="none" stroke="black" points="613.5,-120 754.5,-120 "/>
<path fill="none" stroke="black" d="M754.5,-120C760.5,-120 766.5,-126 766.5,-132"/>
<polyline fill="none" stroke="black" points="766.5,-132 766.5,-232 "/>
<path fill="none" stroke="black" d="M766.5,-232C766.5,-238 760.5,-244 754.5,-244"/>
<polyline fill="none" stroke="black" points="754.5,-244 613.5,-244 "/>
<path fill="none" stroke="black" d="M613.5,-244C607.5,-244 601.5,-238 601.5,-232"/>
<polyline fill="none" stroke="black" points="601.5,-232 601.5,-132 "/>
<path fill="none" stroke="black" d="M601.5,-132C601.5,-126 607.5,-120 613.5,-120"/>
<text text-anchor="middle" x="684" y="-227.4" font-family="Times Roman,serif" font-size="14.00">Project::ScrapDetail</text>
<polyline fill="none" stroke="black" points="601.5,-218 766.5,-218 "/>
<text text-anchor="start" x="609.5" y="-201.4" font-family="Times Roman,serif" font-size="14.00">proj_type :string</text>
<text text-anchor="start" x="609.5" y="-183.4" font-family="Times Roman,serif" font-size="14.00">state :string</text>
<text text-anchor="start" x="609.5" y="-165.4" font-family="Times Roman,serif" font-size="14.00">description :string</text>
<text text-anchor="start" x="609.5" y="-147.4" font-family="Times Roman,serif" font-size="14.00">created_at :datetime</text>
<text text-anchor="start" x="609.5" y="-129.4" font-family="Times Roman,serif" font-size="14.00">updated_at :datetime</text>
</g>
<!-- Project::Scrap&#45;&gt;Project::ScrapDetail -->
<g id="edge18" class="edge"><title>Project::Scrap&#45;&gt;Project::ScrapDetail</title>
<path fill="none" stroke="#42e92e" d="M795.419,-356.134C773.513,-321.898 748.71,-283.133 728.076,-250.885"/>
<ellipse fill="none" stroke="#42e92e" cx="797.604" cy="-359.548" rx="4.00002" ry="4.00002"/>
<ellipse fill="#42e92e" stroke="#42e92e" cx="725.894" cy="-247.475" rx="4.00002" ry="4.00002"/>
<text text-anchor="middle" x="782.5" y="-295.4" font-family="Times Roman,serif" font-size="14.00">detail</text>
</g>
<!-- Project::Eab -->
<g id="node7" class="node"><title>Project::Eab</title>
<polyline fill="none" stroke="black" points="19.5,-363 178.5,-363 "/>
<path fill="none" stroke="black" d="M178.5,-363C184.5,-363 190.5,-369 190.5,-375"/>
<polyline fill="none" stroke="black" points="190.5,-375 190.5,-511 "/>
<path fill="none" stroke="black" d="M190.5,-511C190.5,-517 184.5,-523 178.5,-523"/>
<polyline fill="none" stroke="black" points="178.5,-523 19.5,-523 "/>
<path fill="none" stroke="black" d="M19.5,-523C13.5,-523 7.5,-517 7.5,-511"/>
<polyline fill="none" stroke="black" points="7.5,-511 7.5,-375 "/>
<path fill="none" stroke="black" d="M7.5,-375C7.5,-369 13.5,-363 19.5,-363"/>
<text text-anchor="middle" x="99" y="-506.4" font-family="Times Roman,serif" font-size="14.00">Project::Eab</text>
<polyline fill="none" stroke="black" points="7.5,-497 190.5,-497 "/>
<text text-anchor="start" x="15.5" y="-480.4" font-family="Times Roman,serif" font-size="14.00">prog_type :string</text>
<text text-anchor="start" x="15.5" y="-462.4" font-family="Times Roman,serif" font-size="14.00">label :string</text>
<text text-anchor="start" x="15.5" y="-444.4" font-family="Times Roman,serif" font-size="14.00">created_at :datetime</text>
<text text-anchor="start" x="15.5" y="-426.4" font-family="Times Roman,serif" font-size="14.00">updated_at :datetime</text>
<text text-anchor="start" x="15.5" y="-408.4" font-family="Times Roman,serif" font-size="14.00">closed_at :datetime</text>
<text text-anchor="start" x="15.5" y="-390.4" font-family="Times Roman,serif" font-size="14.00">state :string</text>
<text text-anchor="start" x="15.5" y="-372.4" font-family="Times Roman,serif" font-size="14.00">completion_state :string</text>
</g>
<!-- Project::EabDetail -->
<g id="node8" class="node"><title>Project::EabDetail</title>
<polyline fill="none" stroke="black" points="11.5,-120 152.5,-120 "/>
<path fill="none" stroke="black" d="M152.5,-120C158.5,-120 164.5,-126 164.5,-132"/>
<polyline fill="none" stroke="black" points="164.5,-132 164.5,-232 "/>
<path fill="none" stroke="black" d="M164.5,-232C164.5,-238 158.5,-244 152.5,-244"/>
<polyline fill="none" stroke="black" points="152.5,-244 11.5,-244 "/>
<path fill="none" stroke="black" d="M11.5,-244C5.5,-244 -0.5,-238 -0.5,-232"/>
<polyline fill="none" stroke="black" points="-0.5,-232 -0.5,-132 "/>
<path fill="none" stroke="black" d="M-0.5,-132C-0.5,-126 5.5,-120 11.5,-120"/>
<text text-anchor="middle" x="82" y="-227.4" font-family="Times Roman,serif" font-size="14.00">Project::EabDetail</text>
<polyline fill="none" stroke="black" points="-0.5,-218 164.5,-218 "/>
<text text-anchor="start" x="7.5" y="-201.4" font-family="Times Roman,serif" font-size="14.00">proj_type :string</text>
<text text-anchor="start" x="7.5" y="-183.4" font-family="Times Roman,serif" font-size="14.00">state :string</text>
<text text-anchor="start" x="7.5" y="-165.4" font-family="Times Roman,serif" font-size="14.00">status_state :string</text>
<text text-anchor="start" x="7.5" y="-147.4" font-family="Times Roman,serif" font-size="14.00">created_at :datetime</text>
<text text-anchor="start" x="7.5" y="-129.4" font-family="Times Roman,serif" font-size="14.00">updated_at :datetime</text>
</g>
<!-- Project::Eab&#45;&gt;Project::EabDetail -->
<g id="edge22" class="edge"><title>Project::Eab&#45;&gt;Project::EabDetail</title>
<path fill="none" stroke="#9bdff9" d="M93.2527,-354.762C91.0799,-321.402 88.638,-283.912 86.5856,-252.403"/>
<ellipse fill="none" stroke="#9bdff9" cx="93.5239" cy="-358.926" rx="4" ry="4"/>
<ellipse fill="#9bdff9" stroke="#9bdff9" cx="86.3053" cy="-248.098" rx="4" ry="4"/>
<text text-anchor="middle" x="109.5" y="-295.4" font-family="Times Roman,serif" font-size="14.00">detail</text>
</g>
<!-- Project::ResponseSet -->
<g id="node37" class="node"><title>Project::ResponseSet</title>
<ellipse fill="none" stroke="black" cx="472" cy="-19" rx="113.844" ry="18.3848"/>
<text text-anchor="middle" x="472" y="-15.4" font-family="Times Roman,serif" font-size="14.00">Project::ResponseSet</text>
</g>
<!-- Project::YouthDetail&#45;&gt;Project::ResponseSet -->
<g id="edge30" class="edge"><title>Project::YouthDetail&#45;&gt;Project::ResponseSet</title>
<path fill="none" stroke="#70d238" d="M472,-111.582C472,-88.3326 472,-63.8568 472,-45.9141"/>
<ellipse fill="none" stroke="#70d238" cx="472" cy="-115.912" rx="4" ry="4"/>
<ellipse fill="#70d238" stroke="#70d238" cx="472" cy="-41.6647" rx="4" ry="4"/>
<text text-anchor="middle" x="507" y="-61.4" font-family="Times Roman,serif" font-size="14.00">inspection</text>
</g>
<!-- ProjectDetail -->
<g id="node11" class="node"><title>ProjectDetail</title>
<ellipse fill="none" stroke="black" cx="406" cy="-443" rx="74.9533" ry="18.3848"/>
<text text-anchor="middle" x="406" y="-439.4" font-family="Times Roman,serif" font-size="14.00">ProjectDetail</text>
</g>
<!-- ProjectDetail&#45;&gt;Project::EabDetail -->
<g id="edge26" class="edge"><title>ProjectDetail&#45;&gt;Project::EabDetail</title>
<path fill="none" stroke="black" d="M396.736,-424.556C383.037,-399.024 355.063,-353.01 319,-326 263.624,-284.526 231.356,-309.163 173,-272 160.63,-264.122 148.59,-254.325 137.532,-244.12"/>
</g>
<!-- ProjectDetail&#45;&gt;Project::ScrapDetail -->
<g id="edge28" class="edge"><title>ProjectDetail&#45;&gt;Project::ScrapDetail</title>
<path fill="none" stroke="black" d="M417.052,-424.599C437.167,-392.635 482.817,-326.758 538,-290 559.406,-275.741 571.047,-285.402 593,-272 605.707,-264.243 617.996,-254.381 629.215,-244.048"/>
</g>
<!-- ProjectDetail&#45;&gt;Project::YouthDetail -->
<g id="edge32" class="edge"><title>ProjectDetail&#45;&gt;Project::YouthDetail</title>
<path fill="none" stroke="black" d="M410.747,-424.23C420.131,-387.119 441.431,-302.886 456.26,-244.244"/>
</g>
<!-- ProjectDetailVersion -->
<g id="node14" class="node"><title>ProjectDetailVersion</title>
<polyline fill="none" stroke="black" points="193.5,-111 330.5,-111 "/>
<path fill="none" stroke="black" d="M330.5,-111C336.5,-111 342.5,-117 342.5,-123"/>
<polyline fill="none" stroke="black" points="342.5,-123 342.5,-241 "/>
<path fill="none" stroke="black" d="M342.5,-241C342.5,-247 336.5,-253 330.5,-253"/>
<polyline fill="none" stroke="black" points="330.5,-253 193.5,-253 "/>
<path fill="none" stroke="black" d="M193.5,-253C187.5,-253 181.5,-247 181.5,-241"/>
<polyline fill="none" stroke="black" points="181.5,-241 181.5,-123 "/>
<path fill="none" stroke="black" d="M181.5,-123C181.5,-117 187.5,-111 193.5,-111"/>
<text text-anchor="middle" x="262" y="-236.4" font-family="Times Roman,serif" font-size="14.00">ProjectDetailVersion</text>
<polyline fill="none" stroke="black" points="181.5,-227 342.5,-227 "/>
<text text-anchor="start" x="189.5" y="-210.4" font-family="Times Roman,serif" font-size="14.00">item_type :string</text>
<text text-anchor="start" x="189.5" y="-192.4" font-family="Times Roman,serif" font-size="14.00">event :string</text>
<text text-anchor="start" x="189.5" y="-174.4" font-family="Times Roman,serif" font-size="14.00">whodunnit :string</text>
<text text-anchor="start" x="189.5" y="-156.4" font-family="Times Roman,serif" font-size="14.00">object :text</text>
<text text-anchor="start" x="189.5" y="-138.4" font-family="Times Roman,serif" font-size="14.00">created_at :datetime</text>
<text text-anchor="start" x="189.5" y="-120.4" font-family="Times Roman,serif" font-size="14.00">state :string</text>
</g>
<!-- ProjectDetail&#45;&gt;ProjectDetailVersion -->
<g id="edge34" class="edge"><title>ProjectDetail&#45;&gt;ProjectDetailVersion</title>
<path fill="none" stroke="#c86d59" d="M396.657,-416.678C385.146,-385.516 364.125,-332.491 340,-290 334.667,-280.607 328.684,-271.046 322.465,-261.692"/>
<ellipse fill="none" stroke="#c86d59" cx="398.138" cy="-420.728" rx="4.00001" ry="4.00001"/>
<polygon fill="#c86d59" stroke="#c86d59" points="322.303,-261.453 320.427,-250.649 319.501,-257.311 316.7,-253.17 316.7,-253.17 316.7,-253.17 319.501,-257.311 312.972,-255.692 322.303,-261.453 322.303,-261.453"/>
<text text-anchor="middle" x="378" y="-295.4" font-family="Times Roman,serif" font-size="14.00">versions</text>
</g>
<!-- User -->
<g id="node13" class="node"><title>User</title>
<polyline fill="none" stroke="black" points="1021,-1015 1251,-1015 "/>
<path fill="none" stroke="black" d="M1251,-1015C1257,-1015 1263,-1021 1263,-1027"/>
<polyline fill="none" stroke="black" points="1263,-1027 1263,-1235 "/>
<path fill="none" stroke="black" d="M1263,-1235C1263,-1241 1257,-1247 1251,-1247"/>
<polyline fill="none" stroke="black" points="1251,-1247 1021,-1247 "/>
<path fill="none" stroke="black" d="M1021,-1247C1015,-1247 1009,-1241 1009,-1235"/>
<polyline fill="none" stroke="black" points="1009,-1235 1009,-1027 "/>
<path fill="none" stroke="black" d="M1009,-1027C1009,-1021 1015,-1015 1021,-1015"/>
<text text-anchor="middle" x="1136" y="-1230.4" font-family="Times Roman,serif" font-size="14.00">User</text>
<polyline fill="none" stroke="black" points="1009,-1221 1263,-1221 "/>
<text text-anchor="start" x="1017" y="-1204.4" font-family="Times Roman,serif" font-size="14.00">email :string</text>
<text text-anchor="start" x="1017" y="-1186.4" font-family="Times Roman,serif" font-size="14.00">encrypted_password :string</text>
<text text-anchor="start" x="1017" y="-1168.4" font-family="Times Roman,serif" font-size="14.00">reset_password_token :string</text>
<text text-anchor="start" x="1017" y="-1150.4" font-family="Times Roman,serif" font-size="14.00">reset_password_sent_at :datetime</text>
<text text-anchor="start" x="1017" y="-1132.4" font-family="Times Roman,serif" font-size="14.00">remember_created_at :datetime</text>
<text text-anchor="start" x="1017" y="-1114.4" font-family="Times Roman,serif" font-size="14.00">current_sign_in_at :datetime</text>
<text text-anchor="start" x="1017" y="-1096.4" font-family="Times Roman,serif" font-size="14.00">last_sign_in_at :datetime</text>
<text text-anchor="start" x="1017" y="-1078.4" font-family="Times Roman,serif" font-size="14.00">current_sign_in_ip :string</text>
<text text-anchor="start" x="1017" y="-1060.4" font-family="Times Roman,serif" font-size="14.00">last_sign_in_ip :string</text>
<text text-anchor="start" x="1017" y="-1042.4" font-family="Times Roman,serif" font-size="14.00">created_at :datetime</text>
<text text-anchor="start" x="1017" y="-1024.4" font-family="Times Roman,serif" font-size="14.00">updated_at :datetime</text>
</g>
<!-- Comment&#45;&gt;Comment -->
<g id="edge38" class="edge"><title>Comment&#45;&gt;Comment</title>
<path fill="none" stroke="#269d10" d="M1369.93,-196.972C1376.23,-193.396 1380,-188.406 1380,-182 1380,-176.139 1376.84,-171.463 1371.48,-167.971"/>
<ellipse fill="none" stroke="#269d10" cx="1365.84" cy="-198.722" rx="4.00001" ry="4.00001"/>
<polygon fill="#269d10" stroke="#269d10" points="1371.26,-167.869 1364.04,-159.612 1366.71,-165.786 1362.17,-163.703 1362.17,-163.703 1362.17,-163.703 1366.71,-165.786 1360.29,-167.794 1371.26,-167.869 1371.26,-167.869"/>
<text text-anchor="middle" x="1407.5" y="-178.4" font-family="Times Roman,serif" font-size="14.00">children</text>
</g>
<!-- Project&#45;&gt;Bike -->
<g id="edge40" class="edge"><title>Project&#45;&gt;Bike</title>
<path fill="none" stroke="#dabb73" d="M981.198,-591.567C985.394,-583.451 989.697,-575.127 994.02,-566.765"/>
<ellipse fill="none" stroke="#dabb73" cx="979.311" cy="-595.219" rx="4.00002" ry="4.00002"/>
<ellipse fill="#dabb73" stroke="#dabb73" cx="995.984" cy="-562.965" rx="4.00002" ry="4.00002"/>
</g>
<!-- Project&#45;&gt;Project::Youth -->
<g id="edge16" class="edge"><title>Project&#45;&gt;Project::Youth</title>
<path fill="none" stroke="black" d="M844.297,-603.275C841.53,-601.458 838.761,-599.695 836,-598 800.735,-576.349 785.233,-583.248 751,-560 735.234,-549.293 719.68,-536.405 705.261,-523.154"/>
</g>
<!-- Project&#45;&gt;Project::Scrap -->
<g id="edge20" class="edge"><title>Project&#45;&gt;Project::Scrap</title>
<path fill="none" stroke="black" d="M907.104,-598.772C898.297,-574.318 888.618,-547.445 879.816,-523.006"/>
</g>
<!-- Project&#45;&gt;Project::Eab -->
<g id="edge24" class="edge"><title>Project&#45;&gt;Project::Eab</title>
<path fill="none" stroke="black" d="M844.373,-601.592C841.605,-600.294 838.812,-599.092 836,-598 705.054,-547.139 331.649,-620.775 205,-560 186.714,-551.225 170.142,-537.747 155.822,-523.018"/>
</g>
<!-- Project&#45;&gt;Comment -->
<g id="edge44" class="edge"><title>Project&#45;&gt;Comment</title>
<path fill="none" stroke="#ec238a" d="M1035.24,-645.108C1077.56,-626.098 1124.19,-598.343 1155,-560 1189.54,-517.02 1223.87,-377.9 1244.51,-281.003"/>
<ellipse fill="none" stroke="#ec238a" cx="1031.32" cy="-646.828" rx="4.00002" ry="4.00002"/>
<polygon fill="#ec238a" stroke="#ec238a" points="1244.52,-280.958 1250.99,-272.106 1245.56,-276.067 1246.59,-271.175 1246.59,-271.175 1246.59,-271.175 1245.56,-276.067 1242.19,-270.244 1244.52,-280.958 1244.52,-280.958"/>
<text text-anchor="middle" x="1296" y="-439.4" font-family="Times Roman,serif" font-size="14.00">comment_threads</text>
</g>
<!-- Detail -->
<g id="node45" class="node"><title>Detail</title>
<ellipse fill="none" stroke="black" cx="1417" cy="-443" rx="41.0122" ry="18.3848"/>
<text text-anchor="middle" x="1417" y="-439.4" font-family="Times Roman,serif" font-size="14.00">Detail</text>
</g>
<!-- Project&#45;&gt;Detail -->
<g id="edge42" class="edge"><title>Project&#45;&gt;Detail</title>
<path fill="none" stroke="#6480f6" d="M1035.81,-661.077C1145.56,-639.68 1312.87,-601.537 1362,-560 1389.65,-536.623 1404.29,-496.251 1411.34,-469.584"/>
<ellipse fill="none" stroke="#6480f6" cx="1031.61" cy="-661.891" rx="4.00001" ry="4.00001"/>
<ellipse fill="#6480f6" stroke="#6480f6" cx="1412.32" cy="-465.663" rx="4.00001" ry="4.00001"/>
</g>
<!-- SurveyorUtil -->
<g id="node17" class="node"><title>SurveyorUtil</title>
<polygon fill="none" stroke="black" stroke-dasharray="1,5" points="1385,-1149 1281,-1149 1281,-1113 1385,-1113 1385,-1149"/>
<text text-anchor="middle" x="1333" y="-1127.4" font-family="Times Roman,serif" font-size="14.00">SurveyorUtil</text>
</g>
<!-- PaperTrailContext -->
<g id="node18" class="node"><title>PaperTrailContext</title>
<polygon fill="none" stroke="black" stroke-dasharray="1,5" points="1543,-1149 1403,-1149 1403,-1113 1543,-1113 1543,-1149"/>
<text text-anchor="middle" x="1473" y="-1127.4" font-family="Times Roman,serif" font-size="14.00">PaperTrailContext</text>
</g>
<!-- ProjectCategory -->
<g id="node19" class="node"><title>ProjectCategory</title>
<polyline fill="none" stroke="black" points="827,-1060 979,-1060 "/>
<path fill="none" stroke="black" d="M979,-1060C985,-1060 991,-1066 991,-1072"/>
<polyline fill="none" stroke="black" points="991,-1072 991,-1190 "/>
<path fill="none" stroke="black" d="M991,-1190C991,-1196 985,-1202 979,-1202"/>
<polyline fill="none" stroke="black" points="979,-1202 827,-1202 "/>
<path fill="none" stroke="black" d="M827,-1202C821,-1202 815,-1196 815,-1190"/>
<polyline fill="none" stroke="black" points="815,-1190 815,-1072 "/>
<path fill="none" stroke="black" d="M815,-1072C815,-1066 821,-1060 827,-1060"/>
<text text-anchor="middle" x="903" y="-1185.4" font-family="Times Roman,serif" font-size="14.00">ProjectCategory</text>
<polyline fill="none" stroke="black" points="815,-1176 991,-1176 "/>
<text text-anchor="start" x="823" y="-1159.4" font-family="Times Roman,serif" font-size="14.00">name :string</text>
<text text-anchor="start" x="823" y="-1141.4" font-family="Times Roman,serif" font-size="14.00">project_type :string</text>
<text text-anchor="start" x="823" y="-1123.4" font-family="Times Roman,serif" font-size="14.00">max_programs :integer</text>
<text text-anchor="start" x="823" y="-1105.4" font-family="Times Roman,serif" font-size="14.00">slug :string</text>
<text text-anchor="start" x="823" y="-1087.4" font-family="Times Roman,serif" font-size="14.00">created_at :datetime</text>
<text text-anchor="start" x="823" y="-1069.4" font-family="Times Roman,serif" font-size="14.00">updated_at :datetime</text>
</g>
<!-- ProjectCategory&#45;&gt;Program -->
<g id="edge48" class="edge"><title>ProjectCategory&#45;&gt;Program</title>
<path fill="none" stroke="#43a8e3" d="M877.308,-1052.26C870.252,-1030.63 862.549,-1007.02 855.306,-984.82"/>
<ellipse fill="none" stroke="#43a8e3" cx="878.552" cy="-1056.07" rx="4.00001" ry="4.00001"/>
<polygon fill="#43a8e3" stroke="#43a8e3" points="855.226,-984.576 856.402,-973.673 853.675,-979.823 852.124,-975.069 852.124,-975.069 852.124,-975.069 853.675,-979.823 847.846,-976.465 855.226,-984.576 855.226,-984.576"/>
</g>
<!-- ProjectCategory&#45;&gt;Project -->
<g id="edge46" class="edge"><title>ProjectCategory&#45;&gt;Project</title>
<path fill="none" stroke="#102e96" d="M910.58,-1051.54C912.784,-1027.3 915.105,-1000.57 917,-976 922.353,-906.606 927.333,-828.007 930.851,-769.105"/>
<ellipse fill="none" stroke="#102e96" cx="910.202" cy="-1055.67" rx="4" ry="4"/>
<polygon fill="#102e96" stroke="#102e96" points="930.853,-769.068 935.939,-759.352 931.15,-764.076 931.446,-759.085 931.446,-759.085 931.446,-759.085 931.15,-764.076 926.954,-758.818 930.853,-769.068 930.853,-769.068"/>
</g>
<!-- Version -->
<g id="node40" class="node"><title>Version</title>
<ellipse fill="none" stroke="black" cx="262" cy="-443" rx="48.0833" ry="18.3848"/>
<text text-anchor="middle" x="262" y="-439.4" font-family="Times Roman,serif" font-size="14.00">Version</text>
</g>
<!-- Version&#45;&gt;ProjectDetailVersion -->
<g id="edge36" class="edge"><title>Version&#45;&gt;ProjectDetailVersion</title>
<path fill="none" stroke="black" d="M262,-424.23C262,-388.93 262,-310.998 262,-253.007"/>
</g>
</g>
</svg>
