<?xml version="1.0" encoding="UTF-8" standalone="no"?>
<!DOCTYPE svg PUBLIC "-//W3C//DTD SVG 1.1//EN"
 "http://www.w3.org/Graphics/SVG/1.1/DTD/svg11.dtd">
<!-- Generated by graphviz version 2.26.3 (20100126.1600)
 -->
<!-- Title: models_diagram Pages: 1 -->
<svg width="1763pt" height="1256pt"
 viewBox="0.00 0.00 1763.00 1256.00" xmlns="http://www.w3.org/2000/svg" xmlns:xlink="http://www.w3.org/1999/xlink">
<g id="graph1" class="graph" transform="scale(1 1) rotate(0) translate(4 1252)">
<title>models_diagram</title>
<polygon fill="white" stroke="white" points="-4,5 -4,-1252 1760,-1252 1760,5 -4,5"/>
<!-- _diagram_info -->
<g id="node1" class="node"><title>_diagram_info</title>
<text text-anchor="start" x="663" y="-1161.8" font-family="Times Roman,serif" font-size="13.00">Models diagram</text>
<text text-anchor="start" x="663" y="-1144.8" font-family="Times Roman,serif" font-size="13.00">Date: Jun 27 2012 &#45; 03:22</text>
<text text-anchor="start" x="663" y="-1127.8" font-family="Times Roman,serif" font-size="13.00">Migration version: 20120506063455</text>
<text text-anchor="start" x="663" y="-1110.8" font-family="Times Roman,serif" font-size="13.00">Generated by RailRoady 1.0.7</text>
<text text-anchor="start" x="663" y="-1093.8" font-family="Times Roman,serif" font-size="13.00">http://railroady.prestonlee.com</text>
</g>
<!-- Program -->
<g id="node2" class="node"><title>Program</title>
<polyline fill="none" stroke="black" points="863.5,-815 1004.5,-815 "/>
<path fill="none" stroke="black" d="M1004.5,-815C1010.5,-815 1016.5,-821 1016.5,-827"/>
<polyline fill="none" stroke="black" points="1016.5,-827 1016.5,-963 "/>
<path fill="none" stroke="black" d="M1016.5,-963C1016.5,-969 1010.5,-975 1004.5,-975"/>
<polyline fill="none" stroke="black" points="1004.5,-975 863.5,-975 "/>
<path fill="none" stroke="black" d="M863.5,-975C857.5,-975 851.5,-969 851.5,-963"/>
<polyline fill="none" stroke="black" points="851.5,-963 851.5,-827 "/>
<path fill="none" stroke="black" d="M851.5,-827C851.5,-821 857.5,-815 863.5,-815"/>
<text text-anchor="middle" x="934" y="-958.4" font-family="Times Roman,serif" font-size="14.00">Program</text>
<polyline fill="none" stroke="black" points="851.5,-949 1016.5,-949 "/>
<text text-anchor="start" x="859.5" y="-932.4" font-family="Times Roman,serif" font-size="14.00">title :string</text>
<text text-anchor="start" x="859.5" y="-914.4" font-family="Times Roman,serif" font-size="14.00">created_at :datetime</text>
<text text-anchor="start" x="859.5" y="-896.4" font-family="Times Roman,serif" font-size="14.00">updated_at :datetime</text>
<text text-anchor="start" x="859.5" y="-878.4" font-family="Times Roman,serif" font-size="14.00">cosed_at :datetime</text>
<text text-anchor="start" x="859.5" y="-860.4" font-family="Times Roman,serif" font-size="14.00">slug :string</text>
<text text-anchor="start" x="859.5" y="-842.4" font-family="Times Roman,serif" font-size="14.00">max_open :integer</text>
<text text-anchor="start" x="859.5" y="-824.4" font-family="Times Roman,serif" font-size="14.00">max_total :integer</text>
</g>
<!-- Project -->
<g id="node17" class="node"><title>Project</title>
<polyline fill="none" stroke="black" points="964.5,-599 1123.5,-599 "/>
<path fill="none" stroke="black" d="M1123.5,-599C1129.5,-599 1135.5,-605 1135.5,-611"/>
<polyline fill="none" stroke="black" points="1135.5,-611 1135.5,-747 "/>
<path fill="none" stroke="black" d="M1135.5,-747C1135.5,-753 1129.5,-759 1123.5,-759"/>
<polyline fill="none" stroke="black" points="1123.5,-759 964.5,-759 "/>
<path fill="none" stroke="black" d="M964.5,-759C958.5,-759 952.5,-753 952.5,-747"/>
<polyline fill="none" stroke="black" points="952.5,-747 952.5,-611 "/>
<path fill="none" stroke="black" d="M952.5,-611C952.5,-605 958.5,-599 964.5,-599"/>
<text text-anchor="middle" x="1044" y="-742.4" font-family="Times Roman,serif" font-size="14.00">Project</text>
<polyline fill="none" stroke="black" points="952.5,-733 1135.5,-733 "/>
<text text-anchor="start" x="960.5" y="-716.4" font-family="Times Roman,serif" font-size="14.00">prog_type :string</text>
<text text-anchor="start" x="960.5" y="-698.4" font-family="Times Roman,serif" font-size="14.00">label :string</text>
<text text-anchor="start" x="960.5" y="-680.4" font-family="Times Roman,serif" font-size="14.00">created_at :datetime</text>
<text text-anchor="start" x="960.5" y="-662.4" font-family="Times Roman,serif" font-size="14.00">updated_at :datetime</text>
<text text-anchor="start" x="960.5" y="-644.4" font-family="Times Roman,serif" font-size="14.00">closed_at :datetime</text>
<text text-anchor="start" x="960.5" y="-626.4" font-family="Times Roman,serif" font-size="14.00">state :string</text>
<text text-anchor="start" x="960.5" y="-608.4" font-family="Times Roman,serif" font-size="14.00">completion_state :string</text>
</g>
<!-- Program&#45;&gt;Project -->
<g id="edge4" class="edge"><title>Program&#45;&gt;Project</title>
<path fill="none" stroke="#f6f806" d="M978.51,-807.599C985.108,-794.642 991.915,-781.275 998.533,-768.281"/>
<ellipse fill="none" stroke="#f6f806" cx="976.619" cy="-811.312" rx="4.00002" ry="4.00002"/>
<polygon fill="#f6f806" stroke="#f6f806" points="998.541,-768.265 1007.09,-761.396 1000.81,-763.81 1003.08,-759.354 1003.08,-759.354 1003.08,-759.354 1000.81,-763.81 999.069,-757.312 998.541,-768.265 998.541,-768.265"/>
</g>
<!-- FriendlyId::Slug -->
<g id="node22" class="node"><title>FriendlyId::Slug</title>
<ellipse fill="none" stroke="black" cx="848" cy="-679" rx="86.9741" ry="18.3848"/>
<text text-anchor="middle" x="848" y="-675.4" font-family="Times Roman,serif" font-size="14.00">FriendlyId::Slug</text>
</g>
<!-- Program&#45;&gt;FriendlyId::Slug -->
<g id="edge2" class="edge"><title>Program&#45;&gt;FriendlyId::Slug</title>
<path fill="none" stroke="#201214" d="M899.101,-807.348C884.831,-771.505 869.325,-732.561 859.182,-707.085"/>
<ellipse fill="none" stroke="#201214" cx="900.619" cy="-811.16" rx="4.00001" ry="4.00001"/>
<polygon fill="#201214" stroke="#201214" points="859.141,-706.981 859.622,-696.026 857.291,-702.336 855.441,-697.69 855.441,-697.69 855.441,-697.69 857.291,-702.336 851.261,-699.355 859.141,-706.981 859.141,-706.981"/>
<text text-anchor="middle" x="911.5" y="-783.4" font-family="Times Roman,serif" font-size="14.00">slugs</text>
</g>
<!-- Inspection -->
<g id="node3" class="node"><title>Inspection</title>
<polygon fill="none" stroke="black" stroke-dasharray="1,5" points="1203,-1149 1117,-1149 1117,-1113 1203,-1113 1203,-1149"/>
<text text-anchor="middle" x="1160" y="-1127.4" font-family="Times Roman,serif" font-size="14.00">Inspection</text>
</g>
<!-- ResponseSet -->
<g id="node4" class="node"><title>ResponseSet</title>
<polyline fill="none" stroke="black" points="855.5,-102 1068.5,-102 "/>
<path fill="none" stroke="black" d="M1068.5,-102C1074.5,-102 1080.5,-108 1080.5,-114"/>
<polyline fill="none" stroke="black" points="1080.5,-114 1080.5,-250 "/>
<path fill="none" stroke="black" d="M1080.5,-250C1080.5,-256 1074.5,-262 1068.5,-262"/>
<polyline fill="none" stroke="black" points="1068.5,-262 855.5,-262 "/>
<path fill="none" stroke="black" d="M855.5,-262C849.5,-262 843.5,-256 843.5,-250"/>
<polyline fill="none" stroke="black" points="843.5,-250 843.5,-114 "/>
<path fill="none" stroke="black" d="M843.5,-114C843.5,-108 849.5,-102 855.5,-102"/>
<text text-anchor="middle" x="962" y="-245.4" font-family="Times Roman,serif" font-size="14.00">ResponseSet</text>
<polyline fill="none" stroke="black" points="843.5,-236 1080.5,-236 "/>
<text text-anchor="start" x="851.5" y="-219.4" font-family="Times Roman,serif" font-size="14.00">access_code :string</text>
<text text-anchor="start" x="851.5" y="-201.4" font-family="Times Roman,serif" font-size="14.00">started_at :datetime</text>
<text text-anchor="start" x="851.5" y="-183.4" font-family="Times Roman,serif" font-size="14.00">completed_at :datetime</text>
<text text-anchor="start" x="851.5" y="-165.4" font-family="Times Roman,serif" font-size="14.00">created_at :datetime</text>
<text text-anchor="start" x="851.5" y="-147.4" font-family="Times Roman,serif" font-size="14.00">updated_at :datetime</text>
<text text-anchor="start" x="851.5" y="-129.4" font-family="Times Roman,serif" font-size="14.00">surveyable_type :string</text>
<text text-anchor="start" x="851.5" y="-111.4" font-family="Times Roman,serif" font-size="14.00">surveyable_process_type :string</text>
</g>
<!-- Response -->
<g id="node25" class="node"><title>Response</title>
<ellipse fill="none" stroke="black" cx="962" cy="-19" rx="56.7776" ry="18.3848"/>
<text text-anchor="middle" x="962" y="-15.4" font-family="Times Roman,serif" font-size="14.00">Response</text>
</g>
<!-- ResponseSet&#45;&gt;Response -->
<g id="edge6" class="edge"><title>ResponseSet&#45;&gt;Response</title>
<path fill="none" stroke="#48a2ac" d="M962,-93.7846C962,-77.2119 962,-61.012 962,-47.9511"/>
<ellipse fill="none" stroke="#48a2ac" cx="962" cy="-97.9326" rx="4" ry="4"/>
<polygon fill="#48a2ac" stroke="#48a2ac" points="962,-47.779 966.5,-37.7789 962,-42.779 962,-37.779 962,-37.779 962,-37.779 962,-42.779 957.5,-37.779 962,-47.779 962,-47.779"/>
</g>
<!-- Bike -->
<g id="node5" class="node"><title>Bike</title>
<polyline fill="none" stroke="black" points="1094.5,-327 1247.5,-327 "/>
<path fill="none" stroke="black" d="M1247.5,-327C1253.5,-327 1259.5,-333 1259.5,-339"/>
<polyline fill="none" stroke="black" points="1259.5,-339 1259.5,-547 "/>
<path fill="none" stroke="black" d="M1259.5,-547C1259.5,-553 1253.5,-559 1247.5,-559"/>
<polyline fill="none" stroke="black" points="1247.5,-559 1094.5,-559 "/>
<path fill="none" stroke="black" d="M1094.5,-559C1088.5,-559 1082.5,-553 1082.5,-547"/>
<polyline fill="none" stroke="black" points="1082.5,-547 1082.5,-339 "/>
<path fill="none" stroke="black" d="M1082.5,-339C1082.5,-333 1088.5,-327 1094.5,-327"/>
<text text-anchor="middle" x="1171" y="-542.4" font-family="Times Roman,serif" font-size="14.00">Bike</text>
<polyline fill="none" stroke="black" points="1082.5,-533 1259.5,-533 "/>
<text text-anchor="start" x="1090.5" y="-516.4" font-family="Times Roman,serif" font-size="14.00">color :string</text>
<text text-anchor="start" x="1090.5" y="-498.4" font-family="Times Roman,serif" font-size="14.00">value :float</text>
<text text-anchor="start" x="1090.5" y="-480.4" font-family="Times Roman,serif" font-size="14.00">seat_tube_height :float</text>
<text text-anchor="start" x="1090.5" y="-462.4" font-family="Times Roman,serif" font-size="14.00">top_tube_length :float</text>
<text text-anchor="start" x="1090.5" y="-444.4" font-family="Times Roman,serif" font-size="14.00">created_at :datetime</text>
<text text-anchor="start" x="1090.5" y="-426.4" font-family="Times Roman,serif" font-size="14.00">updated_at :datetime</text>
<text text-anchor="start" x="1090.5" y="-408.4" font-family="Times Roman,serif" font-size="14.00">departed_at :datetime</text>
<text text-anchor="start" x="1090.5" y="-390.4" font-family="Times Roman,serif" font-size="14.00">mfg :string</text>
<text text-anchor="start" x="1090.5" y="-372.4" font-family="Times Roman,serif" font-size="14.00">model :string</text>
<text text-anchor="start" x="1090.5" y="-354.4" font-family="Times Roman,serif" font-size="14.00">number :string</text>
<text text-anchor="start" x="1090.5" y="-336.4" font-family="Times Roman,serif" font-size="14.00">location_state :string</text>
</g>
<!-- Bike&#45;&gt;ResponseSet -->
<g id="edge12" class="edge"><title>Bike&#45;&gt;ResponseSet</title>
<path fill="none" stroke="#9abee9" d="M1077.28,-325.965C1062.36,-307.328 1047.14,-288.321 1032.86,-270.486"/>
<ellipse fill="none" stroke="#9abee9" cx="1079.86" cy="-329.19" rx="4.00002" ry="4.00002"/>
<polygon fill="#9abee9" stroke="#9abee9" points="1032.62,-270.186 1029.88,-259.567 1029.49,-266.283 1026.37,-262.38 1026.37,-262.38 1026.37,-262.38 1029.49,-266.283 1022.85,-265.193 1032.62,-270.186 1032.62,-270.186"/>
<text text-anchor="middle" x="1098.5" y="-295.4" font-family="Times Roman,serif" font-size="14.00">inspections</text>
</g>
<!-- Hook -->
<g id="node13" class="node"><title>Hook</title>
<polyline fill="none" stroke="black" points="1109.5,-138 1250.5,-138 "/>
<path fill="none" stroke="black" d="M1250.5,-138C1256.5,-138 1262.5,-144 1262.5,-150"/>
<polyline fill="none" stroke="black" points="1262.5,-150 1262.5,-214 "/>
<path fill="none" stroke="black" d="M1262.5,-214C1262.5,-220 1256.5,-226 1250.5,-226"/>
<polyline fill="none" stroke="black" points="1250.5,-226 1109.5,-226 "/>
<path fill="none" stroke="black" d="M1109.5,-226C1103.5,-226 1097.5,-220 1097.5,-214"/>
<polyline fill="none" stroke="black" points="1097.5,-214 1097.5,-150 "/>
<path fill="none" stroke="black" d="M1097.5,-150C1097.5,-144 1103.5,-138 1109.5,-138"/>
<text text-anchor="middle" x="1180" y="-209.4" font-family="Times Roman,serif" font-size="14.00">Hook</text>
<polyline fill="none" stroke="black" points="1097.5,-200 1262.5,-200 "/>
<text text-anchor="start" x="1105.5" y="-183.4" font-family="Times Roman,serif" font-size="14.00">number :string</text>
<text text-anchor="start" x="1105.5" y="-165.4" font-family="Times Roman,serif" font-size="14.00">created_at :datetime</text>
<text text-anchor="start" x="1105.5" y="-147.4" font-family="Times Roman,serif" font-size="14.00">updated_at :datetime</text>
</g>
<!-- Bike&#45;&gt;Hook -->
<g id="edge10" class="edge"><title>Bike&#45;&gt;Hook</title>
<path fill="none" stroke="#69a596" d="M1175.3,-318.253C1176.32,-288.625 1177.36,-258.601 1178.2,-234.306"/>
<ellipse fill="none" stroke="#69a596" cx="1175.15" cy="-322.624" rx="4" ry="4"/>
<ellipse fill="#69a596" stroke="#69a596" cx="1178.33" cy="-230.292" rx="4" ry="4"/>
</g>
<!-- Comment -->
<g id="node16" class="node"><title>Comment</title>
<polyline fill="none" stroke="black" points="1292,-93 1464,-93 "/>
<path fill="none" stroke="black" d="M1464,-93C1470,-93 1476,-99 1476,-105"/>
<polyline fill="none" stroke="black" points="1476,-105 1476,-259 "/>
<path fill="none" stroke="black" d="M1476,-259C1476,-265 1470,-271 1464,-271"/>
<polyline fill="none" stroke="black" points="1464,-271 1292,-271 "/>
<path fill="none" stroke="black" d="M1292,-271C1286,-271 1280,-265 1280,-259"/>
<polyline fill="none" stroke="black" points="1280,-259 1280,-105 "/>
<path fill="none" stroke="black" d="M1280,-105C1280,-99 1286,-93 1292,-93"/>
<text text-anchor="middle" x="1378" y="-254.4" font-family="Times Roman,serif" font-size="14.00">Comment</text>
<polyline fill="none" stroke="black" points="1280,-245 1476,-245 "/>
<text text-anchor="start" x="1288" y="-228.4" font-family="Times Roman,serif" font-size="14.00">commentable_type :string</text>
<text text-anchor="start" x="1288" y="-210.4" font-family="Times Roman,serif" font-size="14.00">title :string</text>
<text text-anchor="start" x="1288" y="-192.4" font-family="Times Roman,serif" font-size="14.00">body :text</text>
<text text-anchor="start" x="1288" y="-174.4" font-family="Times Roman,serif" font-size="14.00">subject :string</text>
<text text-anchor="start" x="1288" y="-156.4" font-family="Times Roman,serif" font-size="14.00">lft :integer</text>
<text text-anchor="start" x="1288" y="-138.4" font-family="Times Roman,serif" font-size="14.00">rgt :integer</text>
<text text-anchor="start" x="1288" y="-120.4" font-family="Times Roman,serif" font-size="14.00">created_at :datetime</text>
<text text-anchor="start" x="1288" y="-102.4" font-family="Times Roman,serif" font-size="14.00">updated_at :datetime</text>
</g>
<!-- Bike&#45;&gt;Comment -->
<g id="edge8" class="edge"><title>Bike&#45;&gt;Comment</title>
<path fill="none" stroke="#a6b0a1" d="M1191.83,-319.207C1197.15,-308.496 1203.77,-298.516 1212,-290 1231.05,-270.285 1246.91,-285.089 1271,-272 1271.09,-271.949 1271.19,-271.899 1271.28,-271.848"/>
<ellipse fill="none" stroke="#a6b0a1" cx="1190.03" cy="-323.099" rx="4.00002" ry="4.00002"/>
<polygon fill="#a6b0a1" stroke="#a6b0a1" points="1271.26,-271.858 1282.17,-270.773 1275.6,-269.365 1279.93,-266.872 1279.93,-266.872 1279.93,-266.872 1275.6,-269.365 1277.69,-262.972 1271.26,-271.858 1271.26,-271.858"/>
<text text-anchor="middle" x="1274" y="-295.4" font-family="Times Roman,serif" font-size="14.00">comment_threads</text>
</g>
<!-- Project::Youth -->
<g id="node6" class="node"><title>Project::Youth</title>
<polyline fill="none" stroke="black" points="215.5,-363 374.5,-363 "/>
<path fill="none" stroke="black" d="M374.5,-363C380.5,-363 386.5,-369 386.5,-375"/>
<polyline fill="none" stroke="black" points="386.5,-375 386.5,-511 "/>
<path fill="none" stroke="black" d="M386.5,-511C386.5,-517 380.5,-523 374.5,-523"/>
<polyline fill="none" stroke="black" points="374.5,-523 215.5,-523 "/>
<path fill="none" stroke="black" d="M215.5,-523C209.5,-523 203.5,-517 203.5,-511"/>
<polyline fill="none" stroke="black" points="203.5,-511 203.5,-375 "/>
<path fill="none" stroke="black" d="M203.5,-375C203.5,-369 209.5,-363 215.5,-363"/>
<text text-anchor="middle" x="295" y="-506.4" font-family="Times Roman,serif" font-size="14.00">Project::Youth</text>
<polyline fill="none" stroke="black" points="203.5,-497 386.5,-497 "/>
<text text-anchor="start" x="211.5" y="-480.4" font-family="Times Roman,serif" font-size="14.00">prog_type :string</text>
<text text-anchor="start" x="211.5" y="-462.4" font-family="Times Roman,serif" font-size="14.00">label :string</text>
<text text-anchor="start" x="211.5" y="-444.4" font-family="Times Roman,serif" font-size="14.00">created_at :datetime</text>
<text text-anchor="start" x="211.5" y="-426.4" font-family="Times Roman,serif" font-size="14.00">updated_at :datetime</text>
<text text-anchor="start" x="211.5" y="-408.4" font-family="Times Roman,serif" font-size="14.00">closed_at :datetime</text>
<text text-anchor="start" x="211.5" y="-390.4" font-family="Times Roman,serif" font-size="14.00">state :string</text>
<text text-anchor="start" x="211.5" y="-372.4" font-family="Times Roman,serif" font-size="14.00">completion_state :string</text>
</g>
<!-- Project::YouthDetail -->
<g id="node11" class="node"><title>Project::YouthDetail</title>
<polyline fill="none" stroke="black" points="189.5,-120 390.5,-120 "/>
<path fill="none" stroke="black" d="M390.5,-120C396.5,-120 402.5,-126 402.5,-132"/>
<polyline fill="none" stroke="black" points="402.5,-132 402.5,-232 "/>
<path fill="none" stroke="black" d="M402.5,-232C402.5,-238 396.5,-244 390.5,-244"/>
<polyline fill="none" stroke="black" points="390.5,-244 189.5,-244 "/>
<path fill="none" stroke="black" d="M189.5,-244C183.5,-244 177.5,-238 177.5,-232"/>
<polyline fill="none" stroke="black" points="177.5,-232 177.5,-132 "/>
<path fill="none" stroke="black" d="M177.5,-132C177.5,-126 183.5,-120 189.5,-120"/>
<text text-anchor="middle" x="290" y="-227.4" font-family="Times Roman,serif" font-size="14.00">Project::YouthDetail</text>
<polyline fill="none" stroke="black" points="177.5,-218 402.5,-218 "/>
<text text-anchor="start" x="185.5" y="-201.4" font-family="Times Roman,serif" font-size="14.00">proj_type :string</text>
<text text-anchor="start" x="185.5" y="-183.4" font-family="Times Roman,serif" font-size="14.00">state :string</text>
<text text-anchor="start" x="185.5" y="-165.4" font-family="Times Roman,serif" font-size="14.00">created_at :datetime</text>
<text text-anchor="start" x="185.5" y="-147.4" font-family="Times Roman,serif" font-size="14.00">updated_at :datetime</text>
<text text-anchor="start" x="185.5" y="-129.4" font-family="Times Roman,serif" font-size="14.00">inspection_access_code :string</text>
</g>
<!-- Project::Youth&#45;&gt;Project::YouthDetail -->
<g id="edge14" class="edge"><title>Project::Youth&#45;&gt;Project::YouthDetail</title>
<path fill="none" stroke="#a57e9b" d="M293.31,-354.762C292.671,-321.402 291.952,-283.912 291.349,-252.403"/>
<ellipse fill="none" stroke="#a57e9b" cx="293.389" cy="-358.918" rx="4" ry="4"/>
<ellipse fill="#a57e9b" stroke="#a57e9b" cx="291.266" cy="-248.105" rx="4" ry="4"/>
<text text-anchor="middle" x="312.5" y="-295.4" font-family="Times Roman,serif" font-size="14.00">detail</text>
</g>
<!-- Project::Scrap -->
<g id="node7" class="node"><title>Project::Scrap</title>
<polyline fill="none" stroke="black" points="611.5,-363 770.5,-363 "/>
<path fill="none" stroke="black" d="M770.5,-363C776.5,-363 782.5,-369 782.5,-375"/>
<polyline fill="none" stroke="black" points="782.5,-375 782.5,-511 "/>
<path fill="none" stroke="black" d="M782.5,-511C782.5,-517 776.5,-523 770.5,-523"/>
<polyline fill="none" stroke="black" points="770.5,-523 611.5,-523 "/>
<path fill="none" stroke="black" d="M611.5,-523C605.5,-523 599.5,-517 599.5,-511"/>
<polyline fill="none" stroke="black" points="599.5,-511 599.5,-375 "/>
<path fill="none" stroke="black" d="M599.5,-375C599.5,-369 605.5,-363 611.5,-363"/>
<text text-anchor="middle" x="691" y="-506.4" font-family="Times Roman,serif" font-size="14.00">Project::Scrap</text>
<polyline fill="none" stroke="black" points="599.5,-497 782.5,-497 "/>
<text text-anchor="start" x="607.5" y="-480.4" font-family="Times Roman,serif" font-size="14.00">prog_type :string</text>
<text text-anchor="start" x="607.5" y="-462.4" font-family="Times Roman,serif" font-size="14.00">label :string</text>
<text text-anchor="start" x="607.5" y="-444.4" font-family="Times Roman,serif" font-size="14.00">created_at :datetime</text>
<text text-anchor="start" x="607.5" y="-426.4" font-family="Times Roman,serif" font-size="14.00">updated_at :datetime</text>
<text text-anchor="start" x="607.5" y="-408.4" font-family="Times Roman,serif" font-size="14.00">closed_at :datetime</text>
<text text-anchor="start" x="607.5" y="-390.4" font-family="Times Roman,serif" font-size="14.00">state :string</text>
<text text-anchor="start" x="607.5" y="-372.4" font-family="Times Roman,serif" font-size="14.00">completion_state :string</text>
</g>
<!-- Project::ScrapDetail -->
<g id="node10" class="node"><title>Project::ScrapDetail</title>
<polyline fill="none" stroke="black" points="431.5,-120 572.5,-120 "/>
<path fill="none" stroke="black" d="M572.5,-120C578.5,-120 584.5,-126 584.5,-132"/>
<polyline fill="none" stroke="black" points="584.5,-132 584.5,-232 "/>
<path fill="none" stroke="black" d="M584.5,-232C584.5,-238 578.5,-244 572.5,-244"/>
<polyline fill="none" stroke="black" points="572.5,-244 431.5,-244 "/>
<path fill="none" stroke="black" d="M431.5,-244C425.5,-244 419.5,-238 419.5,-232"/>
<polyline fill="none" stroke="black" points="419.5,-232 419.5,-132 "/>
<path fill="none" stroke="black" d="M419.5,-132C419.5,-126 425.5,-120 431.5,-120"/>
<text text-anchor="middle" x="502" y="-227.4" font-family="Times Roman,serif" font-size="14.00">Project::ScrapDetail</text>
<polyline fill="none" stroke="black" points="419.5,-218 584.5,-218 "/>
<text text-anchor="start" x="427.5" y="-201.4" font-family="Times Roman,serif" font-size="14.00">proj_type :string</text>
<text text-anchor="start" x="427.5" y="-183.4" font-family="Times Roman,serif" font-size="14.00">state :string</text>
<text text-anchor="start" x="427.5" y="-165.4" font-family="Times Roman,serif" font-size="14.00">description :string</text>
<text text-anchor="start" x="427.5" y="-147.4" font-family="Times Roman,serif" font-size="14.00">created_at :datetime</text>
<text text-anchor="start" x="427.5" y="-129.4" font-family="Times Roman,serif" font-size="14.00">updated_at :datetime</text>
</g>
<!-- Project::Scrap&#45;&gt;Project::ScrapDetail -->
<g id="edge18" class="edge"><title>Project::Scrap&#45;&gt;Project::ScrapDetail</title>
<path fill="none" stroke="#542196" d="M628.097,-356.134C603.305,-321.898 575.235,-283.133 551.882,-250.885"/>
<ellipse fill="none" stroke="#542196" cx="630.663" cy="-359.678" rx="4.00002" ry="4.00002"/>
<ellipse fill="#542196" stroke="#542196" cx="549.319" cy="-247.346" rx="4.00002" ry="4.00002"/>
<text text-anchor="middle" x="610.5" y="-295.4" font-family="Times Roman,serif" font-size="14.00">detail</text>
</g>
<!-- Project::Eab -->
<g id="node8" class="node"><title>Project::Eab</title>
<polyline fill="none" stroke="black" points="866.5,-363 1025.5,-363 "/>
<path fill="none" stroke="black" d="M1025.5,-363C1031.5,-363 1037.5,-369 1037.5,-375"/>
<polyline fill="none" stroke="black" points="1037.5,-375 1037.5,-511 "/>
<path fill="none" stroke="black" d="M1037.5,-511C1037.5,-517 1031.5,-523 1025.5,-523"/>
<polyline fill="none" stroke="black" points="1025.5,-523 866.5,-523 "/>
<path fill="none" stroke="black" d="M866.5,-523C860.5,-523 854.5,-517 854.5,-511"/>
<polyline fill="none" stroke="black" points="854.5,-511 854.5,-375 "/>
<path fill="none" stroke="black" d="M854.5,-375C854.5,-369 860.5,-363 866.5,-363"/>
<text text-anchor="middle" x="946" y="-506.4" font-family="Times Roman,serif" font-size="14.00">Project::Eab</text>
<polyline fill="none" stroke="black" points="854.5,-497 1037.5,-497 "/>
<text text-anchor="start" x="862.5" y="-480.4" font-family="Times Roman,serif" font-size="14.00">prog_type :string</text>
<text text-anchor="start" x="862.5" y="-462.4" font-family="Times Roman,serif" font-size="14.00">label :string</text>
<text text-anchor="start" x="862.5" y="-444.4" font-family="Times Roman,serif" font-size="14.00">created_at :datetime</text>
<text text-anchor="start" x="862.5" y="-426.4" font-family="Times Roman,serif" font-size="14.00">updated_at :datetime</text>
<text text-anchor="start" x="862.5" y="-408.4" font-family="Times Roman,serif" font-size="14.00">closed_at :datetime</text>
<text text-anchor="start" x="862.5" y="-390.4" font-family="Times Roman,serif" font-size="14.00">state :string</text>
<text text-anchor="start" x="862.5" y="-372.4" font-family="Times Roman,serif" font-size="14.00">completion_state :string</text>
</g>
<!-- Project::EabDetail -->
<g id="node9" class="node"><title>Project::EabDetail</title>
<polyline fill="none" stroke="black" points="613.5,-111 814.5,-111 "/>
<path fill="none" stroke="black" d="M814.5,-111C820.5,-111 826.5,-117 826.5,-123"/>
<polyline fill="none" stroke="black" points="826.5,-123 826.5,-241 "/>
<path fill="none" stroke="black" d="M826.5,-241C826.5,-247 820.5,-253 814.5,-253"/>
<polyline fill="none" stroke="black" points="814.5,-253 613.5,-253 "/>
<path fill="none" stroke="black" d="M613.5,-253C607.5,-253 601.5,-247 601.5,-241"/>
<polyline fill="none" stroke="black" points="601.5,-241 601.5,-123 "/>
<path fill="none" stroke="black" d="M601.5,-123C601.5,-117 607.5,-111 613.5,-111"/>
<text text-anchor="middle" x="714" y="-236.4" font-family="Times Roman,serif" font-size="14.00">Project::EabDetail</text>
<polyline fill="none" stroke="black" points="601.5,-227 826.5,-227 "/>
<text text-anchor="start" x="609.5" y="-210.4" font-family="Times Roman,serif" font-size="14.00">proj_type :string</text>
<text text-anchor="start" x="609.5" y="-192.4" font-family="Times Roman,serif" font-size="14.00">state :string</text>
<text text-anchor="start" x="609.5" y="-174.4" font-family="Times Roman,serif" font-size="14.00">status_state :string</text>
<text text-anchor="start" x="609.5" y="-156.4" font-family="Times Roman,serif" font-size="14.00">created_at :datetime</text>
<text text-anchor="start" x="609.5" y="-138.4" font-family="Times Roman,serif" font-size="14.00">updated_at :datetime</text>
<text text-anchor="start" x="609.5" y="-120.4" font-family="Times Roman,serif" font-size="14.00">inspection_access_code :string</text>
</g>
<!-- Project::Eab&#45;&gt;Project::EabDetail -->
<g id="edge22" class="edge"><title>Project::Eab&#45;&gt;Project::EabDetail</title>
<path fill="none" stroke="#29b025" d="M869.287,-356.697C841.285,-325.195 809.819,-289.797 782.572,-259.143"/>
<ellipse fill="none" stroke="#29b025" cx="872.158" cy="-359.928" rx="4.00002" ry="4.00002"/>
<ellipse fill="#29b025" stroke="#29b025" cx="779.838" cy="-256.068" rx="4.00002" ry="4.00002"/>
<text text-anchor="middle" x="843.5" y="-295.4" font-family="Times Roman,serif" font-size="14.00">detail</text>
</g>
<!-- Project::ResponseSet -->
<g id="node36" class="node"><title>Project::ResponseSet</title>
<ellipse fill="none" stroke="black" cx="462" cy="-19" rx="113.844" ry="18.3848"/>
<text text-anchor="middle" x="462" y="-15.4" font-family="Times Roman,serif" font-size="14.00">Project::ResponseSet</text>
</g>
<!-- Project::EabDetail&#45;&gt;Project::ResponseSet -->
<g id="edge26" class="edge"><title>Project::EabDetail&#45;&gt;Project::ResponseSet</title>
<path fill="none" stroke="#55f131" d="M614.463,-106.388C607.273,-101.414 600.07,-96.571 593,-92 564.765,-73.7441 531.68,-55.3301 505.824,-41.5631"/>
<ellipse fill="none" stroke="#55f131" cx="617.779" cy="-108.7" rx="4.00002" ry="4.00002"/>
<polygon fill="#55f131" stroke="#55f131" points="505.487,-41.3852 498.751,-32.7323 501.067,-39.0477 496.647,-36.7103 496.647,-36.7103 496.647,-36.7103 501.067,-39.0477 494.544,-40.6883 505.487,-41.3852 505.487,-41.3852"/>
<text text-anchor="middle" x="600.5" y="-61.4" font-family="Times Roman,serif" font-size="14.00">inspections</text>
</g>
<!-- Project::YouthDetail&#45;&gt;Project::ResponseSet -->
<g id="edge32" class="edge"><title>Project::YouthDetail&#45;&gt;Project::ResponseSet</title>
<path fill="none" stroke="#8452ad" d="M361.395,-114.34C387.504,-89.5984 415.462,-63.1032 435.262,-44.3391"/>
<ellipse fill="none" stroke="#8452ad" cx="358.42" cy="-117.16" rx="4.00002" ry="4.00002"/>
<polygon fill="#8452ad" stroke="#8452ad" points="435.434,-44.1762 445.788,-40.5638 439.063,-40.7368 442.692,-37.2975 442.692,-37.2975 442.692,-37.2975 439.063,-40.7368 439.597,-34.0312 435.434,-44.1762 435.434,-44.1762"/>
<text text-anchor="middle" x="459.5" y="-61.4" font-family="Times Roman,serif" font-size="14.00">inspections</text>
</g>
<!-- ProjectDetail -->
<g id="node12" class="node"><title>ProjectDetail</title>
<ellipse fill="none" stroke="black" cx="493" cy="-443" rx="74.9533" ry="18.3848"/>
<text text-anchor="middle" x="493" y="-439.4" font-family="Times Roman,serif" font-size="14.00">ProjectDetail</text>
</g>
<!-- ProjectDetail&#45;&gt;Project::EabDetail -->
<g id="edge28" class="edge"><title>ProjectDetail&#45;&gt;Project::EabDetail</title>
<path fill="none" stroke="black" d="M502.497,-424.407C518.315,-394.384 552.089,-334.138 590,-290 600.882,-277.331 613.265,-264.812 625.896,-253.037"/>
</g>
<!-- ProjectDetail&#45;&gt;Project::ScrapDetail -->
<g id="edge30" class="edge"><title>ProjectDetail&#45;&gt;Project::ScrapDetail</title>
<path fill="none" stroke="black" d="M493.647,-424.23C494.927,-387.119 497.832,-302.886 499.854,-244.244"/>
</g>
<!-- ProjectDetail&#45;&gt;Project::YouthDetail -->
<g id="edge34" class="edge"><title>ProjectDetail&#45;&gt;Project::YouthDetail</title>
<path fill="none" stroke="black" d="M489.345,-424.41C482.617,-393.862 465.948,-332.229 434,-290 432.674,-288.248 404.705,-267.179 373.765,-244.109"/>
</g>
<!-- ProjectDetailVersion -->
<g id="node15" class="node"><title>ProjectDetailVersion</title>
<polyline fill="none" stroke="black" points="11.5,-111 148.5,-111 "/>
<path fill="none" stroke="black" d="M148.5,-111C154.5,-111 160.5,-117 160.5,-123"/>
<polyline fill="none" stroke="black" points="160.5,-123 160.5,-241 "/>
<path fill="none" stroke="black" d="M160.5,-241C160.5,-247 154.5,-253 148.5,-253"/>
<polyline fill="none" stroke="black" points="148.5,-253 11.5,-253 "/>
<path fill="none" stroke="black" d="M11.5,-253C5.5,-253 -0.5,-247 -0.5,-241"/>
<polyline fill="none" stroke="black" points="-0.5,-241 -0.5,-123 "/>
<path fill="none" stroke="black" d="M-0.5,-123C-0.5,-117 5.5,-111 11.5,-111"/>
<text text-anchor="middle" x="80" y="-236.4" font-family="Times Roman,serif" font-size="14.00">ProjectDetailVersion</text>
<polyline fill="none" stroke="black" points="-0.5,-227 160.5,-227 "/>
<text text-anchor="start" x="7.5" y="-210.4" font-family="Times Roman,serif" font-size="14.00">item_type :string</text>
<text text-anchor="start" x="7.5" y="-192.4" font-family="Times Roman,serif" font-size="14.00">event :string</text>
<text text-anchor="start" x="7.5" y="-174.4" font-family="Times Roman,serif" font-size="14.00">whodunnit :string</text>
<text text-anchor="start" x="7.5" y="-156.4" font-family="Times Roman,serif" font-size="14.00">object :text</text>
<text text-anchor="start" x="7.5" y="-138.4" font-family="Times Roman,serif" font-size="14.00">created_at :datetime</text>
<text text-anchor="start" x="7.5" y="-120.4" font-family="Times Roman,serif" font-size="14.00">state :string</text>
</g>
<!-- ProjectDetail&#45;&gt;ProjectDetailVersion -->
<g id="edge36" class="edge"><title>ProjectDetail&#45;&gt;ProjectDetailVersion</title>
<path fill="none" stroke="#2207aa" d="M475.534,-417.63C457.365,-392.427 427.123,-353.65 395,-326 383.359,-315.98 350.542,-294.942 336,-290 265.318,-265.978 236.247,-304.416 169,-272 161.832,-268.545 154.911,-264.266 148.311,-259.467"/>
<ellipse fill="none" stroke="#2207aa" cx="478.008" cy="-421.101" rx="4.00002" ry="4.00002"/>
<polygon fill="#2207aa" stroke="#2207aa" points="148.035,-259.253 142.883,-249.573 144.081,-256.192 140.128,-253.131 140.128,-253.131 140.128,-253.131 144.081,-256.192 137.373,-256.689 148.035,-259.253 148.035,-259.253"/>
<text text-anchor="middle" x="399" y="-295.4" font-family="Times Roman,serif" font-size="14.00">versions</text>
</g>
<!-- User -->
<g id="node14" class="node"><title>User</title>
<polyline fill="none" stroke="black" points="1233,-1015 1463,-1015 "/>
<path fill="none" stroke="black" d="M1463,-1015C1469,-1015 1475,-1021 1475,-1027"/>
<polyline fill="none" stroke="black" points="1475,-1027 1475,-1235 "/>
<path fill="none" stroke="black" d="M1475,-1235C1475,-1241 1469,-1247 1463,-1247"/>
<polyline fill="none" stroke="black" points="1463,-1247 1233,-1247 "/>
<path fill="none" stroke="black" d="M1233,-1247C1227,-1247 1221,-1241 1221,-1235"/>
<polyline fill="none" stroke="black" points="1221,-1235 1221,-1027 "/>
<path fill="none" stroke="black" d="M1221,-1027C1221,-1021 1227,-1015 1233,-1015"/>
<text text-anchor="middle" x="1348" y="-1230.4" font-family="Times Roman,serif" font-size="14.00">User</text>
<polyline fill="none" stroke="black" points="1221,-1221 1475,-1221 "/>
<text text-anchor="start" x="1229" y="-1204.4" font-family="Times Roman,serif" font-size="14.00">email :string</text>
<text text-anchor="start" x="1229" y="-1186.4" font-family="Times Roman,serif" font-size="14.00">encrypted_password :string</text>
<text text-anchor="start" x="1229" y="-1168.4" font-family="Times Roman,serif" font-size="14.00">reset_password_token :string</text>
<text text-anchor="start" x="1229" y="-1150.4" font-family="Times Roman,serif" font-size="14.00">reset_password_sent_at :datetime</text>
<text text-anchor="start" x="1229" y="-1132.4" font-family="Times Roman,serif" font-size="14.00">remember_created_at :datetime</text>
<text text-anchor="start" x="1229" y="-1114.4" font-family="Times Roman,serif" font-size="14.00">current_sign_in_at :datetime</text>
<text text-anchor="start" x="1229" y="-1096.4" font-family="Times Roman,serif" font-size="14.00">last_sign_in_at :datetime</text>
<text text-anchor="start" x="1229" y="-1078.4" font-family="Times Roman,serif" font-size="14.00">current_sign_in_ip :string</text>
<text text-anchor="start" x="1229" y="-1060.4" font-family="Times Roman,serif" font-size="14.00">last_sign_in_ip :string</text>
<text text-anchor="start" x="1229" y="-1042.4" font-family="Times Roman,serif" font-size="14.00">created_at :datetime</text>
<text text-anchor="start" x="1229" y="-1024.4" font-family="Times Roman,serif" font-size="14.00">updated_at :datetime</text>
</g>
<!-- Comment&#45;&gt;Comment -->
<g id="edge40" class="edge"><title>Comment&#45;&gt;Comment</title>
<path fill="none" stroke="#b7cf1f" d="M1483.93,-196.972C1490.23,-193.396 1494,-188.406 1494,-182 1494,-176.139 1490.84,-171.463 1485.48,-167.971"/>
<ellipse fill="none" stroke="#b7cf1f" cx="1479.84" cy="-198.722" rx="4.00001" ry="4.00001"/>
<polygon fill="#b7cf1f" stroke="#b7cf1f" points="1485.26,-167.869 1478.04,-159.612 1480.71,-165.786 1476.17,-163.703 1476.17,-163.703 1476.17,-163.703 1480.71,-165.786 1474.29,-167.794 1485.26,-167.869 1485.26,-167.869"/>
<text text-anchor="middle" x="1521.5" y="-178.4" font-family="Times Roman,serif" font-size="14.00">children</text>
</g>
<!-- Project&#45;&gt;Bike -->
<g id="edge42" class="edge"><title>Project&#45;&gt;Bike</title>
<path fill="none" stroke="#05afb6" d="M1091.05,-591.567C1095.46,-583.369 1099.99,-574.959 1104.53,-566.512"/>
<ellipse fill="none" stroke="#05afb6" cx="1089.07" cy="-595.249" rx="4.00002" ry="4.00002"/>
<ellipse fill="#05afb6" stroke="#05afb6" cx="1106.46" cy="-562.934" rx="4.00002" ry="4.00002"/>
</g>
<!-- Project&#45;&gt;Project::Youth -->
<g id="edge16" class="edge"><title>Project&#45;&gt;Project::Youth</title>
<path fill="none" stroke="black" d="M952.357,-601.632C949.593,-600.323 946.806,-599.107 944,-598 722.264,-510.499 625.212,-660.378 409,-560 390.093,-551.222 372.646,-537.841 357.379,-523.222"/>
</g>
<!-- Project&#45;&gt;Project::Scrap -->
<g id="edge20" class="edge"><title>Project&#45;&gt;Project::Scrap</title>
<path fill="none" stroke="black" d="M952.409,-603.088C949.609,-601.325 946.803,-599.625 944,-598 903.584,-574.571 886.81,-582.734 846,-560 824.646,-548.105 802.955,-533.563 782.832,-518.828"/>
</g>
<!-- Project&#45;&gt;Project::Eab -->
<g id="edge24" class="edge"><title>Project&#45;&gt;Project::Eab</title>
<path fill="none" stroke="black" d="M1010.68,-598.772C1000.53,-574.318 989.371,-547.445 979.223,-523.006"/>
</g>
<!-- Project&#45;&gt;Comment -->
<g id="edge46" class="edge"><title>Project&#45;&gt;Comment</title>
<path fill="none" stroke="#2c9a85" d="M1143.28,-646.499C1187.12,-627.566 1235.89,-599.48 1268,-560 1302.81,-517.196 1337.47,-378.029 1358.32,-281.075"/>
<ellipse fill="none" stroke="#2c9a85" cx="1139.41" cy="-648.136" rx="4.00002" ry="4.00002"/>
<polygon fill="#2c9a85" stroke="#2c9a85" points="1358.33,-281.02 1364.82,-272.18 1359.37,-276.13 1360.42,-271.24 1360.42,-271.24 1360.42,-271.24 1359.37,-276.13 1356.02,-270.301 1358.33,-281.02 1358.33,-281.02"/>
<text text-anchor="middle" x="1409" y="-439.4" font-family="Times Roman,serif" font-size="14.00">comment_threads</text>
</g>
<!-- Detail -->
<g id="node47" class="node"><title>Detail</title>
<ellipse fill="none" stroke="black" cx="1533" cy="-443" rx="41.0122" ry="18.3848"/>
<text text-anchor="middle" x="1533" y="-439.4" font-family="Times Roman,serif" font-size="14.00">Detail</text>
</g>
<!-- Project&#45;&gt;Detail -->
<g id="edge44" class="edge"><title>Project&#45;&gt;Detail</title>
<path fill="none" stroke="#11b391" d="M1143.88,-661.633C1255.64,-640.505 1427.65,-602.368 1478,-560 1505.7,-536.689 1520.33,-496.3 1527.36,-469.611"/>
<ellipse fill="none" stroke="#11b391" cx="1139.87" cy="-662.386" rx="4.00001" ry="4.00001"/>
<ellipse fill="#11b391" stroke="#11b391" cx="1528.34" cy="-465.684" rx="4.00001" ry="4.00001"/>
</g>
<!-- SurveyorUtil -->
<g id="node18" class="node"><title>SurveyorUtil</title>
<polygon fill="none" stroke="black" stroke-dasharray="1,5" points="1597,-1149 1493,-1149 1493,-1113 1597,-1113 1597,-1149"/>
<text text-anchor="middle" x="1545" y="-1127.4" font-family="Times Roman,serif" font-size="14.00">SurveyorUtil</text>
</g>
<!-- PaperTrailContext -->
<g id="node19" class="node"><title>PaperTrailContext</title>
<polygon fill="none" stroke="black" stroke-dasharray="1,5" points="1755,-1149 1615,-1149 1615,-1113 1755,-1113 1755,-1149"/>
<text text-anchor="middle" x="1685" y="-1127.4" font-family="Times Roman,serif" font-size="14.00">PaperTrailContext</text>
</g>
<!-- ProjectCategory -->
<g id="node20" class="node"><title>ProjectCategory</title>
<polyline fill="none" stroke="black" points="935,-1060 1087,-1060 "/>
<path fill="none" stroke="black" d="M1087,-1060C1093,-1060 1099,-1066 1099,-1072"/>
<polyline fill="none" stroke="black" points="1099,-1072 1099,-1190 "/>
<path fill="none" stroke="black" d="M1099,-1190C1099,-1196 1093,-1202 1087,-1202"/>
<polyline fill="none" stroke="black" points="1087,-1202 935,-1202 "/>
<path fill="none" stroke="black" d="M935,-1202C929,-1202 923,-1196 923,-1190"/>
<polyline fill="none" stroke="black" points="923,-1190 923,-1072 "/>
<path fill="none" stroke="black" d="M923,-1072C923,-1066 929,-1060 935,-1060"/>
<text text-anchor="middle" x="1011" y="-1185.4" font-family="Times Roman,serif" font-size="14.00">ProjectCategory</text>
<polyline fill="none" stroke="black" points="923,-1176 1099,-1176 "/>
<text text-anchor="start" x="931" y="-1159.4" font-family="Times Roman,serif" font-size="14.00">name :string</text>
<text text-anchor="start" x="931" y="-1141.4" font-family="Times Roman,serif" font-size="14.00">project_type :string</text>
<text text-anchor="start" x="931" y="-1123.4" font-family="Times Roman,serif" font-size="14.00">max_programs :integer</text>
<text text-anchor="start" x="931" y="-1105.4" font-family="Times Roman,serif" font-size="14.00">slug :string</text>
<text text-anchor="start" x="931" y="-1087.4" font-family="Times Roman,serif" font-size="14.00">created_at :datetime</text>
<text text-anchor="start" x="931" y="-1069.4" font-family="Times Roman,serif" font-size="14.00">updated_at :datetime</text>
</g>
<!-- ProjectCategory&#45;&gt;Program -->
<g id="edge50" class="edge"><title>ProjectCategory&#45;&gt;Program</title>
<path fill="none" stroke="#074dec" d="M985.308,-1052.26C978.252,-1030.63 970.549,-1007.02 963.306,-984.82"/>
<ellipse fill="none" stroke="#074dec" cx="986.552" cy="-1056.07" rx="4.00001" ry="4.00001"/>
<polygon fill="#074dec" stroke="#074dec" points="963.226,-984.576 964.402,-973.673 961.675,-979.823 960.124,-975.069 960.124,-975.069 960.124,-975.069 961.675,-979.823 955.846,-976.465 963.226,-984.576 963.226,-984.576"/>
</g>
<!-- ProjectCategory&#45;&gt;Project -->
<g id="edge48" class="edge"><title>ProjectCategory&#45;&gt;Project</title>
<path fill="none" stroke="#047b15" d="M1018.58,-1051.54C1020.78,-1027.3 1023.11,-1000.57 1025,-976 1030.35,-906.606 1035.33,-828.007 1038.85,-769.105"/>
<ellipse fill="none" stroke="#047b15" cx="1018.2" cy="-1055.67" rx="4" ry="4"/>
<polygon fill="#047b15" stroke="#047b15" points="1038.85,-769.068 1043.94,-759.352 1039.15,-764.076 1039.45,-759.085 1039.45,-759.085 1039.45,-759.085 1039.15,-764.076 1034.95,-758.818 1038.85,-769.068 1038.85,-769.068"/>
</g>
<!-- Version -->
<g id="node42" class="node"><title>Version</title>
<ellipse fill="none" stroke="black" cx="80" cy="-443" rx="48.0833" ry="18.3848"/>
<text text-anchor="middle" x="80" y="-439.4" font-family="Times Roman,serif" font-size="14.00">Version</text>
</g>
<!-- Version&#45;&gt;ProjectDetailVersion -->
<g id="edge38" class="edge"><title>Version&#45;&gt;ProjectDetailVersion</title>
<path fill="none" stroke="black" d="M80,-424.23C80,-388.93 80,-310.998 80,-253.007"/>
</g>
</g>
</svg>
