<?xml version="1.0" encoding="UTF-8" standalone="no"?>
<!DOCTYPE svg PUBLIC "-//W3C//DTD SVG 1.1//EN"
 "http://www.w3.org/Graphics/SVG/1.1/DTD/svg11.dtd">
<!-- Generated by graphviz version 2.26.3 (20100126.1600)
 -->
<!-- Title: models_diagram Pages: 1 -->
<svg width="724pt" height="386pt"
 viewBox="0.00 0.00 724.00 386.00" xmlns="http://www.w3.org/2000/svg" xmlns:xlink="http://www.w3.org/1999/xlink">
<g id="graph1" class="graph" transform="scale(1 1) rotate(0) translate(4 382)">
<title>models_diagram</title>
<polygon fill="white" stroke="white" points="-4,5 -4,-382 721,-382 721,5 -4,5"/>
<!-- _diagram_info -->
<g id="node1" class="node"><title>_diagram_info</title>
<text text-anchor="start" x="8" y="-291.8" font-family="Times Roman,serif" font-size="13.00">Models diagram</text>
<text text-anchor="start" x="8" y="-274.8" font-family="Times Roman,serif" font-size="13.00">Date: Mar 02 2012 &#45; 23:47</text>
<text text-anchor="start" x="8" y="-257.8" font-family="Times Roman,serif" font-size="13.00">Migration version: 20120303031743</text>
<text text-anchor="start" x="8" y="-240.8" font-family="Times Roman,serif" font-size="13.00">Generated by RailRoady 1.0.4</text>
<text text-anchor="start" x="8" y="-223.8" font-family="Times Roman,serif" font-size="13.00">http://railroady.prestonlee.com</text>
</g>
<!-- Bike -->
<g id="node2" class="node"><title>Bike</title>
<polyline fill="none" stroke="black" points="279.5,-154 432.5,-154 "/>
<path fill="none" stroke="black" d="M432.5,-154C438.5,-154 444.5,-160 444.5,-166"/>
<polyline fill="none" stroke="black" points="444.5,-166 444.5,-356 "/>
<path fill="none" stroke="black" d="M444.5,-356C444.5,-362 438.5,-368 432.5,-368"/>
<polyline fill="none" stroke="black" points="432.5,-368 279.5,-368 "/>
<path fill="none" stroke="black" d="M279.5,-368C273.5,-368 267.5,-362 267.5,-356"/>
<polyline fill="none" stroke="black" points="267.5,-356 267.5,-166 "/>
<path fill="none" stroke="black" d="M267.5,-166C267.5,-160 273.5,-154 279.5,-154"/>
<text text-anchor="middle" x="356" y="-351.4" font-family="Times Roman,serif" font-size="14.00">Bike</text>
<polyline fill="none" stroke="black" points="267.5,-342 444.5,-342 "/>
<text text-anchor="start" x="275.5" y="-325.4" font-family="Times Roman,serif" font-size="14.00">color :string</text>
<text text-anchor="start" x="275.5" y="-307.4" font-family="Times Roman,serif" font-size="14.00">value :float</text>
<text text-anchor="start" x="275.5" y="-289.4" font-family="Times Roman,serif" font-size="14.00">seat_tube_height :float</text>
<text text-anchor="start" x="275.5" y="-271.4" font-family="Times Roman,serif" font-size="14.00">top_tube_length :float</text>
<text text-anchor="start" x="275.5" y="-253.4" font-family="Times Roman,serif" font-size="14.00">created_at :datetime</text>
<text text-anchor="start" x="275.5" y="-235.4" font-family="Times Roman,serif" font-size="14.00">updated_at :datetime</text>
<text text-anchor="start" x="275.5" y="-217.4" font-family="Times Roman,serif" font-size="14.00">mfg :string</text>
<text text-anchor="start" x="275.5" y="-199.4" font-family="Times Roman,serif" font-size="14.00">model :string</text>
<text text-anchor="start" x="275.5" y="-181.4" font-family="Times Roman,serif" font-size="14.00">number :integer</text>
<text text-anchor="start" x="275.5" y="-163.4" font-family="Times Roman,serif" font-size="14.00">hook_number :integer</text>
</g>
<!-- Hook -->
<g id="node3" class="node"><title>Hook</title>
<polyline fill="none" stroke="black" points="285.5,-1 426.5,-1 "/>
<path fill="none" stroke="black" d="M426.5,-1C432.5,-1 438.5,-7 438.5,-13"/>
<polyline fill="none" stroke="black" points="438.5,-13 438.5,-95 "/>
<path fill="none" stroke="black" d="M438.5,-95C438.5,-101 432.5,-107 426.5,-107"/>
<polyline fill="none" stroke="black" points="426.5,-107 285.5,-107 "/>
<path fill="none" stroke="black" d="M285.5,-107C279.5,-107 273.5,-101 273.5,-95"/>
<polyline fill="none" stroke="black" points="273.5,-95 273.5,-13 "/>
<path fill="none" stroke="black" d="M273.5,-13C273.5,-7 279.5,-1 285.5,-1"/>
<text text-anchor="middle" x="356" y="-90.4" font-family="Times Roman,serif" font-size="14.00">Hook</text>
<polyline fill="none" stroke="black" points="273.5,-81 438.5,-81 "/>
<text text-anchor="start" x="281.5" y="-64.4" font-family="Times Roman,serif" font-size="14.00">number :integer</text>
<text text-anchor="start" x="281.5" y="-46.4" font-family="Times Roman,serif" font-size="14.00">created_at :datetime</text>
<text text-anchor="start" x="281.5" y="-28.4" font-family="Times Roman,serif" font-size="14.00">updated_at :datetime</text>
<text text-anchor="start" x="281.5" y="-10.4" font-family="Times Roman,serif" font-size="14.00">bike_number :integer</text>
</g>
<!-- Bike&#45;&gt;Hook -->
<g id="edge2" class="edge"><title>Bike&#45;&gt;Hook</title>
<path fill="none" stroke="black" d="M356,-145.488C356,-135.119 356,-124.913 356,-115.294"/>
<ellipse fill="none" stroke="black" cx="356" cy="-149.862" rx="4" ry="4"/>
<ellipse fill="black" stroke="black" cx="356" cy="-111.003" rx="4" ry="4"/>
</g>
<!-- User -->
<g id="node4" class="node"><title>User</title>
<polyline fill="none" stroke="black" points="474,-145 704,-145 "/>
<path fill="none" stroke="black" d="M704,-145C710,-145 716,-151 716,-157"/>
<polyline fill="none" stroke="black" points="716,-157 716,-365 "/>
<path fill="none" stroke="black" d="M716,-365C716,-371 710,-377 704,-377"/>
<polyline fill="none" stroke="black" points="704,-377 474,-377 "/>
<path fill="none" stroke="black" d="M474,-377C468,-377 462,-371 462,-365"/>
<polyline fill="none" stroke="black" points="462,-365 462,-157 "/>
<path fill="none" stroke="black" d="M462,-157C462,-151 468,-145 474,-145"/>
<text text-anchor="middle" x="589" y="-360.4" font-family="Times Roman,serif" font-size="14.00">User</text>
<polyline fill="none" stroke="black" points="462,-351 716,-351 "/>
<text text-anchor="start" x="470" y="-334.4" font-family="Times Roman,serif" font-size="14.00">email :string</text>
<text text-anchor="start" x="470" y="-316.4" font-family="Times Roman,serif" font-size="14.00">encrypted_password :string</text>
<text text-anchor="start" x="470" y="-298.4" font-family="Times Roman,serif" font-size="14.00">reset_password_token :string</text>
<text text-anchor="start" x="470" y="-280.4" font-family="Times Roman,serif" font-size="14.00">reset_password_sent_at :datetime</text>
<text text-anchor="start" x="470" y="-262.4" font-family="Times Roman,serif" font-size="14.00">remember_created_at :datetime</text>
<text text-anchor="start" x="470" y="-244.4" font-family="Times Roman,serif" font-size="14.00">current_sign_in_at :datetime</text>
<text text-anchor="start" x="470" y="-226.4" font-family="Times Roman,serif" font-size="14.00">last_sign_in_at :datetime</text>
<text text-anchor="start" x="470" y="-208.4" font-family="Times Roman,serif" font-size="14.00">current_sign_in_ip :string</text>
<text text-anchor="start" x="470" y="-190.4" font-family="Times Roman,serif" font-size="14.00">last_sign_in_ip :string</text>
<text text-anchor="start" x="470" y="-172.4" font-family="Times Roman,serif" font-size="14.00">created_at :datetime</text>
<text text-anchor="start" x="470" y="-154.4" font-family="Times Roman,serif" font-size="14.00">updated_at :datetime</text>
</g>
</g>
</svg>
