<?xml version="1.0" encoding="UTF-8" standalone="no"?>
<!DOCTYPE svg PUBLIC "-//W3C//DTD SVG 1.1//EN"
 "http://www.w3.org/Graphics/SVG/1.1/DTD/svg11.dtd">
<!-- Generated by graphviz version 2.26.3 (20100126.1600)
 -->
<!-- Title: models_diagram Pages: 1 -->
<svg width="853pt" height="1110pt"
 viewBox="0.00 0.00 853.00 1110.00" xmlns="http://www.w3.org/2000/svg" xmlns:xlink="http://www.w3.org/1999/xlink">
<g id="graph1" class="graph" transform="scale(1 1) rotate(0) translate(4 1106)">
<title>models_diagram</title>
<polygon fill="white" stroke="white" points="-4,5 -4,-1106 850,-1106 850,5 -4,5"/>
<!-- _diagram_info -->
<g id="node1" class="node"><title>_diagram_info</title>
<text text-anchor="start" x="8" y="-1015.8" font-family="Times Roman,serif" font-size="13.00">Models diagram</text>
<text text-anchor="start" x="8" y="-998.8" font-family="Times Roman,serif" font-size="13.00">Date: Mar 27 2012 &#45; 02:07</text>
<text text-anchor="start" x="8" y="-981.8" font-family="Times Roman,serif" font-size="13.00">Migration version: 20120321122710</text>
<text text-anchor="start" x="8" y="-964.8" font-family="Times Roman,serif" font-size="13.00">Generated by RailRoady 1.0.4</text>
<text text-anchor="start" x="8" y="-947.8" font-family="Times Roman,serif" font-size="13.00">http://railroady.prestonlee.com</text>
</g>
<!-- Program -->
<g id="node2" class="node"><title>Program</title>
<polyline fill="none" stroke="black" points="208.5,-669 349.5,-669 "/>
<path fill="none" stroke="black" d="M349.5,-669C355.5,-669 361.5,-675 361.5,-681"/>
<polyline fill="none" stroke="black" points="361.5,-681 361.5,-817 "/>
<path fill="none" stroke="black" d="M361.5,-817C361.5,-823 355.5,-829 349.5,-829"/>
<polyline fill="none" stroke="black" points="349.5,-829 208.5,-829 "/>
<path fill="none" stroke="black" d="M208.5,-829C202.5,-829 196.5,-823 196.5,-817"/>
<polyline fill="none" stroke="black" points="196.5,-817 196.5,-681 "/>
<path fill="none" stroke="black" d="M196.5,-681C196.5,-675 202.5,-669 208.5,-669"/>
<text text-anchor="middle" x="279" y="-812.4" font-family="Times Roman,serif" font-size="14.00">Program</text>
<polyline fill="none" stroke="black" points="196.5,-803 361.5,-803 "/>
<text text-anchor="start" x="204.5" y="-786.4" font-family="Times Roman,serif" font-size="14.00">title :string</text>
<text text-anchor="start" x="204.5" y="-768.4" font-family="Times Roman,serif" font-size="14.00">created_at :datetime</text>
<text text-anchor="start" x="204.5" y="-750.4" font-family="Times Roman,serif" font-size="14.00">updated_at :datetime</text>
<text text-anchor="start" x="204.5" y="-732.4" font-family="Times Roman,serif" font-size="14.00">cosed_at :datetime</text>
<text text-anchor="start" x="204.5" y="-714.4" font-family="Times Roman,serif" font-size="14.00">slug :string</text>
<text text-anchor="start" x="204.5" y="-696.4" font-family="Times Roman,serif" font-size="14.00">max_open :integer</text>
<text text-anchor="start" x="204.5" y="-678.4" font-family="Times Roman,serif" font-size="14.00">max_total :integer</text>
</g>
<!-- Project -->
<g id="node12" class="node"><title>Project</title>
<polyline fill="none" stroke="black" points="311.5,-489 466.5,-489 "/>
<path fill="none" stroke="black" d="M466.5,-489C472.5,-489 478.5,-495 478.5,-501"/>
<polyline fill="none" stroke="black" points="478.5,-501 478.5,-601 "/>
<path fill="none" stroke="black" d="M478.5,-601C478.5,-607 472.5,-613 466.5,-613"/>
<polyline fill="none" stroke="black" points="466.5,-613 311.5,-613 "/>
<path fill="none" stroke="black" d="M311.5,-613C305.5,-613 299.5,-607 299.5,-601"/>
<polyline fill="none" stroke="black" points="299.5,-601 299.5,-501 "/>
<path fill="none" stroke="black" d="M299.5,-501C299.5,-495 305.5,-489 311.5,-489"/>
<text text-anchor="middle" x="389" y="-596.4" font-family="Times Roman,serif" font-size="14.00">Project</text>
<polyline fill="none" stroke="black" points="299.5,-587 478.5,-587 "/>
<text text-anchor="start" x="307.5" y="-570.4" font-family="Times Roman,serif" font-size="14.00">projectable_type :string</text>
<text text-anchor="start" x="307.5" y="-552.4" font-family="Times Roman,serif" font-size="14.00">label :string</text>
<text text-anchor="start" x="307.5" y="-534.4" font-family="Times Roman,serif" font-size="14.00">created_at :datetime</text>
<text text-anchor="start" x="307.5" y="-516.4" font-family="Times Roman,serif" font-size="14.00">updated_at :datetime</text>
<text text-anchor="start" x="307.5" y="-498.4" font-family="Times Roman,serif" font-size="14.00">closed_at :datetime</text>
</g>
<!-- Program&#45;&gt;Project -->
<g id="edge4" class="edge"><title>Program&#45;&gt;Project</title>
<path fill="none" stroke="black" d="M327.711,-661.32C334.976,-648.244 342.388,-634.901 349.434,-622.219"/>
<ellipse fill="none" stroke="black" cx="325.525" cy="-665.255" rx="4.00002" ry="4.00002"/>
<polygon fill="black" stroke="black" points="349.635,-621.857 358.425,-615.301 352.063,-617.486 354.492,-613.115 354.492,-613.115 354.492,-613.115 352.063,-617.486 350.558,-610.93 349.635,-621.857 349.635,-621.857"/>
</g>
<!-- FriendlyId::Slug -->
<g id="node15" class="node"><title>FriendlyId::Slug</title>
<ellipse fill="none" stroke="black" cx="195" cy="-551" rx="86.9741" ry="18.3848"/>
<text text-anchor="middle" x="195" y="-547.4" font-family="Times Roman,serif" font-size="14.00">FriendlyId::Slug</text>
</g>
<!-- Program&#45;&gt;FriendlyId::Slug -->
<g id="edge2" class="edge"><title>Program&#45;&gt;FriendlyId::Slug</title>
<path fill="none" stroke="black" d="M241.674,-661.018C229.131,-631.451 216.024,-600.557 206.905,-579.061"/>
<ellipse fill="none" stroke="black" cx="243.393" cy="-665.069" rx="4.00001" ry="4.00001"/>
<polygon fill="black" stroke="black" points="206.796,-578.804 207.033,-567.841 204.843,-574.201 202.89,-569.598 202.89,-569.598 202.89,-569.598 204.843,-574.201 198.747,-571.356 206.796,-578.804 206.796,-578.804"/>
<text text-anchor="middle" x="254.5" y="-637.4" font-family="Times Roman,serif" font-size="14.00">slugs</text>
</g>
<!-- Bike -->
<g id="node3" class="node"><title>Bike</title>
<polyline fill="none" stroke="black" points="113.5,-235 266.5,-235 "/>
<path fill="none" stroke="black" d="M266.5,-235C272.5,-235 278.5,-241 278.5,-247"/>
<polyline fill="none" stroke="black" points="278.5,-247 278.5,-437 "/>
<path fill="none" stroke="black" d="M278.5,-437C278.5,-443 272.5,-449 266.5,-449"/>
<polyline fill="none" stroke="black" points="266.5,-449 113.5,-449 "/>
<path fill="none" stroke="black" d="M113.5,-449C107.5,-449 101.5,-443 101.5,-437"/>
<polyline fill="none" stroke="black" points="101.5,-437 101.5,-247 "/>
<path fill="none" stroke="black" d="M101.5,-247C101.5,-241 107.5,-235 113.5,-235"/>
<text text-anchor="middle" x="190" y="-432.4" font-family="Times Roman,serif" font-size="14.00">Bike</text>
<polyline fill="none" stroke="black" points="101.5,-423 278.5,-423 "/>
<text text-anchor="start" x="109.5" y="-406.4" font-family="Times Roman,serif" font-size="14.00">color :string</text>
<text text-anchor="start" x="109.5" y="-388.4" font-family="Times Roman,serif" font-size="14.00">value :float</text>
<text text-anchor="start" x="109.5" y="-370.4" font-family="Times Roman,serif" font-size="14.00">seat_tube_height :float</text>
<text text-anchor="start" x="109.5" y="-352.4" font-family="Times Roman,serif" font-size="14.00">top_tube_length :float</text>
<text text-anchor="start" x="109.5" y="-334.4" font-family="Times Roman,serif" font-size="14.00">created_at :datetime</text>
<text text-anchor="start" x="109.5" y="-316.4" font-family="Times Roman,serif" font-size="14.00">updated_at :datetime</text>
<text text-anchor="start" x="109.5" y="-298.4" font-family="Times Roman,serif" font-size="14.00">departed_at :datetime</text>
<text text-anchor="start" x="109.5" y="-280.4" font-family="Times Roman,serif" font-size="14.00">mfg :string</text>
<text text-anchor="start" x="109.5" y="-262.4" font-family="Times Roman,serif" font-size="14.00">model :string</text>
<text text-anchor="start" x="109.5" y="-244.4" font-family="Times Roman,serif" font-size="14.00">number :string</text>
</g>
<!-- Hook -->
<g id="node9" class="node"><title>Hook</title>
<polyline fill="none" stroke="black" points="27.5,-46 168.5,-46 "/>
<path fill="none" stroke="black" d="M168.5,-46C174.5,-46 180.5,-52 180.5,-58"/>
<polyline fill="none" stroke="black" points="180.5,-58 180.5,-122 "/>
<path fill="none" stroke="black" d="M180.5,-122C180.5,-128 174.5,-134 168.5,-134"/>
<polyline fill="none" stroke="black" points="168.5,-134 27.5,-134 "/>
<path fill="none" stroke="black" d="M27.5,-134C21.5,-134 15.5,-128 15.5,-122"/>
<polyline fill="none" stroke="black" points="15.5,-122 15.5,-58 "/>
<path fill="none" stroke="black" d="M15.5,-58C15.5,-52 21.5,-46 27.5,-46"/>
<text text-anchor="middle" x="98" y="-117.4" font-family="Times Roman,serif" font-size="14.00">Hook</text>
<polyline fill="none" stroke="black" points="15.5,-108 180.5,-108 "/>
<text text-anchor="start" x="23.5" y="-91.4" font-family="Times Roman,serif" font-size="14.00">number :string</text>
<text text-anchor="start" x="23.5" y="-73.4" font-family="Times Roman,serif" font-size="14.00">created_at :datetime</text>
<text text-anchor="start" x="23.5" y="-55.4" font-family="Times Roman,serif" font-size="14.00">updated_at :datetime</text>
</g>
<!-- Bike&#45;&gt;Hook -->
<g id="edge8" class="edge"><title>Bike&#45;&gt;Hook</title>
<path fill="none" stroke="black" d="M147.965,-226.861C137.107,-197.12 125.953,-166.566 116.945,-141.893"/>
<ellipse fill="none" stroke="black" cx="149.479" cy="-231.006" rx="4.00001" ry="4.00001"/>
<ellipse fill="black" stroke="black" cx="115.471" cy="-137.855" rx="4.00001" ry="4.00001"/>
</g>
<!-- Comment -->
<g id="node11" class="node"><title>Comment</title>
<polyline fill="none" stroke="black" points="210,-1 382,-1 "/>
<path fill="none" stroke="black" d="M382,-1C388,-1 394,-7 394,-13"/>
<polyline fill="none" stroke="black" points="394,-13 394,-167 "/>
<path fill="none" stroke="black" d="M394,-167C394,-173 388,-179 382,-179"/>
<polyline fill="none" stroke="black" points="382,-179 210,-179 "/>
<path fill="none" stroke="black" d="M210,-179C204,-179 198,-173 198,-167"/>
<polyline fill="none" stroke="black" points="198,-167 198,-13 "/>
<path fill="none" stroke="black" d="M198,-13C198,-7 204,-1 210,-1"/>
<text text-anchor="middle" x="296" y="-162.4" font-family="Times Roman,serif" font-size="14.00">Comment</text>
<polyline fill="none" stroke="black" points="198,-153 394,-153 "/>
<text text-anchor="start" x="206" y="-136.4" font-family="Times Roman,serif" font-size="14.00">commentable_type :string</text>
<text text-anchor="start" x="206" y="-118.4" font-family="Times Roman,serif" font-size="14.00">title :string</text>
<text text-anchor="start" x="206" y="-100.4" font-family="Times Roman,serif" font-size="14.00">body :text</text>
<text text-anchor="start" x="206" y="-82.4" font-family="Times Roman,serif" font-size="14.00">subject :string</text>
<text text-anchor="start" x="206" y="-64.4" font-family="Times Roman,serif" font-size="14.00">lft :integer</text>
<text text-anchor="start" x="206" y="-46.4" font-family="Times Roman,serif" font-size="14.00">rgt :integer</text>
<text text-anchor="start" x="206" y="-28.4" font-family="Times Roman,serif" font-size="14.00">created_at :datetime</text>
<text text-anchor="start" x="206" y="-10.4" font-family="Times Roman,serif" font-size="14.00">updated_at :datetime</text>
</g>
<!-- Bike&#45;&gt;Comment -->
<g id="edge6" class="edge"><title>Bike&#45;&gt;Comment</title>
<path fill="none" stroke="black" d="M182.903,-226.796C184.646,-216.859 187.258,-207.126 191,-198 192.356,-194.694 193.866,-191.433 195.51,-188.222"/>
<ellipse fill="none" stroke="black" cx="182.289" cy="-230.846" rx="4.00001" ry="4.00001"/>
<polygon fill="black" stroke="black" points="195.61,-188.042 204.411,-181.5 198.046,-183.675 200.481,-179.308 200.481,-179.308 200.481,-179.308 198.046,-183.675 196.551,-177.116 195.61,-188.042 195.61,-188.042"/>
<text text-anchor="middle" x="253" y="-203.4" font-family="Times Roman,serif" font-size="14.00">comment_threads</text>
</g>
<!-- Project::Youth -->
<g id="node4" class="node"><title>Project::Youth</title>
<polyline fill="none" stroke="black" points="482.5,-280 637.5,-280 "/>
<path fill="none" stroke="black" d="M637.5,-280C643.5,-280 649.5,-286 649.5,-292"/>
<polyline fill="none" stroke="black" points="649.5,-292 649.5,-392 "/>
<path fill="none" stroke="black" d="M649.5,-392C649.5,-398 643.5,-404 637.5,-404"/>
<polyline fill="none" stroke="black" points="637.5,-404 482.5,-404 "/>
<path fill="none" stroke="black" d="M482.5,-404C476.5,-404 470.5,-398 470.5,-392"/>
<polyline fill="none" stroke="black" points="470.5,-392 470.5,-292 "/>
<path fill="none" stroke="black" d="M470.5,-292C470.5,-286 476.5,-280 482.5,-280"/>
<text text-anchor="middle" x="560" y="-387.4" font-family="Times Roman,serif" font-size="14.00">Project::Youth</text>
<polyline fill="none" stroke="black" points="470.5,-378 649.5,-378 "/>
<text text-anchor="start" x="478.5" y="-361.4" font-family="Times Roman,serif" font-size="14.00">projectable_type :string</text>
<text text-anchor="start" x="478.5" y="-343.4" font-family="Times Roman,serif" font-size="14.00">label :string</text>
<text text-anchor="start" x="478.5" y="-325.4" font-family="Times Roman,serif" font-size="14.00">created_at :datetime</text>
<text text-anchor="start" x="478.5" y="-307.4" font-family="Times Roman,serif" font-size="14.00">updated_at :datetime</text>
<text text-anchor="start" x="478.5" y="-289.4" font-family="Times Roman,serif" font-size="14.00">closed_at :datetime</text>
</g>
<!-- Project::Spec::Youth -->
<g id="node5" class="node"><title>Project::Spec::Youth</title>
<polyline fill="none" stroke="black" points="496.5,-37 637.5,-37 "/>
<path fill="none" stroke="black" d="M637.5,-37C643.5,-37 649.5,-43 649.5,-49"/>
<polyline fill="none" stroke="black" points="649.5,-49 649.5,-131 "/>
<path fill="none" stroke="black" d="M649.5,-131C649.5,-137 643.5,-143 637.5,-143"/>
<polyline fill="none" stroke="black" points="637.5,-143 496.5,-143 "/>
<path fill="none" stroke="black" d="M496.5,-143C490.5,-143 484.5,-137 484.5,-131"/>
<polyline fill="none" stroke="black" points="484.5,-131 484.5,-49 "/>
<path fill="none" stroke="black" d="M484.5,-49C484.5,-43 490.5,-37 496.5,-37"/>
<text text-anchor="middle" x="567" y="-126.4" font-family="Times Roman,serif" font-size="14.00">Project::Spec::Youth</text>
<polyline fill="none" stroke="black" points="484.5,-117 649.5,-117 "/>
<text text-anchor="start" x="492.5" y="-100.4" font-family="Times Roman,serif" font-size="14.00">state :string</text>
<text text-anchor="start" x="492.5" y="-82.4" font-family="Times Roman,serif" font-size="14.00">specable_type :string</text>
<text text-anchor="start" x="492.5" y="-64.4" font-family="Times Roman,serif" font-size="14.00">created_at :datetime</text>
<text text-anchor="start" x="492.5" y="-46.4" font-family="Times Roman,serif" font-size="14.00">updated_at :datetime</text>
</g>
<!-- Project::Youth&#45;&gt;Project::Spec::Youth -->
<g id="edge10" class="edge"><title>Project::Youth&#45;&gt;Project::Spec::Youth</title>
<path fill="none" stroke="black" d="M561.953,-271.694C563.005,-233.808 564.291,-187.511 565.302,-151.134"/>
<ellipse fill="none" stroke="black" cx="561.841" cy="-275.709" rx="4" ry="4"/>
<ellipse fill="black" stroke="black" cx="565.415" cy="-147.056" rx="4" ry="4"/>
<text text-anchor="middle" x="578.5" y="-203.4" font-family="Times Roman,serif" font-size="14.00">spec</text>
</g>
<!-- Project::Spec::Eab -->
<g id="node6" class="node"><title>Project::Spec::Eab</title>
<polyline fill="none" stroke="black" points="685.5,-37 826.5,-37 "/>
<path fill="none" stroke="black" d="M826.5,-37C832.5,-37 838.5,-43 838.5,-49"/>
<polyline fill="none" stroke="black" points="838.5,-49 838.5,-131 "/>
<path fill="none" stroke="black" d="M838.5,-131C838.5,-137 832.5,-143 826.5,-143"/>
<polyline fill="none" stroke="black" points="826.5,-143 685.5,-143 "/>
<path fill="none" stroke="black" d="M685.5,-143C679.5,-143 673.5,-137 673.5,-131"/>
<polyline fill="none" stroke="black" points="673.5,-131 673.5,-49 "/>
<path fill="none" stroke="black" d="M673.5,-49C673.5,-43 679.5,-37 685.5,-37"/>
<text text-anchor="middle" x="756" y="-126.4" font-family="Times Roman,serif" font-size="14.00">Project::Spec::Eab</text>
<polyline fill="none" stroke="black" points="673.5,-117 838.5,-117 "/>
<text text-anchor="start" x="681.5" y="-100.4" font-family="Times Roman,serif" font-size="14.00">state :string</text>
<text text-anchor="start" x="681.5" y="-82.4" font-family="Times Roman,serif" font-size="14.00">specable_type :string</text>
<text text-anchor="start" x="681.5" y="-64.4" font-family="Times Roman,serif" font-size="14.00">created_at :datetime</text>
<text text-anchor="start" x="681.5" y="-46.4" font-family="Times Roman,serif" font-size="14.00">updated_at :datetime</text>
</g>
<!-- Project::Spec -->
<g id="node7" class="node"><title>Project::Spec</title>
<polygon fill="none" stroke="black" stroke-dasharray="1,5" points="568,-1003 462,-1003 462,-967 568,-967 568,-1003"/>
<text text-anchor="middle" x="515" y="-981.4" font-family="Times Roman,serif" font-size="14.00">Project::Spec</text>
</g>
<!-- Project::Eab -->
<g id="node8" class="node"><title>Project::Eab</title>
<polyline fill="none" stroke="black" points="678.5,-280 833.5,-280 "/>
<path fill="none" stroke="black" d="M833.5,-280C839.5,-280 845.5,-286 845.5,-292"/>
<polyline fill="none" stroke="black" points="845.5,-292 845.5,-392 "/>
<path fill="none" stroke="black" d="M845.5,-392C845.5,-398 839.5,-404 833.5,-404"/>
<polyline fill="none" stroke="black" points="833.5,-404 678.5,-404 "/>
<path fill="none" stroke="black" d="M678.5,-404C672.5,-404 666.5,-398 666.5,-392"/>
<polyline fill="none" stroke="black" points="666.5,-392 666.5,-292 "/>
<path fill="none" stroke="black" d="M666.5,-292C666.5,-286 672.5,-280 678.5,-280"/>
<text text-anchor="middle" x="756" y="-387.4" font-family="Times Roman,serif" font-size="14.00">Project::Eab</text>
<polyline fill="none" stroke="black" points="666.5,-378 845.5,-378 "/>
<text text-anchor="start" x="674.5" y="-361.4" font-family="Times Roman,serif" font-size="14.00">projectable_type :string</text>
<text text-anchor="start" x="674.5" y="-343.4" font-family="Times Roman,serif" font-size="14.00">label :string</text>
<text text-anchor="start" x="674.5" y="-325.4" font-family="Times Roman,serif" font-size="14.00">created_at :datetime</text>
<text text-anchor="start" x="674.5" y="-307.4" font-family="Times Roman,serif" font-size="14.00">updated_at :datetime</text>
<text text-anchor="start" x="674.5" y="-289.4" font-family="Times Roman,serif" font-size="14.00">closed_at :datetime</text>
</g>
<!-- Project::Eab&#45;&gt;Project::Spec::Eab -->
<g id="edge14" class="edge"><title>Project::Eab&#45;&gt;Project::Spec::Eab</title>
<path fill="none" stroke="black" d="M756,-271.694C756,-233.808 756,-187.511 756,-151.134"/>
<ellipse fill="none" stroke="black" cx="756" cy="-275.708" rx="4" ry="4"/>
<ellipse fill="black" stroke="black" cx="756" cy="-147.058" rx="4" ry="4"/>
<text text-anchor="middle" x="771.5" y="-203.4" font-family="Times Roman,serif" font-size="14.00">spec</text>
</g>
<!-- User -->
<g id="node10" class="node"><title>User</title>
<polyline fill="none" stroke="black" points="598,-869 828,-869 "/>
<path fill="none" stroke="black" d="M828,-869C834,-869 840,-875 840,-881"/>
<polyline fill="none" stroke="black" points="840,-881 840,-1089 "/>
<path fill="none" stroke="black" d="M840,-1089C840,-1095 834,-1101 828,-1101"/>
<polyline fill="none" stroke="black" points="828,-1101 598,-1101 "/>
<path fill="none" stroke="black" d="M598,-1101C592,-1101 586,-1095 586,-1089"/>
<polyline fill="none" stroke="black" points="586,-1089 586,-881 "/>
<path fill="none" stroke="black" d="M586,-881C586,-875 592,-869 598,-869"/>
<text text-anchor="middle" x="713" y="-1084.4" font-family="Times Roman,serif" font-size="14.00">User</text>
<polyline fill="none" stroke="black" points="586,-1075 840,-1075 "/>
<text text-anchor="start" x="594" y="-1058.4" font-family="Times Roman,serif" font-size="14.00">email :string</text>
<text text-anchor="start" x="594" y="-1040.4" font-family="Times Roman,serif" font-size="14.00">encrypted_password :string</text>
<text text-anchor="start" x="594" y="-1022.4" font-family="Times Roman,serif" font-size="14.00">reset_password_token :string</text>
<text text-anchor="start" x="594" y="-1004.4" font-family="Times Roman,serif" font-size="14.00">reset_password_sent_at :datetime</text>
<text text-anchor="start" x="594" y="-986.4" font-family="Times Roman,serif" font-size="14.00">remember_created_at :datetime</text>
<text text-anchor="start" x="594" y="-968.4" font-family="Times Roman,serif" font-size="14.00">current_sign_in_at :datetime</text>
<text text-anchor="start" x="594" y="-950.4" font-family="Times Roman,serif" font-size="14.00">last_sign_in_at :datetime</text>
<text text-anchor="start" x="594" y="-932.4" font-family="Times Roman,serif" font-size="14.00">current_sign_in_ip :string</text>
<text text-anchor="start" x="594" y="-914.4" font-family="Times Roman,serif" font-size="14.00">last_sign_in_ip :string</text>
<text text-anchor="start" x="594" y="-896.4" font-family="Times Roman,serif" font-size="14.00">created_at :datetime</text>
<text text-anchor="start" x="594" y="-878.4" font-family="Times Roman,serif" font-size="14.00">updated_at :datetime</text>
</g>
<!-- Comment&#45;&gt;Comment -->
<g id="edge18" class="edge"><title>Comment&#45;&gt;Comment</title>
<path fill="none" stroke="black" d="M401.931,-104.972C408.227,-101.396 412,-96.4057 412,-90 412,-84.1395 408.842,-79.4633 403.483,-75.9714"/>
<ellipse fill="none" stroke="black" cx="397.845" cy="-106.722" rx="4.00001" ry="4.00001"/>
<polygon fill="black" stroke="black" points="403.259,-75.8688 396.042,-67.6119 398.713,-73.7858 394.168,-71.7029 394.168,-71.7029 394.168,-71.7029 398.713,-73.7858 392.293,-75.7938 403.259,-75.8688 403.259,-75.8688"/>
<text text-anchor="middle" x="439.5" y="-86.4" font-family="Times Roman,serif" font-size="14.00">children</text>
</g>
<!-- Project&#45;&gt;Bike -->
<g id="edge20" class="edge"><title>Project&#45;&gt;Bike</title>
<path fill="none" stroke="black" d="M324.127,-482.867C311.455,-469.558 297.926,-455.35 284.519,-441.269"/>
<ellipse fill="none" stroke="black" cx="327.074" cy="-485.962" rx="4.00002" ry="4.00002"/>
<ellipse fill="black" stroke="black" cx="281.541" cy="-438.141" rx="4.00002" ry="4.00002"/>
</g>
<!-- Project&#45;&gt;Project::Youth -->
<g id="edge12" class="edge"><title>Project&#45;&gt;Project::Youth</title>
<path fill="none" stroke="black" d="M439.843,-488.859C461.698,-462.146 487.191,-430.989 509.058,-404.262"/>
</g>
<!-- Project&#45;&gt;Project::Eab -->
<g id="edge16" class="edge"><title>Project&#45;&gt;Project::Eab</title>
<path fill="none" stroke="black" d="M478.543,-528.996C533.444,-512.786 603.422,-487.062 658,-450 676.537,-437.412 693.969,-420.62 708.846,-404.036"/>
</g>
<!-- Project&#45;&gt;Comment -->
<g id="edge22" class="edge"><title>Project&#45;&gt;Comment</title>
<path fill="none" stroke="black" d="M349.689,-481.481C345.109,-471.171 341.007,-460.484 338,-450 306.994,-341.893 329.867,-309.479 315,-198 314.617,-195.125 314.212,-192.21 313.789,-189.269"/>
<ellipse fill="none" stroke="black" cx="351.431" cy="-485.277" rx="4.00002" ry="4.00002"/>
<polygon fill="black" stroke="black" points="313.762,-189.087 316.74,-178.533 313.025,-184.142 312.289,-179.196 312.289,-179.196 312.289,-179.196 313.025,-184.142 307.838,-179.859 313.762,-189.087 313.762,-189.087"/>
<text text-anchor="middle" x="400" y="-338.4" font-family="Times Roman,serif" font-size="14.00">comment_threads</text>
</g>
<!-- ProjectCategory -->
<g id="node13" class="node"><title>ProjectCategory</title>
<polyline fill="none" stroke="black" points="280,-914 432,-914 "/>
<path fill="none" stroke="black" d="M432,-914C438,-914 444,-920 444,-926"/>
<polyline fill="none" stroke="black" points="444,-926 444,-1044 "/>
<path fill="none" stroke="black" d="M444,-1044C444,-1050 438,-1056 432,-1056"/>
<polyline fill="none" stroke="black" points="432,-1056 280,-1056 "/>
<path fill="none" stroke="black" d="M280,-1056C274,-1056 268,-1050 268,-1044"/>
<polyline fill="none" stroke="black" points="268,-1044 268,-926 "/>
<path fill="none" stroke="black" d="M268,-926C268,-920 274,-914 280,-914"/>
<text text-anchor="middle" x="356" y="-1039.4" font-family="Times Roman,serif" font-size="14.00">ProjectCategory</text>
<polyline fill="none" stroke="black" points="268,-1030 444,-1030 "/>
<text text-anchor="start" x="276" y="-1013.4" font-family="Times Roman,serif" font-size="14.00">name :string</text>
<text text-anchor="start" x="276" y="-995.4" font-family="Times Roman,serif" font-size="14.00">project_type :string</text>
<text text-anchor="start" x="276" y="-977.4" font-family="Times Roman,serif" font-size="14.00">max_programs :integer</text>
<text text-anchor="start" x="276" y="-959.4" font-family="Times Roman,serif" font-size="14.00">slug :string</text>
<text text-anchor="start" x="276" y="-941.4" font-family="Times Roman,serif" font-size="14.00">created_at :datetime</text>
<text text-anchor="start" x="276" y="-923.4" font-family="Times Roman,serif" font-size="14.00">updated_at :datetime</text>
</g>
<!-- ProjectCategory&#45;&gt;Program -->
<g id="edge24" class="edge"><title>ProjectCategory&#45;&gt;Program</title>
<path fill="none" stroke="black" d="M330.308,-906.257C323.252,-884.631 315.549,-861.019 308.306,-838.82"/>
<ellipse fill="none" stroke="black" cx="331.552" cy="-910.069" rx="4.00001" ry="4.00001"/>
<polygon fill="black" stroke="black" points="308.226,-838.576 309.402,-827.673 306.675,-833.823 305.124,-829.069 305.124,-829.069 305.124,-829.069 306.675,-833.823 300.846,-830.465 308.226,-838.576 308.226,-838.576"/>
</g>
<!-- ProjectCategory&#45;&gt;Project -->
<g id="edge26" class="edge"><title>ProjectCategory&#45;&gt;Project</title>
<path fill="none" stroke="black" d="M363.69,-903.63C365.84,-879.9 368.105,-853.922 370,-830 375.557,-759.834 380.914,-679.661 384.515,-623.319"/>
<polygon fill="black" stroke="black" points="363.684,-903.691 358.295,-913.241 363.231,-908.67 362.777,-913.65 362.777,-913.65 362.777,-913.65 363.231,-908.67 367.258,-914.058 363.684,-903.691 363.684,-903.691"/>
<polygon fill="black" stroke="black" points="384.531,-623.064 389.657,-613.37 384.848,-618.074 385.166,-613.084 385.166,-613.084 385.166,-613.084 384.848,-618.074 380.675,-612.798 384.531,-623.064 384.531,-623.064"/>
</g>
</g>
</svg>
