<?xml version="1.0" encoding="UTF-8" standalone="no"?>
<!DOCTYPE svg PUBLIC "-//W3C//DTD SVG 1.1//EN"
 "http://www.w3.org/Graphics/SVG/1.1/DTD/svg11.dtd">
<!-- Generated by graphviz version 2.26.3 (20100126.1600)
 -->
<!-- Title: models_diagram Pages: 1 -->
<svg width="890pt" height="362pt"
 viewBox="0.00 0.00 890.00 362.00" xmlns="http://www.w3.org/2000/svg" xmlns:xlink="http://www.w3.org/1999/xlink">
<g id="graph1" class="graph" transform="scale(1 1) rotate(0) translate(4 358)">
<title>models_diagram</title>
<polygon fill="white" stroke="white" points="-4,5 -4,-358 887,-358 887,5 -4,5"/>
<!-- _diagram_info -->
<g id="node1" class="node"><title>_diagram_info</title>
<text text-anchor="start" x="8" y="-337.8" font-family="Times Roman,serif" font-size="13.00">Models diagram</text>
<text text-anchor="start" x="8" y="-320.8" font-family="Times Roman,serif" font-size="13.00">Date: Mar 17 2012 &#45; 00:11</text>
<text text-anchor="start" x="8" y="-303.8" font-family="Times Roman,serif" font-size="13.00">Migration version: 20120316082735</text>
<text text-anchor="start" x="8" y="-286.8" font-family="Times Roman,serif" font-size="13.00">Generated by RailRoady 1.0.4</text>
<text text-anchor="start" x="8" y="-269.8" font-family="Times Roman,serif" font-size="13.00">http://railroady.prestonlee.com</text>
</g>
<!-- Program -->
<g id="node2" class="node"><title>Program</title>
<ellipse fill="none" stroke="black" cx="321" cy="-307" rx="53.033" ry="18.3848"/>
<text text-anchor="middle" x="321" y="-303.4" font-family="Times Roman,serif" font-size="14.00">Program</text>
</g>
<!-- Project -->
<g id="node11" class="node"><title>Project</title>
<ellipse fill="none" stroke="black" cx="322" cy="-203" rx="45.9619" ry="18.3848"/>
<text text-anchor="middle" x="322" y="-199.4" font-family="Times Roman,serif" font-size="14.00">Project</text>
</g>
<!-- Program&#45;&gt;Project -->
<g id="edge2" class="edge"><title>Program&#45;&gt;Project</title>
<path fill="none" stroke="black" d="M321.26,-279.926C321.402,-265.224 321.577,-247.041 321.721,-232.044"/>
<ellipse fill="none" stroke="black" cx="321.217" cy="-284.407" rx="4" ry="4"/>
<polygon fill="black" stroke="black" points="321.723,-231.782 326.319,-221.826 321.771,-226.783 321.819,-221.783 321.819,-221.783 321.819,-221.783 321.771,-226.783 317.32,-221.739 321.723,-231.782 321.723,-231.782"/>
</g>
<!-- Bike -->
<g id="node3" class="node"><title>Bike</title>
<ellipse fill="none" stroke="black" cx="424" cy="-307" rx="32.0265" ry="18.3848"/>
<text text-anchor="middle" x="424" y="-303.4" font-family="Times Roman,serif" font-size="14.00">Bike</text>
</g>
<!-- Hook -->
<g id="node8" class="node"><title>Hook</title>
<ellipse fill="none" stroke="black" cx="423" cy="-203" rx="36.7696" ry="18.3848"/>
<text text-anchor="middle" x="423" y="-199.4" font-family="Times Roman,serif" font-size="14.00">Hook</text>
</g>
<!-- Bike&#45;&gt;Hook -->
<g id="edge6" class="edge"><title>Bike&#45;&gt;Hook</title>
<path fill="none" stroke="black" d="M423.74,-279.926C423.591,-264.511 423.406,-245.267 423.258,-229.883"/>
<ellipse fill="none" stroke="black" cx="423.783" cy="-284.407" rx="4" ry="4"/>
<ellipse fill="black" stroke="black" cx="423.219" cy="-225.783" rx="4" ry="4"/>
</g>
<!-- Comment -->
<g id="node10" class="node"><title>Comment</title>
<ellipse fill="none" stroke="black" cx="487" cy="-111" rx="58.1882" ry="18.3848"/>
<text text-anchor="middle" x="487" y="-107.4" font-family="Times Roman,serif" font-size="14.00">Comment</text>
</g>
<!-- Bike&#45;&gt;Comment -->
<g id="edge4" class="edge"><title>Bike&#45;&gt;Comment</title>
<path fill="none" stroke="black" d="M439.309,-282.238C448.979,-265.693 461.096,-243.16 469,-222 477.941,-198.065 477.945,-191.227 482,-166 483.359,-157.547 484.378,-148.299 485.129,-139.839"/>
<ellipse fill="none" stroke="black" cx="437.104" cy="-285.953" rx="4.00002" ry="4.00002"/>
<polygon fill="black" stroke="black" points="485.146,-139.632 490.429,-130.023 485.544,-134.648 485.943,-129.664 485.943,-129.664 485.943,-129.664 485.544,-134.648 481.457,-129.305 485.146,-139.632 485.146,-139.632"/>
<text text-anchor="middle" x="541" y="-199.4" font-family="Times Roman,serif" font-size="14.00">comment_threads</text>
</g>
<!-- Bike&#45;&gt;Project -->
<g id="edge8" class="edge"><title>Bike&#45;&gt;Project</title>
<path fill="none" stroke="black" d="M404.619,-283.841C397.933,-276.108 390.289,-267.543 383,-260 371.612,-248.216 358.385,-235.723 347.164,-225.445"/>
<ellipse fill="none" stroke="black" cx="407.379" cy="-287.062" rx="4.00002" ry="4.00002"/>
<ellipse fill="black" stroke="black" cx="344.119" cy="-222.674" rx="4.00002" ry="4.00002"/>
</g>
<!-- Project::Youth -->
<g id="node4" class="node"><title>Project::Youth</title>
<ellipse fill="none" stroke="black" cx="322" cy="-111" rx="79.9031" ry="18.3848"/>
<text text-anchor="middle" x="322" y="-107.4" font-family="Times Roman,serif" font-size="14.00">Project::Youth</text>
</g>
<!-- Project::Spec::Youth -->
<g id="node5" class="node"><title>Project::Spec::Youth</title>
<ellipse fill="none" stroke="black" cx="322" cy="-19" rx="109.101" ry="18.3848"/>
<text text-anchor="middle" x="322" y="-15.4" font-family="Times Roman,serif" font-size="14.00">Project::Spec::Youth</text>
</g>
<!-- Project::Youth&#45;&gt;Project::Spec::Youth -->
<g id="edge10" class="edge"><title>Project::Youth&#45;&gt;Project::Spec::Youth</title>
<path fill="none" stroke="black" d="M322,-84.029C322,-72.0163 322,-57.9017 322,-45.8975"/>
<ellipse fill="none" stroke="black" cx="322" cy="-88.3824" rx="4" ry="4"/>
<ellipse fill="black" stroke="black" cx="322" cy="-41.5899" rx="4" ry="4"/>
<text text-anchor="middle" x="337.5" y="-61.4" font-family="Times Roman,serif" font-size="14.00">spec</text>
</g>
<!-- Project::Spec::Eab -->
<g id="node6" class="node"><title>Project::Spec::Eab</title>
<ellipse fill="none" stroke="black" cx="573" cy="-307" rx="98.9949" ry="18.3848"/>
<text text-anchor="middle" x="573" y="-303.4" font-family="Times Roman,serif" font-size="14.00">Project::Spec::Eab</text>
</g>
<!-- Project::Spec -->
<g id="node7" class="node"><title>Project::Spec</title>
<polygon fill="none" stroke="black" stroke-dasharray="1,5" points="796,-325 690,-325 690,-289 796,-289 796,-325"/>
<text text-anchor="middle" x="743" y="-303.4" font-family="Times Roman,serif" font-size="14.00">Project::Spec</text>
</g>
<!-- User -->
<g id="node9" class="node"><title>User</title>
<ellipse fill="none" stroke="black" cx="848" cy="-307" rx="33.9411" ry="18.3848"/>
<text text-anchor="middle" x="848" y="-303.4" font-family="Times Roman,serif" font-size="14.00">User</text>
</g>
<!-- Comment&#45;&gt;Comment -->
<g id="edge14" class="edge"><title>Comment&#45;&gt;Comment</title>
<path fill="none" stroke="black" d="M546.51,-118.989C556.28,-117.851 563,-115.188 563,-111 563,-107.099 557.17,-104.522 548.477,-103.267"/>
<ellipse fill="none" stroke="black" cx="542.496" cy="-119.276" rx="4" ry="4"/>
<polygon fill="black" stroke="black" points="548.472,-103.267 538.878,-97.9541 543.489,-102.853 538.506,-102.439 538.506,-102.439 538.506,-102.439 543.489,-102.853 538.133,-106.923 548.472,-103.267 548.472,-103.267"/>
<text text-anchor="middle" x="590.5" y="-107.4" font-family="Times Roman,serif" font-size="14.00">children</text>
</g>
<!-- Project&#45;&gt;Project::Youth -->
<g id="edge12" class="edge"><title>Project&#45;&gt;Project::Youth</title>
<path fill="none" stroke="black" d="M322,-184.382C322,-168.421 322,-145.543 322,-129.59"/>
</g>
<!-- Project&#45;&gt;Comment -->
<g id="edge16" class="edge"><title>Project&#45;&gt;Comment</title>
<path fill="none" stroke="black" d="M333.572,-177.605C339.517,-167.086 347.7,-155.593 358,-148 364.288,-143.364 399.398,-133.43 431.402,-125.021"/>
<ellipse fill="none" stroke="black" cx="331.693" cy="-181.141" rx="4.00002" ry="4.00002"/>
<polygon fill="black" stroke="black" points="431.522,-124.99 442.334,-126.823 436.361,-123.729 441.199,-122.468 441.199,-122.468 441.199,-122.468 436.361,-123.729 440.064,-118.113 431.522,-124.99 431.522,-124.99"/>
<text text-anchor="middle" x="420" y="-153.4" font-family="Times Roman,serif" font-size="14.00">comment_threads</text>
</g>
</g>
</svg>
