<?xml version="1.0" encoding="UTF-8" standalone="no"?>
<!DOCTYPE svg PUBLIC "-//W3C//DTD SVG 1.1//EN"
 "http://www.w3.org/Graphics/SVG/1.1/DTD/svg11.dtd">
<!-- Generated by graphviz version 2.26.3 (20100126.1600)
 -->
<!-- Title: models_diagram Pages: 1 -->
<svg width="1121pt" height="438pt"
 viewBox="0.00 0.00 1121.00 438.00" xmlns="http://www.w3.org/2000/svg" xmlns:xlink="http://www.w3.org/1999/xlink">
<g id="graph1" class="graph" transform="scale(1 1) rotate(0) translate(4 434)">
<title>models_diagram</title>
<polygon fill="white" stroke="white" points="-4,5 -4,-434 1118,-434 1118,5 -4,5"/>
<!-- _diagram_info -->
<g id="node1" class="node"><title>_diagram_info</title>
<text text-anchor="start" x="181" y="-413.8" font-family="Times Roman,serif" font-size="13.00">Models diagram</text>
<text text-anchor="start" x="181" y="-396.8" font-family="Times Roman,serif" font-size="13.00">Date: Apr 09 2012 &#45; 02:16</text>
<text text-anchor="start" x="181" y="-379.8" font-family="Times Roman,serif" font-size="13.00">Migration version: 20120408043657</text>
<text text-anchor="start" x="181" y="-362.8" font-family="Times Roman,serif" font-size="13.00">Generated by RailRoady 1.0.7</text>
<text text-anchor="start" x="181" y="-345.8" font-family="Times Roman,serif" font-size="13.00">http://railroady.prestonlee.com</text>
</g>
<!-- Program -->
<g id="node2" class="node"><title>Program</title>
<ellipse fill="none" stroke="black" cx="476" cy="-279" rx="53.033" ry="18.3848"/>
<text text-anchor="middle" x="476" y="-275.4" font-family="Times Roman,serif" font-size="14.00">Program</text>
</g>
<!-- Project -->
<g id="node14" class="node"><title>Project</title>
<ellipse fill="none" stroke="black" cx="557" cy="-187" rx="45.9619" ry="18.3848"/>
<text text-anchor="middle" x="557" y="-183.4" font-family="Times Roman,serif" font-size="14.00">Project</text>
</g>
<!-- Program&#45;&gt;Project -->
<g id="edge4" class="edge"><title>Program&#45;&gt;Project</title>
<path fill="none" stroke="#ddca86" d="M496.918,-255.241C508.541,-242.04 522.998,-225.62 534.817,-212.195"/>
<ellipse fill="none" stroke="#ddca86" cx="494.261" cy="-258.259" rx="4.00002" ry="4.00002"/>
<polygon fill="#ddca86" stroke="#ddca86" points="534.822,-212.19 544.808,-207.658 538.126,-208.437 541.43,-204.684 541.43,-204.684 541.43,-204.684 538.126,-208.437 538.053,-201.71 534.822,-212.19 534.822,-212.19"/>
</g>
<!-- FriendlyId::Slug -->
<g id="node17" class="node"><title>FriendlyId::Slug</title>
<ellipse fill="none" stroke="black" cx="406" cy="-187" rx="86.9741" ry="18.3848"/>
<text text-anchor="middle" x="406" y="-183.4" font-family="Times Roman,serif" font-size="14.00">FriendlyId::Slug</text>
</g>
<!-- Program&#45;&gt;FriendlyId::Slug -->
<g id="edge2" class="edge"><title>Program&#45;&gt;FriendlyId::Slug</title>
<path fill="none" stroke="#1daec6" d="M457.047,-254.091C447.474,-241.509 435.856,-226.239 426.123,-213.448"/>
<ellipse fill="none" stroke="#1daec6" cx="459.748" cy="-257.64" rx="4.00002" ry="4.00002"/>
<polygon fill="#1daec6" stroke="#1daec6" points="426.096,-213.412 423.622,-202.729 423.068,-209.433 420.041,-205.453 420.041,-205.453 420.041,-205.453 423.068,-209.433 416.459,-208.178 426.096,-213.412 426.096,-213.412"/>
<text text-anchor="middle" x="464.5" y="-229.4" font-family="Times Roman,serif" font-size="14.00">slugs</text>
</g>
<!-- Bike -->
<g id="node3" class="node"><title>Bike</title>
<ellipse fill="none" stroke="black" cx="70" cy="-111" rx="32.0265" ry="18.3848"/>
<text text-anchor="middle" x="70" y="-107.4" font-family="Times Roman,serif" font-size="14.00">Bike</text>
</g>
<!-- Hook -->
<g id="node11" class="node"><title>Hook</title>
<ellipse fill="none" stroke="black" cx="37" cy="-19" rx="36.7696" ry="18.3848"/>
<text text-anchor="middle" x="37" y="-15.4" font-family="Times Roman,serif" font-size="14.00">Hook</text>
</g>
<!-- Bike&#45;&gt;Hook -->
<g id="edge8" class="edge"><title>Bike&#45;&gt;Hook</title>
<path fill="none" stroke="#d21a27" d="M56.1931,-85.9677C54.2994,-82.0281 52.4953,-77.9508 51,-74 47.5819,-64.9692 44.7292,-54.7926 42.5098,-45.6709"/>
<ellipse fill="none" stroke="#d21a27" cx="58.0884" cy="-89.732" rx="4.00002" ry="4.00002"/>
<ellipse fill="#d21a27" stroke="#d21a27" cx="41.5548" cy="-41.5502" rx="4.00001" ry="4.00001"/>
</g>
<!-- Comment -->
<g id="node13" class="node"><title>Comment</title>
<ellipse fill="none" stroke="black" cx="175" cy="-19" rx="58.1882" ry="18.3848"/>
<text text-anchor="middle" x="175" y="-15.4" font-family="Times Roman,serif" font-size="14.00">Comment</text>
</g>
<!-- Bike&#45;&gt;Comment -->
<g id="edge6" class="edge"><title>Bike&#45;&gt;Comment</title>
<path fill="none" stroke="#cf6c5f" d="M64.4992,-84.2828C63.9563,-74.5786 65.2201,-64.035 71,-56 77.211,-47.3657 97.5882,-39.2628 118.679,-32.8538"/>
<ellipse fill="none" stroke="#cf6c5f" cx="64.9507" cy="-88.5327" rx="4" ry="4"/>
<polygon fill="#cf6c5f" stroke="#cf6c5f" points="118.77,-32.8274 129.629,-34.3532 123.571,-31.43 128.372,-30.0325 128.372,-30.0325 128.372,-30.0325 123.571,-31.43 127.114,-25.7118 118.77,-32.8274 118.77,-32.8274"/>
<text text-anchor="middle" x="133" y="-61.4" font-family="Times Roman,serif" font-size="14.00">comment_threads</text>
</g>
<!-- Project::Youth -->
<g id="node4" class="node"><title>Project::Youth</title>
<ellipse fill="none" stroke="black" cx="431" cy="-111" rx="79.9031" ry="18.3848"/>
<text text-anchor="middle" x="431" y="-107.4" font-family="Times Roman,serif" font-size="14.00">Project::Youth</text>
</g>
<!-- Project::YouthDetail -->
<g id="node9" class="node"><title>Project::YouthDetail</title>
<ellipse fill="none" stroke="black" cx="457" cy="-19" rx="109.101" ry="18.3848"/>
<text text-anchor="middle" x="457" y="-15.4" font-family="Times Roman,serif" font-size="14.00">Project::YouthDetail</text>
</g>
<!-- Project::Youth&#45;&gt;Project::YouthDetail -->
<g id="edge10" class="edge"><title>Project::Youth&#45;&gt;Project::YouthDetail</title>
<path fill="none" stroke="#48d4d3" d="M438.504,-84.4467C441.95,-72.2543 446.027,-57.828 449.475,-45.6267"/>
<ellipse fill="none" stroke="#48d4d3" cx="437.349" cy="-88.5332" rx="4.00001" ry="4.00001"/>
<ellipse fill="#48d4d3" stroke="#48d4d3" cx="450.658" cy="-41.4391" rx="4.00001" ry="4.00001"/>
<text text-anchor="middle" x="465.5" y="-61.4" font-family="Times Roman,serif" font-size="14.00">detail</text>
</g>
<!-- Project::Scrap -->
<g id="node5" class="node"><title>Project::Scrap</title>
<ellipse fill="none" stroke="black" cx="934" cy="-111" rx="79.196" ry="18.3848"/>
<text text-anchor="middle" x="934" y="-107.4" font-family="Times Roman,serif" font-size="14.00">Project::Scrap</text>
</g>
<!-- Project::ScrapDetail -->
<g id="node8" class="node"><title>Project::ScrapDetail</title>
<ellipse fill="none" stroke="black" cx="914" cy="-19" rx="108.187" ry="18.3848"/>
<text text-anchor="middle" x="914" y="-15.4" font-family="Times Roman,serif" font-size="14.00">Project::ScrapDetail</text>
</g>
<!-- Project::Scrap&#45;&gt;Project::ScrapDetail -->
<g id="edge14" class="edge"><title>Project::Scrap&#45;&gt;Project::ScrapDetail</title>
<path fill="none" stroke="#2d158c" d="M928.228,-84.4467C925.577,-72.2543 922.441,-57.828 919.788,-45.6267"/>
<ellipse fill="none" stroke="#2d158c" cx="929.103" cy="-88.4737" rx="4.00001" ry="4.00001"/>
<ellipse fill="#2d158c" stroke="#2d158c" cx="918.891" cy="-41.4986" rx="4.00001" ry="4.00001"/>
<text text-anchor="middle" x="944.5" y="-61.4" font-family="Times Roman,serif" font-size="14.00">detail</text>
</g>
<!-- Project::Eab -->
<g id="node6" class="node"><title>Project::Eab</title>
<ellipse fill="none" stroke="black" cx="767" cy="-111" rx="70.0036" ry="18.3848"/>
<text text-anchor="middle" x="767" y="-107.4" font-family="Times Roman,serif" font-size="14.00">Project::Eab</text>
</g>
<!-- Project::EabDetail -->
<g id="node7" class="node"><title>Project::EabDetail</title>
<ellipse fill="none" stroke="black" cx="687" cy="-19" rx="98.9949" ry="18.3848"/>
<text text-anchor="middle" x="687" y="-15.4" font-family="Times Roman,serif" font-size="14.00">Project::EabDetail</text>
</g>
<!-- Project::Eab&#45;&gt;Project::EabDetail -->
<g id="edge18" class="edge"><title>Project::Eab&#45;&gt;Project::EabDetail</title>
<path fill="none" stroke="#0988ce" d="M745.7,-86.5045C734.189,-73.2673 720.012,-56.9643 708.475,-43.6963"/>
<ellipse fill="none" stroke="#0988ce" cx="748.57" cy="-89.8053" rx="4.00002" ry="4.00002"/>
<ellipse fill="#0988ce" stroke="#0988ce" cx="705.671" cy="-40.4718" rx="4.00002" ry="4.00002"/>
<text text-anchor="middle" x="753.5" y="-61.4" font-family="Times Roman,serif" font-size="14.00">detail</text>
</g>
<!-- ProjectDetail -->
<g id="node10" class="node"><title>ProjectDetail</title>
<ellipse fill="none" stroke="black" cx="604" cy="-111" rx="74.9533" ry="18.3848"/>
<text text-anchor="middle" x="604" y="-107.4" font-family="Times Roman,serif" font-size="14.00">ProjectDetail</text>
</g>
<!-- ProjectDetail&#45;&gt;Project::EabDetail -->
<g id="edge22" class="edge"><title>ProjectDetail&#45;&gt;Project::EabDetail</title>
<path fill="none" stroke="black" d="M620.398,-92.8238C634.855,-76.7996 655.821,-53.56 670.352,-37.4534"/>
</g>
<!-- ProjectDetail&#45;&gt;Project::ScrapDetail -->
<g id="edge24" class="edge"><title>ProjectDetail&#45;&gt;Project::ScrapDetail</title>
<path fill="none" stroke="black" d="M659.085,-98.3507C668.715,-96.1937 678.643,-94.0041 688,-92 727.461,-83.5478 738.336,-85.5655 777,-74 811.254,-63.7536 848.857,-48.3425 875.988,-36.4379"/>
</g>
<!-- ProjectDetail&#45;&gt;Project::YouthDetail -->
<g id="edge26" class="edge"><title>ProjectDetail&#45;&gt;Project::YouthDetail</title>
<path fill="none" stroke="black" d="M576.35,-93.6955C550.485,-77.5076 512.006,-53.4257 485.781,-37.0125"/>
</g>
<!-- User -->
<g id="node12" class="node"><title>User</title>
<ellipse fill="none" stroke="black" cx="673" cy="-383" rx="33.9411" ry="18.3848"/>
<text text-anchor="middle" x="673" y="-379.4" font-family="Times Roman,serif" font-size="14.00">User</text>
</g>
<!-- Comment&#45;&gt;Comment -->
<g id="edge28" class="edge"><title>Comment&#45;&gt;Comment</title>
<path fill="none" stroke="#970586" d="M234.51,-26.9887C244.28,-25.8512 251,-23.1883 251,-19 251,-15.0992 245.17,-12.5215 236.477,-11.267"/>
<ellipse fill="none" stroke="#970586" cx="230.496" cy="-27.2759" rx="4" ry="4"/>
<polygon fill="#970586" stroke="#970586" points="236.472,-11.2666 226.878,-5.95414 231.489,-10.8527 226.506,-10.4387 226.506,-10.4387 226.506,-10.4387 231.489,-10.8527 226.133,-14.9233 236.472,-11.2666 236.472,-11.2666"/>
<text text-anchor="middle" x="278.5" y="-15.4" font-family="Times Roman,serif" font-size="14.00">children</text>
</g>
<!-- Project&#45;&gt;Bike -->
<g id="edge30" class="edge"><title>Project&#45;&gt;Bike</title>
<path fill="none" stroke="#32bb7d" d="M516.123,-171.511C511.411,-170.135 506.634,-168.918 502,-168 367.927,-141.437 329.458,-174.536 195,-150 163.721,-144.292 129.309,-133.18 104.524,-124.273"/>
<ellipse fill="none" stroke="#32bb7d" cx="520.137" cy="-172.761" rx="4.00001" ry="4.00001"/>
<ellipse fill="#32bb7d" stroke="#32bb7d" cx="100.589" cy="-122.838" rx="4.00001" ry="4.00001"/>
</g>
<!-- Project&#45;&gt;Project::Youth -->
<g id="edge12" class="edge"><title>Project&#45;&gt;Project::Youth</title>
<path fill="none" stroke="black" d="M531.198,-171.437C510.463,-158.93 481.351,-141.371 459.848,-128.4"/>
</g>
<!-- Project&#45;&gt;Project::Scrap -->
<g id="edge16" class="edge"><title>Project&#45;&gt;Project::Scrap</title>
<path fill="none" stroke="black" d="M598.684,-179.022C654.899,-168.206 758.104,-148.155 846,-130 855.643,-128.008 865.87,-125.846 875.808,-123.718"/>
</g>
<!-- Project&#45;&gt;Project::Eab -->
<g id="edge20" class="edge"><title>Project&#45;&gt;Project::Eab</title>
<path fill="none" stroke="black" d="M591.208,-174.62C627.934,-161.329 686.289,-140.21 725.585,-125.988"/>
</g>
<!-- Project&#45;&gt;Comment -->
<g id="edge34" class="edge"><title>Project&#45;&gt;Comment</title>
<path fill="none" stroke="#7b22ce" d="M515.855,-171.796C511.22,-170.38 506.534,-169.075 502,-168 440.044,-153.309 266.65,-171.08 218,-130 191.686,-107.78 208.363,-87.7429 195,-56 193.697,-52.9042 192.216,-49.7263 190.664,-46.5958"/>
<ellipse fill="none" stroke="#7b22ce" cx="519.763" cy="-173.046" rx="4.00001" ry="4.00001"/>
<polygon fill="#7b22ce" stroke="#7b22ce" points="190.53,-46.3388 189.887,-35.3918 188.214,-41.9073 185.898,-37.4758 185.898,-37.4758 185.898,-37.4758 188.214,-41.9073 181.91,-39.5599 190.53,-46.3388 190.53,-46.3388"/>
<text text-anchor="middle" x="280" y="-107.4" font-family="Times Roman,serif" font-size="14.00">comment_threads</text>
</g>
<!-- Detail -->
<g id="node33" class="node"><title>Detail</title>
<ellipse fill="none" stroke="black" cx="1072" cy="-111" rx="41.0122" ry="18.3848"/>
<text text-anchor="middle" x="1072" y="-107.4" font-family="Times Roman,serif" font-size="14.00">Detail</text>
</g>
<!-- Project&#45;&gt;Detail -->
<g id="edge32" class="edge"><title>Project&#45;&gt;Detail</title>
<path fill="none" stroke="#12e5d7" d="M611.057,-184.602C698.549,-179.783 876.104,-166.099 1022,-130 1026.01,-129.008 1030.14,-127.787 1034.22,-126.446"/>
<ellipse fill="none" stroke="#12e5d7" cx="606.87" cy="-184.827" rx="4" ry="4"/>
<ellipse fill="#12e5d7" stroke="#12e5d7" cx="1038.19" cy="-125.065" rx="4.00001" ry="4.00001"/>
</g>
<!-- ProjectCategory -->
<g id="node15" class="node"><title>ProjectCategory</title>
<ellipse fill="none" stroke="black" cx="531" cy="-383" rx="90.0096" ry="18.3848"/>
<text text-anchor="middle" x="531" y="-379.4" font-family="Times Roman,serif" font-size="14.00">ProjectCategory</text>
</g>
<!-- ProjectCategory&#45;&gt;Program -->
<g id="edge38" class="edge"><title>ProjectCategory&#45;&gt;Program</title>
<path fill="none" stroke="#306755" d="M517.18,-356.868C509.068,-341.528 498.824,-322.159 490.583,-306.576"/>
<ellipse fill="none" stroke="#306755" cx="519.297" cy="-360.871" rx="4.00002" ry="4.00002"/>
<polygon fill="#306755" stroke="#306755" points="490.423,-306.272 489.726,-295.328 488.085,-301.852 485.748,-297.432 485.748,-297.432 485.748,-297.432 488.085,-301.852 481.77,-299.536 490.423,-306.272 490.423,-306.272"/>
</g>
<!-- ProjectCategory&#45;&gt;Project -->
<g id="edge36" class="edge"><title>ProjectCategory&#45;&gt;Project</title>
<path fill="none" stroke="#7a870d" d="M534.56,-356.16C539.428,-319.467 548.126,-253.895 553.144,-216.072"/>
<ellipse fill="none" stroke="#7a870d" cx="534.019" cy="-360.241" rx="4.00001" ry="4.00001"/>
<polygon fill="#7a870d" stroke="#7a870d" points="553.199,-215.65 558.975,-206.328 553.857,-210.693 554.515,-205.736 554.515,-205.736 554.515,-205.736 553.857,-210.693 550.054,-205.145 553.199,-215.65 553.199,-215.65"/>
</g>
</g>
</svg>
