<?xml version="1.0" encoding="UTF-8" standalone="no"?>
<!DOCTYPE svg PUBLIC "-//W3C//DTD SVG 1.1//EN"
 "http://www.w3.org/Graphics/SVG/1.1/DTD/svg11.dtd">
<!-- Generated by graphviz version 2.26.3 (20100126.1600)
 -->
<!-- Title: models_diagram Pages: 1 -->
<svg width="1533pt" height="530pt"
 viewBox="0.00 0.00 1533.00 530.00" xmlns="http://www.w3.org/2000/svg" xmlns:xlink="http://www.w3.org/1999/xlink">
<g id="graph1" class="graph" transform="scale(1 1) rotate(0) translate(4 526)">
<title>models_diagram</title>
<polygon fill="white" stroke="white" points="-4,5 -4,-526 1530,-526 1530,5 -4,5"/>
<!-- _diagram_info -->
<g id="node1" class="node"><title>_diagram_info</title>
<text text-anchor="start" x="615" y="-505.8" font-family="Times Roman,serif" font-size="13.00">Models diagram</text>
<text text-anchor="start" x="615" y="-488.8" font-family="Times Roman,serif" font-size="13.00">Date: Jun 27 2012 &#45; 03:22</text>
<text text-anchor="start" x="615" y="-471.8" font-family="Times Roman,serif" font-size="13.00">Migration version: 20120506063455</text>
<text text-anchor="start" x="615" y="-454.8" font-family="Times Roman,serif" font-size="13.00">Generated by RailRoady 1.0.7</text>
<text text-anchor="start" x="615" y="-437.8" font-family="Times Roman,serif" font-size="13.00">http://railroady.prestonlee.com</text>
</g>
<!-- Program -->
<g id="node2" class="node"><title>Program</title>
<ellipse fill="none" stroke="black" cx="910" cy="-371" rx="53.033" ry="18.3848"/>
<text text-anchor="middle" x="910" y="-367.4" font-family="Times Roman,serif" font-size="14.00">Program</text>
</g>
<!-- Project -->
<g id="node17" class="node"><title>Project</title>
<ellipse fill="none" stroke="black" cx="991" cy="-279" rx="45.9619" ry="18.3848"/>
<text text-anchor="middle" x="991" y="-275.4" font-family="Times Roman,serif" font-size="14.00">Project</text>
</g>
<!-- Program&#45;&gt;Project -->
<g id="edge4" class="edge"><title>Program&#45;&gt;Project</title>
<path fill="none" stroke="#9ee644" d="M930.918,-347.241C942.541,-334.04 956.998,-317.62 968.817,-304.195"/>
<ellipse fill="none" stroke="#9ee644" cx="928.261" cy="-350.259" rx="4.00002" ry="4.00002"/>
<polygon fill="#9ee644" stroke="#9ee644" points="968.822,-304.19 978.808,-299.658 972.126,-300.437 975.43,-296.684 975.43,-296.684 975.43,-296.684 972.126,-300.437 972.053,-293.71 968.822,-304.19 968.822,-304.19"/>
</g>
<!-- FriendlyId::Slug -->
<g id="node22" class="node"><title>FriendlyId::Slug</title>
<ellipse fill="none" stroke="black" cx="840" cy="-279" rx="86.9741" ry="18.3848"/>
<text text-anchor="middle" x="840" y="-275.4" font-family="Times Roman,serif" font-size="14.00">FriendlyId::Slug</text>
</g>
<!-- Program&#45;&gt;FriendlyId::Slug -->
<g id="edge2" class="edge"><title>Program&#45;&gt;FriendlyId::Slug</title>
<path fill="none" stroke="#3e5d1e" d="M891.047,-346.091C881.474,-333.509 869.856,-318.239 860.123,-305.448"/>
<ellipse fill="none" stroke="#3e5d1e" cx="893.748" cy="-349.64" rx="4.00002" ry="4.00002"/>
<polygon fill="#3e5d1e" stroke="#3e5d1e" points="860.096,-305.412 857.622,-294.729 857.068,-301.433 854.041,-297.453 854.041,-297.453 854.041,-297.453 857.068,-301.433 850.459,-300.178 860.096,-305.412 860.096,-305.412"/>
<text text-anchor="middle" x="899.5" y="-321.4" font-family="Times Roman,serif" font-size="14.00">slugs</text>
</g>
<!-- Inspection -->
<g id="node3" class="node"><title>Inspection</title>
<polygon fill="none" stroke="black" stroke-dasharray="1,5" points="1159,-493 1073,-493 1073,-457 1159,-457 1159,-493"/>
<text text-anchor="middle" x="1116" y="-471.4" font-family="Times Roman,serif" font-size="14.00">Inspection</text>
</g>
<!-- ResponseSet -->
<g id="node4" class="node"><title>ResponseSet</title>
<ellipse fill="none" stroke="black" cx="999" cy="-111" rx="73.0388" ry="18.3848"/>
<text text-anchor="middle" x="999" y="-107.4" font-family="Times Roman,serif" font-size="14.00">ResponseSet</text>
</g>
<!-- Response -->
<g id="node25" class="node"><title>Response</title>
<ellipse fill="none" stroke="black" cx="999" cy="-19" rx="56.7776" ry="18.3848"/>
<text text-anchor="middle" x="999" y="-15.4" font-family="Times Roman,serif" font-size="14.00">Response</text>
</g>
<!-- ResponseSet&#45;&gt;Response -->
<g id="edge6" class="edge"><title>ResponseSet&#45;&gt;Response</title>
<path fill="none" stroke="#071c8d" d="M999,-84.029C999,-72.5994 999,-59.2671 999,-47.6601"/>
<ellipse fill="none" stroke="#071c8d" cx="999" cy="-88.3824" rx="4" ry="4"/>
<polygon fill="#071c8d" stroke="#071c8d" points="999,-47.5899 1003.5,-37.5898 999,-42.5899 999,-37.5899 999,-37.5899 999,-37.5899 999,-42.5899 994.5,-37.5899 999,-47.5899 999,-47.5899"/>
</g>
<!-- Bike -->
<g id="node5" class="node"><title>Bike</title>
<ellipse fill="none" stroke="black" cx="1068" cy="-203" rx="32.0265" ry="18.3848"/>
<text text-anchor="middle" x="1068" y="-199.4" font-family="Times Roman,serif" font-size="14.00">Bike</text>
</g>
<!-- Bike&#45;&gt;ResponseSet -->
<g id="edge12" class="edge"><title>Bike&#45;&gt;ResponseSet</title>
<path fill="none" stroke="#97fde3" d="M1033.66,-189.136C1023.56,-183.427 1013.49,-175.805 1007,-166 1001.94,-158.368 999.538,-148.838 998.51,-139.866"/>
<ellipse fill="none" stroke="#97fde3" cx="1037.42" cy="-191.105" rx="4.00002" ry="4.00002"/>
<polygon fill="#97fde3" stroke="#97fde3" points="998.501,-139.717 1002.35,-129.45 998.182,-134.727 997.862,-129.737 997.862,-129.737 997.862,-129.737 998.182,-134.727 993.371,-130.025 998.501,-139.717 998.501,-139.717"/>
<text text-anchor="middle" x="1045.5" y="-153.4" font-family="Times Roman,serif" font-size="14.00">inspections</text>
</g>
<!-- Hook -->
<g id="node13" class="node"><title>Hook</title>
<ellipse fill="none" stroke="black" cx="1127" cy="-111" rx="36.7696" ry="18.3848"/>
<text text-anchor="middle" x="1127" y="-107.4" font-family="Times Roman,serif" font-size="14.00">Hook</text>
</g>
<!-- Bike&#45;&gt;Hook -->
<g id="edge10" class="edge"><title>Bike&#45;&gt;Hook</title>
<path fill="none" stroke="#a61a0d" d="M1081.29,-177.763C1086.54,-168.264 1092.79,-157.474 1099,-148 1101.84,-143.668 1105.02,-139.177 1108.19,-134.881"/>
<ellipse fill="none" stroke="#a61a0d" cx="1079.24" cy="-181.541" rx="4.00002" ry="4.00002"/>
<ellipse fill="#a61a0d" stroke="#a61a0d" cx="1110.71" cy="-131.537" rx="4.00002" ry="4.00002"/>
</g>
<!-- Comment -->
<g id="node16" class="node"><title>Comment</title>
<ellipse fill="none" stroke="black" cx="1246" cy="-111" rx="58.1882" ry="18.3848"/>
<text text-anchor="middle" x="1246" y="-107.4" font-family="Times Roman,serif" font-size="14.00">Comment</text>
</g>
<!-- Bike&#45;&gt;Comment -->
<g id="edge8" class="edge"><title>Bike&#45;&gt;Comment</title>
<path fill="none" stroke="#e0629d" d="M1085.18,-179.21C1094.15,-168.306 1105.97,-156.047 1119,-148 1125.52,-143.971 1159.8,-134.076 1191.1,-125.533"/>
<ellipse fill="none" stroke="#e0629d" cx="1082.46" cy="-182.64" rx="4.00002" ry="4.00002"/>
<polygon fill="#e0629d" stroke="#e0629d" points="1191.47,-125.433 1202.3,-127.158 1196.3,-124.124 1201.12,-122.815 1201.12,-122.815 1201.12,-122.815 1196.3,-124.124 1199.94,-118.472 1191.47,-125.433 1191.47,-125.433"/>
<text text-anchor="middle" x="1181" y="-153.4" font-family="Times Roman,serif" font-size="14.00">comment_threads</text>
</g>
<!-- Project::Youth -->
<g id="node6" class="node"><title>Project::Youth</title>
<ellipse fill="none" stroke="black" cx="354" cy="-203" rx="79.9031" ry="18.3848"/>
<text text-anchor="middle" x="354" y="-199.4" font-family="Times Roman,serif" font-size="14.00">Project::Youth</text>
</g>
<!-- Project::YouthDetail -->
<g id="node11" class="node"><title>Project::YouthDetail</title>
<ellipse fill="none" stroke="black" cx="349" cy="-111" rx="109.101" ry="18.3848"/>
<text text-anchor="middle" x="349" y="-107.4" font-family="Times Roman,serif" font-size="14.00">Project::YouthDetail</text>
</g>
<!-- Project::Youth&#45;&gt;Project::YouthDetail -->
<g id="edge14" class="edge"><title>Project::Youth&#45;&gt;Project::YouthDetail</title>
<path fill="none" stroke="#02972b" d="M352.534,-176.029C351.881,-164.016 351.114,-149.902 350.462,-137.898"/>
<ellipse fill="none" stroke="#02972b" cx="352.771" cy="-180.388" rx="4" ry="4"/>
<ellipse fill="#02972b" stroke="#02972b" cx="350.227" cy="-133.584" rx="4" ry="4"/>
<text text-anchor="middle" x="371.5" y="-153.4" font-family="Times Roman,serif" font-size="14.00">detail</text>
</g>
<!-- Project::Scrap -->
<g id="node7" class="node"><title>Project::Scrap</title>
<ellipse fill="none" stroke="black" cx="718" cy="-203" rx="79.196" ry="18.3848"/>
<text text-anchor="middle" x="718" y="-199.4" font-family="Times Roman,serif" font-size="14.00">Project::Scrap</text>
</g>
<!-- Project::ScrapDetail -->
<g id="node10" class="node"><title>Project::ScrapDetail</title>
<ellipse fill="none" stroke="black" cx="584" cy="-111" rx="108.187" ry="18.3848"/>
<text text-anchor="middle" x="584" y="-107.4" font-family="Times Roman,serif" font-size="14.00">Project::ScrapDetail</text>
</g>
<!-- Project::Scrap&#45;&gt;Project::ScrapDetail -->
<g id="edge18" class="edge"><title>Project::Scrap&#45;&gt;Project::ScrapDetail</title>
<path fill="none" stroke="#39f7fa" d="M685.879,-180.947C665.122,-166.696 638.172,-148.193 617.204,-133.797"/>
<ellipse fill="none" stroke="#39f7fa" cx="689.183" cy="-183.215" rx="4.00002" ry="4.00002"/>
<ellipse fill="#39f7fa" stroke="#39f7fa" cx="613.638" cy="-131.349" rx="4.00002" ry="4.00002"/>
<text text-anchor="middle" x="683.5" y="-153.4" font-family="Times Roman,serif" font-size="14.00">detail</text>
</g>
<!-- Project::Eab -->
<g id="node8" class="node"><title>Project::Eab</title>
<ellipse fill="none" stroke="black" cx="927" cy="-203" rx="70.0036" ry="18.3848"/>
<text text-anchor="middle" x="927" y="-199.4" font-family="Times Roman,serif" font-size="14.00">Project::Eab</text>
</g>
<!-- Project::EabDetail -->
<g id="node9" class="node"><title>Project::EabDetail</title>
<ellipse fill="none" stroke="black" cx="809" cy="-111" rx="98.9949" ry="18.3848"/>
<text text-anchor="middle" x="809" y="-107.4" font-family="Times Roman,serif" font-size="14.00">Project::EabDetail</text>
</g>
<!-- Project::Eab&#45;&gt;Project::EabDetail -->
<g id="edge22" class="edge"><title>Project::Eab&#45;&gt;Project::EabDetail</title>
<path fill="none" stroke="#8a1e72" d="M898.189,-180.537C880.123,-166.452 856.889,-148.337 838.664,-134.128"/>
<ellipse fill="none" stroke="#8a1e72" cx="901.373" cy="-183.019" rx="4.00002" ry="4.00002"/>
<ellipse fill="#8a1e72" stroke="#8a1e72" cx="835.35" cy="-131.544" rx="4.00002" ry="4.00002"/>
<text text-anchor="middle" x="898.5" y="-153.4" font-family="Times Roman,serif" font-size="14.00">detail</text>
</g>
<!-- Project::ResponseSet -->
<g id="node36" class="node"><title>Project::ResponseSet</title>
<ellipse fill="none" stroke="black" cx="534" cy="-19" rx="113.844" ry="18.3848"/>
<text text-anchor="middle" x="534" y="-15.4" font-family="Times Roman,serif" font-size="14.00">Project::ResponseSet</text>
</g>
<!-- Project::EabDetail&#45;&gt;Project::ResponseSet -->
<g id="edge26" class="edge"><title>Project::EabDetail&#45;&gt;Project::ResponseSet</title>
<path fill="none" stroke="#fcf3b8" d="M752.702,-92.1657C706.287,-76.6379 640.636,-54.6746 593.392,-38.8695"/>
<ellipse fill="none" stroke="#fcf3b8" cx="756.675" cy="-93.4949" rx="4.00001" ry="4.00001"/>
<polygon fill="#fcf3b8" stroke="#fcf3b8" points="593.386,-38.8674 585.33,-31.4271 588.644,-37.281 583.903,-35.6947 583.903,-35.6947 583.903,-35.6947 588.644,-37.281 582.475,-39.9622 593.386,-38.8674 593.386,-38.8674"/>
<text text-anchor="middle" x="735.5" y="-61.4" font-family="Times Roman,serif" font-size="14.00">inspections</text>
</g>
<!-- Project::YouthDetail&#45;&gt;Project::ResponseSet -->
<g id="edge32" class="edge"><title>Project::YouthDetail&#45;&gt;Project::ResponseSet</title>
<path fill="none" stroke="#a45698" d="M391.788,-89.7218C421.019,-75.185 459.674,-55.9621 489.304,-41.227"/>
<ellipse fill="none" stroke="#a45698" cx="387.814" cy="-91.6978" rx="4.00002" ry="4.00002"/>
<polygon fill="#a45698" stroke="#a45698" points="489.63,-41.0651 500.588,-40.6415 494.107,-38.8387 498.584,-36.6123 498.584,-36.6123 498.584,-36.6123 494.107,-38.8387 496.58,-32.583 489.63,-41.0651 489.63,-41.0651"/>
<text text-anchor="middle" x="497.5" y="-61.4" font-family="Times Roman,serif" font-size="14.00">inspections</text>
</g>
<!-- ProjectDetail -->
<g id="node12" class="node"><title>ProjectDetail</title>
<ellipse fill="none" stroke="black" cx="529" cy="-203" rx="74.9533" ry="18.3848"/>
<text text-anchor="middle" x="529" y="-199.4" font-family="Times Roman,serif" font-size="14.00">ProjectDetail</text>
</g>
<!-- ProjectDetail&#45;&gt;Project::EabDetail -->
<g id="edge28" class="edge"><title>ProjectDetail&#45;&gt;Project::EabDetail</title>
<path fill="none" stroke="black" d="M557.293,-185.645C578.119,-173.544 607.481,-157.861 635,-148 653.971,-141.202 698.816,-131.72 738.226,-124.057"/>
</g>
<!-- ProjectDetail&#45;&gt;Project::ScrapDetail -->
<g id="edge30" class="edge"><title>ProjectDetail&#45;&gt;Project::ScrapDetail</title>
<path fill="none" stroke="black" d="M531.869,-184.423C534.189,-173.265 538.22,-159.124 545,-148 549.178,-141.146 554.95,-134.722 560.773,-129.212"/>
</g>
<!-- ProjectDetail&#45;&gt;Project::YouthDetail -->
<g id="edge34" class="edge"><title>ProjectDetail&#45;&gt;Project::YouthDetail</title>
<path fill="none" stroke="black" d="M518.231,-184.629C510.237,-172.535 498.276,-157.277 484,-148 467.189,-137.075 447.193,-129.349 427.81,-123.894"/>
</g>
<!-- ProjectDetailVersion -->
<g id="node15" class="node"><title>ProjectDetailVersion</title>
<ellipse fill="none" stroke="black" cx="111" cy="-111" rx="111.016" ry="18.3848"/>
<text text-anchor="middle" x="111" y="-107.4" font-family="Times Roman,serif" font-size="14.00">ProjectDetailVersion</text>
</g>
<!-- ProjectDetail&#45;&gt;ProjectDetailVersion -->
<g id="edge36" class="edge"><title>ProjectDetail&#45;&gt;ProjectDetailVersion</title>
<path fill="none" stroke="#36a07d" d="M472.02,-186.302C455.528,-180.672 437.738,-173.806 422,-166 409.08,-159.591 408.554,-152.927 395,-148 326.085,-122.949 303.677,-139.736 231,-130 220.94,-128.652 210.422,-127.14 199.973,-125.572"/>
<ellipse fill="none" stroke="#36a07d" cx="476.203" cy="-187.698" rx="4.00001" ry="4.00001"/>
<polygon fill="#36a07d" stroke="#36a07d" points="199.881,-125.558 190.67,-119.607 194.937,-124.807 189.994,-124.056 189.994,-124.056 189.994,-124.056 194.937,-124.807 189.318,-128.505 199.881,-125.558 199.881,-125.558"/>
<text text-anchor="middle" x="451" y="-153.4" font-family="Times Roman,serif" font-size="14.00">versions</text>
</g>
<!-- User -->
<g id="node14" class="node"><title>User</title>
<ellipse fill="none" stroke="black" cx="1211" cy="-475" rx="33.9411" ry="18.3848"/>
<text text-anchor="middle" x="1211" y="-471.4" font-family="Times Roman,serif" font-size="14.00">User</text>
</g>
<!-- Comment&#45;&gt;Comment -->
<g id="edge40" class="edge"><title>Comment&#45;&gt;Comment</title>
<path fill="none" stroke="#ee66cf" d="M1305.51,-118.989C1315.28,-117.851 1322,-115.188 1322,-111 1322,-107.099 1316.17,-104.522 1307.48,-103.267"/>
<ellipse fill="none" stroke="#ee66cf" cx="1301.5" cy="-119.276" rx="4" ry="4"/>
<polygon fill="#ee66cf" stroke="#ee66cf" points="1307.47,-103.267 1297.88,-97.9541 1302.49,-102.853 1297.51,-102.439 1297.51,-102.439 1297.51,-102.439 1302.49,-102.853 1297.13,-106.923 1307.47,-103.267 1307.47,-103.267"/>
<text text-anchor="middle" x="1349.5" y="-107.4" font-family="Times Roman,serif" font-size="14.00">children</text>
</g>
<!-- Project&#45;&gt;Bike -->
<g id="edge42" class="edge"><title>Project&#45;&gt;Bike</title>
<path fill="none" stroke="#520a38" d="M1014.18,-256.117C1024.19,-246.242 1035.84,-234.739 1045.74,-224.968"/>
<ellipse fill="none" stroke="#520a38" cx="1011.32" cy="-258.945" rx="4.00002" ry="4.00002"/>
<ellipse fill="#520a38" stroke="#520a38" cx="1048.8" cy="-221.948" rx="4.00002" ry="4.00002"/>
</g>
<!-- Project&#45;&gt;Project::Youth -->
<g id="edge16" class="edge"><title>Project&#45;&gt;Project::Youth</title>
<path fill="none" stroke="black" d="M957.935,-266.054C950.795,-263.691 943.22,-261.501 936,-260 721.705,-215.459 661.686,-252.875 445,-222 433.975,-220.429 422.283,-218.325 411.083,-216.089"/>
</g>
<!-- Project&#45;&gt;Project::Scrap -->
<g id="edge20" class="edge"><title>Project&#45;&gt;Project::Scrap</title>
<path fill="none" stroke="black" d="M956.512,-266.632C949.742,-264.333 942.671,-262.021 936,-260 881.152,-243.383 817.687,-227.117 773.429,-216.243"/>
</g>
<!-- Project&#45;&gt;Project::Eab -->
<g id="edge24" class="edge"><title>Project&#45;&gt;Project::Eab</title>
<path fill="none" stroke="black" d="M976.156,-261.373C965.965,-249.27 952.477,-233.253 942.208,-221.059"/>
</g>
<!-- Project&#45;&gt;Comment -->
<g id="edge46" class="edge"><title>Project&#45;&gt;Comment</title>
<path fill="none" stroke="#418944" d="M1043.09,-271.774C1102.48,-260.502 1197.24,-232.622 1243,-166 1248.18,-158.465 1249.9,-148.888 1250.04,-139.845"/>
<ellipse fill="none" stroke="#418944" cx="1038.89" cy="-272.54" rx="4.00001" ry="4.00001"/>
<polygon fill="#418944" stroke="#418944" points="1250.03,-139.619 1254.07,-129.425 1249.8,-134.624 1249.57,-129.629 1249.57,-129.629 1249.57,-129.629 1249.8,-134.624 1245.08,-129.833 1250.03,-139.619 1250.03,-139.619"/>
<text text-anchor="middle" x="1289" y="-199.4" font-family="Times Roman,serif" font-size="14.00">comment_threads</text>
</g>
<!-- Detail -->
<g id="node47" class="node"><title>Detail</title>
<ellipse fill="none" stroke="black" cx="1440" cy="-203" rx="41.0122" ry="18.3848"/>
<text text-anchor="middle" x="1440" y="-199.4" font-family="Times Roman,serif" font-size="14.00">Detail</text>
</g>
<!-- Project&#45;&gt;Detail -->
<g id="edge44" class="edge"><title>Project&#45;&gt;Detail</title>
<path fill="none" stroke="#c26019" d="M1044.63,-274.986C1121.14,-268.419 1265.56,-252.897 1385,-222 1390.01,-220.705 1395.21,-219.168 1400.33,-217.538"/>
<ellipse fill="none" stroke="#c26019" cx="1040.53" cy="-275.332" rx="4" ry="4"/>
<ellipse fill="#c26019" stroke="#c26019" cx="1404.47" cy="-216.173" rx="4.00001" ry="4.00001"/>
</g>
<!-- SurveyorUtil -->
<g id="node18" class="node"><title>SurveyorUtil</title>
<polygon fill="none" stroke="black" stroke-dasharray="1,5" points="1367,-493 1263,-493 1263,-457 1367,-457 1367,-493"/>
<text text-anchor="middle" x="1315" y="-471.4" font-family="Times Roman,serif" font-size="14.00">SurveyorUtil</text>
</g>
<!-- PaperTrailContext -->
<g id="node19" class="node"><title>PaperTrailContext</title>
<polygon fill="none" stroke="black" stroke-dasharray="1,5" points="1525,-493 1385,-493 1385,-457 1525,-457 1525,-493"/>
<text text-anchor="middle" x="1455" y="-471.4" font-family="Times Roman,serif" font-size="14.00">PaperTrailContext</text>
</g>
<!-- ProjectCategory -->
<g id="node20" class="node"><title>ProjectCategory</title>
<ellipse fill="none" stroke="black" cx="965" cy="-475" rx="90.0096" ry="18.3848"/>
<text text-anchor="middle" x="965" y="-471.4" font-family="Times Roman,serif" font-size="14.00">ProjectCategory</text>
</g>
<!-- ProjectCategory&#45;&gt;Program -->
<g id="edge50" class="edge"><title>ProjectCategory&#45;&gt;Program</title>
<path fill="none" stroke="#10ab50" d="M951.18,-448.868C943.068,-433.528 932.824,-414.159 924.583,-398.576"/>
<ellipse fill="none" stroke="#10ab50" cx="953.297" cy="-452.871" rx="4.00002" ry="4.00002"/>
<polygon fill="#10ab50" stroke="#10ab50" points="924.423,-398.272 923.726,-387.328 922.085,-393.852 919.748,-389.432 919.748,-389.432 919.748,-389.432 922.085,-393.852 915.77,-391.536 924.423,-398.272 924.423,-398.272"/>
</g>
<!-- ProjectCategory&#45;&gt;Project -->
<g id="edge48" class="edge"><title>ProjectCategory&#45;&gt;Project</title>
<path fill="none" stroke="#04d332" d="M968.56,-448.16C973.428,-411.467 982.126,-345.895 987.144,-308.072"/>
<ellipse fill="none" stroke="#04d332" cx="968.019" cy="-452.241" rx="4.00001" ry="4.00001"/>
<polygon fill="#04d332" stroke="#04d332" points="987.199,-307.65 992.975,-298.328 987.857,-302.693 988.515,-297.736 988.515,-297.736 988.515,-297.736 987.857,-302.693 984.054,-297.145 987.199,-307.65 987.199,-307.65"/>
</g>
<!-- Version -->
<g id="node42" class="node"><title>Version</title>
<ellipse fill="none" stroke="black" cx="111" cy="-203" rx="48.0833" ry="18.3848"/>
<text text-anchor="middle" x="111" y="-199.4" font-family="Times Roman,serif" font-size="14.00">Version</text>
</g>
<!-- Version&#45;&gt;ProjectDetailVersion -->
<g id="edge38" class="edge"><title>Version&#45;&gt;ProjectDetailVersion</title>
<path fill="none" stroke="black" d="M111,-184.382C111,-168.421 111,-145.543 111,-129.59"/>
</g>
</g>
</svg>
