<?xml version="1.0" encoding="UTF-8" standalone="no"?>
<!DOCTYPE svg PUBLIC "-//W3C//DTD SVG 1.1//EN"
 "http://www.w3.org/Graphics/SVG/1.1/DTD/svg11.dtd">
<!-- Generated by graphviz version 2.26.3 (20100126.1600)
 -->
<!-- Title: models_diagram Pages: 1 -->
<svg width="1056pt" height="784pt"
 viewBox="0.00 0.00 1056.00 784.00" xmlns="http://www.w3.org/2000/svg" xmlns:xlink="http://www.w3.org/1999/xlink">
<g id="graph1" class="graph" transform="scale(1 1) rotate(0) translate(4 780)">
<title>models_diagram</title>
<polygon fill="white" stroke="white" points="-4,5 -4,-780 1053,-780 1053,5 -4,5"/>
<!-- _diagram_info -->
<g id="node1" class="node"><title>_diagram_info</title>
<text text-anchor="start" x="8" y="-689.8" font-family="Times Roman,serif" font-size="13.00">Models diagram</text>
<text text-anchor="start" x="8" y="-672.8" font-family="Times Roman,serif" font-size="13.00">Date: Mar 16 2012 &#45; 04:31</text>
<text text-anchor="start" x="8" y="-655.8" font-family="Times Roman,serif" font-size="13.00">Migration version: 20120316082735</text>
<text text-anchor="start" x="8" y="-638.8" font-family="Times Roman,serif" font-size="13.00">Generated by RailRoady 1.0.4</text>
<text text-anchor="start" x="8" y="-621.8" font-family="Times Roman,serif" font-size="13.00">http://railroady.prestonlee.com</text>
</g>
<!-- Program -->
<g id="node2" class="node"><title>Program</title>
<polyline fill="none" stroke="black" points="279.5,-606 446.5,-606 "/>
<path fill="none" stroke="black" d="M446.5,-606C452.5,-606 458.5,-612 458.5,-618"/>
<polyline fill="none" stroke="black" points="458.5,-618 458.5,-700 "/>
<path fill="none" stroke="black" d="M458.5,-700C458.5,-706 452.5,-712 446.5,-712"/>
<polyline fill="none" stroke="black" points="446.5,-712 279.5,-712 "/>
<path fill="none" stroke="black" d="M279.5,-712C273.5,-712 267.5,-706 267.5,-700"/>
<polyline fill="none" stroke="black" points="267.5,-700 267.5,-618 "/>
<path fill="none" stroke="black" d="M267.5,-618C267.5,-612 273.5,-606 279.5,-606"/>
<text text-anchor="middle" x="363" y="-695.4" font-family="Times Roman,serif" font-size="14.00">Program</text>
<polyline fill="none" stroke="black" points="267.5,-686 458.5,-686 "/>
<text text-anchor="start" x="275.5" y="-669.4" font-family="Times Roman,serif" font-size="14.00">title :string</text>
<text text-anchor="start" x="275.5" y="-651.4" font-family="Times Roman,serif" font-size="14.00">program_category :string</text>
<text text-anchor="start" x="275.5" y="-633.4" font-family="Times Roman,serif" font-size="14.00">created_at :datetime</text>
<text text-anchor="start" x="275.5" y="-615.4" font-family="Times Roman,serif" font-size="14.00">updated_at :datetime</text>
</g>
<!-- Project -->
<g id="node12" class="node"><title>Project</title>
<polyline fill="none" stroke="black" points="290,-397 446,-397 "/>
<path fill="none" stroke="black" d="M446,-397C452,-397 458,-403 458,-409"/>
<polyline fill="none" stroke="black" points="458,-409 458,-491 "/>
<path fill="none" stroke="black" d="M458,-491C458,-497 452,-503 446,-503"/>
<polyline fill="none" stroke="black" points="446,-503 290,-503 "/>
<path fill="none" stroke="black" d="M290,-503C284,-503 278,-497 278,-491"/>
<polyline fill="none" stroke="black" points="278,-491 278,-409 "/>
<path fill="none" stroke="black" d="M278,-409C278,-403 284,-397 290,-397"/>
<text text-anchor="middle" x="368" y="-486.4" font-family="Times Roman,serif" font-size="14.00">Project</text>
<polyline fill="none" stroke="black" points="278,-477 458,-477 "/>
<text text-anchor="start" x="286" y="-460.4" font-family="Times Roman,serif" font-size="14.00">project_category :string</text>
<text text-anchor="start" x="286" y="-442.4" font-family="Times Roman,serif" font-size="14.00">projectable_type :string</text>
<text text-anchor="start" x="286" y="-424.4" font-family="Times Roman,serif" font-size="14.00">created_at :datetime</text>
<text text-anchor="start" x="286" y="-406.4" font-family="Times Roman,serif" font-size="14.00">updated_at :datetime</text>
</g>
<!-- Program&#45;&gt;Project -->
<g id="edge2" class="edge"><title>Program&#45;&gt;Project</title>
<path fill="none" stroke="black" d="M364.466,-597.711C365.101,-571.17 365.844,-540.115 366.485,-513.347"/>
<ellipse fill="none" stroke="black" cx="364.364" cy="-601.991" rx="4" ry="4"/>
<polygon fill="black" stroke="black" points="366.485,-513.313 371.223,-503.424 366.605,-508.315 366.724,-503.316 366.724,-503.316 366.724,-503.316 366.605,-508.315 362.226,-503.209 366.485,-513.313 366.485,-513.313"/>
</g>
<!-- Bike -->
<g id="node3" class="node"><title>Bike</title>
<polyline fill="none" stroke="black" points="487.5,-552 640.5,-552 "/>
<path fill="none" stroke="black" d="M640.5,-552C646.5,-552 652.5,-558 652.5,-564"/>
<polyline fill="none" stroke="black" points="652.5,-564 652.5,-754 "/>
<path fill="none" stroke="black" d="M652.5,-754C652.5,-760 646.5,-766 640.5,-766"/>
<polyline fill="none" stroke="black" points="640.5,-766 487.5,-766 "/>
<path fill="none" stroke="black" d="M487.5,-766C481.5,-766 475.5,-760 475.5,-754"/>
<polyline fill="none" stroke="black" points="475.5,-754 475.5,-564 "/>
<path fill="none" stroke="black" d="M475.5,-564C475.5,-558 481.5,-552 487.5,-552"/>
<text text-anchor="middle" x="564" y="-749.4" font-family="Times Roman,serif" font-size="14.00">Bike</text>
<polyline fill="none" stroke="black" points="475.5,-740 652.5,-740 "/>
<text text-anchor="start" x="483.5" y="-723.4" font-family="Times Roman,serif" font-size="14.00">color :string</text>
<text text-anchor="start" x="483.5" y="-705.4" font-family="Times Roman,serif" font-size="14.00">value :float</text>
<text text-anchor="start" x="483.5" y="-687.4" font-family="Times Roman,serif" font-size="14.00">seat_tube_height :float</text>
<text text-anchor="start" x="483.5" y="-669.4" font-family="Times Roman,serif" font-size="14.00">top_tube_length :float</text>
<text text-anchor="start" x="483.5" y="-651.4" font-family="Times Roman,serif" font-size="14.00">created_at :datetime</text>
<text text-anchor="start" x="483.5" y="-633.4" font-family="Times Roman,serif" font-size="14.00">updated_at :datetime</text>
<text text-anchor="start" x="483.5" y="-615.4" font-family="Times Roman,serif" font-size="14.00">mfg :string</text>
<text text-anchor="start" x="483.5" y="-597.4" font-family="Times Roman,serif" font-size="14.00">model :string</text>
<text text-anchor="start" x="483.5" y="-579.4" font-family="Times Roman,serif" font-size="14.00">number :integer</text>
<text text-anchor="start" x="483.5" y="-561.4" font-family="Times Roman,serif" font-size="14.00">hook_number :integer</text>
</g>
<!-- Hook -->
<g id="node9" class="node"><title>Hook</title>
<polyline fill="none" stroke="black" points="487.5,-397 628.5,-397 "/>
<path fill="none" stroke="black" d="M628.5,-397C634.5,-397 640.5,-403 640.5,-409"/>
<polyline fill="none" stroke="black" points="640.5,-409 640.5,-491 "/>
<path fill="none" stroke="black" d="M640.5,-491C640.5,-497 634.5,-503 628.5,-503"/>
<polyline fill="none" stroke="black" points="628.5,-503 487.5,-503 "/>
<path fill="none" stroke="black" d="M487.5,-503C481.5,-503 475.5,-497 475.5,-491"/>
<polyline fill="none" stroke="black" points="475.5,-491 475.5,-409 "/>
<path fill="none" stroke="black" d="M475.5,-409C475.5,-403 481.5,-397 487.5,-397"/>
<text text-anchor="middle" x="558" y="-486.4" font-family="Times Roman,serif" font-size="14.00">Hook</text>
<polyline fill="none" stroke="black" points="475.5,-477 640.5,-477 "/>
<text text-anchor="start" x="483.5" y="-460.4" font-family="Times Roman,serif" font-size="14.00">number :integer</text>
<text text-anchor="start" x="483.5" y="-442.4" font-family="Times Roman,serif" font-size="14.00">created_at :datetime</text>
<text text-anchor="start" x="483.5" y="-424.4" font-family="Times Roman,serif" font-size="14.00">updated_at :datetime</text>
<text text-anchor="start" x="483.5" y="-406.4" font-family="Times Roman,serif" font-size="14.00">bike_number :integer</text>
</g>
<!-- Bike&#45;&gt;Hook -->
<g id="edge6" class="edge"><title>Bike&#45;&gt;Hook</title>
<path fill="none" stroke="black" d="M560.682,-543.424C560.363,-532.304 560.048,-521.353 559.754,-511.083"/>
<ellipse fill="none" stroke="black" cx="560.806" cy="-547.747" rx="4" ry="4"/>
<ellipse fill="black" stroke="black" cx="559.636" cy="-507" rx="4" ry="4"/>
</g>
<!-- Comment -->
<g id="node11" class="node"><title>Comment</title>
<polyline fill="none" stroke="black" points="565,-163 737,-163 "/>
<path fill="none" stroke="black" d="M737,-163C743,-163 749,-169 749,-175"/>
<polyline fill="none" stroke="black" points="749,-175 749,-329 "/>
<path fill="none" stroke="black" d="M749,-329C749,-335 743,-341 737,-341"/>
<polyline fill="none" stroke="black" points="737,-341 565,-341 "/>
<path fill="none" stroke="black" d="M565,-341C559,-341 553,-335 553,-329"/>
<polyline fill="none" stroke="black" points="553,-329 553,-175 "/>
<path fill="none" stroke="black" d="M553,-175C553,-169 559,-163 565,-163"/>
<text text-anchor="middle" x="651" y="-324.4" font-family="Times Roman,serif" font-size="14.00">Comment</text>
<polyline fill="none" stroke="black" points="553,-315 749,-315 "/>
<text text-anchor="start" x="561" y="-298.4" font-family="Times Roman,serif" font-size="14.00">commentable_type :string</text>
<text text-anchor="start" x="561" y="-280.4" font-family="Times Roman,serif" font-size="14.00">title :string</text>
<text text-anchor="start" x="561" y="-262.4" font-family="Times Roman,serif" font-size="14.00">body :text</text>
<text text-anchor="start" x="561" y="-244.4" font-family="Times Roman,serif" font-size="14.00">subject :string</text>
<text text-anchor="start" x="561" y="-226.4" font-family="Times Roman,serif" font-size="14.00">lft :integer</text>
<text text-anchor="start" x="561" y="-208.4" font-family="Times Roman,serif" font-size="14.00">rgt :integer</text>
<text text-anchor="start" x="561" y="-190.4" font-family="Times Roman,serif" font-size="14.00">created_at :datetime</text>
<text text-anchor="start" x="561" y="-172.4" font-family="Times Roman,serif" font-size="14.00">updated_at :datetime</text>
</g>
<!-- Bike&#45;&gt;Comment -->
<g id="edge4" class="edge"><title>Bike&#45;&gt;Comment</title>
<path fill="none" stroke="black" d="M634.737,-544.413C640.514,-531.157 645.476,-517.532 649,-504 661.815,-454.793 663.406,-398.325 661.324,-351.332"/>
<ellipse fill="none" stroke="black" cx="633.087" cy="-548.088" rx="4.00002" ry="4.00002"/>
<polygon fill="black" stroke="black" points="661.314,-351.134 665.303,-340.92 661.061,-346.141 660.809,-341.147 660.809,-341.147 660.809,-341.147 661.061,-346.141 656.315,-341.374 661.314,-351.134 661.314,-351.134"/>
<text text-anchor="middle" x="723" y="-446.4" font-family="Times Roman,serif" font-size="14.00">comment_threads</text>
</g>
<!-- Bike&#45;&gt;Project -->
<g id="edge8" class="edge"><title>Bike&#45;&gt;Project</title>
<path fill="none" stroke="black" d="M470.371,-545.592C469.245,-544.384 468.121,-543.187 467,-542 456.502,-530.891 444.936,-519.478 433.525,-508.635"/>
<ellipse fill="none" stroke="black" cx="473.296" cy="-548.764" rx="4.00002" ry="4.00002"/>
<ellipse fill="black" stroke="black" cx="430.488" cy="-505.768" rx="4.00002" ry="4.00002"/>
</g>
<!-- Project::Youth -->
<g id="node4" class="node"><title>Project::Youth</title>
<polyline fill="none" stroke="black" points="156,-199 312,-199 "/>
<path fill="none" stroke="black" d="M312,-199C318,-199 324,-205 324,-211"/>
<polyline fill="none" stroke="black" points="324,-211 324,-293 "/>
<path fill="none" stroke="black" d="M324,-293C324,-299 318,-305 312,-305"/>
<polyline fill="none" stroke="black" points="312,-305 156,-305 "/>
<path fill="none" stroke="black" d="M156,-305C150,-305 144,-299 144,-293"/>
<polyline fill="none" stroke="black" points="144,-293 144,-211 "/>
<path fill="none" stroke="black" d="M144,-211C144,-205 150,-199 156,-199"/>
<text text-anchor="middle" x="234" y="-288.4" font-family="Times Roman,serif" font-size="14.00">Project::Youth</text>
<polyline fill="none" stroke="black" points="144,-279 324,-279 "/>
<text text-anchor="start" x="152" y="-262.4" font-family="Times Roman,serif" font-size="14.00">project_category :string</text>
<text text-anchor="start" x="152" y="-244.4" font-family="Times Roman,serif" font-size="14.00">projectable_type :string</text>
<text text-anchor="start" x="152" y="-226.4" font-family="Times Roman,serif" font-size="14.00">created_at :datetime</text>
<text text-anchor="start" x="152" y="-208.4" font-family="Times Roman,serif" font-size="14.00">updated_at :datetime</text>
</g>
<!-- Project::Spec::Youth -->
<g id="node5" class="node"><title>Project::Spec::Youth</title>
<polyline fill="none" stroke="black" points="163.5,-1 304.5,-1 "/>
<path fill="none" stroke="black" d="M304.5,-1C310.5,-1 316.5,-7 316.5,-13"/>
<polyline fill="none" stroke="black" points="316.5,-13 316.5,-95 "/>
<path fill="none" stroke="black" d="M316.5,-95C316.5,-101 310.5,-107 304.5,-107"/>
<polyline fill="none" stroke="black" points="304.5,-107 163.5,-107 "/>
<path fill="none" stroke="black" d="M163.5,-107C157.5,-107 151.5,-101 151.5,-95"/>
<polyline fill="none" stroke="black" points="151.5,-95 151.5,-13 "/>
<path fill="none" stroke="black" d="M151.5,-13C151.5,-7 157.5,-1 163.5,-1"/>
<text text-anchor="middle" x="234" y="-90.4" font-family="Times Roman,serif" font-size="14.00">Project::Spec::Youth</text>
<polyline fill="none" stroke="black" points="151.5,-81 316.5,-81 "/>
<text text-anchor="start" x="159.5" y="-64.4" font-family="Times Roman,serif" font-size="14.00">state :string</text>
<text text-anchor="start" x="159.5" y="-46.4" font-family="Times Roman,serif" font-size="14.00">specable_type :string</text>
<text text-anchor="start" x="159.5" y="-28.4" font-family="Times Roman,serif" font-size="14.00">created_at :datetime</text>
<text text-anchor="start" x="159.5" y="-10.4" font-family="Times Roman,serif" font-size="14.00">updated_at :datetime</text>
</g>
<!-- Project::Youth&#45;&gt;Project::Spec::Youth -->
<g id="edge10" class="edge"><title>Project::Youth&#45;&gt;Project::Spec::Youth</title>
<path fill="none" stroke="black" d="M234,-190.789C234,-166.762 234,-139.239 234,-115.211"/>
<ellipse fill="none" stroke="black" cx="234" cy="-194.94" rx="4" ry="4"/>
<ellipse fill="black" stroke="black" cx="234" cy="-111.207" rx="4" ry="4"/>
<text text-anchor="middle" x="249.5" y="-131.4" font-family="Times Roman,serif" font-size="14.00">spec</text>
</g>
<!-- Project::Spec::Eab -->
<g id="node6" class="node"><title>Project::Spec::Eab</title>
<polyline fill="none" stroke="black" points="361.5,-1 502.5,-1 "/>
<path fill="none" stroke="black" d="M502.5,-1C508.5,-1 514.5,-7 514.5,-13"/>
<polyline fill="none" stroke="black" points="514.5,-13 514.5,-95 "/>
<path fill="none" stroke="black" d="M514.5,-95C514.5,-101 508.5,-107 502.5,-107"/>
<polyline fill="none" stroke="black" points="502.5,-107 361.5,-107 "/>
<path fill="none" stroke="black" d="M361.5,-107C355.5,-107 349.5,-101 349.5,-95"/>
<polyline fill="none" stroke="black" points="349.5,-95 349.5,-13 "/>
<path fill="none" stroke="black" d="M349.5,-13C349.5,-7 355.5,-1 361.5,-1"/>
<text text-anchor="middle" x="432" y="-90.4" font-family="Times Roman,serif" font-size="14.00">Project::Spec::Eab</text>
<polyline fill="none" stroke="black" points="349.5,-81 514.5,-81 "/>
<text text-anchor="start" x="357.5" y="-64.4" font-family="Times Roman,serif" font-size="14.00">state :string</text>
<text text-anchor="start" x="357.5" y="-46.4" font-family="Times Roman,serif" font-size="14.00">specable_type :string</text>
<text text-anchor="start" x="357.5" y="-28.4" font-family="Times Roman,serif" font-size="14.00">created_at :datetime</text>
<text text-anchor="start" x="357.5" y="-10.4" font-family="Times Roman,serif" font-size="14.00">updated_at :datetime</text>
</g>
<!-- Project::EAB -->
<g id="node7" class="node"><title>Project::EAB</title>
<polyline fill="none" stroke="black" points="354,-199 510,-199 "/>
<path fill="none" stroke="black" d="M510,-199C516,-199 522,-205 522,-211"/>
<polyline fill="none" stroke="black" points="522,-211 522,-293 "/>
<path fill="none" stroke="black" d="M522,-293C522,-299 516,-305 510,-305"/>
<polyline fill="none" stroke="black" points="510,-305 354,-305 "/>
<path fill="none" stroke="black" d="M354,-305C348,-305 342,-299 342,-293"/>
<polyline fill="none" stroke="black" points="342,-293 342,-211 "/>
<path fill="none" stroke="black" d="M342,-211C342,-205 348,-199 354,-199"/>
<text text-anchor="middle" x="432" y="-288.4" font-family="Times Roman,serif" font-size="14.00">Project::EAB</text>
<polyline fill="none" stroke="black" points="342,-279 522,-279 "/>
<text text-anchor="start" x="350" y="-262.4" font-family="Times Roman,serif" font-size="14.00">project_category :string</text>
<text text-anchor="start" x="350" y="-244.4" font-family="Times Roman,serif" font-size="14.00">projectable_type :string</text>
<text text-anchor="start" x="350" y="-226.4" font-family="Times Roman,serif" font-size="14.00">created_at :datetime</text>
<text text-anchor="start" x="350" y="-208.4" font-family="Times Roman,serif" font-size="14.00">updated_at :datetime</text>
</g>
<!-- Project::EAB&#45;&gt;Project::Spec::Eab -->
<g id="edge14" class="edge"><title>Project::EAB&#45;&gt;Project::Spec::Eab</title>
<path fill="none" stroke="black" d="M432,-190.789C432,-166.762 432,-139.239 432,-115.211"/>
<ellipse fill="none" stroke="black" cx="432" cy="-194.94" rx="4" ry="4"/>
<ellipse fill="black" stroke="black" cx="432" cy="-111.207" rx="4" ry="4"/>
<text text-anchor="middle" x="447.5" y="-131.4" font-family="Times Roman,serif" font-size="14.00">spec</text>
</g>
<!-- Project::Spec -->
<g id="node8" class="node"><title>Project::Spec</title>
<polygon fill="none" stroke="black" stroke-dasharray="1,5" points="776,-677 670,-677 670,-641 776,-641 776,-677"/>
<text text-anchor="middle" x="723" y="-655.4" font-family="Times Roman,serif" font-size="14.00">Project::Spec</text>
</g>
<!-- User -->
<g id="node10" class="node"><title>User</title>
<polyline fill="none" stroke="black" points="806,-543 1036,-543 "/>
<path fill="none" stroke="black" d="M1036,-543C1042,-543 1048,-549 1048,-555"/>
<polyline fill="none" stroke="black" points="1048,-555 1048,-763 "/>
<path fill="none" stroke="black" d="M1048,-763C1048,-769 1042,-775 1036,-775"/>
<polyline fill="none" stroke="black" points="1036,-775 806,-775 "/>
<path fill="none" stroke="black" d="M806,-775C800,-775 794,-769 794,-763"/>
<polyline fill="none" stroke="black" points="794,-763 794,-555 "/>
<path fill="none" stroke="black" d="M794,-555C794,-549 800,-543 806,-543"/>
<text text-anchor="middle" x="921" y="-758.4" font-family="Times Roman,serif" font-size="14.00">User</text>
<polyline fill="none" stroke="black" points="794,-749 1048,-749 "/>
<text text-anchor="start" x="802" y="-732.4" font-family="Times Roman,serif" font-size="14.00">email :string</text>
<text text-anchor="start" x="802" y="-714.4" font-family="Times Roman,serif" font-size="14.00">encrypted_password :string</text>
<text text-anchor="start" x="802" y="-696.4" font-family="Times Roman,serif" font-size="14.00">reset_password_token :string</text>
<text text-anchor="start" x="802" y="-678.4" font-family="Times Roman,serif" font-size="14.00">reset_password_sent_at :datetime</text>
<text text-anchor="start" x="802" y="-660.4" font-family="Times Roman,serif" font-size="14.00">remember_created_at :datetime</text>
<text text-anchor="start" x="802" y="-642.4" font-family="Times Roman,serif" font-size="14.00">current_sign_in_at :datetime</text>
<text text-anchor="start" x="802" y="-624.4" font-family="Times Roman,serif" font-size="14.00">last_sign_in_at :datetime</text>
<text text-anchor="start" x="802" y="-606.4" font-family="Times Roman,serif" font-size="14.00">current_sign_in_ip :string</text>
<text text-anchor="start" x="802" y="-588.4" font-family="Times Roman,serif" font-size="14.00">last_sign_in_ip :string</text>
<text text-anchor="start" x="802" y="-570.4" font-family="Times Roman,serif" font-size="14.00">created_at :datetime</text>
<text text-anchor="start" x="802" y="-552.4" font-family="Times Roman,serif" font-size="14.00">updated_at :datetime</text>
</g>
<!-- Comment&#45;&gt;Comment -->
<g id="edge18" class="edge"><title>Comment&#45;&gt;Comment</title>
<path fill="none" stroke="black" d="M756.931,-266.972C763.227,-263.396 767,-258.406 767,-252 767,-246.139 763.842,-241.463 758.483,-237.971"/>
<ellipse fill="none" stroke="black" cx="752.845" cy="-268.722" rx="4.00001" ry="4.00001"/>
<polygon fill="black" stroke="black" points="758.259,-237.869 751.042,-229.612 753.713,-235.786 749.168,-233.703 749.168,-233.703 749.168,-233.703 753.713,-235.786 747.293,-237.794 758.259,-237.869 758.259,-237.869"/>
<text text-anchor="middle" x="794.5" y="-248.4" font-family="Times Roman,serif" font-size="14.00">children</text>
</g>
<!-- Project&#45;&gt;Project::Youth -->
<g id="edge12" class="edge"><title>Project&#45;&gt;Project::Youth</title>
<path fill="none" stroke="black" d="M332.09,-396.94C312.864,-368.531 289.25,-333.638 270.009,-305.207"/>
</g>
<!-- Project&#45;&gt;Project::EAB -->
<g id="edge16" class="edge"><title>Project&#45;&gt;Project::EAB</title>
<path fill="none" stroke="black" d="M385.151,-396.94C394.333,-368.531 405.612,-333.638 414.802,-305.207"/>
</g>
<!-- Project&#45;&gt;Comment -->
<g id="edge20" class="edge"><title>Project&#45;&gt;Comment</title>
<path fill="none" stroke="black" d="M457.067,-392.337C481.247,-376.317 507.292,-358.723 531,-342 535.456,-338.857 539.985,-335.626 544.546,-332.343"/>
<ellipse fill="none" stroke="black" cx="453.637" cy="-394.606" rx="4.00002" ry="4.00002"/>
<polygon fill="black" stroke="black" points="544.681,-332.246 555.42,-330.03 548.732,-329.315 552.782,-326.384 552.782,-326.384 552.782,-326.384 548.732,-329.315 550.145,-322.738 544.681,-332.246 544.681,-332.246"/>
<text text-anchor="middle" x="566" y="-365.4" font-family="Times Roman,serif" font-size="14.00">comment_threads</text>
</g>
</g>
</svg>
