<?xml version="1.0" encoding="UTF-8" standalone="no"?>
<!DOCTYPE svg PUBLIC "-//W3C//DTD SVG 1.1//EN"
 "http://www.w3.org/Graphics/SVG/1.1/DTD/svg11.dtd">
<!-- Generated by graphviz version 2.26.3 (20100126.1600)
 -->
<!-- Title: models_diagram Pages: 1 -->
<svg width="872pt" height="1036pt"
 viewBox="0.00 0.00 872.00 1036.00" xmlns="http://www.w3.org/2000/svg" xmlns:xlink="http://www.w3.org/1999/xlink">
<g id="graph1" class="graph" transform="scale(1 1) rotate(0) translate(4 1032)">
<title>models_diagram</title>
<polygon fill="white" stroke="white" points="-4,5 -4,-1032 869,-1032 869,5 -4,5"/>
<!-- _diagram_info -->
<g id="node1" class="node"><title>_diagram_info</title>
<text text-anchor="start" x="8" y="-941.8" font-family="Times Roman,serif" font-size="13.00">Models diagram</text>
<text text-anchor="start" x="8" y="-924.8" font-family="Times Roman,serif" font-size="13.00">Date: Mar 23 2012 &#45; 03:14</text>
<text text-anchor="start" x="8" y="-907.8" font-family="Times Roman,serif" font-size="13.00">Migration version: 20120321122710</text>
<text text-anchor="start" x="8" y="-890.8" font-family="Times Roman,serif" font-size="13.00">Generated by RailRoady 1.0.4</text>
<text text-anchor="start" x="8" y="-873.8" font-family="Times Roman,serif" font-size="13.00">http://railroady.prestonlee.com</text>
</g>
<!-- Program -->
<g id="node2" class="node"><title>Program</title>
<polyline fill="none" stroke="black" points="202.5,-586 343.5,-586 "/>
<path fill="none" stroke="black" d="M343.5,-586C349.5,-586 355.5,-592 355.5,-598"/>
<polyline fill="none" stroke="black" points="355.5,-598 355.5,-716 "/>
<path fill="none" stroke="black" d="M355.5,-716C355.5,-722 349.5,-728 343.5,-728"/>
<polyline fill="none" stroke="black" points="343.5,-728 202.5,-728 "/>
<path fill="none" stroke="black" d="M202.5,-728C196.5,-728 190.5,-722 190.5,-716"/>
<polyline fill="none" stroke="black" points="190.5,-716 190.5,-598 "/>
<path fill="none" stroke="black" d="M190.5,-598C190.5,-592 196.5,-586 202.5,-586"/>
<text text-anchor="middle" x="273" y="-711.4" font-family="Times Roman,serif" font-size="14.00">Program</text>
<polyline fill="none" stroke="black" points="190.5,-702 355.5,-702 "/>
<text text-anchor="start" x="198.5" y="-685.4" font-family="Times Roman,serif" font-size="14.00">title :string</text>
<text text-anchor="start" x="198.5" y="-667.4" font-family="Times Roman,serif" font-size="14.00">created_at :datetime</text>
<text text-anchor="start" x="198.5" y="-649.4" font-family="Times Roman,serif" font-size="14.00">updated_at :datetime</text>
<text text-anchor="start" x="198.5" y="-631.4" font-family="Times Roman,serif" font-size="14.00">slug :string</text>
<text text-anchor="start" x="198.5" y="-613.4" font-family="Times Roman,serif" font-size="14.00">max_open :integer</text>
<text text-anchor="start" x="198.5" y="-595.4" font-family="Times Roman,serif" font-size="14.00">max_total :integer</text>
</g>
<!-- Project -->
<g id="node12" class="node"><title>Project</title>
<polyline fill="none" stroke="black" points="305.5,-397 460.5,-397 "/>
<path fill="none" stroke="black" d="M460.5,-397C466.5,-397 472.5,-403 472.5,-409"/>
<polyline fill="none" stroke="black" points="472.5,-409 472.5,-491 "/>
<path fill="none" stroke="black" d="M472.5,-491C472.5,-497 466.5,-503 460.5,-503"/>
<polyline fill="none" stroke="black" points="460.5,-503 305.5,-503 "/>
<path fill="none" stroke="black" d="M305.5,-503C299.5,-503 293.5,-497 293.5,-491"/>
<polyline fill="none" stroke="black" points="293.5,-491 293.5,-409 "/>
<path fill="none" stroke="black" d="M293.5,-409C293.5,-403 299.5,-397 305.5,-397"/>
<text text-anchor="middle" x="383" y="-486.4" font-family="Times Roman,serif" font-size="14.00">Project</text>
<polyline fill="none" stroke="black" points="293.5,-477 472.5,-477 "/>
<text text-anchor="start" x="301.5" y="-460.4" font-family="Times Roman,serif" font-size="14.00">projectable_type :string</text>
<text text-anchor="start" x="301.5" y="-442.4" font-family="Times Roman,serif" font-size="14.00">label :string</text>
<text text-anchor="start" x="301.5" y="-424.4" font-family="Times Roman,serif" font-size="14.00">created_at :datetime</text>
<text text-anchor="start" x="301.5" y="-406.4" font-family="Times Roman,serif" font-size="14.00">updated_at :datetime</text>
</g>
<!-- Program&#45;&gt;Project -->
<g id="edge4" class="edge"><title>Program&#45;&gt;Project</title>
<path fill="none" stroke="black" d="M314.781,-578.376C326.432,-556.451 338.924,-532.944 349.993,-512.113"/>
<ellipse fill="none" stroke="black" cx="312.733" cy="-582.23" rx="4.00002" ry="4.00002"/>
<polygon fill="black" stroke="black" points="350.114,-511.886 358.78,-505.167 352.46,-507.471 354.806,-503.056 354.806,-503.056 354.806,-503.056 352.46,-507.471 350.832,-500.944 350.114,-511.886 350.114,-511.886"/>
</g>
<!-- FriendlyId::Slug -->
<g id="node15" class="node"><title>FriendlyId::Slug</title>
<ellipse fill="none" stroke="black" cx="189" cy="-450" rx="86.9741" ry="18.3848"/>
<text text-anchor="middle" x="189" y="-446.4" font-family="Times Roman,serif" font-size="14.00">FriendlyId::Slug</text>
</g>
<!-- Program&#45;&gt;FriendlyId::Slug -->
<g id="edge2" class="edge"><title>Program&#45;&gt;FriendlyId::Slug</title>
<path fill="none" stroke="black" d="M240.89,-577.873C226.623,-542.715 210.742,-503.578 200.352,-477.975"/>
<ellipse fill="none" stroke="black" cx="242.588" cy="-582.056" rx="4.00001" ry="4.00001"/>
<polygon fill="black" stroke="black" points="200.282,-477.801 200.691,-466.843 198.402,-473.168 196.521,-468.535 196.521,-468.535 196.521,-468.535 198.402,-473.168 192.352,-470.227 200.282,-477.801 200.282,-477.801"/>
<text text-anchor="middle" x="240.5" y="-527.4" font-family="Times Roman,serif" font-size="14.00">slugs</text>
</g>
<!-- Bike -->
<g id="node3" class="node"><title>Bike</title>
<polyline fill="none" stroke="black" points="481.5,-559 634.5,-559 "/>
<path fill="none" stroke="black" d="M634.5,-559C640.5,-559 646.5,-565 646.5,-571"/>
<polyline fill="none" stroke="black" points="646.5,-571 646.5,-743 "/>
<path fill="none" stroke="black" d="M646.5,-743C646.5,-749 640.5,-755 634.5,-755"/>
<polyline fill="none" stroke="black" points="634.5,-755 481.5,-755 "/>
<path fill="none" stroke="black" d="M481.5,-755C475.5,-755 469.5,-749 469.5,-743"/>
<polyline fill="none" stroke="black" points="469.5,-743 469.5,-571 "/>
<path fill="none" stroke="black" d="M469.5,-571C469.5,-565 475.5,-559 481.5,-559"/>
<text text-anchor="middle" x="558" y="-738.4" font-family="Times Roman,serif" font-size="14.00">Bike</text>
<polyline fill="none" stroke="black" points="469.5,-729 646.5,-729 "/>
<text text-anchor="start" x="477.5" y="-712.4" font-family="Times Roman,serif" font-size="14.00">color :string</text>
<text text-anchor="start" x="477.5" y="-694.4" font-family="Times Roman,serif" font-size="14.00">value :float</text>
<text text-anchor="start" x="477.5" y="-676.4" font-family="Times Roman,serif" font-size="14.00">seat_tube_height :float</text>
<text text-anchor="start" x="477.5" y="-658.4" font-family="Times Roman,serif" font-size="14.00">top_tube_length :float</text>
<text text-anchor="start" x="477.5" y="-640.4" font-family="Times Roman,serif" font-size="14.00">created_at :datetime</text>
<text text-anchor="start" x="477.5" y="-622.4" font-family="Times Roman,serif" font-size="14.00">updated_at :datetime</text>
<text text-anchor="start" x="477.5" y="-604.4" font-family="Times Roman,serif" font-size="14.00">mfg :string</text>
<text text-anchor="start" x="477.5" y="-586.4" font-family="Times Roman,serif" font-size="14.00">model :string</text>
<text text-anchor="start" x="477.5" y="-568.4" font-family="Times Roman,serif" font-size="14.00">number :string</text>
</g>
<!-- Hook -->
<g id="node9" class="node"><title>Hook</title>
<polyline fill="none" stroke="black" points="711.5,-406 852.5,-406 "/>
<path fill="none" stroke="black" d="M852.5,-406C858.5,-406 864.5,-412 864.5,-418"/>
<polyline fill="none" stroke="black" points="864.5,-418 864.5,-482 "/>
<path fill="none" stroke="black" d="M864.5,-482C864.5,-488 858.5,-494 852.5,-494"/>
<polyline fill="none" stroke="black" points="852.5,-494 711.5,-494 "/>
<path fill="none" stroke="black" d="M711.5,-494C705.5,-494 699.5,-488 699.5,-482"/>
<polyline fill="none" stroke="black" points="699.5,-482 699.5,-418 "/>
<path fill="none" stroke="black" d="M699.5,-418C699.5,-412 705.5,-406 711.5,-406"/>
<text text-anchor="middle" x="782" y="-477.4" font-family="Times Roman,serif" font-size="14.00">Hook</text>
<polyline fill="none" stroke="black" points="699.5,-468 864.5,-468 "/>
<text text-anchor="start" x="707.5" y="-451.4" font-family="Times Roman,serif" font-size="14.00">number :string</text>
<text text-anchor="start" x="707.5" y="-433.4" font-family="Times Roman,serif" font-size="14.00">created_at :datetime</text>
<text text-anchor="start" x="707.5" y="-415.4" font-family="Times Roman,serif" font-size="14.00">updated_at :datetime</text>
</g>
<!-- Bike&#45;&gt;Hook -->
<g id="edge8" class="edge"><title>Bike&#45;&gt;Hook</title>
<path fill="none" stroke="black" d="M652.528,-569.646C678.437,-545.703 705.625,-520.578 728.361,-499.568"/>
<ellipse fill="none" stroke="black" cx="649.468" cy="-572.473" rx="4.00002" ry="4.00002"/>
<ellipse fill="black" stroke="black" cx="731.408" cy="-496.753" rx="4.00002" ry="4.00002"/>
</g>
<!-- Comment -->
<g id="node11" class="node"><title>Comment</title>
<polyline fill="none" stroke="black" points="477,-163 649,-163 "/>
<path fill="none" stroke="black" d="M649,-163C655,-163 661,-169 661,-175"/>
<polyline fill="none" stroke="black" points="661,-175 661,-329 "/>
<path fill="none" stroke="black" d="M661,-329C661,-335 655,-341 649,-341"/>
<polyline fill="none" stroke="black" points="649,-341 477,-341 "/>
<path fill="none" stroke="black" d="M477,-341C471,-341 465,-335 465,-329"/>
<polyline fill="none" stroke="black" points="465,-329 465,-175 "/>
<path fill="none" stroke="black" d="M465,-175C465,-169 471,-163 477,-163"/>
<text text-anchor="middle" x="563" y="-324.4" font-family="Times Roman,serif" font-size="14.00">Comment</text>
<polyline fill="none" stroke="black" points="465,-315 661,-315 "/>
<text text-anchor="start" x="473" y="-298.4" font-family="Times Roman,serif" font-size="14.00">commentable_type :string</text>
<text text-anchor="start" x="473" y="-280.4" font-family="Times Roman,serif" font-size="14.00">title :string</text>
<text text-anchor="start" x="473" y="-262.4" font-family="Times Roman,serif" font-size="14.00">body :text</text>
<text text-anchor="start" x="473" y="-244.4" font-family="Times Roman,serif" font-size="14.00">subject :string</text>
<text text-anchor="start" x="473" y="-226.4" font-family="Times Roman,serif" font-size="14.00">lft :integer</text>
<text text-anchor="start" x="473" y="-208.4" font-family="Times Roman,serif" font-size="14.00">rgt :integer</text>
<text text-anchor="start" x="473" y="-190.4" font-family="Times Roman,serif" font-size="14.00">created_at :datetime</text>
<text text-anchor="start" x="473" y="-172.4" font-family="Times Roman,serif" font-size="14.00">updated_at :datetime</text>
</g>
<!-- Bike&#45;&gt;Comment -->
<g id="edge6" class="edge"><title>Bike&#45;&gt;Comment</title>
<path fill="none" stroke="black" d="M559.312,-550.693C560.073,-489.061 561.025,-411.941 561.772,-351.504"/>
<ellipse fill="none" stroke="black" cx="559.26" cy="-554.961" rx="4" ry="4"/>
<polygon fill="black" stroke="black" points="561.775,-351.188 566.399,-341.244 561.837,-346.188 561.899,-341.188 561.899,-341.188 561.899,-341.188 561.837,-346.188 557.399,-341.133 561.775,-351.188 561.775,-351.188"/>
<text text-anchor="middle" x="623" y="-446.4" font-family="Times Roman,serif" font-size="14.00">comment_threads</text>
</g>
<!-- Bike&#45;&gt;Project -->
<g id="edge10" class="edge"><title>Bike&#45;&gt;Project</title>
<path fill="none" stroke="black" d="M469.774,-552.641C457.204,-537.773 444.654,-522.928 433.162,-509.335"/>
<ellipse fill="none" stroke="black" cx="472.53" cy="-555.901" rx="4.00002" ry="4.00002"/>
<ellipse fill="black" stroke="black" cx="430.543" cy="-506.236" rx="4.00002" ry="4.00002"/>
</g>
<!-- Project::Youth -->
<g id="node4" class="node"><title>Project::Youth</title>
<polyline fill="none" stroke="black" points="280.5,-199 435.5,-199 "/>
<path fill="none" stroke="black" d="M435.5,-199C441.5,-199 447.5,-205 447.5,-211"/>
<polyline fill="none" stroke="black" points="447.5,-211 447.5,-293 "/>
<path fill="none" stroke="black" d="M447.5,-293C447.5,-299 441.5,-305 435.5,-305"/>
<polyline fill="none" stroke="black" points="435.5,-305 280.5,-305 "/>
<path fill="none" stroke="black" d="M280.5,-305C274.5,-305 268.5,-299 268.5,-293"/>
<polyline fill="none" stroke="black" points="268.5,-293 268.5,-211 "/>
<path fill="none" stroke="black" d="M268.5,-211C268.5,-205 274.5,-199 280.5,-199"/>
<text text-anchor="middle" x="358" y="-288.4" font-family="Times Roman,serif" font-size="14.00">Project::Youth</text>
<polyline fill="none" stroke="black" points="268.5,-279 447.5,-279 "/>
<text text-anchor="start" x="276.5" y="-262.4" font-family="Times Roman,serif" font-size="14.00">projectable_type :string</text>
<text text-anchor="start" x="276.5" y="-244.4" font-family="Times Roman,serif" font-size="14.00">label :string</text>
<text text-anchor="start" x="276.5" y="-226.4" font-family="Times Roman,serif" font-size="14.00">created_at :datetime</text>
<text text-anchor="start" x="276.5" y="-208.4" font-family="Times Roman,serif" font-size="14.00">updated_at :datetime</text>
</g>
<!-- Project::Spec::Youth -->
<g id="node5" class="node"><title>Project::Spec::Youth</title>
<polyline fill="none" stroke="black" points="287.5,-1 428.5,-1 "/>
<path fill="none" stroke="black" d="M428.5,-1C434.5,-1 440.5,-7 440.5,-13"/>
<polyline fill="none" stroke="black" points="440.5,-13 440.5,-95 "/>
<path fill="none" stroke="black" d="M440.5,-95C440.5,-101 434.5,-107 428.5,-107"/>
<polyline fill="none" stroke="black" points="428.5,-107 287.5,-107 "/>
<path fill="none" stroke="black" d="M287.5,-107C281.5,-107 275.5,-101 275.5,-95"/>
<polyline fill="none" stroke="black" points="275.5,-95 275.5,-13 "/>
<path fill="none" stroke="black" d="M275.5,-13C275.5,-7 281.5,-1 287.5,-1"/>
<text text-anchor="middle" x="358" y="-90.4" font-family="Times Roman,serif" font-size="14.00">Project::Spec::Youth</text>
<polyline fill="none" stroke="black" points="275.5,-81 440.5,-81 "/>
<text text-anchor="start" x="283.5" y="-64.4" font-family="Times Roman,serif" font-size="14.00">state :string</text>
<text text-anchor="start" x="283.5" y="-46.4" font-family="Times Roman,serif" font-size="14.00">specable_type :string</text>
<text text-anchor="start" x="283.5" y="-28.4" font-family="Times Roman,serif" font-size="14.00">created_at :datetime</text>
<text text-anchor="start" x="283.5" y="-10.4" font-family="Times Roman,serif" font-size="14.00">updated_at :datetime</text>
</g>
<!-- Project::Youth&#45;&gt;Project::Spec::Youth -->
<g id="edge12" class="edge"><title>Project::Youth&#45;&gt;Project::Spec::Youth</title>
<path fill="none" stroke="black" d="M358,-190.789C358,-166.762 358,-139.239 358,-115.211"/>
<ellipse fill="none" stroke="black" cx="358" cy="-194.94" rx="4" ry="4"/>
<ellipse fill="black" stroke="black" cx="358" cy="-111.207" rx="4" ry="4"/>
<text text-anchor="middle" x="373.5" y="-131.4" font-family="Times Roman,serif" font-size="14.00">spec</text>
</g>
<!-- Project::Spec::Eab -->
<g id="node6" class="node"><title>Project::Spec::Eab</title>
<polyline fill="none" stroke="black" points="91.5,-1 232.5,-1 "/>
<path fill="none" stroke="black" d="M232.5,-1C238.5,-1 244.5,-7 244.5,-13"/>
<polyline fill="none" stroke="black" points="244.5,-13 244.5,-95 "/>
<path fill="none" stroke="black" d="M244.5,-95C244.5,-101 238.5,-107 232.5,-107"/>
<polyline fill="none" stroke="black" points="232.5,-107 91.5,-107 "/>
<path fill="none" stroke="black" d="M91.5,-107C85.5,-107 79.5,-101 79.5,-95"/>
<polyline fill="none" stroke="black" points="79.5,-95 79.5,-13 "/>
<path fill="none" stroke="black" d="M79.5,-13C79.5,-7 85.5,-1 91.5,-1"/>
<text text-anchor="middle" x="162" y="-90.4" font-family="Times Roman,serif" font-size="14.00">Project::Spec::Eab</text>
<polyline fill="none" stroke="black" points="79.5,-81 244.5,-81 "/>
<text text-anchor="start" x="87.5" y="-64.4" font-family="Times Roman,serif" font-size="14.00">state :string</text>
<text text-anchor="start" x="87.5" y="-46.4" font-family="Times Roman,serif" font-size="14.00">specable_type :string</text>
<text text-anchor="start" x="87.5" y="-28.4" font-family="Times Roman,serif" font-size="14.00">created_at :datetime</text>
<text text-anchor="start" x="87.5" y="-10.4" font-family="Times Roman,serif" font-size="14.00">updated_at :datetime</text>
</g>
<!-- Project::Spec -->
<g id="node7" class="node"><title>Project::Spec</title>
<polygon fill="none" stroke="black" stroke-dasharray="1,5" points="556,-929 450,-929 450,-893 556,-893 556,-929"/>
<text text-anchor="middle" x="503" y="-907.4" font-family="Times Roman,serif" font-size="14.00">Project::Spec</text>
</g>
<!-- Project::Eab -->
<g id="node8" class="node"><title>Project::Eab</title>
<polyline fill="none" stroke="black" points="84.5,-199 239.5,-199 "/>
<path fill="none" stroke="black" d="M239.5,-199C245.5,-199 251.5,-205 251.5,-211"/>
<polyline fill="none" stroke="black" points="251.5,-211 251.5,-293 "/>
<path fill="none" stroke="black" d="M251.5,-293C251.5,-299 245.5,-305 239.5,-305"/>
<polyline fill="none" stroke="black" points="239.5,-305 84.5,-305 "/>
<path fill="none" stroke="black" d="M84.5,-305C78.5,-305 72.5,-299 72.5,-293"/>
<polyline fill="none" stroke="black" points="72.5,-293 72.5,-211 "/>
<path fill="none" stroke="black" d="M72.5,-211C72.5,-205 78.5,-199 84.5,-199"/>
<text text-anchor="middle" x="162" y="-288.4" font-family="Times Roman,serif" font-size="14.00">Project::Eab</text>
<polyline fill="none" stroke="black" points="72.5,-279 251.5,-279 "/>
<text text-anchor="start" x="80.5" y="-262.4" font-family="Times Roman,serif" font-size="14.00">projectable_type :string</text>
<text text-anchor="start" x="80.5" y="-244.4" font-family="Times Roman,serif" font-size="14.00">label :string</text>
<text text-anchor="start" x="80.5" y="-226.4" font-family="Times Roman,serif" font-size="14.00">created_at :datetime</text>
<text text-anchor="start" x="80.5" y="-208.4" font-family="Times Roman,serif" font-size="14.00">updated_at :datetime</text>
</g>
<!-- Project::Eab&#45;&gt;Project::Spec::Eab -->
<g id="edge16" class="edge"><title>Project::Eab&#45;&gt;Project::Spec::Eab</title>
<path fill="none" stroke="black" d="M162,-190.789C162,-166.762 162,-139.239 162,-115.211"/>
<ellipse fill="none" stroke="black" cx="162" cy="-194.94" rx="4" ry="4"/>
<ellipse fill="black" stroke="black" cx="162" cy="-111.207" rx="4" ry="4"/>
<text text-anchor="middle" x="177.5" y="-131.4" font-family="Times Roman,serif" font-size="14.00">spec</text>
</g>
<!-- User -->
<g id="node10" class="node"><title>User</title>
<polyline fill="none" stroke="black" points="586,-795 816,-795 "/>
<path fill="none" stroke="black" d="M816,-795C822,-795 828,-801 828,-807"/>
<polyline fill="none" stroke="black" points="828,-807 828,-1015 "/>
<path fill="none" stroke="black" d="M828,-1015C828,-1021 822,-1027 816,-1027"/>
<polyline fill="none" stroke="black" points="816,-1027 586,-1027 "/>
<path fill="none" stroke="black" d="M586,-1027C580,-1027 574,-1021 574,-1015"/>
<polyline fill="none" stroke="black" points="574,-1015 574,-807 "/>
<path fill="none" stroke="black" d="M574,-807C574,-801 580,-795 586,-795"/>
<text text-anchor="middle" x="701" y="-1010.4" font-family="Times Roman,serif" font-size="14.00">User</text>
<polyline fill="none" stroke="black" points="574,-1001 828,-1001 "/>
<text text-anchor="start" x="582" y="-984.4" font-family="Times Roman,serif" font-size="14.00">email :string</text>
<text text-anchor="start" x="582" y="-966.4" font-family="Times Roman,serif" font-size="14.00">encrypted_password :string</text>
<text text-anchor="start" x="582" y="-948.4" font-family="Times Roman,serif" font-size="14.00">reset_password_token :string</text>
<text text-anchor="start" x="582" y="-930.4" font-family="Times Roman,serif" font-size="14.00">reset_password_sent_at :datetime</text>
<text text-anchor="start" x="582" y="-912.4" font-family="Times Roman,serif" font-size="14.00">remember_created_at :datetime</text>
<text text-anchor="start" x="582" y="-894.4" font-family="Times Roman,serif" font-size="14.00">current_sign_in_at :datetime</text>
<text text-anchor="start" x="582" y="-876.4" font-family="Times Roman,serif" font-size="14.00">last_sign_in_at :datetime</text>
<text text-anchor="start" x="582" y="-858.4" font-family="Times Roman,serif" font-size="14.00">current_sign_in_ip :string</text>
<text text-anchor="start" x="582" y="-840.4" font-family="Times Roman,serif" font-size="14.00">last_sign_in_ip :string</text>
<text text-anchor="start" x="582" y="-822.4" font-family="Times Roman,serif" font-size="14.00">created_at :datetime</text>
<text text-anchor="start" x="582" y="-804.4" font-family="Times Roman,serif" font-size="14.00">updated_at :datetime</text>
</g>
<!-- Comment&#45;&gt;Comment -->
<g id="edge20" class="edge"><title>Comment&#45;&gt;Comment</title>
<path fill="none" stroke="black" d="M668.931,-266.972C675.227,-263.396 679,-258.406 679,-252 679,-246.139 675.842,-241.463 670.483,-237.971"/>
<ellipse fill="none" stroke="black" cx="664.845" cy="-268.722" rx="4.00001" ry="4.00001"/>
<polygon fill="black" stroke="black" points="670.259,-237.869 663.042,-229.612 665.713,-235.786 661.168,-233.703 661.168,-233.703 661.168,-233.703 665.713,-235.786 659.293,-237.794 670.259,-237.869 670.259,-237.869"/>
<text text-anchor="middle" x="706.5" y="-248.4" font-family="Times Roman,serif" font-size="14.00">children</text>
</g>
<!-- Project&#45;&gt;Project::Youth -->
<g id="edge14" class="edge"><title>Project&#45;&gt;Project::Youth</title>
<path fill="none" stroke="black" d="M376.3,-396.94C372.714,-368.531 368.308,-333.638 364.718,-305.207"/>
</g>
<!-- Project&#45;&gt;Project::Eab -->
<g id="edge18" class="edge"><title>Project&#45;&gt;Project::Eab</title>
<path fill="none" stroke="black" d="M322.078,-396.983C302.203,-379.561 280.086,-360.038 260,-342 246.766,-330.116 232.627,-317.238 219.325,-305.04"/>
</g>
<!-- Project&#45;&gt;Comment -->
<g id="edge22" class="edge"><title>Project&#45;&gt;Comment</title>
<path fill="none" stroke="black" d="M400.85,-389.411C405.859,-378.788 412.152,-368.447 420,-360 432.175,-346.894 441.051,-351.826 456,-342 456.184,-341.879 456.368,-341.758 456.552,-341.637"/>
<ellipse fill="none" stroke="black" cx="399.202" cy="-393.133" rx="4.00002" ry="4.00002"/>
<polygon fill="black" stroke="black" points="456.571,-341.624 467.372,-339.728 460.707,-338.814 464.843,-336.005 464.843,-336.005 464.843,-336.005 460.707,-338.814 462.315,-332.283 456.571,-341.624 456.571,-341.624"/>
<text text-anchor="middle" x="482" y="-365.4" font-family="Times Roman,serif" font-size="14.00">comment_threads</text>
</g>
<!-- ProjectCategory -->
<g id="node13" class="node"><title>ProjectCategory</title>
<polyline fill="none" stroke="black" points="279.5,-858 420.5,-858 "/>
<path fill="none" stroke="black" d="M420.5,-858C426.5,-858 432.5,-864 432.5,-870"/>
<polyline fill="none" stroke="black" points="432.5,-870 432.5,-952 "/>
<path fill="none" stroke="black" d="M432.5,-952C432.5,-958 426.5,-964 420.5,-964"/>
<polyline fill="none" stroke="black" points="420.5,-964 279.5,-964 "/>
<path fill="none" stroke="black" d="M279.5,-964C273.5,-964 267.5,-958 267.5,-952"/>
<polyline fill="none" stroke="black" points="267.5,-952 267.5,-870 "/>
<path fill="none" stroke="black" d="M267.5,-870C267.5,-864 273.5,-858 279.5,-858"/>
<text text-anchor="middle" x="350" y="-947.4" font-family="Times Roman,serif" font-size="14.00">ProjectCategory</text>
<polyline fill="none" stroke="black" points="267.5,-938 432.5,-938 "/>
<text text-anchor="start" x="275.5" y="-921.4" font-family="Times Roman,serif" font-size="14.00">name :string</text>
<text text-anchor="start" x="275.5" y="-903.4" font-family="Times Roman,serif" font-size="14.00">slug :string</text>
<text text-anchor="start" x="275.5" y="-885.4" font-family="Times Roman,serif" font-size="14.00">created_at :datetime</text>
<text text-anchor="start" x="275.5" y="-867.4" font-family="Times Roman,serif" font-size="14.00">updated_at :datetime</text>
</g>
<!-- ProjectCategory&#45;&gt;Program -->
<g id="edge26" class="edge"><title>ProjectCategory&#45;&gt;Program</title>
<path fill="none" stroke="black" d="M331.532,-850.079C321.312,-816.368 308.483,-774.047 297.442,-737.626"/>
<ellipse fill="none" stroke="black" cx="332.698" cy="-853.925" rx="4.00001" ry="4.00001"/>
<polygon fill="black" stroke="black" points="297.429,-737.583 298.834,-726.707 295.978,-732.798 294.528,-728.013 294.528,-728.013 294.528,-728.013 295.978,-732.798 290.221,-729.319 297.429,-737.583 297.429,-737.583"/>
</g>
<!-- ProjectCategory&#45;&gt;Project -->
<g id="edge24" class="edge"><title>ProjectCategory&#45;&gt;Project</title>
<path fill="none" stroke="black" d="M355.937,-849.692C358.592,-821.216 361.646,-786.896 364,-756 370.397,-672.041 376.143,-574.999 379.6,-513.103"/>
<ellipse fill="none" stroke="black" cx="355.536" cy="-853.962" rx="4" ry="4"/>
<polygon fill="black" stroke="black" points="379.601,-513.085 384.649,-503.35 379.879,-508.093 380.156,-503.1 380.156,-503.1 380.156,-503.1 379.879,-508.093 375.663,-502.851 379.601,-513.085 379.601,-513.085"/>
</g>
</g>
</svg>
