<?xml version="1.0" encoding="UTF-8" standalone="no"?>
<!DOCTYPE svg PUBLIC "-//W3C//DTD SVG 1.1//EN"
 "http://www.w3.org/Graphics/SVG/1.1/DTD/svg11.dtd">
<!-- Generated by graphviz version 2.36.0 (20140111.2315)
 -->
<!-- Title: models_diagram Pages: 1 -->
<svg width="1631pt" height="518pt"
 viewBox="0.00 0.00 1631.00 518.00" xmlns="http://www.w3.org/2000/svg" xmlns:xlink="http://www.w3.org/1999/xlink">
<g id="graph0" class="graph" transform="scale(1 1) rotate(0) translate(4 514)">
<title>models_diagram</title>
<polygon fill="white" stroke="none" points="-4,4 -4,-514 1627,-514 1627,4 -4,4"/>
<!-- _diagram_info -->
<g id="node1" class="node"><title>_diagram_info</title>
<text text-anchor="start" x="8" y="-495.6" font-family="Times,serif" font-size="13.00">Models diagram</text>
<text text-anchor="start" x="8" y="-481.6" font-family="Times,serif" font-size="13.00">Date: Aug 27 2014 &#45; 22:49</text>
<text text-anchor="start" x="8" y="-467.6" font-family="Times,serif" font-size="13.00">Migration version: 20130721165753</text>
<text text-anchor="start" x="8" y="-453.6" font-family="Times,serif" font-size="13.00">Generated by RailRoady 1.1.1</text>
<text text-anchor="start" x="8" y="-439.6" font-family="Times,serif" font-size="13.00">http://railroady.prestonlee.com</text>
</g>
<!-- BikeNumber -->
<g id="node2" class="node"><title>BikeNumber</title>
<polygon fill="none" stroke="black" points="86.25,-394 -0.25,-394 -0.25,-358 86.25,-358 86.25,-394"/>
<text text-anchor="middle" x="43" y="-372.3" font-family="Times,serif" font-size="14.00">BikeNumber</text>
</g>
<!-- Bike -->
<g id="node3" class="node"><title>Bike</title>
<ellipse fill="none" stroke="black" cx="891" cy="-194" rx="26.949" ry="18"/>
<text text-anchor="middle" x="891" y="-190.3" font-family="Times,serif" font-size="14.00">Bike</text>
</g>
<!-- Assignment -->
<g id="node4" class="node"><title>Assignment</title>
<ellipse fill="none" stroke="black" cx="1066" cy="-106" rx="52.9443" ry="18"/>
<text text-anchor="middle" x="1066" y="-102.3" font-family="Times,serif" font-size="14.00">Assignment</text>
</g>
<!-- Bike&#45;&gt;Assignment -->
<g id="edge6" class="edge"><title>Bike&#45;&gt;Assignment</title>
<path fill="none" stroke="#014db9" d="M920.726,-180.037C934.88,-173.681 951.961,-165.741 967,-158 979.744,-151.44 982.344,-148.727 995,-142 1005.94,-136.183 1017.99,-130.12 1029,-124.707"/>
<ellipse fill="none" stroke="#014db9" cx="916.849" cy="-181.766" rx="4.00002" ry="4.00002"/>
<ellipse fill="#014db9" stroke="#014db9" cx="1032.84" cy="-122.831" rx="4.00002" ry="4.00002"/>
</g>
<!-- Hook -->
<g id="node8" class="node"><title>Hook</title>
<ellipse fill="none" stroke="black" cx="774" cy="-106" rx="30.3206" ry="18"/>
<text text-anchor="middle" x="774" y="-102.3" font-family="Times,serif" font-size="14.00">Hook</text>
</g>
<!-- Bike&#45;&gt;Hook -->
<g id="edge5" class="edge"><title>Bike&#45;&gt;Hook</title>
<path fill="none" stroke="#df67b3" d="M864.069,-177.153C843.236,-163.07 814.98,-142.41 795.601,-127.155"/>
<ellipse fill="none" stroke="#df67b3" cx="867.645" cy="-179.538" rx="4.00002" ry="4.00002"/>
<ellipse fill="#df67b3" stroke="#df67b3" cx="792.27" cy="-124.499" rx="4.00002" ry="4.00002"/>
</g>
<!-- Comment -->
<g id="node12" class="node"><title>Comment</title>
<ellipse fill="none" stroke="black" cx="1183" cy="-106" rx="46.2191" ry="18"/>
<text text-anchor="middle" x="1183" y="-102.3" font-family="Times,serif" font-size="14.00">Comment</text>
</g>
<!-- Bike&#45;&gt;Comment -->
<g id="edge2" class="edge"><title>Bike&#45;&gt;Comment</title>
<path fill="none" stroke="#2107c9" d="M923.386,-183.754C969.069,-170.67 1055.01,-145.903 1128,-124 1131.36,-122.993 1134.83,-121.943 1138.31,-120.88"/>
<ellipse fill="none" stroke="#2107c9" cx="919.45" cy="-184.88" rx="4.00001" ry="4.00001"/>
<polygon fill="#2107c9" stroke="#2107c9" points="1138.55,-120.807 1149.43,-122.181 1143.33,-119.343 1148.11,-117.878 1148.11,-117.878 1148.11,-117.878 1143.33,-119.343 1146.79,-113.576 1138.55,-120.807 1138.55,-120.807"/>
<text text-anchor="middle" x="1112" y="-146.3" font-family="Times,serif" font-size="14.00">comment_threads</text>
</g>
<!-- HookReservation -->
<g id="node13" class="node"><title>HookReservation</title>
<ellipse fill="none" stroke="black" cx="642" cy="-18" rx="72.2155" ry="18"/>
<text text-anchor="middle" x="642" y="-14.3" font-family="Times,serif" font-size="14.00">HookReservation</text>
</g>
<!-- Bike&#45;&gt;HookReservation -->
<g id="edge4" class="edge"><title>Bike&#45;&gt;HookReservation</title>
<path fill="none" stroke="#dc2fe8" d="M858.782,-183.461C825.443,-172.579 772.9,-152.523 734,-124 702.825,-101.141 674.784,-66.007 658.073,-42.7671"/>
<ellipse fill="none" stroke="#dc2fe8" cx="862.603" cy="-184.683" rx="4.00001" ry="4.00001"/>
<ellipse fill="#dc2fe8" stroke="#dc2fe8" cx="655.57" cy="-39.2289" rx="4.00002" ry="4.00002"/>
</g>
<!-- BikeBrand -->
<g id="node23" class="node"><title>BikeBrand</title>
<ellipse fill="none" stroke="black" cx="871" cy="-106" rx="48.6179" ry="18"/>
<text text-anchor="middle" x="871" y="-102.3" font-family="Times,serif" font-size="14.00">BikeBrand</text>
</g>
<!-- Bike&#45;&gt;BikeBrand -->
<g id="edge3" class="edge"><title>Bike&#45;&gt;BikeBrand</title>
<path fill="none" stroke="#c57134" d="M885.209,-168.097C882.557,-156.695 879.422,-143.216 876.773,-131.823"/>
<ellipse fill="none" stroke="#c57134" cx="886.143" cy="-172.113" rx="4.00001" ry="4.00001"/>
<ellipse fill="#c57134" stroke="#c57134" cx="875.849" cy="-127.852" rx="4.00001" ry="4.00001"/>
</g>
<!-- Hound::Action -->
<g id="node24" class="node"><title>Hound::Action</title>
<ellipse fill="none" stroke="black" cx="956" cy="-18" rx="63.5411" ry="18"/>
<text text-anchor="middle" x="956" y="-14.3" font-family="Times,serif" font-size="14.00">Hound::Action</text>
</g>
<!-- Bike&#45;&gt;Hound::Action -->
<g id="edge7" class="edge"><title>Bike&#45;&gt;Hound::Action</title>
<path fill="none" stroke="#be28c2" d="M905.173,-169.823C912.731,-156.728 921.735,-139.851 928,-124 938.145,-98.3337 945.838,-67.7147 950.569,-46.1841"/>
<ellipse fill="none" stroke="#be28c2" cx="902.948" cy="-173.611" rx="4.00002" ry="4.00002"/>
<polygon fill="#be28c2" stroke="#be28c2" points="950.63,-45.8983 957.113,-37.0537 951.671,-41.0077 952.711,-36.1172 952.711,-36.1172 952.711,-36.1172 951.671,-41.0077 948.31,-35.1807 950.63,-45.8983 950.63,-45.8983"/>
<text text-anchor="middle" x="958.5" y="-102.3" font-family="Times,serif" font-size="14.00">actions</text>
</g>
<!-- BikeForm -->
<g id="node5" class="node"><title>BikeForm</title>
<polygon fill="none" stroke="black" points="177,-394 105,-394 105,-358 177,-358 177,-394"/>
<text text-anchor="middle" x="141" y="-372.3" font-family="Times,serif" font-size="14.00">BikeForm</text>
</g>
<!-- Signature -->
<g id="node6" class="node"><title>Signature</title>
<ellipse fill="none" stroke="black" cx="1356" cy="-322" rx="44.2946" ry="18"/>
<text text-anchor="middle" x="1356" y="-318.3" font-family="Times,serif" font-size="14.00">Signature</text>
</g>
<!-- Signature&#45;&gt;Hound::Action -->
<g id="edge11" class="edge"><title>Signature&#45;&gt;Hound::Action</title>
<path fill="none" stroke="#e0f2ce" d="M1356.87,-295.768C1357.41,-277.952 1358,-253.517 1358,-232 1358,-232 1358,-232 1358,-105 1358,-38.5779 1145.48,-23.2807 1029.49,-19.8783"/>
<ellipse fill="none" stroke="#e0f2ce" cx="1356.74" cy="-299.943" rx="4" ry="4"/>
<polygon fill="#e0f2ce" stroke="#e0f2ce" points="1029.25,-19.872 1019.38,-15.1033 1024.25,-19.7368 1019.25,-19.6016 1019.25,-19.6016 1019.25,-19.6016 1024.25,-19.7368 1019.13,-24.1 1029.25,-19.872 1029.25,-19.872"/>
<text text-anchor="middle" x="1377.5" y="-190.3" font-family="Times,serif" font-size="14.00">actions</text>
</g>
<!-- Ability -->
<g id="node7" class="node"><title>Ability</title>
<polygon fill="none" stroke="black" points="250.25,-394 195.75,-394 195.75,-358 250.25,-358 250.25,-394"/>
<text text-anchor="middle" x="223" y="-372.3" font-family="Times,serif" font-size="14.00">Ability</text>
</g>
<!-- Hook&#45;&gt;Bike -->
<g id="edge15" class="edge"><title>Hook&#45;&gt;Bike</title>
<path fill="none" stroke="#eedafa" d="M802.204,-123.709C823.091,-137.891 850.912,-158.264 869.914,-173.25"/>
<ellipse fill="none" stroke="#eedafa" cx="798.732" cy="-121.381" rx="4.00002" ry="4.00002"/>
<ellipse fill="#eedafa" stroke="#eedafa" cx="873.245" cy="-175.914" rx="4.00002" ry="4.00002"/>
</g>
<!-- Hook&#45;&gt;HookReservation -->
<g id="edge14" class="edge"><title>Hook&#45;&gt;HookReservation</title>
<path fill="none" stroke="#d65aa8" d="M747.301,-87.6051C725.992,-73.7218 696.085,-54.2374 673.587,-39.5791"/>
<ellipse fill="none" stroke="#d65aa8" cx="750.887" cy="-89.9414" rx="4.00002" ry="4.00002"/>
<ellipse fill="#d65aa8" stroke="#d65aa8" cx="670.211" cy="-37.38" rx="4.00002" ry="4.00002"/>
<text text-anchor="middle" x="749.5" y="-58.3" font-family="Times,serif" font-size="14.00">reservation</text>
</g>
<!-- Hook&#45;&gt;Hound::Action -->
<g id="edge16" class="edge"><title>Hook&#45;&gt;Hound::Action</title>
<path fill="none" stroke="#9e7cc8" d="M804.668,-90.5084C835.137,-76.1112 882.029,-53.9535 915.535,-38.1207"/>
<ellipse fill="none" stroke="#9e7cc8" cx="800.667" cy="-92.3991" rx="4.00002" ry="4.00002"/>
<polygon fill="#9e7cc8" stroke="#9e7cc8" points="915.565,-38.1068 926.529,-37.903 920.086,-35.9706 924.606,-33.8344 924.606,-33.8344 924.606,-33.8344 920.086,-35.9706 922.684,-29.7658 915.565,-38.1068 915.565,-38.1068"/>
<text text-anchor="middle" x="900.5" y="-58.3" font-family="Times,serif" font-size="14.00">actions</text>
</g>
<!-- BikeReport -->
<g id="node9" class="node"><title>BikeReport</title>
<polygon fill="none" stroke="black" points="347.25,-394 268.75,-394 268.75,-358 347.25,-358 347.25,-394"/>
<text text-anchor="middle" x="308" y="-372.3" font-family="Times,serif" font-size="14.00">BikeReport</text>
</g>
<!-- Program -->
<g id="node10" class="node"><title>Program</title>
<ellipse fill="none" stroke="black" cx="1222" cy="-268" rx="41.394" ry="18"/>
<text text-anchor="middle" x="1222" y="-264.3" font-family="Times,serif" font-size="14.00">Program</text>
</g>
<!-- Program&#45;&gt;Bike -->
<g id="edge20" class="edge"><title>Program&#45;&gt;Bike</title>
<path fill="none" stroke="#956c70" d="M1175.99,-256.992C1109.2,-242.463 986.785,-215.835 926.484,-202.719"/>
<polygon fill="#956c70" stroke="#956c70" points="1176.18,-257.032 1184.99,-263.555 1181.06,-258.095 1185.95,-259.158 1185.95,-259.158 1185.95,-259.158 1181.06,-258.095 1186.9,-254.761 1176.18,-257.032 1176.18,-257.032"/>
<polygon fill="#956c70" stroke="#956c70" points="926.437,-202.708 917.622,-196.186 921.551,-201.646 916.665,-200.583 916.665,-200.583 916.665,-200.583 921.551,-201.646 915.709,-204.98 926.437,-202.708 926.437,-202.708"/>
</g>
<!-- Program&#45;&gt;Assignment -->
<g id="edge19" class="edge"><title>Program&#45;&gt;Assignment</title>
<path fill="none" stroke="#993785" d="M1216.97,-241.797C1210.12,-213.742 1195.2,-168.829 1166,-142 1158.2,-134.829 1137.15,-127.021 1116.37,-120.603"/>
<ellipse fill="none" stroke="#993785" cx="1217.95" cy="-246.026" rx="4.00001" ry="4.00001"/>
<polygon fill="#993785" stroke="#993785" points="1116.15,-120.537 1107.86,-113.356 1111.36,-119.101 1106.57,-117.666 1106.57,-117.666 1106.57,-117.666 1111.36,-119.101 1105.28,-121.977 1116.15,-120.537 1116.15,-120.537"/>
</g>
<!-- Program&#45;&gt;Hound::Action -->
<g id="edge21" class="edge"><title>Program&#45;&gt;Hound::Action</title>
<path fill="none" stroke="#8f050d" d="M1238.09,-243.955C1266.73,-201.567 1321.71,-113.257 1301,-88 1267.16,-46.723 1118.74,-29.6464 1027.95,-22.9652"/>
<ellipse fill="none" stroke="#8f050d" cx="1235.82" cy="-247.283" rx="4.00002" ry="4.00002"/>
<polygon fill="#8f050d" stroke="#8f050d" points="1027.69,-22.9471 1018.04,-17.7496 1022.71,-22.5927 1017.72,-22.2382 1017.72,-22.2382 1017.72,-22.2382 1022.71,-22.5927 1017.4,-26.7269 1027.69,-22.9471 1027.69,-22.9471"/>
<text text-anchor="middle" x="1314.5" y="-146.3" font-family="Times,serif" font-size="14.00">actions</text>
</g>
<!-- Settings -->
<g id="node11" class="node"><title>Settings</title>
<polygon fill="none" stroke="black" stroke-dasharray="1,5" points="1282.5,-489 1223.5,-489 1223.5,-453 1282.5,-453 1282.5,-489"/>
<text text-anchor="middle" x="1253" y="-467.3" font-family="Times,serif" font-size="14.00">Settings</text>
</g>
<!-- Comment&#45;&gt;Comment -->
<g id="edge23" class="edge"><title>Comment&#45;&gt;Comment</title>
<path fill="none" stroke="#b49d0a" d="M1232.4,-113.731C1241.01,-112.698 1247,-110.121 1247,-106 1247,-102.254 1242.05,-99.7832 1234.68,-98.5887"/>
<ellipse fill="none" stroke="#b49d0a" cx="1228.23" cy="-113.992" rx="4" ry="4"/>
<polygon fill="#b49d0a" stroke="#b49d0a" points="1234.21,-98.5513 1224.6,-93.2722 1229.23,-98.1547 1224.24,-97.7581 1224.24,-97.7581 1224.24,-97.7581 1229.23,-98.1547 1223.88,-102.244 1234.21,-98.5513 1234.21,-98.5513"/>
<text text-anchor="middle" x="1269.5" y="-102.3" font-family="Times,serif" font-size="14.00">children</text>
</g>
<!-- Departure -->
<g id="node14" class="node"><title>Departure</title>
<ellipse fill="none" stroke="black" cx="1077" cy="-268" rx="46.2191" ry="18"/>
<text text-anchor="middle" x="1077" y="-264.3" font-family="Times,serif" font-size="14.00">Departure</text>
</g>
<!-- Departure&#45;&gt;Bike -->
<g id="edge27" class="edge"><title>Departure&#45;&gt;Bike</title>
<path fill="none" stroke="#31eb4f" d="M1037.71,-251.792C1003.07,-238.381 953.288,-219.112 921.549,-206.825"/>
<ellipse fill="none" stroke="#31eb4f" cx="1041.72" cy="-253.342" rx="4.00001" ry="4.00001"/>
<ellipse fill="#31eb4f" stroke="#31eb4f" cx="917.619" cy="-205.304" rx="4.00001" ry="4.00001"/>
</g>
<!-- Departure&#45;&gt;Assignment -->
<g id="edge26" class="edge"><title>Departure&#45;&gt;Assignment</title>
<path fill="none" stroke="#044e68" d="M1060.46,-243.562C1046.57,-222.353 1027.78,-189.674 1020,-158 1018.3,-151.094 1016.84,-148.371 1020,-142 1022.88,-136.184 1027.25,-131.072 1032.16,-126.681"/>
<ellipse fill="none" stroke="#044e68" cx="1062.73" cy="-246.971" rx="4.00002" ry="4.00002"/>
<ellipse fill="#044e68" stroke="#044e68" cx="1035.48" cy="-124.009" rx="4.00002" ry="4.00002"/>
</g>
<!-- HookNumber -->
<g id="node15" class="node"><title>HookNumber</title>
<polygon fill="none" stroke="black" points="458,-394 366,-394 366,-358 458,-358 458,-394"/>
<text text-anchor="middle" x="412" y="-372.3" font-family="Times,serif" font-size="14.00">HookNumber</text>
</g>
<!-- Destination -->
<g id="node16" class="node"><title>Destination</title>
<ellipse fill="none" stroke="black" cx="966" cy="-376" rx="51.0191" ry="18"/>
<text text-anchor="middle" x="966" y="-372.3" font-family="Times,serif" font-size="14.00">Destination</text>
</g>
<!-- Destination&#45;&gt;Bike -->
<g id="edge31" class="edge"><title>Destination&#45;&gt;Bike</title>
<path fill="none" stroke="#1129b1" d="M946.816,-349.937C934.575,-332.788 919.312,-309.064 910,-286 901.716,-265.483 896.856,-240.843 894.128,-222.38"/>
<polygon fill="#1129b1" stroke="#1129b1" points="947,-350.188 949.26,-360.919 949.947,-354.227 952.895,-358.266 952.895,-358.266 952.895,-358.266 949.947,-354.227 956.53,-355.614 947,-350.188 947,-350.188"/>
<polygon fill="#1129b1" stroke="#1129b1" points="894.105,-222.21 897.218,-211.695 893.432,-217.256 892.759,-212.301 892.759,-212.301 892.759,-212.301 893.432,-217.256 888.299,-212.907 894.105,-222.21 894.105,-222.21"/>
</g>
<!-- Destination&#45;&gt;Departure -->
<g id="edge32" class="edge"><title>Destination&#45;&gt;Departure</title>
<path fill="none" stroke="#1410c7" d="M988.847,-353.182C1007.55,-335.324 1033.92,-310.138 1052.94,-291.974"/>
<ellipse fill="none" stroke="#1410c7" cx="985.751" cy="-356.138" rx="4.00002" ry="4.00002"/>
<polygon fill="#1410c7" stroke="#1410c7" points="1053.11,-291.81 1063.45,-288.158 1056.73,-288.356 1060.35,-284.903 1060.35,-284.903 1060.35,-284.903 1056.73,-288.356 1057.24,-281.649 1053.11,-291.81 1053.11,-291.81"/>
</g>
<!-- Destination&#45;&gt;Hound::Action -->
<g id="edge33" class="edge"><title>Destination&#45;&gt;Hound::Action</title>
<path fill="none" stroke="#c73a84" d="M931.103,-357.055C849.09,-312.54 656.649,-193.043 734,-88 767.808,-42.0886 831.906,-25.8361 882.568,-20.49"/>
<ellipse fill="none" stroke="#c73a84" cx="934.693" cy="-358.985" rx="4.00002" ry="4.00002"/>
<polygon fill="#c73a84" stroke="#c73a84" points="882.877,-20.4613 893.251,-24.0148 887.855,-19.9978 892.834,-19.5342 892.834,-19.5342 892.834,-19.5342 887.855,-19.9978 892.417,-15.0536 882.877,-20.4613 882.877,-20.4613"/>
<text text-anchor="middle" x="761.5" y="-190.3" font-family="Times,serif" font-size="14.00">actions</text>
</g>
<!-- Allotment -->
<g id="node26" class="node"><title>Allotment</title>
<ellipse fill="none" stroke="black" cx="966" cy="-268" rx="46.1964" ry="18"/>
<text text-anchor="middle" x="966" y="-264.3" font-family="Times,serif" font-size="14.00">Allotment</text>
</g>
<!-- Destination&#45;&gt;Allotment -->
<g id="edge30" class="edge"><title>Destination&#45;&gt;Allotment</title>
<path fill="none" stroke="#c53451" d="M966,-349.795C966,-333.735 966,-312.927 966,-296.45"/>
<ellipse fill="none" stroke="#c53451" cx="966" cy="-353.969" rx="4" ry="4"/>
<polygon fill="#c53451" stroke="#c53451" points="966,-296.341 970.5,-286.341 966,-291.341 966,-286.341 966,-286.341 966,-286.341 966,-291.341 961.5,-286.341 966,-296.341 966,-296.341"/>
</g>
<!-- Value::Validator -->
<g id="node17" class="node"><title>Value::Validator</title>
<polygon fill="none" stroke="black" stroke-dasharray="1,5" points="1407.25,-489 1300.75,-489 1300.75,-453 1407.25,-453 1407.25,-489"/>
<text text-anchor="middle" x="1354" y="-467.3" font-family="Times,serif" font-size="14.00">Value::Validator</text>
</g>
<!-- Value::Color -->
<g id="node18" class="node"><title>Value::Color</title>
<polygon fill="none" stroke="black" stroke-dasharray="1,5" points="1512.25,-489 1425.75,-489 1425.75,-453 1512.25,-453 1512.25,-489"/>
<text text-anchor="middle" x="1469" y="-467.3" font-family="Times,serif" font-size="14.00">Value::Color</text>
</g>
<!-- Value::Linear -->
<g id="node19" class="node"><title>Value::Linear</title>
<polygon fill="none" stroke="black" stroke-dasharray="1,5" points="1623,-489 1531,-489 1531,-453 1623,-453 1623,-489"/>
<text text-anchor="middle" x="1577" y="-467.3" font-family="Times,serif" font-size="14.00">Value::Linear</text>
</g>
<!-- DepartedQuery -->
<g id="node20" class="node"><title>DepartedQuery</title>
<polygon fill="none" stroke="black" points="576,-394 476,-394 476,-358 576,-358 576,-394"/>
<text text-anchor="middle" x="526" y="-372.3" font-family="Times,serif" font-size="14.00">DepartedQuery</text>
</g>
<!-- User -->
<g id="node21" class="node"><title>User</title>
<ellipse fill="none" stroke="black" cx="1388" cy="-376" rx="26.949" ry="18"/>
<text text-anchor="middle" x="1388" y="-372.3" font-family="Times,serif" font-size="14.00">User</text>
</g>
<!-- Object -->
<g id="node22" class="node"><title>Object</title>
<ellipse fill="none" stroke="black" cx="266" cy="-471" rx="34.1708" ry="18"/>
<text text-anchor="middle" x="266" y="-467.3" font-family="Times,serif" font-size="14.00">Object</text>
</g>
<!-- Object&#45;&gt;BikeNumber -->
<g id="edge1" class="edge"><title>Object&#45;&gt;BikeNumber</title>
<path fill="none" stroke="black" d="M251.324,-454.541C243.29,-446.84 232.791,-437.932 222,-432 170.743,-403.823 151.85,-411.378 96,-394 92.8629,-393.024 89.6242,-392.007 86.3662,-390.978"/>
</g>
<!-- Object&#45;&gt;BikeForm -->
<g id="edge10" class="edge"><title>Object&#45;&gt;BikeForm</title>
<path fill="none" stroke="black" d="M249.665,-455.098C241.536,-447.89 231.449,-439.25 222,-432 204.468,-418.549 183.854,-404.576 167.81,-394.08"/>
</g>
<!-- Object&#45;&gt;Ability -->
<g id="edge13" class="edge"><title>Object&#45;&gt;Ability</title>
<path fill="none" stroke="black" d="M258.312,-453.373C250.582,-436.655 238.721,-411.001 230.912,-394.112"/>
</g>
<!-- Object&#45;&gt;BikeReport -->
<g id="edge18" class="edge"><title>Object&#45;&gt;BikeReport</title>
<path fill="none" stroke="black" d="M273.509,-453.373C281.059,-436.655 292.645,-411.001 300.272,-394.112"/>
</g>
<!-- Object&#45;&gt;HookNumber -->
<g id="edge29" class="edge"><title>Object&#45;&gt;HookNumber</title>
<path fill="none" stroke="black" d="M286.918,-456.675C312.78,-440.201 356.84,-412.136 385.168,-394.091"/>
</g>
<!-- Object&#45;&gt;DepartedQuery -->
<g id="edge35" class="edge"><title>Object&#45;&gt;DepartedQuery</title>
<path fill="none" stroke="black" d="M293.825,-460.047C337.841,-444.303 424.076,-413.458 478.161,-394.112"/>
</g>
<!-- ActiveRecord::Base -->
<g id="node25" class="node"><title>ActiveRecord::Base</title>
<ellipse fill="none" stroke="black" cx="1124" cy="-471" rx="81.3646" ry="18"/>
<text text-anchor="middle" x="1124" y="-467.3" font-family="Times,serif" font-size="14.00">ActiveRecord::Base</text>
</g>
<!-- ActiveRecord::Base&#45;&gt;Bike -->
<g id="edge8" class="edge"><title>ActiveRecord::Base&#45;&gt;Bike</title>
<path fill="none" stroke="black" d="M1049.07,-464.025C1000.51,-455.966 940.156,-437.252 906,-394 863.163,-339.755 877.982,-249.202 886.61,-211.874"/>
</g>
<!-- ActiveRecord::Base&#45;&gt;Assignment -->
<g id="edge9" class="edge"><title>ActiveRecord::Base&#45;&gt;Assignment</title>
<path fill="none" stroke="black" d="M1132.4,-452.979C1140.65,-434.673 1152,-404.485 1152,-377 1152,-377 1152,-377 1152,-193 1152,-169.495 1153.02,-160.082 1138,-142 1129.3,-131.522 1116.71,-123.937 1104.48,-118.566"/>
</g>
<!-- ActiveRecord::Base&#45;&gt;Signature -->
<g id="edge12" class="edge"><title>ActiveRecord::Base&#45;&gt;Signature</title>
<path fill="none" stroke="black" d="M1156.3,-454.394C1173.17,-446.749 1194.35,-437.935 1214,-432 1255.14,-419.572 1274.55,-439.686 1309,-414 1333.52,-395.719 1346.31,-360.925 1352.06,-340.059"/>
</g>
<!-- ActiveRecord::Base&#45;&gt;Hook -->
<g id="edge17" class="edge"><title>ActiveRecord::Base&#45;&gt;Hook</title>
<path fill="none" stroke="black" d="M1045.26,-466.558C933.959,-459.506 744,-438.467 744,-377 744,-377 744,-377 744,-193 744,-167.541 755.866,-140.09 764.672,-123.222"/>
</g>
<!-- ActiveRecord::Base&#45;&gt;Program -->
<g id="edge22" class="edge"><title>ActiveRecord::Base&#45;&gt;Program</title>
<path fill="none" stroke="black" d="M1138.54,-453.188C1147.3,-442.481 1158.22,-428.031 1166,-414 1190.2,-370.333 1208.67,-314.055 1217.05,-286.197"/>
</g>
<!-- ActiveRecord::Base&#45;&gt;Comment -->
<g id="edge24" class="edge"><title>ActiveRecord::Base&#45;&gt;Comment</title>
<path fill="none" stroke="black" d="M1159.43,-454.668C1209.52,-432.45 1295,-392.292 1295,-377 1295,-377 1295,-377 1295,-193 1295,-169.495 1296.98,-159.233 1281,-142 1266.63,-126.503 1244.92,-117.86 1225.59,-113.044"/>
</g>
<!-- ActiveRecord::Base&#45;&gt;HookReservation -->
<g id="edge25" class="edge"><title>ActiveRecord::Base&#45;&gt;HookReservation</title>
<path fill="none" stroke="black" d="M1048.67,-464.221C904.553,-452.149 604,-421.623 604,-377 604,-377 604,-377 604,-105 604,-79.2094 618.475,-52.4949 629.557,-35.8212"/>
</g>
<!-- ActiveRecord::Base&#45;&gt;Departure -->
<g id="edge28" class="edge"><title>ActiveRecord::Base&#45;&gt;Departure</title>
<path fill="none" stroke="black" d="M1119.99,-452.863C1111.11,-414.888 1089.87,-324.028 1081,-286.094"/>
</g>
<!-- ActiveRecord::Base&#45;&gt;Destination -->
<g id="edge34" class="edge"><title>ActiveRecord::Base&#45;&gt;Destination</title>
<path fill="none" stroke="black" d="M1096.84,-454.013C1067.19,-436.563 1020.11,-408.849 991.243,-391.858"/>
</g>
<!-- ActiveRecord::Base&#45;&gt;User -->
<g id="edge36" class="edge"><title>ActiveRecord::Base&#45;&gt;User</title>
<path fill="none" stroke="black" d="M1155.34,-454.344C1172.32,-446.492 1193.88,-437.504 1214,-432 1271.54,-416.261 1292.89,-439.101 1347,-414 1357.96,-408.916 1368.06,-399.874 1375.5,-392.001"/>
</g>
</g>
</svg>
