<?xml version="1.0" encoding="UTF-8" standalone="no"?>
<!DOCTYPE svg PUBLIC "-//W3C//DTD SVG 1.1//EN"
 "http://www.w3.org/Graphics/SVG/1.1/DTD/svg11.dtd">
<!-- Generated by graphviz version 2.26.3 (20100126.1600)
 -->
<!-- Title: models_diagram Pages: 1 -->
<svg width="1151pt" height="818pt"
 viewBox="0.00 0.00 1151.00 818.00" xmlns="http://www.w3.org/2000/svg" xmlns:xlink="http://www.w3.org/1999/xlink">
<g id="graph1" class="graph" transform="scale(1 1) rotate(0) translate(4 814)">
<title>models_diagram</title>
<polygon fill="white" stroke="white" points="-4,5 -4,-814 1148,-814 1148,5 -4,5"/>
<!-- _diagram_info -->
<g id="node1" class="node"><title>_diagram_info</title>
<text text-anchor="start" x="8" y="-723.8" font-family="Times Roman,serif" font-size="13.00">Models diagram</text>
<text text-anchor="start" x="8" y="-706.8" font-family="Times Roman,serif" font-size="13.00">Date: Mar 18 2012 &#45; 01:57</text>
<text text-anchor="start" x="8" y="-689.8" font-family="Times Roman,serif" font-size="13.00">Migration version: 20120317082740</text>
<text text-anchor="start" x="8" y="-672.8" font-family="Times Roman,serif" font-size="13.00">Generated by RailRoady 1.0.4</text>
<text text-anchor="start" x="8" y="-655.8" font-family="Times Roman,serif" font-size="13.00">http://railroady.prestonlee.com</text>
</g>
<!-- Program -->
<g id="node2" class="node"><title>Program</title>
<polyline fill="none" stroke="black" points="279.5,-631 420.5,-631 "/>
<path fill="none" stroke="black" d="M420.5,-631C426.5,-631 432.5,-637 432.5,-643"/>
<polyline fill="none" stroke="black" points="432.5,-643 432.5,-743 "/>
<path fill="none" stroke="black" d="M432.5,-743C432.5,-749 426.5,-755 420.5,-755"/>
<polyline fill="none" stroke="black" points="420.5,-755 279.5,-755 "/>
<path fill="none" stroke="black" d="M279.5,-755C273.5,-755 267.5,-749 267.5,-743"/>
<polyline fill="none" stroke="black" points="267.5,-743 267.5,-643 "/>
<path fill="none" stroke="black" d="M267.5,-643C267.5,-637 273.5,-631 279.5,-631"/>
<text text-anchor="middle" x="350" y="-738.4" font-family="Times Roman,serif" font-size="14.00">Program</text>
<polyline fill="none" stroke="black" points="267.5,-729 432.5,-729 "/>
<text text-anchor="start" x="275.5" y="-712.4" font-family="Times Roman,serif" font-size="14.00">title :string</text>
<text text-anchor="start" x="275.5" y="-694.4" font-family="Times Roman,serif" font-size="14.00">category :string</text>
<text text-anchor="start" x="275.5" y="-676.4" font-family="Times Roman,serif" font-size="14.00">created_at :datetime</text>
<text text-anchor="start" x="275.5" y="-658.4" font-family="Times Roman,serif" font-size="14.00">updated_at :datetime</text>
<text text-anchor="start" x="275.5" y="-640.4" font-family="Times Roman,serif" font-size="14.00">slug :string</text>
</g>
<!-- Project -->
<g id="node12" class="node"><title>Project</title>
<polyline fill="none" stroke="black" points="392.5,-397 547.5,-397 "/>
<path fill="none" stroke="black" d="M547.5,-397C553.5,-397 559.5,-403 559.5,-409"/>
<polyline fill="none" stroke="black" points="559.5,-409 559.5,-509 "/>
<path fill="none" stroke="black" d="M559.5,-509C559.5,-515 553.5,-521 547.5,-521"/>
<polyline fill="none" stroke="black" points="547.5,-521 392.5,-521 "/>
<path fill="none" stroke="black" d="M392.5,-521C386.5,-521 380.5,-515 380.5,-509"/>
<polyline fill="none" stroke="black" points="380.5,-509 380.5,-409 "/>
<path fill="none" stroke="black" d="M380.5,-409C380.5,-403 386.5,-397 392.5,-397"/>
<text text-anchor="middle" x="470" y="-504.4" font-family="Times Roman,serif" font-size="14.00">Project</text>
<polyline fill="none" stroke="black" points="380.5,-495 559.5,-495 "/>
<text text-anchor="start" x="388.5" y="-478.4" font-family="Times Roman,serif" font-size="14.00">category :string</text>
<text text-anchor="start" x="388.5" y="-460.4" font-family="Times Roman,serif" font-size="14.00">projectable_type :string</text>
<text text-anchor="start" x="388.5" y="-442.4" font-family="Times Roman,serif" font-size="14.00">label :string</text>
<text text-anchor="start" x="388.5" y="-424.4" font-family="Times Roman,serif" font-size="14.00">created_at :datetime</text>
<text text-anchor="start" x="388.5" y="-406.4" font-family="Times Roman,serif" font-size="14.00">updated_at :datetime</text>
</g>
<!-- Program&#45;&gt;Project -->
<g id="edge4" class="edge"><title>Program&#45;&gt;Project</title>
<path fill="none" stroke="black" d="M385.562,-623.654C400.635,-594.262 418.19,-560.029 433.377,-530.415"/>
<ellipse fill="none" stroke="black" cx="383.668" cy="-627.347" rx="4.00002" ry="4.00002"/>
<polygon fill="black" stroke="black" points="433.445,-530.282 442.013,-523.437 435.727,-525.833 438.008,-521.384 438.008,-521.384 438.008,-521.384 435.727,-525.833 434.004,-519.33 433.445,-530.282 433.445,-530.282"/>
</g>
<!-- FriendlyId::Slug -->
<g id="node14" class="node"><title>FriendlyId::Slug</title>
<ellipse fill="none" stroke="black" cx="276" cy="-459" rx="86.9741" ry="18.3848"/>
<text text-anchor="middle" x="276" y="-455.4" font-family="Times Roman,serif" font-size="14.00">FriendlyId::Slug</text>
</g>
<!-- Program&#45;&gt;FriendlyId::Slug -->
<g id="edge2" class="edge"><title>Program&#45;&gt;FriendlyId::Slug</title>
<path fill="none" stroke="black" d="M327.856,-622.977C313.47,-577.487 295.492,-520.637 284.925,-487.223"/>
<ellipse fill="none" stroke="black" cx="329.158" cy="-627.093" rx="4.00001" ry="4.00001"/>
<polygon fill="black" stroke="black" points="284.911,-487.179 286.187,-476.288 283.404,-482.412 281.896,-477.645 281.896,-477.645 281.896,-477.645 283.404,-482.412 277.606,-479.001 284.911,-487.179 284.911,-487.179"/>
<text text-anchor="middle" x="323.5" y="-545.4" font-family="Times Roman,serif" font-size="14.00">slugs</text>
</g>
<!-- Bike -->
<g id="node3" class="node"><title>Bike</title>
<polyline fill="none" stroke="black" points="582.5,-595 735.5,-595 "/>
<path fill="none" stroke="black" d="M735.5,-595C741.5,-595 747.5,-601 747.5,-607"/>
<polyline fill="none" stroke="black" points="747.5,-607 747.5,-779 "/>
<path fill="none" stroke="black" d="M747.5,-779C747.5,-785 741.5,-791 735.5,-791"/>
<polyline fill="none" stroke="black" points="735.5,-791 582.5,-791 "/>
<path fill="none" stroke="black" d="M582.5,-791C576.5,-791 570.5,-785 570.5,-779"/>
<polyline fill="none" stroke="black" points="570.5,-779 570.5,-607 "/>
<path fill="none" stroke="black" d="M570.5,-607C570.5,-601 576.5,-595 582.5,-595"/>
<text text-anchor="middle" x="659" y="-774.4" font-family="Times Roman,serif" font-size="14.00">Bike</text>
<polyline fill="none" stroke="black" points="570.5,-765 747.5,-765 "/>
<text text-anchor="start" x="578.5" y="-748.4" font-family="Times Roman,serif" font-size="14.00">color :string</text>
<text text-anchor="start" x="578.5" y="-730.4" font-family="Times Roman,serif" font-size="14.00">value :float</text>
<text text-anchor="start" x="578.5" y="-712.4" font-family="Times Roman,serif" font-size="14.00">seat_tube_height :float</text>
<text text-anchor="start" x="578.5" y="-694.4" font-family="Times Roman,serif" font-size="14.00">top_tube_length :float</text>
<text text-anchor="start" x="578.5" y="-676.4" font-family="Times Roman,serif" font-size="14.00">created_at :datetime</text>
<text text-anchor="start" x="578.5" y="-658.4" font-family="Times Roman,serif" font-size="14.00">updated_at :datetime</text>
<text text-anchor="start" x="578.5" y="-640.4" font-family="Times Roman,serif" font-size="14.00">mfg :string</text>
<text text-anchor="start" x="578.5" y="-622.4" font-family="Times Roman,serif" font-size="14.00">model :string</text>
<text text-anchor="start" x="578.5" y="-604.4" font-family="Times Roman,serif" font-size="14.00">number :string</text>
</g>
<!-- Hook -->
<g id="node9" class="node"><title>Hook</title>
<polyline fill="none" stroke="black" points="588.5,-415 729.5,-415 "/>
<path fill="none" stroke="black" d="M729.5,-415C735.5,-415 741.5,-421 741.5,-427"/>
<polyline fill="none" stroke="black" points="741.5,-427 741.5,-491 "/>
<path fill="none" stroke="black" d="M741.5,-491C741.5,-497 735.5,-503 729.5,-503"/>
<polyline fill="none" stroke="black" points="729.5,-503 588.5,-503 "/>
<path fill="none" stroke="black" d="M588.5,-503C582.5,-503 576.5,-497 576.5,-491"/>
<polyline fill="none" stroke="black" points="576.5,-491 576.5,-427 "/>
<path fill="none" stroke="black" d="M576.5,-427C576.5,-421 582.5,-415 588.5,-415"/>
<text text-anchor="middle" x="659" y="-486.4" font-family="Times Roman,serif" font-size="14.00">Hook</text>
<polyline fill="none" stroke="black" points="576.5,-477 741.5,-477 "/>
<text text-anchor="start" x="584.5" y="-460.4" font-family="Times Roman,serif" font-size="14.00">number :string</text>
<text text-anchor="start" x="584.5" y="-442.4" font-family="Times Roman,serif" font-size="14.00">created_at :datetime</text>
<text text-anchor="start" x="584.5" y="-424.4" font-family="Times Roman,serif" font-size="14.00">updated_at :datetime</text>
</g>
<!-- Bike&#45;&gt;Hook -->
<g id="edge8" class="edge"><title>Bike&#45;&gt;Hook</title>
<path fill="none" stroke="black" d="M659,-586.521C659,-560.464 659,-533.705 659,-511.47"/>
<ellipse fill="none" stroke="black" cx="659" cy="-590.78" rx="4" ry="4"/>
<ellipse fill="black" stroke="black" cx="659" cy="-507.181" rx="4" ry="4"/>
</g>
<!-- Comment -->
<g id="node11" class="node"><title>Comment</title>
<polyline fill="none" stroke="black" points="640,-163 812,-163 "/>
<path fill="none" stroke="black" d="M812,-163C818,-163 824,-169 824,-175"/>
<polyline fill="none" stroke="black" points="824,-175 824,-329 "/>
<path fill="none" stroke="black" d="M824,-329C824,-335 818,-341 812,-341"/>
<polyline fill="none" stroke="black" points="812,-341 640,-341 "/>
<path fill="none" stroke="black" d="M640,-341C634,-341 628,-335 628,-329"/>
<polyline fill="none" stroke="black" points="628,-329 628,-175 "/>
<path fill="none" stroke="black" d="M628,-175C628,-169 634,-163 640,-163"/>
<text text-anchor="middle" x="726" y="-324.4" font-family="Times Roman,serif" font-size="14.00">Comment</text>
<polyline fill="none" stroke="black" points="628,-315 824,-315 "/>
<text text-anchor="start" x="636" y="-298.4" font-family="Times Roman,serif" font-size="14.00">commentable_type :string</text>
<text text-anchor="start" x="636" y="-280.4" font-family="Times Roman,serif" font-size="14.00">title :string</text>
<text text-anchor="start" x="636" y="-262.4" font-family="Times Roman,serif" font-size="14.00">body :text</text>
<text text-anchor="start" x="636" y="-244.4" font-family="Times Roman,serif" font-size="14.00">subject :string</text>
<text text-anchor="start" x="636" y="-226.4" font-family="Times Roman,serif" font-size="14.00">lft :integer</text>
<text text-anchor="start" x="636" y="-208.4" font-family="Times Roman,serif" font-size="14.00">rgt :integer</text>
<text text-anchor="start" x="636" y="-190.4" font-family="Times Roman,serif" font-size="14.00">created_at :datetime</text>
<text text-anchor="start" x="636" y="-172.4" font-family="Times Roman,serif" font-size="14.00">updated_at :datetime</text>
</g>
<!-- Bike&#45;&gt;Comment -->
<g id="edge6" class="edge"><title>Bike&#45;&gt;Comment</title>
<path fill="none" stroke="black" d="M725.401,-587.254C735.571,-566.348 744.501,-544.037 750,-522 763.858,-466.459 759.128,-402.74 750.346,-351.155"/>
<ellipse fill="none" stroke="black" cx="723.536" cy="-591.006" rx="4.00002" ry="4.00002"/>
<polygon fill="black" stroke="black" points="750.292,-350.851 752.97,-340.217 749.416,-345.928 748.54,-341.005 748.54,-341.005 748.54,-341.005 749.416,-345.928 744.109,-341.794 750.292,-350.851 750.292,-350.851"/>
<text text-anchor="middle" x="820" y="-455.4" font-family="Times Roman,serif" font-size="14.00">comment_threads</text>
</g>
<!-- Bike&#45;&gt;Project -->
<g id="edge10" class="edge"><title>Bike&#45;&gt;Project</title>
<path fill="none" stroke="black" d="M574.467,-588.34C557.848,-567.765 540.814,-546.674 525.45,-527.652"/>
<ellipse fill="none" stroke="black" cx="577.155" cy="-591.668" rx="4.00002" ry="4.00002"/>
<ellipse fill="black" stroke="black" cx="522.82" cy="-524.396" rx="4.00002" ry="4.00002"/>
</g>
<!-- Project::Youth -->
<g id="node4" class="node"><title>Project::Youth</title>
<polyline fill="none" stroke="black" points="418.5,-190 573.5,-190 "/>
<path fill="none" stroke="black" d="M573.5,-190C579.5,-190 585.5,-196 585.5,-202"/>
<polyline fill="none" stroke="black" points="585.5,-202 585.5,-302 "/>
<path fill="none" stroke="black" d="M585.5,-302C585.5,-308 579.5,-314 573.5,-314"/>
<polyline fill="none" stroke="black" points="573.5,-314 418.5,-314 "/>
<path fill="none" stroke="black" d="M418.5,-314C412.5,-314 406.5,-308 406.5,-302"/>
<polyline fill="none" stroke="black" points="406.5,-302 406.5,-202 "/>
<path fill="none" stroke="black" d="M406.5,-202C406.5,-196 412.5,-190 418.5,-190"/>
<text text-anchor="middle" x="496" y="-297.4" font-family="Times Roman,serif" font-size="14.00">Project::Youth</text>
<polyline fill="none" stroke="black" points="406.5,-288 585.5,-288 "/>
<text text-anchor="start" x="414.5" y="-271.4" font-family="Times Roman,serif" font-size="14.00">category :string</text>
<text text-anchor="start" x="414.5" y="-253.4" font-family="Times Roman,serif" font-size="14.00">projectable_type :string</text>
<text text-anchor="start" x="414.5" y="-235.4" font-family="Times Roman,serif" font-size="14.00">label :string</text>
<text text-anchor="start" x="414.5" y="-217.4" font-family="Times Roman,serif" font-size="14.00">created_at :datetime</text>
<text text-anchor="start" x="414.5" y="-199.4" font-family="Times Roman,serif" font-size="14.00">updated_at :datetime</text>
</g>
<!-- Project::Spec::Youth -->
<g id="node5" class="node"><title>Project::Spec::Youth</title>
<polyline fill="none" stroke="black" points="425.5,-1 566.5,-1 "/>
<path fill="none" stroke="black" d="M566.5,-1C572.5,-1 578.5,-7 578.5,-13"/>
<polyline fill="none" stroke="black" points="578.5,-13 578.5,-95 "/>
<path fill="none" stroke="black" d="M578.5,-95C578.5,-101 572.5,-107 566.5,-107"/>
<polyline fill="none" stroke="black" points="566.5,-107 425.5,-107 "/>
<path fill="none" stroke="black" d="M425.5,-107C419.5,-107 413.5,-101 413.5,-95"/>
<polyline fill="none" stroke="black" points="413.5,-95 413.5,-13 "/>
<path fill="none" stroke="black" d="M413.5,-13C413.5,-7 419.5,-1 425.5,-1"/>
<text text-anchor="middle" x="496" y="-90.4" font-family="Times Roman,serif" font-size="14.00">Project::Spec::Youth</text>
<polyline fill="none" stroke="black" points="413.5,-81 578.5,-81 "/>
<text text-anchor="start" x="421.5" y="-64.4" font-family="Times Roman,serif" font-size="14.00">state :string</text>
<text text-anchor="start" x="421.5" y="-46.4" font-family="Times Roman,serif" font-size="14.00">specable_type :string</text>
<text text-anchor="start" x="421.5" y="-28.4" font-family="Times Roman,serif" font-size="14.00">created_at :datetime</text>
<text text-anchor="start" x="421.5" y="-10.4" font-family="Times Roman,serif" font-size="14.00">updated_at :datetime</text>
</g>
<!-- Project::Youth&#45;&gt;Project::Spec::Youth -->
<g id="edge12" class="edge"><title>Project::Youth&#45;&gt;Project::Spec::Youth</title>
<path fill="none" stroke="black" d="M496,-181.691C496,-160.053 496,-136.414 496,-115.422"/>
<ellipse fill="none" stroke="black" cx="496" cy="-185.895" rx="4" ry="4"/>
<ellipse fill="black" stroke="black" cx="496" cy="-111.213" rx="4" ry="4"/>
<text text-anchor="middle" x="511.5" y="-131.4" font-family="Times Roman,serif" font-size="14.00">spec</text>
</g>
<!-- Project::Spec::Eab -->
<g id="node6" class="node"><title>Project::Spec::Eab</title>
<polyline fill="none" stroke="black" points="229.5,-1 370.5,-1 "/>
<path fill="none" stroke="black" d="M370.5,-1C376.5,-1 382.5,-7 382.5,-13"/>
<polyline fill="none" stroke="black" points="382.5,-13 382.5,-95 "/>
<path fill="none" stroke="black" d="M382.5,-95C382.5,-101 376.5,-107 370.5,-107"/>
<polyline fill="none" stroke="black" points="370.5,-107 229.5,-107 "/>
<path fill="none" stroke="black" d="M229.5,-107C223.5,-107 217.5,-101 217.5,-95"/>
<polyline fill="none" stroke="black" points="217.5,-95 217.5,-13 "/>
<path fill="none" stroke="black" d="M217.5,-13C217.5,-7 223.5,-1 229.5,-1"/>
<text text-anchor="middle" x="300" y="-90.4" font-family="Times Roman,serif" font-size="14.00">Project::Spec::Eab</text>
<polyline fill="none" stroke="black" points="217.5,-81 382.5,-81 "/>
<text text-anchor="start" x="225.5" y="-64.4" font-family="Times Roman,serif" font-size="14.00">state :string</text>
<text text-anchor="start" x="225.5" y="-46.4" font-family="Times Roman,serif" font-size="14.00">specable_type :string</text>
<text text-anchor="start" x="225.5" y="-28.4" font-family="Times Roman,serif" font-size="14.00">created_at :datetime</text>
<text text-anchor="start" x="225.5" y="-10.4" font-family="Times Roman,serif" font-size="14.00">updated_at :datetime</text>
</g>
<!-- Project::Spec -->
<g id="node7" class="node"><title>Project::Spec</title>
<polygon fill="none" stroke="black" stroke-dasharray="1,5" points="871,-711 765,-711 765,-675 871,-675 871,-711"/>
<text text-anchor="middle" x="818" y="-689.4" font-family="Times Roman,serif" font-size="14.00">Project::Spec</text>
</g>
<!-- Project::Eab -->
<g id="node8" class="node"><title>Project::Eab</title>
<polyline fill="none" stroke="black" points="222.5,-190 377.5,-190 "/>
<path fill="none" stroke="black" d="M377.5,-190C383.5,-190 389.5,-196 389.5,-202"/>
<polyline fill="none" stroke="black" points="389.5,-202 389.5,-302 "/>
<path fill="none" stroke="black" d="M389.5,-302C389.5,-308 383.5,-314 377.5,-314"/>
<polyline fill="none" stroke="black" points="377.5,-314 222.5,-314 "/>
<path fill="none" stroke="black" d="M222.5,-314C216.5,-314 210.5,-308 210.5,-302"/>
<polyline fill="none" stroke="black" points="210.5,-302 210.5,-202 "/>
<path fill="none" stroke="black" d="M210.5,-202C210.5,-196 216.5,-190 222.5,-190"/>
<text text-anchor="middle" x="300" y="-297.4" font-family="Times Roman,serif" font-size="14.00">Project::Eab</text>
<polyline fill="none" stroke="black" points="210.5,-288 389.5,-288 "/>
<text text-anchor="start" x="218.5" y="-271.4" font-family="Times Roman,serif" font-size="14.00">category :string</text>
<text text-anchor="start" x="218.5" y="-253.4" font-family="Times Roman,serif" font-size="14.00">projectable_type :string</text>
<text text-anchor="start" x="218.5" y="-235.4" font-family="Times Roman,serif" font-size="14.00">label :string</text>
<text text-anchor="start" x="218.5" y="-217.4" font-family="Times Roman,serif" font-size="14.00">created_at :datetime</text>
<text text-anchor="start" x="218.5" y="-199.4" font-family="Times Roman,serif" font-size="14.00">updated_at :datetime</text>
</g>
<!-- Project::Eab&#45;&gt;Project::Spec::Eab -->
<g id="edge16" class="edge"><title>Project::Eab&#45;&gt;Project::Spec::Eab</title>
<path fill="none" stroke="black" d="M300,-181.691C300,-160.053 300,-136.414 300,-115.422"/>
<ellipse fill="none" stroke="black" cx="300" cy="-185.895" rx="4" ry="4"/>
<ellipse fill="black" stroke="black" cx="300" cy="-111.213" rx="4" ry="4"/>
<text text-anchor="middle" x="315.5" y="-131.4" font-family="Times Roman,serif" font-size="14.00">spec</text>
</g>
<!-- User -->
<g id="node10" class="node"><title>User</title>
<polyline fill="none" stroke="black" points="901,-577 1131,-577 "/>
<path fill="none" stroke="black" d="M1131,-577C1137,-577 1143,-583 1143,-589"/>
<polyline fill="none" stroke="black" points="1143,-589 1143,-797 "/>
<path fill="none" stroke="black" d="M1143,-797C1143,-803 1137,-809 1131,-809"/>
<polyline fill="none" stroke="black" points="1131,-809 901,-809 "/>
<path fill="none" stroke="black" d="M901,-809C895,-809 889,-803 889,-797"/>
<polyline fill="none" stroke="black" points="889,-797 889,-589 "/>
<path fill="none" stroke="black" d="M889,-589C889,-583 895,-577 901,-577"/>
<text text-anchor="middle" x="1016" y="-792.4" font-family="Times Roman,serif" font-size="14.00">User</text>
<polyline fill="none" stroke="black" points="889,-783 1143,-783 "/>
<text text-anchor="start" x="897" y="-766.4" font-family="Times Roman,serif" font-size="14.00">email :string</text>
<text text-anchor="start" x="897" y="-748.4" font-family="Times Roman,serif" font-size="14.00">encrypted_password :string</text>
<text text-anchor="start" x="897" y="-730.4" font-family="Times Roman,serif" font-size="14.00">reset_password_token :string</text>
<text text-anchor="start" x="897" y="-712.4" font-family="Times Roman,serif" font-size="14.00">reset_password_sent_at :datetime</text>
<text text-anchor="start" x="897" y="-694.4" font-family="Times Roman,serif" font-size="14.00">remember_created_at :datetime</text>
<text text-anchor="start" x="897" y="-676.4" font-family="Times Roman,serif" font-size="14.00">current_sign_in_at :datetime</text>
<text text-anchor="start" x="897" y="-658.4" font-family="Times Roman,serif" font-size="14.00">last_sign_in_at :datetime</text>
<text text-anchor="start" x="897" y="-640.4" font-family="Times Roman,serif" font-size="14.00">current_sign_in_ip :string</text>
<text text-anchor="start" x="897" y="-622.4" font-family="Times Roman,serif" font-size="14.00">last_sign_in_ip :string</text>
<text text-anchor="start" x="897" y="-604.4" font-family="Times Roman,serif" font-size="14.00">created_at :datetime</text>
<text text-anchor="start" x="897" y="-586.4" font-family="Times Roman,serif" font-size="14.00">updated_at :datetime</text>
</g>
<!-- Comment&#45;&gt;Comment -->
<g id="edge20" class="edge"><title>Comment&#45;&gt;Comment</title>
<path fill="none" stroke="black" d="M831.931,-266.972C838.227,-263.396 842,-258.406 842,-252 842,-246.139 838.842,-241.463 833.483,-237.971"/>
<ellipse fill="none" stroke="black" cx="827.845" cy="-268.722" rx="4.00001" ry="4.00001"/>
<polygon fill="black" stroke="black" points="833.259,-237.869 826.042,-229.612 828.713,-235.786 824.168,-233.703 824.168,-233.703 824.168,-233.703 828.713,-235.786 822.293,-237.794 833.259,-237.869 833.259,-237.869"/>
<text text-anchor="middle" x="869.5" y="-248.4" font-family="Times Roman,serif" font-size="14.00">children</text>
</g>
<!-- Project&#45;&gt;Project::Youth -->
<g id="edge14" class="edge"><title>Project&#45;&gt;Project::Youth</title>
<path fill="none" stroke="black" d="M477.801,-396.893C481.092,-370.694 484.914,-340.258 488.205,-314.063"/>
</g>
<!-- Project&#45;&gt;Project::Eab -->
<g id="edge18" class="edge"><title>Project&#45;&gt;Project::Eab</title>
<path fill="none" stroke="black" d="M418.994,-396.893C397.478,-370.694 372.482,-340.258 350.97,-314.063"/>
</g>
<!-- Project&#45;&gt;Comment -->
<g id="edge22" class="edge"><title>Project&#45;&gt;Comment</title>
<path fill="none" stroke="black" d="M553.141,-391.772C574.472,-374.525 597.705,-355.738 620.018,-337.696"/>
<ellipse fill="none" stroke="black" cx="549.919" cy="-394.378" rx="4.00002" ry="4.00002"/>
<polygon fill="black" stroke="black" points="620.091,-337.637 630.697,-334.849 623.979,-334.493 627.867,-331.349 627.867,-331.349 627.867,-331.349 623.979,-334.493 625.038,-327.85 620.091,-337.637 620.091,-337.637"/>
<text text-anchor="middle" x="652" y="-365.4" font-family="Times Roman,serif" font-size="14.00">comment_threads</text>
</g>
</g>
</svg>
