<?xml version="1.0" encoding="UTF-8" standalone="no"?>
<!DOCTYPE svg PUBLIC "-//W3C//DTD SVG 1.1//EN"
 "http://www.w3.org/Graphics/SVG/1.1/DTD/svg11.dtd">
<!-- Generated by graphviz version 2.26.3 (20100126.1600)
 -->
<!-- Title: models_diagram Pages: 1 -->
<svg width="674pt" height="362pt"
 viewBox="0.00 0.00 674.00 362.00" xmlns="http://www.w3.org/2000/svg" xmlns:xlink="http://www.w3.org/1999/xlink">
<g id="graph1" class="graph" transform="scale(1 1) rotate(0) translate(4 358)">
<title>models_diagram</title>
<polygon fill="white" stroke="white" points="-4,5 -4,-358 671,-358 671,5 -4,5"/>
<!-- _diagram_info -->
<g id="node1" class="node"><title>_diagram_info</title>
<text text-anchor="start" x="8" y="-337.8" font-family="Times Roman,serif" font-size="13.00">Models diagram</text>
<text text-anchor="start" x="8" y="-320.8" font-family="Times Roman,serif" font-size="13.00">Date: Mar 16 2012 &#45; 04:31</text>
<text text-anchor="start" x="8" y="-303.8" font-family="Times Roman,serif" font-size="13.00">Migration version: 20120316082735</text>
<text text-anchor="start" x="8" y="-286.8" font-family="Times Roman,serif" font-size="13.00">Generated by RailRoady 1.0.4</text>
<text text-anchor="start" x="8" y="-269.8" font-family="Times Roman,serif" font-size="13.00">http://railroady.prestonlee.com</text>
</g>
<!-- Program -->
<g id="node2" class="node"><title>Program</title>
<ellipse fill="none" stroke="black" cx="321" cy="-307" rx="53.033" ry="18.3848"/>
<text text-anchor="middle" x="321" y="-303.4" font-family="Times Roman,serif" font-size="14.00">Program</text>
</g>
<!-- Project -->
<g id="node12" class="node"><title>Project</title>
<ellipse fill="none" stroke="black" cx="322" cy="-203" rx="45.9619" ry="18.3848"/>
<text text-anchor="middle" x="322" y="-199.4" font-family="Times Roman,serif" font-size="14.00">Project</text>
</g>
<!-- Program&#45;&gt;Project -->
<g id="edge2" class="edge"><title>Program&#45;&gt;Project</title>
<path fill="none" stroke="black" d="M321.26,-279.926C321.402,-265.224 321.577,-247.041 321.721,-232.044"/>
<ellipse fill="none" stroke="black" cx="321.217" cy="-284.407" rx="4" ry="4"/>
<polygon fill="black" stroke="black" points="321.723,-231.782 326.319,-221.826 321.771,-226.783 321.819,-221.783 321.819,-221.783 321.819,-221.783 321.771,-226.783 317.32,-221.739 321.723,-231.782 321.723,-231.782"/>
</g>
<!-- Bike -->
<g id="node3" class="node"><title>Bike</title>
<ellipse fill="none" stroke="black" cx="424" cy="-307" rx="32.0265" ry="18.3848"/>
<text text-anchor="middle" x="424" y="-303.4" font-family="Times Roman,serif" font-size="14.00">Bike</text>
</g>
<!-- Hook -->
<g id="node9" class="node"><title>Hook</title>
<ellipse fill="none" stroke="black" cx="423" cy="-203" rx="36.7696" ry="18.3848"/>
<text text-anchor="middle" x="423" y="-199.4" font-family="Times Roman,serif" font-size="14.00">Hook</text>
</g>
<!-- Bike&#45;&gt;Hook -->
<g id="edge6" class="edge"><title>Bike&#45;&gt;Hook</title>
<path fill="none" stroke="black" d="M423.74,-279.926C423.591,-264.511 423.406,-245.267 423.258,-229.883"/>
<ellipse fill="none" stroke="black" cx="423.783" cy="-284.407" rx="4" ry="4"/>
<ellipse fill="black" stroke="black" cx="423.219" cy="-225.783" rx="4" ry="4"/>
</g>
<!-- Comment -->
<g id="node11" class="node"><title>Comment</title>
<ellipse fill="none" stroke="black" cx="484" cy="-111" rx="58.1882" ry="18.3848"/>
<text text-anchor="middle" x="484" y="-107.4" font-family="Times Roman,serif" font-size="14.00">Comment</text>
</g>
<!-- Bike&#45;&gt;Comment -->
<g id="edge4" class="edge"><title>Bike&#45;&gt;Comment</title>
<path fill="none" stroke="black" d="M439.309,-282.238C448.979,-265.693 461.096,-243.16 469,-222 477.941,-198.065 478.631,-191.328 482,-166 483.125,-157.542 483.708,-148.293 483.991,-139.833"/>
<ellipse fill="none" stroke="black" cx="437.104" cy="-285.953" rx="4.00002" ry="4.00002"/>
<polygon fill="black" stroke="black" points="483.995,-139.657 488.706,-129.755 484.101,-134.658 484.207,-129.659 484.207,-129.659 484.207,-129.659 484.101,-134.658 479.708,-129.564 483.995,-139.657 483.995,-139.657"/>
<text text-anchor="middle" x="541" y="-199.4" font-family="Times Roman,serif" font-size="14.00">comment_threads</text>
</g>
<!-- Bike&#45;&gt;Project -->
<g id="edge8" class="edge"><title>Bike&#45;&gt;Project</title>
<path fill="none" stroke="black" d="M404.619,-283.841C397.933,-276.108 390.289,-267.543 383,-260 371.612,-248.216 358.385,-235.723 347.164,-225.445"/>
<ellipse fill="none" stroke="black" cx="407.379" cy="-287.062" rx="4.00002" ry="4.00002"/>
<ellipse fill="black" stroke="black" cx="344.119" cy="-222.674" rx="4.00002" ry="4.00002"/>
</g>
<!-- Project::Youth -->
<g id="node4" class="node"><title>Project::Youth</title>
<ellipse fill="none" stroke="black" cx="146" cy="-111" rx="79.9031" ry="18.3848"/>
<text text-anchor="middle" x="146" y="-107.4" font-family="Times Roman,serif" font-size="14.00">Project::Youth</text>
</g>
<!-- Project::Spec::Youth -->
<g id="node5" class="node"><title>Project::Spec::Youth</title>
<ellipse fill="none" stroke="black" cx="118" cy="-19" rx="109.101" ry="18.3848"/>
<text text-anchor="middle" x="118" y="-15.4" font-family="Times Roman,serif" font-size="14.00">Project::Spec::Youth</text>
</g>
<!-- Project::Youth&#45;&gt;Project::Spec::Youth -->
<g id="edge10" class="edge"><title>Project::Youth&#45;&gt;Project::Spec::Youth</title>
<path fill="none" stroke="black" d="M137.919,-84.4467C134.172,-72.1371 129.733,-57.5504 125.997,-45.2753"/>
<ellipse fill="none" stroke="black" cx="139.169" cy="-88.5557" rx="4.00001" ry="4.00001"/>
<ellipse fill="black" stroke="black" cx="124.822" cy="-41.4166" rx="4.00001" ry="4.00001"/>
<text text-anchor="middle" x="149.5" y="-61.4" font-family="Times Roman,serif" font-size="14.00">spec</text>
</g>
<!-- Project::Spec::Eab -->
<g id="node6" class="node"><title>Project::Spec::Eab</title>
<ellipse fill="none" stroke="black" cx="344" cy="-19" rx="98.9949" ry="18.3848"/>
<text text-anchor="middle" x="344" y="-15.4" font-family="Times Roman,serif" font-size="14.00">Project::Spec::Eab</text>
</g>
<!-- Project::EAB -->
<g id="node7" class="node"><title>Project::EAB</title>
<ellipse fill="none" stroke="black" cx="330" cy="-111" rx="72.1249" ry="18.3848"/>
<text text-anchor="middle" x="330" y="-107.4" font-family="Times Roman,serif" font-size="14.00">Project::EAB</text>
</g>
<!-- Project::EAB&#45;&gt;Project::Spec::Eab -->
<g id="edge14" class="edge"><title>Project::EAB&#45;&gt;Project::Spec::Eab</title>
<path fill="none" stroke="black" d="M334.041,-84.4467C335.896,-72.2543 338.091,-57.828 339.948,-45.6267"/>
<ellipse fill="none" stroke="black" cx="333.435" cy="-88.428" rx="4.00001" ry="4.00001"/>
<ellipse fill="black" stroke="black" cx="340.569" cy="-41.5444" rx="4.00001" ry="4.00001"/>
<text text-anchor="middle" x="353.5" y="-61.4" font-family="Times Roman,serif" font-size="14.00">spec</text>
</g>
<!-- Project::Spec -->
<g id="node8" class="node"><title>Project::Spec</title>
<polygon fill="none" stroke="black" stroke-dasharray="1,5" points="580,-325 474,-325 474,-289 580,-289 580,-325"/>
<text text-anchor="middle" x="527" y="-303.4" font-family="Times Roman,serif" font-size="14.00">Project::Spec</text>
</g>
<!-- User -->
<g id="node10" class="node"><title>User</title>
<ellipse fill="none" stroke="black" cx="632" cy="-307" rx="33.9411" ry="18.3848"/>
<text text-anchor="middle" x="632" y="-303.4" font-family="Times Roman,serif" font-size="14.00">User</text>
</g>
<!-- Comment&#45;&gt;Comment -->
<g id="edge18" class="edge"><title>Comment&#45;&gt;Comment</title>
<path fill="none" stroke="black" d="M543.51,-118.989C553.28,-117.851 560,-115.188 560,-111 560,-107.099 554.17,-104.522 545.477,-103.267"/>
<ellipse fill="none" stroke="black" cx="539.496" cy="-119.276" rx="4" ry="4"/>
<polygon fill="black" stroke="black" points="545.472,-103.267 535.878,-97.9541 540.489,-102.853 535.506,-102.439 535.506,-102.439 535.506,-102.439 540.489,-102.853 535.133,-106.923 545.472,-103.267 545.472,-103.267"/>
<text text-anchor="middle" x="587.5" y="-107.4" font-family="Times Roman,serif" font-size="14.00">children</text>
</g>
<!-- Project&#45;&gt;Project::Youth -->
<g id="edge12" class="edge"><title>Project&#45;&gt;Project::Youth</title>
<path fill="none" stroke="black" d="M293.723,-188.219C262.239,-171.762 211.446,-145.211 178.39,-127.931"/>
</g>
<!-- Project&#45;&gt;Project::EAB -->
<g id="edge16" class="edge"><title>Project&#45;&gt;Project::EAB</title>
<path fill="none" stroke="black" d="M323.619,-184.382C325.007,-168.421 326.996,-145.543 328.383,-129.59"/>
</g>
<!-- Project&#45;&gt;Comment -->
<g id="edge20" class="edge"><title>Project&#45;&gt;Comment</title>
<path fill="none" stroke="black" d="M333.595,-177.636C339.544,-167.122 347.724,-155.626 358,-148 364.071,-143.495 397.678,-133.725 428.656,-125.355"/>
<ellipse fill="none" stroke="black" cx="331.714" cy="-181.168" rx="4.00002" ry="4.00002"/>
<polygon fill="black" stroke="black" points="428.924,-125.284 439.748,-127.042 433.754,-123.99 438.584,-122.696 438.584,-122.696 438.584,-122.696 433.754,-123.99 437.419,-118.349 428.924,-125.284 428.924,-125.284"/>
<text text-anchor="middle" x="420" y="-153.4" font-family="Times Roman,serif" font-size="14.00">comment_threads</text>
</g>
</g>
</svg>
