<?xml version="1.0" encoding="UTF-8" standalone="no"?>
<!DOCTYPE svg PUBLIC "-//W3C//DTD SVG 1.1//EN"
 "http://www.w3.org/Graphics/SVG/1.1/DTD/svg11.dtd">
<!-- Generated by graphviz version 2.26.3 (20100126.1600)
 -->
<!-- Title: models_diagram Pages: 1 -->
<svg width="1740pt" height="530pt"
 viewBox="0.00 0.00 1740.00 530.00" xmlns="http://www.w3.org/2000/svg" xmlns:xlink="http://www.w3.org/1999/xlink">
<g id="graph1" class="graph" transform="scale(1 1) rotate(0) translate(4 526)">
<title>models_diagram</title>
<polygon fill="white" stroke="white" points="-4,5 -4,-526 1737,-526 1737,5 -4,5"/>
<!-- _diagram_info -->
<g id="node1" class="node"><title>_diagram_info</title>
<text text-anchor="start" x="607" y="-505.8" font-family="Times Roman,serif" font-size="13.00">Models diagram</text>
<text text-anchor="start" x="607" y="-488.8" font-family="Times Roman,serif" font-size="13.00">Date: Jun 28 2012 &#45; 01:41</text>
<text text-anchor="start" x="607" y="-471.8" font-family="Times Roman,serif" font-size="13.00">Migration version: 20120628030935</text>
<text text-anchor="start" x="607" y="-454.8" font-family="Times Roman,serif" font-size="13.00">Generated by RailRoady 1.0.7</text>
<text text-anchor="start" x="607" y="-437.8" font-family="Times Roman,serif" font-size="13.00">http://railroady.prestonlee.com</text>
</g>
<!-- Program -->
<g id="node2" class="node"><title>Program</title>
<ellipse fill="none" stroke="black" cx="902" cy="-371" rx="53.033" ry="18.3848"/>
<text text-anchor="middle" x="902" y="-367.4" font-family="Times Roman,serif" font-size="14.00">Program</text>
</g>
<!-- Project -->
<g id="node17" class="node"><title>Project</title>
<ellipse fill="none" stroke="black" cx="983" cy="-279" rx="45.9619" ry="18.3848"/>
<text text-anchor="middle" x="983" y="-275.4" font-family="Times Roman,serif" font-size="14.00">Project</text>
</g>
<!-- Program&#45;&gt;Project -->
<g id="edge4" class="edge"><title>Program&#45;&gt;Project</title>
<path fill="none" stroke="#0d65ef" d="M922.918,-347.241C934.541,-334.04 948.998,-317.62 960.817,-304.195"/>
<ellipse fill="none" stroke="#0d65ef" cx="920.261" cy="-350.259" rx="4.00002" ry="4.00002"/>
<polygon fill="#0d65ef" stroke="#0d65ef" points="960.822,-304.19 970.808,-299.658 964.126,-300.437 967.43,-296.684 967.43,-296.684 967.43,-296.684 964.126,-300.437 964.053,-293.71 960.822,-304.19 960.822,-304.19"/>
</g>
<!-- FriendlyId::Slug -->
<g id="node23" class="node"><title>FriendlyId::Slug</title>
<ellipse fill="none" stroke="black" cx="832" cy="-279" rx="86.9741" ry="18.3848"/>
<text text-anchor="middle" x="832" y="-275.4" font-family="Times Roman,serif" font-size="14.00">FriendlyId::Slug</text>
</g>
<!-- Program&#45;&gt;FriendlyId::Slug -->
<g id="edge2" class="edge"><title>Program&#45;&gt;FriendlyId::Slug</title>
<path fill="none" stroke="#08b0dd" d="M883.047,-346.091C873.474,-333.509 861.856,-318.239 852.123,-305.448"/>
<ellipse fill="none" stroke="#08b0dd" cx="885.748" cy="-349.64" rx="4.00002" ry="4.00002"/>
<polygon fill="#08b0dd" stroke="#08b0dd" points="852.096,-305.412 849.622,-294.729 849.068,-301.433 846.041,-297.453 846.041,-297.453 846.041,-297.453 849.068,-301.433 842.459,-300.178 852.096,-305.412 852.096,-305.412"/>
<text text-anchor="middle" x="890.5" y="-321.4" font-family="Times Roman,serif" font-size="14.00">slugs</text>
</g>
<!-- Inspection -->
<g id="node3" class="node"><title>Inspection</title>
<polygon fill="none" stroke="black" stroke-dasharray="1,5" points="1151,-493 1065,-493 1065,-457 1151,-457 1151,-493"/>
<text text-anchor="middle" x="1108" y="-471.4" font-family="Times Roman,serif" font-size="14.00">Inspection</text>
</g>
<!-- ResponseSet -->
<g id="node4" class="node"><title>ResponseSet</title>
<ellipse fill="none" stroke="black" cx="999" cy="-111" rx="73.0388" ry="18.3848"/>
<text text-anchor="middle" x="999" y="-107.4" font-family="Times Roman,serif" font-size="14.00">ResponseSet</text>
</g>
<!-- Response -->
<g id="node26" class="node"><title>Response</title>
<ellipse fill="none" stroke="black" cx="999" cy="-19" rx="56.7776" ry="18.3848"/>
<text text-anchor="middle" x="999" y="-15.4" font-family="Times Roman,serif" font-size="14.00">Response</text>
</g>
<!-- ResponseSet&#45;&gt;Response -->
<g id="edge6" class="edge"><title>ResponseSet&#45;&gt;Response</title>
<path fill="none" stroke="#37a900" d="M999,-84.029C999,-72.5994 999,-59.2671 999,-47.6601"/>
<ellipse fill="none" stroke="#37a900" cx="999" cy="-88.3824" rx="4" ry="4"/>
<polygon fill="#37a900" stroke="#37a900" points="999,-47.5899 1003.5,-37.5898 999,-42.5899 999,-37.5899 999,-37.5899 999,-37.5899 999,-42.5899 994.5,-37.5899 999,-47.5899 999,-47.5899"/>
</g>
<!-- Bike -->
<g id="node5" class="node"><title>Bike</title>
<ellipse fill="none" stroke="black" cx="1059" cy="-203" rx="32.0265" ry="18.3848"/>
<text text-anchor="middle" x="1059" y="-199.4" font-family="Times Roman,serif" font-size="14.00">Bike</text>
</g>
<!-- Bike&#45;&gt;ResponseSet -->
<g id="edge12" class="edge"><title>Bike&#45;&gt;ResponseSet</title>
<path fill="none" stroke="#b4b07a" d="M1023.02,-190.904C1011.7,-185.206 1000.48,-177.142 994,-166 989.428,-158.136 988.931,-148.547 990.117,-139.591"/>
<ellipse fill="none" stroke="#b4b07a" cx="1026.79" cy="-192.641" rx="4.00002" ry="4.00002"/>
<polygon fill="#b4b07a" stroke="#b4b07a" points="990.173,-139.315 996.552,-130.395 991.156,-134.413 992.14,-129.51 992.14,-129.51 992.14,-129.51 991.156,-134.413 987.727,-128.625 990.173,-139.315 990.173,-139.315"/>
<text text-anchor="middle" x="1032.5" y="-153.4" font-family="Times Roman,serif" font-size="14.00">inspections</text>
</g>
<!-- Hook -->
<g id="node13" class="node"><title>Hook</title>
<ellipse fill="none" stroke="black" cx="1127" cy="-111" rx="36.7696" ry="18.3848"/>
<text text-anchor="middle" x="1127" y="-107.4" font-family="Times Roman,serif" font-size="14.00">Hook</text>
</g>
<!-- Bike&#45;&gt;Hook -->
<g id="edge10" class="edge"><title>Bike&#45;&gt;Hook</title>
<path fill="none" stroke="#895563" d="M1076.38,-178.892C1083.37,-169.254 1091.53,-158.072 1099,-148 1102.09,-143.839 1105.39,-139.434 1108.61,-135.169"/>
<ellipse fill="none" stroke="#895563" cx="1073.87" cy="-182.358" rx="4.00002" ry="4.00002"/>
<ellipse fill="#895563" stroke="#895563" cx="1111.13" cy="-131.83" rx="4.00002" ry="4.00002"/>
</g>
<!-- Comment -->
<g id="node16" class="node"><title>Comment</title>
<ellipse fill="none" stroke="black" cx="1246" cy="-111" rx="58.1882" ry="18.3848"/>
<text text-anchor="middle" x="1246" y="-107.4" font-family="Times Roman,serif" font-size="14.00">Comment</text>
</g>
<!-- Bike&#45;&gt;Comment -->
<g id="edge8" class="edge"><title>Bike&#45;&gt;Comment</title>
<path fill="none" stroke="#f7d9b9" d="M1080.89,-180.972C1094.39,-167.781 1110.67,-152.689 1119,-148 1125.68,-144.239 1159.95,-134.333 1191.21,-125.716"/>
<ellipse fill="none" stroke="#f7d9b9" cx="1077.77" cy="-184.047" rx="4.00002" ry="4.00002"/>
<polygon fill="#f7d9b9" stroke="#f7d9b9" points="1191.57,-125.618 1202.41,-127.314 1196.39,-124.296 1201.22,-122.974 1201.22,-122.974 1201.22,-122.974 1196.39,-124.296 1200.03,-118.634 1191.57,-125.618 1191.57,-125.618"/>
<text text-anchor="middle" x="1181" y="-153.4" font-family="Times Roman,serif" font-size="14.00">comment_threads</text>
</g>
<!-- Project::Youth -->
<g id="node6" class="node"><title>Project::Youth</title>
<ellipse fill="none" stroke="black" cx="678" cy="-203" rx="79.9031" ry="18.3848"/>
<text text-anchor="middle" x="678" y="-199.4" font-family="Times Roman,serif" font-size="14.00">Project::Youth</text>
</g>
<!-- Project::YouthDetail -->
<g id="node11" class="node"><title>Project::YouthDetail</title>
<ellipse fill="none" stroke="black" cx="565" cy="-111" rx="109.101" ry="18.3848"/>
<text text-anchor="middle" x="565" y="-107.4" font-family="Times Roman,serif" font-size="14.00">Project::YouthDetail</text>
</g>
<!-- Project::Youth&#45;&gt;Project::YouthDetail -->
<g id="edge14" class="edge"><title>Project::Youth&#45;&gt;Project::YouthDetail</title>
<path fill="none" stroke="#2007ee" d="M649.654,-179.922C632.644,-166.073 611.061,-148.501 593.945,-134.566"/>
<ellipse fill="none" stroke="#2007ee" cx="652.842" cy="-182.518" rx="4.00002" ry="4.00002"/>
<ellipse fill="#2007ee" stroke="#2007ee" cx="590.488" cy="-131.752" rx="4.00002" ry="4.00002"/>
<text text-anchor="middle" x="650.5" y="-153.4" font-family="Times Roman,serif" font-size="14.00">detail</text>
</g>
<!-- Project::Scrap -->
<g id="node7" class="node"><title>Project::Scrap</title>
<ellipse fill="none" stroke="black" cx="905" cy="-203" rx="79.196" ry="18.3848"/>
<text text-anchor="middle" x="905" y="-199.4" font-family="Times Roman,serif" font-size="14.00">Project::Scrap</text>
</g>
<!-- Project::ScrapDetail -->
<g id="node10" class="node"><title>Project::ScrapDetail</title>
<ellipse fill="none" stroke="black" cx="800" cy="-111" rx="108.187" ry="18.3848"/>
<text text-anchor="middle" x="800" y="-107.4" font-family="Times Roman,serif" font-size="14.00">Project::ScrapDetail</text>
</g>
<!-- Project::Scrap&#45;&gt;Project::ScrapDetail -->
<g id="edge18" class="edge"><title>Project::Scrap&#45;&gt;Project::ScrapDetail</title>
<path fill="none" stroke="#1557fa" d="M878.192,-179.511C862.442,-165.711 842.597,-148.323 826.841,-134.518"/>
<ellipse fill="none" stroke="#1557fa" cx="881.497" cy="-182.407" rx="4.00002" ry="4.00002"/>
<ellipse fill="#1557fa" stroke="#1557fa" cx="823.81" cy="-131.862" rx="4.00002" ry="4.00002"/>
<text text-anchor="middle" x="880.5" y="-153.4" font-family="Times Roman,serif" font-size="14.00">detail</text>
</g>
<!-- Project::Eab -->
<g id="node8" class="node"><title>Project::Eab</title>
<ellipse fill="none" stroke="black" cx="168" cy="-203" rx="70.0036" ry="18.3848"/>
<text text-anchor="middle" x="168" y="-199.4" font-family="Times Roman,serif" font-size="14.00">Project::Eab</text>
</g>
<!-- Project::EabDetail -->
<g id="node9" class="node"><title>Project::EabDetail</title>
<ellipse fill="none" stroke="black" cx="99" cy="-111" rx="98.9949" ry="18.3848"/>
<text text-anchor="middle" x="99" y="-107.4" font-family="Times Roman,serif" font-size="14.00">Project::EabDetail</text>
</g>
<!-- Project::Eab&#45;&gt;Project::EabDetail -->
<g id="edge22" class="edge"><title>Project::Eab&#45;&gt;Project::EabDetail</title>
<path fill="none" stroke="#f0c457" d="M149.318,-178.091C139.522,-165.029 127.554,-149.072 117.748,-135.997"/>
<ellipse fill="none" stroke="#f0c457" cx="151.968" cy="-181.624" rx="4.00002" ry="4.00002"/>
<ellipse fill="#f0c457" stroke="#f0c457" cx="115.24" cy="-132.653" rx="4.00002" ry="4.00002"/>
<text text-anchor="middle" x="159.5" y="-153.4" font-family="Times Roman,serif" font-size="14.00">detail</text>
</g>
<!-- Project::ResponseSet -->
<g id="node37" class="node"><title>Project::ResponseSet</title>
<ellipse fill="none" stroke="black" cx="273" cy="-19" rx="113.844" ry="18.3848"/>
<text text-anchor="middle" x="273" y="-15.4" font-family="Times Roman,serif" font-size="14.00">Project::ResponseSet</text>
</g>
<!-- Project::EabDetail&#45;&gt;Project::ResponseSet -->
<g id="edge26" class="edge"><title>Project::EabDetail&#45;&gt;Project::ResponseSet</title>
<path fill="none" stroke="#20ddbe" d="M139.22,-89.7342C166.502,-75.3091 202.519,-56.2657 230.309,-41.5724"/>
<ellipse fill="none" stroke="#20ddbe" cx="135.674" cy="-91.6092" rx="4.00002" ry="4.00002"/>
<polygon fill="#20ddbe" stroke="#20ddbe" points="230.553,-41.4434 241.496,-40.7473 234.973,-39.1063 239.393,-36.7692 239.393,-36.7692 239.393,-36.7692 234.973,-39.1063 237.29,-32.791 230.553,-41.4434 230.553,-41.4434"/>
<text text-anchor="middle" x="240.5" y="-61.4" font-family="Times Roman,serif" font-size="14.00">inspections</text>
</g>
<!-- Project::YouthDetail&#45;&gt;Project::ResponseSet -->
<g id="edge32" class="edge"><title>Project::YouthDetail&#45;&gt;Project::ResponseSet</title>
<path fill="none" stroke="#9c81a6" d="M505.179,-92.1524C455.592,-76.529 385.347,-54.3971 335.132,-38.5757"/>
<ellipse fill="none" stroke="#9c81a6" cx="509.318" cy="-93.4562" rx="4.00001" ry="4.00001"/>
<polygon fill="#9c81a6" stroke="#9c81a6" points="334.905,-38.5045 326.72,-31.2074 330.137,-37.002 325.368,-35.4994 325.368,-35.4994 325.368,-35.4994 330.137,-37.002 324.015,-39.7914 334.905,-38.5045 334.905,-38.5045"/>
<text text-anchor="middle" x="484.5" y="-61.4" font-family="Times Roman,serif" font-size="14.00">inspections</text>
</g>
<!-- Project::TimeEntry -->
<g id="node42" class="node"><title>Project::TimeEntry</title>
<ellipse fill="none" stroke="black" cx="565" cy="-19" rx="102.03" ry="18.3848"/>
<text text-anchor="middle" x="565" y="-15.4" font-family="Times Roman,serif" font-size="14.00">Project::TimeEntry</text>
</g>
<!-- Project::YouthDetail&#45;&gt;Project::TimeEntry -->
<g id="edge34" class="edge"><title>Project::YouthDetail&#45;&gt;Project::TimeEntry</title>
<path fill="none" stroke="#872e53" d="M565,-84.029C565,-72.5994 565,-59.2671 565,-47.6601"/>
<ellipse fill="none" stroke="#872e53" cx="565" cy="-88.3824" rx="4" ry="4"/>
<polygon fill="#872e53" stroke="#872e53" points="565,-47.5899 569.5,-37.5898 565,-42.5899 565,-37.5899 565,-37.5899 565,-37.5899 565,-42.5899 560.5,-37.5899 565,-47.5899 565,-47.5899"/>
<text text-anchor="middle" x="633" y="-61.4" font-family="Times Roman,serif" font-size="14.00">time_entry_threads</text>
</g>
<!-- ProjectDetail -->
<g id="node12" class="node"><title>ProjectDetail</title>
<ellipse fill="none" stroke="black" cx="486" cy="-203" rx="74.9533" ry="18.3848"/>
<text text-anchor="middle" x="486" y="-199.4" font-family="Times Roman,serif" font-size="14.00">ProjectDetail</text>
</g>
<!-- ProjectDetail&#45;&gt;Project::EabDetail -->
<g id="edge28" class="edge"><title>ProjectDetail&#45;&gt;Project::EabDetail</title>
<path fill="none" stroke="black" d="M431.782,-190.111C360.326,-173.124 234.963,-143.322 160.187,-125.546"/>
</g>
<!-- ProjectDetail&#45;&gt;Project::ScrapDetail -->
<g id="edge30" class="edge"><title>ProjectDetail&#45;&gt;Project::ScrapDetail</title>
<path fill="none" stroke="black" d="M517.814,-186.18C541.973,-174.024 576.329,-158.039 608,-148 629.196,-141.282 678.975,-131.75 722.535,-124.044"/>
</g>
<!-- ProjectDetail&#45;&gt;Project::YouthDetail -->
<g id="edge36" class="edge"><title>ProjectDetail&#45;&gt;Project::YouthDetail</title>
<path fill="none" stroke="black" d="M498.174,-184.529C505.72,-173.54 515.876,-159.537 526,-148 531.54,-141.686 538.005,-135.239 544.06,-129.532"/>
</g>
<!-- ProjectDetailVersion -->
<g id="node15" class="node"><title>ProjectDetailVersion</title>
<ellipse fill="none" stroke="black" cx="327" cy="-111" rx="111.016" ry="18.3848"/>
<text text-anchor="middle" x="327" y="-107.4" font-family="Times Roman,serif" font-size="14.00">ProjectDetailVersion</text>
</g>
<!-- ProjectDetail&#45;&gt;ProjectDetailVersion -->
<g id="edge38" class="edge"><title>ProjectDetail&#45;&gt;ProjectDetailVersion</title>
<path fill="none" stroke="#496d41" d="M449.281,-181.754C424.571,-167.456 392.009,-148.615 366.7,-133.971"/>
<ellipse fill="none" stroke="#496d41" cx="453.004" cy="-183.908" rx="4.00002" ry="4.00002"/>
<polygon fill="#496d41" stroke="#496d41" points="366.387,-133.79 359.985,-124.887 362.059,-131.286 357.731,-128.782 357.731,-128.782 357.731,-128.782 362.059,-131.286 355.477,-132.677 366.387,-133.79 366.387,-133.79"/>
<text text-anchor="middle" x="450" y="-153.4" font-family="Times Roman,serif" font-size="14.00">versions</text>
</g>
<!-- User -->
<g id="node14" class="node"><title>User</title>
<ellipse fill="none" stroke="black" cx="1203" cy="-475" rx="33.9411" ry="18.3848"/>
<text text-anchor="middle" x="1203" y="-471.4" font-family="Times Roman,serif" font-size="14.00">User</text>
</g>
<!-- Comment&#45;&gt;Comment -->
<g id="edge42" class="edge"><title>Comment&#45;&gt;Comment</title>
<path fill="none" stroke="#f6c5e6" d="M1305.51,-118.989C1315.28,-117.851 1322,-115.188 1322,-111 1322,-107.099 1316.17,-104.522 1307.48,-103.267"/>
<ellipse fill="none" stroke="#f6c5e6" cx="1301.5" cy="-119.276" rx="4" ry="4"/>
<polygon fill="#f6c5e6" stroke="#f6c5e6" points="1307.47,-103.267 1297.88,-97.9541 1302.49,-102.853 1297.51,-102.439 1297.51,-102.439 1297.51,-102.439 1302.49,-102.853 1297.13,-106.923 1307.47,-103.267 1307.47,-103.267"/>
<text text-anchor="middle" x="1349.5" y="-107.4" font-family="Times Roman,serif" font-size="14.00">children</text>
</g>
<!-- Project&#45;&gt;Bike -->
<g id="edge44" class="edge"><title>Project&#45;&gt;Bike</title>
<path fill="none" stroke="#e0c4e5" d="M1006.21,-255.791C1016.03,-245.971 1027.41,-234.588 1037.09,-224.913"/>
<ellipse fill="none" stroke="#e0c4e5" cx="1003.07" cy="-258.926" rx="4.00002" ry="4.00002"/>
<ellipse fill="#e0c4e5" stroke="#e0c4e5" cx="1040.03" cy="-221.966" rx="4.00002" ry="4.00002"/>
</g>
<!-- Project&#45;&gt;Project::Youth -->
<g id="edge16" class="edge"><title>Project&#45;&gt;Project::Youth</title>
<path fill="none" stroke="black" d="M948.856,-266.563C941.993,-264.245 934.799,-261.943 928,-260 864.224,-241.772 789.997,-225.453 739.09,-214.996"/>
</g>
<!-- Project&#45;&gt;Project::Scrap -->
<g id="edge20" class="edge"><title>Project&#45;&gt;Project::Scrap</title>
<path fill="none" stroke="black" d="M965.301,-261.754C952.895,-249.667 936.342,-233.538 923.717,-221.237"/>
</g>
<!-- Project&#45;&gt;Project::Eab -->
<g id="edge24" class="edge"><title>Project&#45;&gt;Project::Eab</title>
<path fill="none" stroke="black" d="M949.957,-265.946C942.816,-263.59 935.235,-261.43 928,-260 640.629,-203.196 560.793,-257.337 270,-222 254.622,-220.131 238.065,-217.374 222.857,-214.536"/>
</g>
<!-- Project&#45;&gt;Comment -->
<g id="edge48" class="edge"><title>Project&#45;&gt;Comment</title>
<path fill="none" stroke="#cb2298" d="M1035.28,-272.544C1096.4,-261.943 1195.27,-234.641 1243,-166 1248.22,-158.495 1249.96,-148.926 1250.09,-139.881"/>
<ellipse fill="none" stroke="#cb2298" cx="1031.23" cy="-273.217" rx="4.00001" ry="4.00001"/>
<polygon fill="#cb2298" stroke="#cb2298" points="1250.08,-139.647 1254.11,-129.45 1249.85,-134.653 1249.62,-129.658 1249.62,-129.658 1249.62,-129.658 1249.85,-134.653 1245.12,-129.866 1250.08,-139.647 1250.08,-139.647"/>
<text text-anchor="middle" x="1289" y="-199.4" font-family="Times Roman,serif" font-size="14.00">comment_threads</text>
</g>
<!-- Detail -->
<g id="node50" class="node"><title>Detail</title>
<ellipse fill="none" stroke="black" cx="1440" cy="-203" rx="41.0122" ry="18.3848"/>
<text text-anchor="middle" x="1440" y="-199.4" font-family="Times Roman,serif" font-size="14.00">Detail</text>
</g>
<!-- Project&#45;&gt;Detail -->
<g id="edge46" class="edge"><title>Project&#45;&gt;Detail</title>
<path fill="none" stroke="#69890a" d="M1036.79,-275.232C1114.61,-268.915 1262.69,-253.64 1385,-222 1390.01,-220.705 1395.21,-219.168 1400.33,-217.538"/>
<ellipse fill="none" stroke="#69890a" cx="1032.55" cy="-275.569" rx="4" ry="4"/>
<ellipse fill="#69890a" stroke="#69890a" cx="1404.47" cy="-216.173" rx="4.00001" ry="4.00001"/>
</g>
<!-- SurveyorUtil -->
<g id="node18" class="node"><title>SurveyorUtil</title>
<polygon fill="none" stroke="black" stroke-dasharray="1,5" points="1359,-493 1255,-493 1255,-457 1359,-457 1359,-493"/>
<text text-anchor="middle" x="1307" y="-471.4" font-family="Times Roman,serif" font-size="14.00">SurveyorUtil</text>
</g>
<!-- PaperTrailContext -->
<g id="node19" class="node"><title>PaperTrailContext</title>
<polygon fill="none" stroke="black" stroke-dasharray="1,5" points="1517,-493 1377,-493 1377,-457 1517,-457 1517,-493"/>
<text text-anchor="middle" x="1447" y="-471.4" font-family="Times Roman,serif" font-size="14.00">PaperTrailContext</text>
</g>
<!-- ProjectCategory -->
<g id="node20" class="node"><title>ProjectCategory</title>
<ellipse fill="none" stroke="black" cx="957" cy="-475" rx="90.0096" ry="18.3848"/>
<text text-anchor="middle" x="957" y="-471.4" font-family="Times Roman,serif" font-size="14.00">ProjectCategory</text>
</g>
<!-- ProjectCategory&#45;&gt;Program -->
<g id="edge52" class="edge"><title>ProjectCategory&#45;&gt;Program</title>
<path fill="none" stroke="#99dce4" d="M943.18,-448.868C935.068,-433.528 924.824,-414.159 916.583,-398.576"/>
<ellipse fill="none" stroke="#99dce4" cx="945.297" cy="-452.871" rx="4.00002" ry="4.00002"/>
<polygon fill="#99dce4" stroke="#99dce4" points="916.423,-398.272 915.726,-387.328 914.085,-393.852 911.748,-389.432 911.748,-389.432 911.748,-389.432 914.085,-393.852 907.77,-391.536 916.423,-398.272 916.423,-398.272"/>
</g>
<!-- ProjectCategory&#45;&gt;Project -->
<g id="edge50" class="edge"><title>ProjectCategory&#45;&gt;Project</title>
<path fill="none" stroke="#941135" d="M960.56,-448.16C965.428,-411.467 974.126,-345.895 979.144,-308.072"/>
<ellipse fill="none" stroke="#941135" cx="960.019" cy="-452.241" rx="4.00001" ry="4.00001"/>
<polygon fill="#941135" stroke="#941135" points="979.199,-307.65 984.975,-298.328 979.857,-302.693 980.515,-297.736 980.515,-297.736 980.515,-297.736 979.857,-302.693 976.054,-297.145 979.199,-307.65 979.199,-307.65"/>
</g>
<!-- TimeEntry -->
<g id="node21" class="node"><title>TimeEntry</title>
<ellipse fill="none" stroke="black" cx="1597" cy="-475" rx="62.2254" ry="18.3848"/>
<text text-anchor="middle" x="1597" y="-471.4" font-family="Times Roman,serif" font-size="14.00">TimeEntry</text>
</g>
<!-- TimeEntry&#45;&gt;TimeEntry -->
<g id="edge54" class="edge"><title>TimeEntry&#45;&gt;TimeEntry</title>
<path fill="none" stroke="#b333ee" d="M1651.74,-487.259C1666.13,-486.537 1677,-482.45 1677,-475 1677,-467.895 1667.11,-463.849 1653.72,-462.863"/>
<ellipse fill="none" stroke="#b333ee" cx="1647.44" cy="-487.287" rx="4" ry="4"/>
<polygon fill="#b333ee" stroke="#b333ee" points="1653.44,-462.858 1643.52,-458.187 1648.44,-462.772 1643.44,-462.686 1643.44,-462.686 1643.44,-462.686 1648.44,-462.772 1643.36,-467.186 1653.44,-462.858 1653.44,-462.858"/>
<text text-anchor="middle" x="1704.5" y="-471.4" font-family="Times Roman,serif" font-size="14.00">children</text>
</g>
<!-- Version -->
<g id="node45" class="node"><title>Version</title>
<ellipse fill="none" stroke="black" cx="327" cy="-203" rx="48.0833" ry="18.3848"/>
<text text-anchor="middle" x="327" y="-199.4" font-family="Times Roman,serif" font-size="14.00">Version</text>
</g>
<!-- Version&#45;&gt;ProjectDetailVersion -->
<g id="edge40" class="edge"><title>Version&#45;&gt;ProjectDetailVersion</title>
<path fill="none" stroke="black" d="M327,-184.382C327,-168.421 327,-145.543 327,-129.59"/>
</g>
</g>
</svg>
