<?xml version="1.0" encoding="UTF-8" standalone="no"?>
<!DOCTYPE svg PUBLIC "-//W3C//DTD SVG 1.1//EN"
 "http://www.w3.org/Graphics/SVG/1.1/DTD/svg11.dtd">
<!-- Generated by graphviz version 2.26.3 (20100126.1600)
 -->
<!-- Title: models_diagram Pages: 1 -->
<svg width="1226pt" height="800pt"
 viewBox="0.00 0.00 1226.00 800.00" xmlns="http://www.w3.org/2000/svg" xmlns:xlink="http://www.w3.org/1999/xlink">
<g id="graph1" class="graph" transform="scale(1 1) rotate(0) translate(4 796)">
<title>models_diagram</title>
<polygon fill="white" stroke="white" points="-4,5 -4,-796 1223,-796 1223,5 -4,5"/>
<!-- _diagram_info -->
<g id="node1" class="node"><title>_diagram_info</title>
<text text-anchor="start" x="8" y="-705.8" font-family="Times Roman,serif" font-size="13.00">Models diagram</text>
<text text-anchor="start" x="8" y="-688.8" font-family="Times Roman,serif" font-size="13.00">Date: Mar 21 2012 &#45; 09:09</text>
<text text-anchor="start" x="8" y="-671.8" font-family="Times Roman,serif" font-size="13.00">Migration version: 20120321122710</text>
<text text-anchor="start" x="8" y="-654.8" font-family="Times Roman,serif" font-size="13.00">Generated by RailRoady 1.0.4</text>
<text text-anchor="start" x="8" y="-637.8" font-family="Times Roman,serif" font-size="13.00">http://railroady.prestonlee.com</text>
</g>
<!-- Program -->
<g id="node2" class="node"><title>Program</title>
<polyline fill="none" stroke="black" points="279.5,-613 420.5,-613 "/>
<path fill="none" stroke="black" d="M420.5,-613C426.5,-613 432.5,-619 432.5,-625"/>
<polyline fill="none" stroke="black" points="432.5,-625 432.5,-725 "/>
<path fill="none" stroke="black" d="M432.5,-725C432.5,-731 426.5,-737 420.5,-737"/>
<polyline fill="none" stroke="black" points="420.5,-737 279.5,-737 "/>
<path fill="none" stroke="black" d="M279.5,-737C273.5,-737 267.5,-731 267.5,-725"/>
<polyline fill="none" stroke="black" points="267.5,-725 267.5,-625 "/>
<path fill="none" stroke="black" d="M267.5,-625C267.5,-619 273.5,-613 279.5,-613"/>
<text text-anchor="middle" x="350" y="-720.4" font-family="Times Roman,serif" font-size="14.00">Program</text>
<polyline fill="none" stroke="black" points="267.5,-711 432.5,-711 "/>
<text text-anchor="start" x="275.5" y="-694.4" font-family="Times Roman,serif" font-size="14.00">title :string</text>
<text text-anchor="start" x="275.5" y="-676.4" font-family="Times Roman,serif" font-size="14.00">category :string</text>
<text text-anchor="start" x="275.5" y="-658.4" font-family="Times Roman,serif" font-size="14.00">created_at :datetime</text>
<text text-anchor="start" x="275.5" y="-640.4" font-family="Times Roman,serif" font-size="14.00">updated_at :datetime</text>
<text text-anchor="start" x="275.5" y="-622.4" font-family="Times Roman,serif" font-size="14.00">slug :string</text>
</g>
<!-- Project -->
<g id="node12" class="node"><title>Project</title>
<polyline fill="none" stroke="black" points="460.5,-397 615.5,-397 "/>
<path fill="none" stroke="black" d="M615.5,-397C621.5,-397 627.5,-403 627.5,-409"/>
<polyline fill="none" stroke="black" points="627.5,-409 627.5,-491 "/>
<path fill="none" stroke="black" d="M627.5,-491C627.5,-497 621.5,-503 615.5,-503"/>
<polyline fill="none" stroke="black" points="615.5,-503 460.5,-503 "/>
<path fill="none" stroke="black" d="M460.5,-503C454.5,-503 448.5,-497 448.5,-491"/>
<polyline fill="none" stroke="black" points="448.5,-491 448.5,-409 "/>
<path fill="none" stroke="black" d="M448.5,-409C448.5,-403 454.5,-397 460.5,-397"/>
<text text-anchor="middle" x="538" y="-486.4" font-family="Times Roman,serif" font-size="14.00">Project</text>
<polyline fill="none" stroke="black" points="448.5,-477 627.5,-477 "/>
<text text-anchor="start" x="456.5" y="-460.4" font-family="Times Roman,serif" font-size="14.00">projectable_type :string</text>
<text text-anchor="start" x="456.5" y="-442.4" font-family="Times Roman,serif" font-size="14.00">label :string</text>
<text text-anchor="start" x="456.5" y="-424.4" font-family="Times Roman,serif" font-size="14.00">created_at :datetime</text>
<text text-anchor="start" x="456.5" y="-406.4" font-family="Times Roman,serif" font-size="14.00">updated_at :datetime</text>
</g>
<!-- Program&#45;&gt;Project -->
<g id="edge4" class="edge"><title>Program&#45;&gt;Project</title>
<path fill="none" stroke="black" d="M406.49,-606.677C419.754,-590.685 433.854,-573.728 447,-558 459.72,-542.781 473.489,-526.395 486.372,-511.1"/>
<ellipse fill="none" stroke="black" cx="403.809" cy="-609.91" rx="4.00002" ry="4.00002"/>
<polygon fill="black" stroke="black" points="486.574,-510.86 496.46,-506.113 489.797,-507.037 493.019,-503.214 493.019,-503.214 493.019,-503.214 489.797,-507.037 489.578,-500.314 486.574,-510.86 486.574,-510.86"/>
</g>
<!-- FriendlyId::Slug -->
<g id="node15" class="node"><title>FriendlyId::Slug</title>
<ellipse fill="none" stroke="black" cx="344" cy="-450" rx="86.9741" ry="18.3848"/>
<text text-anchor="middle" x="344" y="-446.4" font-family="Times Roman,serif" font-size="14.00">FriendlyId::Slug</text>
</g>
<!-- Program&#45;&gt;FriendlyId::Slug -->
<g id="edge2" class="edge"><title>Program&#45;&gt;FriendlyId::Slug</title>
<path fill="none" stroke="black" d="M348.128,-604.807C346.995,-562.326 345.611,-510.426 344.768,-478.812"/>
<ellipse fill="none" stroke="black" cx="348.238" cy="-608.924" rx="4" ry="4"/>
<polygon fill="black" stroke="black" points="344.761,-478.521 348.992,-468.405 344.627,-473.523 344.494,-468.525 344.494,-468.525 344.494,-468.525 344.627,-473.523 339.996,-468.645 344.761,-478.521 344.761,-478.521"/>
<text text-anchor="middle" x="363.5" y="-527.4" font-family="Times Roman,serif" font-size="14.00">slugs</text>
</g>
<!-- Bike -->
<g id="node3" class="node"><title>Bike</title>
<polyline fill="none" stroke="black" points="657.5,-577 810.5,-577 "/>
<path fill="none" stroke="black" d="M810.5,-577C816.5,-577 822.5,-583 822.5,-589"/>
<polyline fill="none" stroke="black" points="822.5,-589 822.5,-761 "/>
<path fill="none" stroke="black" d="M822.5,-761C822.5,-767 816.5,-773 810.5,-773"/>
<polyline fill="none" stroke="black" points="810.5,-773 657.5,-773 "/>
<path fill="none" stroke="black" d="M657.5,-773C651.5,-773 645.5,-767 645.5,-761"/>
<polyline fill="none" stroke="black" points="645.5,-761 645.5,-589 "/>
<path fill="none" stroke="black" d="M645.5,-589C645.5,-583 651.5,-577 657.5,-577"/>
<text text-anchor="middle" x="734" y="-756.4" font-family="Times Roman,serif" font-size="14.00">Bike</text>
<polyline fill="none" stroke="black" points="645.5,-747 822.5,-747 "/>
<text text-anchor="start" x="653.5" y="-730.4" font-family="Times Roman,serif" font-size="14.00">color :string</text>
<text text-anchor="start" x="653.5" y="-712.4" font-family="Times Roman,serif" font-size="14.00">value :float</text>
<text text-anchor="start" x="653.5" y="-694.4" font-family="Times Roman,serif" font-size="14.00">seat_tube_height :float</text>
<text text-anchor="start" x="653.5" y="-676.4" font-family="Times Roman,serif" font-size="14.00">top_tube_length :float</text>
<text text-anchor="start" x="653.5" y="-658.4" font-family="Times Roman,serif" font-size="14.00">created_at :datetime</text>
<text text-anchor="start" x="653.5" y="-640.4" font-family="Times Roman,serif" font-size="14.00">updated_at :datetime</text>
<text text-anchor="start" x="653.5" y="-622.4" font-family="Times Roman,serif" font-size="14.00">mfg :string</text>
<text text-anchor="start" x="653.5" y="-604.4" font-family="Times Roman,serif" font-size="14.00">model :string</text>
<text text-anchor="start" x="653.5" y="-586.4" font-family="Times Roman,serif" font-size="14.00">number :string</text>
</g>
<!-- Hook -->
<g id="node9" class="node"><title>Hook</title>
<polyline fill="none" stroke="black" points="887.5,-406 1028.5,-406 "/>
<path fill="none" stroke="black" d="M1028.5,-406C1034.5,-406 1040.5,-412 1040.5,-418"/>
<polyline fill="none" stroke="black" points="1040.5,-418 1040.5,-482 "/>
<path fill="none" stroke="black" d="M1040.5,-482C1040.5,-488 1034.5,-494 1028.5,-494"/>
<polyline fill="none" stroke="black" points="1028.5,-494 887.5,-494 "/>
<path fill="none" stroke="black" d="M887.5,-494C881.5,-494 875.5,-488 875.5,-482"/>
<polyline fill="none" stroke="black" points="875.5,-482 875.5,-418 "/>
<path fill="none" stroke="black" d="M875.5,-418C875.5,-412 881.5,-406 887.5,-406"/>
<text text-anchor="middle" x="958" y="-477.4" font-family="Times Roman,serif" font-size="14.00">Hook</text>
<polyline fill="none" stroke="black" points="875.5,-468 1040.5,-468 "/>
<text text-anchor="start" x="883.5" y="-451.4" font-family="Times Roman,serif" font-size="14.00">number :string</text>
<text text-anchor="start" x="883.5" y="-433.4" font-family="Times Roman,serif" font-size="14.00">created_at :datetime</text>
<text text-anchor="start" x="883.5" y="-415.4" font-family="Times Roman,serif" font-size="14.00">updated_at :datetime</text>
</g>
<!-- Bike&#45;&gt;Hook -->
<g id="edge8" class="edge"><title>Bike&#45;&gt;Hook</title>
<path fill="none" stroke="black" d="M818.75,-570.796C822.827,-566.415 826.921,-562.13 831,-558 850.991,-537.757 874.354,-517.137 895.553,-499.413"/>
<ellipse fill="none" stroke="black" cx="815.913" cy="-573.882" rx="4.00002" ry="4.00002"/>
<ellipse fill="black" stroke="black" cx="898.686" cy="-496.809" rx="4.00002" ry="4.00002"/>
</g>
<!-- Comment -->
<g id="node11" class="node"><title>Comment</title>
<polyline fill="none" stroke="black" points="652,-163 824,-163 "/>
<path fill="none" stroke="black" d="M824,-163C830,-163 836,-169 836,-175"/>
<polyline fill="none" stroke="black" points="836,-175 836,-329 "/>
<path fill="none" stroke="black" d="M836,-329C836,-335 830,-341 824,-341"/>
<polyline fill="none" stroke="black" points="824,-341 652,-341 "/>
<path fill="none" stroke="black" d="M652,-341C646,-341 640,-335 640,-329"/>
<polyline fill="none" stroke="black" points="640,-329 640,-175 "/>
<path fill="none" stroke="black" d="M640,-175C640,-169 646,-163 652,-163"/>
<text text-anchor="middle" x="738" y="-324.4" font-family="Times Roman,serif" font-size="14.00">Comment</text>
<polyline fill="none" stroke="black" points="640,-315 836,-315 "/>
<text text-anchor="start" x="648" y="-298.4" font-family="Times Roman,serif" font-size="14.00">commentable_type :string</text>
<text text-anchor="start" x="648" y="-280.4" font-family="Times Roman,serif" font-size="14.00">title :string</text>
<text text-anchor="start" x="648" y="-262.4" font-family="Times Roman,serif" font-size="14.00">body :text</text>
<text text-anchor="start" x="648" y="-244.4" font-family="Times Roman,serif" font-size="14.00">subject :string</text>
<text text-anchor="start" x="648" y="-226.4" font-family="Times Roman,serif" font-size="14.00">lft :integer</text>
<text text-anchor="start" x="648" y="-208.4" font-family="Times Roman,serif" font-size="14.00">rgt :integer</text>
<text text-anchor="start" x="648" y="-190.4" font-family="Times Roman,serif" font-size="14.00">created_at :datetime</text>
<text text-anchor="start" x="648" y="-172.4" font-family="Times Roman,serif" font-size="14.00">updated_at :datetime</text>
</g>
<!-- Bike&#45;&gt;Comment -->
<g id="edge6" class="edge"><title>Bike&#45;&gt;Comment</title>
<path fill="none" stroke="black" d="M735.004,-568.874C735.633,-502.265 736.44,-416.926 737.058,-351.595"/>
<ellipse fill="none" stroke="black" cx="734.966" cy="-572.892" rx="4" ry="4"/>
<polygon fill="black" stroke="black" points="737.061,-351.287 741.655,-341.33 737.108,-346.287 737.156,-341.287 737.156,-341.287 737.156,-341.287 737.108,-346.287 732.656,-341.245 737.061,-351.287 737.061,-351.287"/>
<text text-anchor="middle" x="798" y="-446.4" font-family="Times Roman,serif" font-size="14.00">comment_threads</text>
</g>
<!-- Bike&#45;&gt;Project -->
<g id="edge10" class="edge"><title>Bike&#45;&gt;Project</title>
<path fill="none" stroke="black" d="M643.154,-570.712C624.855,-549.706 606.221,-528.315 589.824,-509.492"/>
<ellipse fill="none" stroke="black" cx="645.974" cy="-573.95" rx="4.00002" ry="4.00002"/>
<ellipse fill="black" stroke="black" cx="586.98" cy="-506.227" rx="4.00002" ry="4.00002"/>
</g>
<!-- Project::Youth -->
<g id="node4" class="node"><title>Project::Youth</title>
<polyline fill="none" stroke="black" points="455.5,-199 610.5,-199 "/>
<path fill="none" stroke="black" d="M610.5,-199C616.5,-199 622.5,-205 622.5,-211"/>
<polyline fill="none" stroke="black" points="622.5,-211 622.5,-293 "/>
<path fill="none" stroke="black" d="M622.5,-293C622.5,-299 616.5,-305 610.5,-305"/>
<polyline fill="none" stroke="black" points="610.5,-305 455.5,-305 "/>
<path fill="none" stroke="black" d="M455.5,-305C449.5,-305 443.5,-299 443.5,-293"/>
<polyline fill="none" stroke="black" points="443.5,-293 443.5,-211 "/>
<path fill="none" stroke="black" d="M443.5,-211C443.5,-205 449.5,-199 455.5,-199"/>
<text text-anchor="middle" x="533" y="-288.4" font-family="Times Roman,serif" font-size="14.00">Project::Youth</text>
<polyline fill="none" stroke="black" points="443.5,-279 622.5,-279 "/>
<text text-anchor="start" x="451.5" y="-262.4" font-family="Times Roman,serif" font-size="14.00">projectable_type :string</text>
<text text-anchor="start" x="451.5" y="-244.4" font-family="Times Roman,serif" font-size="14.00">label :string</text>
<text text-anchor="start" x="451.5" y="-226.4" font-family="Times Roman,serif" font-size="14.00">created_at :datetime</text>
<text text-anchor="start" x="451.5" y="-208.4" font-family="Times Roman,serif" font-size="14.00">updated_at :datetime</text>
</g>
<!-- Project::Spec::Youth -->
<g id="node5" class="node"><title>Project::Spec::Youth</title>
<polyline fill="none" stroke="black" points="462.5,-1 603.5,-1 "/>
<path fill="none" stroke="black" d="M603.5,-1C609.5,-1 615.5,-7 615.5,-13"/>
<polyline fill="none" stroke="black" points="615.5,-13 615.5,-95 "/>
<path fill="none" stroke="black" d="M615.5,-95C615.5,-101 609.5,-107 603.5,-107"/>
<polyline fill="none" stroke="black" points="603.5,-107 462.5,-107 "/>
<path fill="none" stroke="black" d="M462.5,-107C456.5,-107 450.5,-101 450.5,-95"/>
<polyline fill="none" stroke="black" points="450.5,-95 450.5,-13 "/>
<path fill="none" stroke="black" d="M450.5,-13C450.5,-7 456.5,-1 462.5,-1"/>
<text text-anchor="middle" x="533" y="-90.4" font-family="Times Roman,serif" font-size="14.00">Project::Spec::Youth</text>
<polyline fill="none" stroke="black" points="450.5,-81 615.5,-81 "/>
<text text-anchor="start" x="458.5" y="-64.4" font-family="Times Roman,serif" font-size="14.00">state :string</text>
<text text-anchor="start" x="458.5" y="-46.4" font-family="Times Roman,serif" font-size="14.00">specable_type :string</text>
<text text-anchor="start" x="458.5" y="-28.4" font-family="Times Roman,serif" font-size="14.00">created_at :datetime</text>
<text text-anchor="start" x="458.5" y="-10.4" font-family="Times Roman,serif" font-size="14.00">updated_at :datetime</text>
</g>
<!-- Project::Youth&#45;&gt;Project::Spec::Youth -->
<g id="edge12" class="edge"><title>Project::Youth&#45;&gt;Project::Spec::Youth</title>
<path fill="none" stroke="black" d="M533,-190.789C533,-166.762 533,-139.239 533,-115.211"/>
<ellipse fill="none" stroke="black" cx="533" cy="-194.94" rx="4" ry="4"/>
<ellipse fill="black" stroke="black" cx="533" cy="-111.207" rx="4" ry="4"/>
<text text-anchor="middle" x="548.5" y="-131.4" font-family="Times Roman,serif" font-size="14.00">spec</text>
</g>
<!-- Project::Spec::Eab -->
<g id="node6" class="node"><title>Project::Spec::Eab</title>
<polyline fill="none" stroke="black" points="266.5,-1 407.5,-1 "/>
<path fill="none" stroke="black" d="M407.5,-1C413.5,-1 419.5,-7 419.5,-13"/>
<polyline fill="none" stroke="black" points="419.5,-13 419.5,-95 "/>
<path fill="none" stroke="black" d="M419.5,-95C419.5,-101 413.5,-107 407.5,-107"/>
<polyline fill="none" stroke="black" points="407.5,-107 266.5,-107 "/>
<path fill="none" stroke="black" d="M266.5,-107C260.5,-107 254.5,-101 254.5,-95"/>
<polyline fill="none" stroke="black" points="254.5,-95 254.5,-13 "/>
<path fill="none" stroke="black" d="M254.5,-13C254.5,-7 260.5,-1 266.5,-1"/>
<text text-anchor="middle" x="337" y="-90.4" font-family="Times Roman,serif" font-size="14.00">Project::Spec::Eab</text>
<polyline fill="none" stroke="black" points="254.5,-81 419.5,-81 "/>
<text text-anchor="start" x="262.5" y="-64.4" font-family="Times Roman,serif" font-size="14.00">state :string</text>
<text text-anchor="start" x="262.5" y="-46.4" font-family="Times Roman,serif" font-size="14.00">specable_type :string</text>
<text text-anchor="start" x="262.5" y="-28.4" font-family="Times Roman,serif" font-size="14.00">created_at :datetime</text>
<text text-anchor="start" x="262.5" y="-10.4" font-family="Times Roman,serif" font-size="14.00">updated_at :datetime</text>
</g>
<!-- Project::Spec -->
<g id="node7" class="node"><title>Project::Spec</title>
<polygon fill="none" stroke="black" stroke-dasharray="1,5" points="946,-693 840,-693 840,-657 946,-657 946,-693"/>
<text text-anchor="middle" x="893" y="-671.4" font-family="Times Roman,serif" font-size="14.00">Project::Spec</text>
</g>
<!-- Project::Eab -->
<g id="node8" class="node"><title>Project::Eab</title>
<polyline fill="none" stroke="black" points="259.5,-199 414.5,-199 "/>
<path fill="none" stroke="black" d="M414.5,-199C420.5,-199 426.5,-205 426.5,-211"/>
<polyline fill="none" stroke="black" points="426.5,-211 426.5,-293 "/>
<path fill="none" stroke="black" d="M426.5,-293C426.5,-299 420.5,-305 414.5,-305"/>
<polyline fill="none" stroke="black" points="414.5,-305 259.5,-305 "/>
<path fill="none" stroke="black" d="M259.5,-305C253.5,-305 247.5,-299 247.5,-293"/>
<polyline fill="none" stroke="black" points="247.5,-293 247.5,-211 "/>
<path fill="none" stroke="black" d="M247.5,-211C247.5,-205 253.5,-199 259.5,-199"/>
<text text-anchor="middle" x="337" y="-288.4" font-family="Times Roman,serif" font-size="14.00">Project::Eab</text>
<polyline fill="none" stroke="black" points="247.5,-279 426.5,-279 "/>
<text text-anchor="start" x="255.5" y="-262.4" font-family="Times Roman,serif" font-size="14.00">projectable_type :string</text>
<text text-anchor="start" x="255.5" y="-244.4" font-family="Times Roman,serif" font-size="14.00">label :string</text>
<text text-anchor="start" x="255.5" y="-226.4" font-family="Times Roman,serif" font-size="14.00">created_at :datetime</text>
<text text-anchor="start" x="255.5" y="-208.4" font-family="Times Roman,serif" font-size="14.00">updated_at :datetime</text>
</g>
<!-- Project::Eab&#45;&gt;Project::Spec::Eab -->
<g id="edge16" class="edge"><title>Project::Eab&#45;&gt;Project::Spec::Eab</title>
<path fill="none" stroke="black" d="M337,-190.789C337,-166.762 337,-139.239 337,-115.211"/>
<ellipse fill="none" stroke="black" cx="337" cy="-194.94" rx="4" ry="4"/>
<ellipse fill="black" stroke="black" cx="337" cy="-111.207" rx="4" ry="4"/>
<text text-anchor="middle" x="352.5" y="-131.4" font-family="Times Roman,serif" font-size="14.00">spec</text>
</g>
<!-- User -->
<g id="node10" class="node"><title>User</title>
<polyline fill="none" stroke="black" points="976,-559 1206,-559 "/>
<path fill="none" stroke="black" d="M1206,-559C1212,-559 1218,-565 1218,-571"/>
<polyline fill="none" stroke="black" points="1218,-571 1218,-779 "/>
<path fill="none" stroke="black" d="M1218,-779C1218,-785 1212,-791 1206,-791"/>
<polyline fill="none" stroke="black" points="1206,-791 976,-791 "/>
<path fill="none" stroke="black" d="M976,-791C970,-791 964,-785 964,-779"/>
<polyline fill="none" stroke="black" points="964,-779 964,-571 "/>
<path fill="none" stroke="black" d="M964,-571C964,-565 970,-559 976,-559"/>
<text text-anchor="middle" x="1091" y="-774.4" font-family="Times Roman,serif" font-size="14.00">User</text>
<polyline fill="none" stroke="black" points="964,-765 1218,-765 "/>
<text text-anchor="start" x="972" y="-748.4" font-family="Times Roman,serif" font-size="14.00">email :string</text>
<text text-anchor="start" x="972" y="-730.4" font-family="Times Roman,serif" font-size="14.00">encrypted_password :string</text>
<text text-anchor="start" x="972" y="-712.4" font-family="Times Roman,serif" font-size="14.00">reset_password_token :string</text>
<text text-anchor="start" x="972" y="-694.4" font-family="Times Roman,serif" font-size="14.00">reset_password_sent_at :datetime</text>
<text text-anchor="start" x="972" y="-676.4" font-family="Times Roman,serif" font-size="14.00">remember_created_at :datetime</text>
<text text-anchor="start" x="972" y="-658.4" font-family="Times Roman,serif" font-size="14.00">current_sign_in_at :datetime</text>
<text text-anchor="start" x="972" y="-640.4" font-family="Times Roman,serif" font-size="14.00">last_sign_in_at :datetime</text>
<text text-anchor="start" x="972" y="-622.4" font-family="Times Roman,serif" font-size="14.00">current_sign_in_ip :string</text>
<text text-anchor="start" x="972" y="-604.4" font-family="Times Roman,serif" font-size="14.00">last_sign_in_ip :string</text>
<text text-anchor="start" x="972" y="-586.4" font-family="Times Roman,serif" font-size="14.00">created_at :datetime</text>
<text text-anchor="start" x="972" y="-568.4" font-family="Times Roman,serif" font-size="14.00">updated_at :datetime</text>
</g>
<!-- Comment&#45;&gt;Comment -->
<g id="edge20" class="edge"><title>Comment&#45;&gt;Comment</title>
<path fill="none" stroke="black" d="M843.931,-266.972C850.227,-263.396 854,-258.406 854,-252 854,-246.139 850.842,-241.463 845.483,-237.971"/>
<ellipse fill="none" stroke="black" cx="839.845" cy="-268.722" rx="4.00001" ry="4.00001"/>
<polygon fill="black" stroke="black" points="845.259,-237.869 838.042,-229.612 840.713,-235.786 836.168,-233.703 836.168,-233.703 836.168,-233.703 840.713,-235.786 834.293,-237.794 845.259,-237.869 845.259,-237.869"/>
<text text-anchor="middle" x="881.5" y="-248.4" font-family="Times Roman,serif" font-size="14.00">children</text>
</g>
<!-- Project&#45;&gt;Project::Youth -->
<g id="edge14" class="edge"><title>Project&#45;&gt;Project::Youth</title>
<path fill="none" stroke="black" d="M536.66,-396.94C535.943,-368.531 535.062,-333.638 534.344,-305.207"/>
</g>
<!-- Project&#45;&gt;Project::Eab -->
<g id="edge18" class="edge"><title>Project&#45;&gt;Project::Eab</title>
<path fill="none" stroke="black" d="M484.136,-396.94C455.297,-368.531 419.875,-333.638 391.013,-305.207"/>
</g>
<!-- Project&#45;&gt;Comment -->
<g id="edge22" class="edge"><title>Project&#45;&gt;Comment</title>
<path fill="none" stroke="black" d="M570.24,-390.147C577.767,-379.299 586.422,-368.687 596,-360 608.957,-348.248 616.438,-351.691 631,-342 631.183,-341.878 631.366,-341.756 631.55,-341.634"/>
<ellipse fill="none" stroke="black" cx="567.929" cy="-393.595" rx="4.00002" ry="4.00002"/>
<polygon fill="black" stroke="black" points="631.569,-341.62 642.361,-339.671 635.692,-338.79 639.814,-335.961 639.814,-335.961 639.814,-335.961 635.692,-338.79 637.267,-332.251 631.569,-341.62 631.569,-341.62"/>
<text text-anchor="middle" x="658" y="-365.4" font-family="Times Roman,serif" font-size="14.00">comment_threads</text>
</g>
<!-- ProjectCategory -->
<g id="node13" class="node"><title>ProjectCategory</title>
<polyline fill="none" stroke="black" points="467.5,-631 608.5,-631 "/>
<path fill="none" stroke="black" d="M608.5,-631C614.5,-631 620.5,-637 620.5,-643"/>
<polyline fill="none" stroke="black" points="620.5,-643 620.5,-707 "/>
<path fill="none" stroke="black" d="M620.5,-707C620.5,-713 614.5,-719 608.5,-719"/>
<polyline fill="none" stroke="black" points="608.5,-719 467.5,-719 "/>
<path fill="none" stroke="black" d="M467.5,-719C461.5,-719 455.5,-713 455.5,-707"/>
<polyline fill="none" stroke="black" points="455.5,-707 455.5,-643 "/>
<path fill="none" stroke="black" d="M455.5,-643C455.5,-637 461.5,-631 467.5,-631"/>
<text text-anchor="middle" x="538" y="-702.4" font-family="Times Roman,serif" font-size="14.00">ProjectCategory</text>
<polyline fill="none" stroke="black" points="455.5,-693 620.5,-693 "/>
<text text-anchor="start" x="463.5" y="-676.4" font-family="Times Roman,serif" font-size="14.00">name :string</text>
<text text-anchor="start" x="463.5" y="-658.4" font-family="Times Roman,serif" font-size="14.00">created_at :datetime</text>
<text text-anchor="start" x="463.5" y="-640.4" font-family="Times Roman,serif" font-size="14.00">updated_at :datetime</text>
</g>
<!-- ProjectCategory&#45;&gt;Project -->
<g id="edge24" class="edge"><title>ProjectCategory&#45;&gt;Project</title>
<path fill="none" stroke="black" d="M538,-622.421C538,-589.911 538,-547.974 538,-513.6"/>
<ellipse fill="none" stroke="black" cx="538" cy="-626.816" rx="4" ry="4"/>
<polygon fill="black" stroke="black" points="538,-513.194 542.5,-503.194 538,-508.194 538,-503.194 538,-503.194 538,-503.194 538,-508.194 533.5,-503.194 538,-513.194 538,-513.194"/>
</g>
</g>
</svg>
