<?xml version="1.0" encoding="UTF-8" standalone="no"?>
<!DOCTYPE svg PUBLIC "-//W3C//DTD SVG 1.1//EN"
 "http://www.w3.org/Graphics/SVG/1.1/DTD/svg11.dtd">
<!-- Generated by graphviz version 2.26.3 (20100126.1600)
 -->
<!-- Title: models_diagram Pages: 1 -->
<svg width="763pt" height="454pt"
 viewBox="0.00 0.00 763.00 454.00" xmlns="http://www.w3.org/2000/svg" xmlns:xlink="http://www.w3.org/1999/xlink">
<g id="graph1" class="graph" transform="scale(1 1) rotate(0) translate(4 450)">
<title>models_diagram</title>
<polygon fill="white" stroke="white" points="-4,5 -4,-450 760,-450 760,5 -4,5"/>
<!-- _diagram_info -->
<g id="node1" class="node"><title>_diagram_info</title>
<text text-anchor="start" x="8" y="-429.8" font-family="Times Roman,serif" font-size="13.00">Models diagram</text>
<text text-anchor="start" x="8" y="-412.8" font-family="Times Roman,serif" font-size="13.00">Date: Mar 23 2012 &#45; 03:15</text>
<text text-anchor="start" x="8" y="-395.8" font-family="Times Roman,serif" font-size="13.00">Migration version: 20120321122710</text>
<text text-anchor="start" x="8" y="-378.8" font-family="Times Roman,serif" font-size="13.00">Generated by RailRoady 1.0.4</text>
<text text-anchor="start" x="8" y="-361.8" font-family="Times Roman,serif" font-size="13.00">http://railroady.prestonlee.com</text>
</g>
<!-- Program -->
<g id="node2" class="node"><title>Program</title>
<ellipse fill="none" stroke="black" cx="303" cy="-295" rx="53.033" ry="18.3848"/>
<text text-anchor="middle" x="303" y="-291.4" font-family="Times Roman,serif" font-size="14.00">Program</text>
</g>
<!-- Project -->
<g id="node12" class="node"><title>Project</title>
<ellipse fill="none" stroke="black" cx="384" cy="-203" rx="45.9619" ry="18.3848"/>
<text text-anchor="middle" x="384" y="-199.4" font-family="Times Roman,serif" font-size="14.00">Project</text>
</g>
<!-- Program&#45;&gt;Project -->
<g id="edge4" class="edge"><title>Program&#45;&gt;Project</title>
<path fill="none" stroke="black" d="M323.918,-271.241C335.541,-258.04 349.998,-241.62 361.817,-228.195"/>
<ellipse fill="none" stroke="black" cx="321.261" cy="-274.259" rx="4.00002" ry="4.00002"/>
<polygon fill="black" stroke="black" points="361.822,-228.19 371.808,-223.658 365.126,-224.437 368.43,-220.684 368.43,-220.684 368.43,-220.684 365.126,-224.437 365.053,-217.71 361.822,-228.19 361.822,-228.19"/>
</g>
<!-- FriendlyId::Slug -->
<g id="node15" class="node"><title>FriendlyId::Slug</title>
<ellipse fill="none" stroke="black" cx="233" cy="-203" rx="86.9741" ry="18.3848"/>
<text text-anchor="middle" x="233" y="-199.4" font-family="Times Roman,serif" font-size="14.00">FriendlyId::Slug</text>
</g>
<!-- Program&#45;&gt;FriendlyId::Slug -->
<g id="edge2" class="edge"><title>Program&#45;&gt;FriendlyId::Slug</title>
<path fill="none" stroke="black" d="M284.047,-270.091C274.474,-257.509 262.856,-242.239 253.123,-229.448"/>
<ellipse fill="none" stroke="black" cx="286.748" cy="-273.64" rx="4.00002" ry="4.00002"/>
<polygon fill="black" stroke="black" points="253.096,-229.412 250.622,-218.729 250.068,-225.433 247.041,-221.453 247.041,-221.453 247.041,-221.453 250.068,-225.433 243.459,-224.178 253.096,-229.412 253.096,-229.412"/>
<text text-anchor="middle" x="291.5" y="-245.4" font-family="Times Roman,serif" font-size="14.00">slugs</text>
</g>
<!-- Bike -->
<g id="node3" class="node"><title>Bike</title>
<ellipse fill="none" stroke="black" cx="539" cy="-295" rx="32.0265" ry="18.3848"/>
<text text-anchor="middle" x="539" y="-291.4" font-family="Times Roman,serif" font-size="14.00">Bike</text>
</g>
<!-- Hook -->
<g id="node9" class="node"><title>Hook</title>
<ellipse fill="none" stroke="black" cx="718" cy="-203" rx="36.7696" ry="18.3848"/>
<text text-anchor="middle" x="718" y="-199.4" font-family="Times Roman,serif" font-size="14.00">Hook</text>
</g>
<!-- Bike&#45;&gt;Hook -->
<g id="edge8" class="edge"><title>Bike&#45;&gt;Hook</title>
<path fill="none" stroke="black" d="M570.608,-278.754C602.563,-262.331 651.763,-237.044 684.409,-220.265"/>
<ellipse fill="none" stroke="black" cx="566.698" cy="-280.764" rx="4.00002" ry="4.00002"/>
<ellipse fill="black" stroke="black" cx="688.366" cy="-218.231" rx="4.00002" ry="4.00002"/>
</g>
<!-- Comment -->
<g id="node11" class="node"><title>Comment</title>
<ellipse fill="none" stroke="black" cx="535" cy="-111" rx="58.1882" ry="18.3848"/>
<text text-anchor="middle" x="535" y="-107.4" font-family="Times Roman,serif" font-size="14.00">Comment</text>
</g>
<!-- Bike&#45;&gt;Comment -->
<g id="edge6" class="edge"><title>Bike&#45;&gt;Comment</title>
<path fill="none" stroke="black" d="M538.42,-268.329C537.677,-234.121 536.392,-175.021 535.626,-139.811"/>
<ellipse fill="none" stroke="black" cx="538.507" cy="-272.345" rx="4" ry="4"/>
<polygon fill="black" stroke="black" points="535.624,-139.702 539.906,-129.607 535.515,-134.704 535.407,-129.705 535.407,-129.705 535.407,-129.705 535.515,-134.704 530.908,-129.803 535.624,-139.702 535.624,-139.702"/>
<text text-anchor="middle" x="599" y="-199.4" font-family="Times Roman,serif" font-size="14.00">comment_threads</text>
</g>
<!-- Bike&#45;&gt;Project -->
<g id="edge10" class="edge"><title>Bike&#45;&gt;Project</title>
<path fill="none" stroke="black" d="M509.48,-277.478C483.072,-261.804 444.412,-238.857 416.993,-222.583"/>
<ellipse fill="none" stroke="black" cx="513.022" cy="-279.581" rx="4.00002" ry="4.00002"/>
<ellipse fill="black" stroke="black" cx="413.369" cy="-220.432" rx="4.00002" ry="4.00002"/>
</g>
<!-- Project::Youth -->
<g id="node4" class="node"><title>Project::Youth</title>
<ellipse fill="none" stroke="black" cx="371" cy="-111" rx="79.9031" ry="18.3848"/>
<text text-anchor="middle" x="371" y="-107.4" font-family="Times Roman,serif" font-size="14.00">Project::Youth</text>
</g>
<!-- Project::Spec::Youth -->
<g id="node5" class="node"><title>Project::Spec::Youth</title>
<ellipse fill="none" stroke="black" cx="385" cy="-19" rx="109.101" ry="18.3848"/>
<text text-anchor="middle" x="385" y="-15.4" font-family="Times Roman,serif" font-size="14.00">Project::Spec::Youth</text>
</g>
<!-- Project::Youth&#45;&gt;Project::Spec::Youth -->
<g id="edge12" class="edge"><title>Project::Youth&#45;&gt;Project::Spec::Youth</title>
<path fill="none" stroke="black" d="M375.041,-84.4467C376.896,-72.2543 379.091,-57.828 380.948,-45.6267"/>
<ellipse fill="none" stroke="black" cx="374.435" cy="-88.428" rx="4.00001" ry="4.00001"/>
<ellipse fill="black" stroke="black" cx="381.569" cy="-41.5444" rx="4.00001" ry="4.00001"/>
<text text-anchor="middle" x="394.5" y="-61.4" font-family="Times Roman,serif" font-size="14.00">spec</text>
</g>
<!-- Project::Spec::Eab -->
<g id="node6" class="node"><title>Project::Spec::Eab</title>
<ellipse fill="none" stroke="black" cx="159" cy="-19" rx="98.9949" ry="18.3848"/>
<text text-anchor="middle" x="159" y="-15.4" font-family="Times Roman,serif" font-size="14.00">Project::Spec::Eab</text>
</g>
<!-- Project::Spec -->
<g id="node7" class="node"><title>Project::Spec</title>
<polygon fill="none" stroke="black" stroke-dasharray="1,5" points="572,-417 466,-417 466,-381 572,-381 572,-417"/>
<text text-anchor="middle" x="519" y="-395.4" font-family="Times Roman,serif" font-size="14.00">Project::Spec</text>
</g>
<!-- Project::Eab -->
<g id="node8" class="node"><title>Project::Eab</title>
<ellipse fill="none" stroke="black" cx="188" cy="-111" rx="70.0036" ry="18.3848"/>
<text text-anchor="middle" x="188" y="-107.4" font-family="Times Roman,serif" font-size="14.00">Project::Eab</text>
</g>
<!-- Project::Eab&#45;&gt;Project::Spec::Eab -->
<g id="edge16" class="edge"><title>Project::Eab&#45;&gt;Project::Spec::Eab</title>
<path fill="none" stroke="black" d="M179.63,-84.4467C175.75,-72.1371 171.152,-57.5504 167.282,-45.2753"/>
<ellipse fill="none" stroke="black" cx="180.929" cy="-88.5675" rx="4.00001" ry="4.00001"/>
<ellipse fill="black" stroke="black" cx="166.062" cy="-41.4048" rx="4.00001" ry="4.00001"/>
<text text-anchor="middle" x="191.5" y="-61.4" font-family="Times Roman,serif" font-size="14.00">spec</text>
</g>
<!-- User -->
<g id="node10" class="node"><title>User</title>
<ellipse fill="none" stroke="black" cx="624" cy="-399" rx="33.9411" ry="18.3848"/>
<text text-anchor="middle" x="624" y="-395.4" font-family="Times Roman,serif" font-size="14.00">User</text>
</g>
<!-- Comment&#45;&gt;Comment -->
<g id="edge20" class="edge"><title>Comment&#45;&gt;Comment</title>
<path fill="none" stroke="black" d="M594.51,-118.989C604.28,-117.851 611,-115.188 611,-111 611,-107.099 605.17,-104.522 596.477,-103.267"/>
<ellipse fill="none" stroke="black" cx="590.496" cy="-119.276" rx="4" ry="4"/>
<polygon fill="black" stroke="black" points="596.472,-103.267 586.878,-97.9541 591.489,-102.853 586.506,-102.439 586.506,-102.439 586.506,-102.439 591.489,-102.853 586.133,-106.923 596.472,-103.267 596.472,-103.267"/>
<text text-anchor="middle" x="638.5" y="-107.4" font-family="Times Roman,serif" font-size="14.00">children</text>
</g>
<!-- Project&#45;&gt;Project::Youth -->
<g id="edge14" class="edge"><title>Project&#45;&gt;Project::Youth</title>
<path fill="none" stroke="black" d="M381.369,-184.382C379.114,-168.421 375.881,-145.543 373.627,-129.59"/>
</g>
<!-- Project&#45;&gt;Project::Eab -->
<g id="edge18" class="edge"><title>Project&#45;&gt;Project::Eab</title>
<path fill="none" stroke="black" d="M353.805,-188.827C318.368,-172.193 259.733,-144.671 222.525,-127.205"/>
</g>
<!-- Project&#45;&gt;Comment -->
<g id="edge22" class="edge"><title>Project&#45;&gt;Comment</title>
<path fill="none" stroke="black" d="M386.752,-176.449C389.07,-166.339 393.302,-155.468 401,-148 404.038,-145.053 443.999,-134.222 479.496,-125.034"/>
<ellipse fill="none" stroke="black" cx="386.012" cy="-180.382" rx="4.00001" ry="4.00001"/>
<polygon fill="black" stroke="black" points="479.671,-124.989 490.478,-126.852 484.513,-123.741 489.355,-122.494 489.355,-122.494 489.355,-122.494 484.513,-123.741 488.233,-118.136 479.671,-124.989 479.671,-124.989"/>
<text text-anchor="middle" x="463" y="-153.4" font-family="Times Roman,serif" font-size="14.00">comment_threads</text>
</g>
<!-- ProjectCategory -->
<g id="node13" class="node"><title>ProjectCategory</title>
<ellipse fill="none" stroke="black" cx="358" cy="-399" rx="90.0096" ry="18.3848"/>
<text text-anchor="middle" x="358" y="-395.4" font-family="Times Roman,serif" font-size="14.00">ProjectCategory</text>
</g>
<!-- ProjectCategory&#45;&gt;Program -->
<g id="edge26" class="edge"><title>ProjectCategory&#45;&gt;Program</title>
<path fill="none" stroke="black" d="M344.18,-372.868C336.068,-357.528 325.824,-338.159 317.583,-322.576"/>
<ellipse fill="none" stroke="black" cx="346.297" cy="-376.871" rx="4.00002" ry="4.00002"/>
<polygon fill="black" stroke="black" points="317.423,-322.272 316.726,-311.328 315.085,-317.852 312.748,-313.432 312.748,-313.432 312.748,-313.432 315.085,-317.852 308.77,-315.536 317.423,-322.272 317.423,-322.272"/>
</g>
<!-- ProjectCategory&#45;&gt;Project -->
<g id="edge24" class="edge"><title>ProjectCategory&#45;&gt;Project</title>
<path fill="none" stroke="black" d="M361.56,-372.16C366.428,-335.467 375.126,-269.895 380.144,-232.072"/>
<ellipse fill="none" stroke="black" cx="361.019" cy="-376.241" rx="4.00001" ry="4.00001"/>
<polygon fill="black" stroke="black" points="380.199,-231.65 385.975,-222.328 380.857,-226.693 381.515,-221.736 381.515,-221.736 381.515,-221.736 380.857,-226.693 377.054,-221.145 380.199,-231.65 380.199,-231.65"/>
</g>
</g>
</svg>
