<?xml version="1.0" encoding="UTF-8" standalone="no"?>
<!DOCTYPE svg PUBLIC "-//W3C//DTD SVG 1.1//EN"
 "http://www.w3.org/Graphics/SVG/1.1/DTD/svg11.dtd">
<!-- Generated by graphviz version 2.26.3 (20100126.1600)
 -->
<!-- Title: models_diagram Pages: 1 -->
<svg width="426pt" height="176pt"
 viewBox="0.00 0.00 426.00 176.00" xmlns="http://www.w3.org/2000/svg" xmlns:xlink="http://www.w3.org/1999/xlink">
<g id="graph1" class="graph" transform="scale(1 1) rotate(0) translate(4 172)">
<title>models_diagram</title>
<polygon fill="white" stroke="white" points="-4,5 -4,-172 423,-172 423,5 -4,5"/>
<!-- _diagram_info -->
<g id="node1" class="node"><title>_diagram_info</title>
<text text-anchor="start" x="8" y="-151.8" font-family="Times Roman,serif" font-size="13.00">Models diagram</text>
<text text-anchor="start" x="8" y="-134.8" font-family="Times Roman,serif" font-size="13.00">Date: Mar 02 2012 &#45; 23:48</text>
<text text-anchor="start" x="8" y="-117.8" font-family="Times Roman,serif" font-size="13.00">Migration version: 20120303031743</text>
<text text-anchor="start" x="8" y="-100.8" font-family="Times Roman,serif" font-size="13.00">Generated by RailRoady 1.0.4</text>
<text text-anchor="start" x="8" y="-83.8" font-family="Times Roman,serif" font-size="13.00">http://railroady.prestonlee.com</text>
</g>
<!-- Bike -->
<g id="node2" class="node"><title>Bike</title>
<ellipse fill="none" stroke="black" cx="300" cy="-121" rx="32.0265" ry="18.3848"/>
<text text-anchor="middle" x="300" y="-117.4" font-family="Times Roman,serif" font-size="14.00">Bike</text>
</g>
<!-- Hook -->
<g id="node3" class="node"><title>Hook</title>
<ellipse fill="none" stroke="black" cx="300" cy="-19" rx="36.7696" ry="18.3848"/>
<text text-anchor="middle" x="300" y="-15.4" font-family="Times Roman,serif" font-size="14.00">Hook</text>
</g>
<!-- Bike&#45;&gt;Hook -->
<g id="edge2" class="edge"><title>Bike&#45;&gt;Hook</title>
<path fill="none" stroke="black" d="M300,-94.0151C300,-79.1397 300,-60.732 300,-45.8741"/>
<ellipse fill="none" stroke="black" cx="300" cy="-98.2916" rx="4" ry="4"/>
<ellipse fill="black" stroke="black" cx="300" cy="-41.5898" rx="4" ry="4"/>
</g>
<!-- User -->
<g id="node4" class="node"><title>User</title>
<ellipse fill="none" stroke="black" cx="384" cy="-121" rx="33.9411" ry="18.3848"/>
<text text-anchor="middle" x="384" y="-117.4" font-family="Times Roman,serif" font-size="14.00">User</text>
</g>
</g>
</svg>
