<?xml version="1.0" encoding="UTF-8" standalone="no"?>
<!DOCTYPE svg PUBLIC "-//W3C//DTD SVG 1.1//EN"
 "http://www.w3.org/Graphics/SVG/1.1/DTD/svg11.dtd">
<!-- Generated by graphviz version 2.26.3 (20100126.1600)
 -->
<!-- Title: models_diagram Pages: 1 -->
<svg width="1953pt" height="1256pt"
 viewBox="0.00 0.00 1953.00 1256.00" xmlns="http://www.w3.org/2000/svg" xmlns:xlink="http://www.w3.org/1999/xlink">
<g id="graph1" class="graph" transform="scale(1 1) rotate(0) translate(4 1252)">
<title>models_diagram</title>
<polygon fill="white" stroke="white" points="-4,5 -4,-1252 1950,-1252 1950,5 -4,5"/>
<!-- _diagram_info -->
<g id="node1" class="node"><title>_diagram_info</title>
<text text-anchor="start" x="556" y="-1161.8" font-family="Times Roman,serif" font-size="13.00">Models diagram</text>
<text text-anchor="start" x="556" y="-1144.8" font-family="Times Roman,serif" font-size="13.00">Date: Jun 28 2012 &#45; 01:41</text>
<text text-anchor="start" x="556" y="-1127.8" font-family="Times Roman,serif" font-size="13.00">Migration version: 20120628030935</text>
<text text-anchor="start" x="556" y="-1110.8" font-family="Times Roman,serif" font-size="13.00">Generated by RailRoady 1.0.7</text>
<text text-anchor="start" x="556" y="-1093.8" font-family="Times Roman,serif" font-size="13.00">http://railroady.prestonlee.com</text>
</g>
<!-- Program -->
<g id="node2" class="node"><title>Program</title>
<polyline fill="none" stroke="black" points="756.5,-815 897.5,-815 "/>
<path fill="none" stroke="black" d="M897.5,-815C903.5,-815 909.5,-821 909.5,-827"/>
<polyline fill="none" stroke="black" points="909.5,-827 909.5,-963 "/>
<path fill="none" stroke="black" d="M909.5,-963C909.5,-969 903.5,-975 897.5,-975"/>
<polyline fill="none" stroke="black" points="897.5,-975 756.5,-975 "/>
<path fill="none" stroke="black" d="M756.5,-975C750.5,-975 744.5,-969 744.5,-963"/>
<polyline fill="none" stroke="black" points="744.5,-963 744.5,-827 "/>
<path fill="none" stroke="black" d="M744.5,-827C744.5,-821 750.5,-815 756.5,-815"/>
<text text-anchor="middle" x="827" y="-958.4" font-family="Times Roman,serif" font-size="14.00">Program</text>
<polyline fill="none" stroke="black" points="744.5,-949 909.5,-949 "/>
<text text-anchor="start" x="752.5" y="-932.4" font-family="Times Roman,serif" font-size="14.00">title :string</text>
<text text-anchor="start" x="752.5" y="-914.4" font-family="Times Roman,serif" font-size="14.00">created_at :datetime</text>
<text text-anchor="start" x="752.5" y="-896.4" font-family="Times Roman,serif" font-size="14.00">updated_at :datetime</text>
<text text-anchor="start" x="752.5" y="-878.4" font-family="Times Roman,serif" font-size="14.00">cosed_at :datetime</text>
<text text-anchor="start" x="752.5" y="-860.4" font-family="Times Roman,serif" font-size="14.00">slug :string</text>
<text text-anchor="start" x="752.5" y="-842.4" font-family="Times Roman,serif" font-size="14.00">max_open :integer</text>
<text text-anchor="start" x="752.5" y="-824.4" font-family="Times Roman,serif" font-size="14.00">max_total :integer</text>
</g>
<!-- Project -->
<g id="node17" class="node"><title>Project</title>
<polyline fill="none" stroke="black" points="857.5,-599 1016.5,-599 "/>
<path fill="none" stroke="black" d="M1016.5,-599C1022.5,-599 1028.5,-605 1028.5,-611"/>
<polyline fill="none" stroke="black" points="1028.5,-611 1028.5,-747 "/>
<path fill="none" stroke="black" d="M1028.5,-747C1028.5,-753 1022.5,-759 1016.5,-759"/>
<polyline fill="none" stroke="black" points="1016.5,-759 857.5,-759 "/>
<path fill="none" stroke="black" d="M857.5,-759C851.5,-759 845.5,-753 845.5,-747"/>
<polyline fill="none" stroke="black" points="845.5,-747 845.5,-611 "/>
<path fill="none" stroke="black" d="M845.5,-611C845.5,-605 851.5,-599 857.5,-599"/>
<text text-anchor="middle" x="937" y="-742.4" font-family="Times Roman,serif" font-size="14.00">Project</text>
<polyline fill="none" stroke="black" points="845.5,-733 1028.5,-733 "/>
<text text-anchor="start" x="853.5" y="-716.4" font-family="Times Roman,serif" font-size="14.00">prog_type :string</text>
<text text-anchor="start" x="853.5" y="-698.4" font-family="Times Roman,serif" font-size="14.00">label :string</text>
<text text-anchor="start" x="853.5" y="-680.4" font-family="Times Roman,serif" font-size="14.00">created_at :datetime</text>
<text text-anchor="start" x="853.5" y="-662.4" font-family="Times Roman,serif" font-size="14.00">updated_at :datetime</text>
<text text-anchor="start" x="853.5" y="-644.4" font-family="Times Roman,serif" font-size="14.00">closed_at :datetime</text>
<text text-anchor="start" x="853.5" y="-626.4" font-family="Times Roman,serif" font-size="14.00">state :string</text>
<text text-anchor="start" x="853.5" y="-608.4" font-family="Times Roman,serif" font-size="14.00">completion_state :string</text>
</g>
<!-- Program&#45;&gt;Project -->
<g id="edge4" class="edge"><title>Program&#45;&gt;Project</title>
<path fill="none" stroke="#8dea3b" d="M871.51,-807.599C878.108,-794.642 884.915,-781.275 891.533,-768.281"/>
<ellipse fill="none" stroke="#8dea3b" cx="869.619" cy="-811.312" rx="4.00002" ry="4.00002"/>
<polygon fill="#8dea3b" stroke="#8dea3b" points="891.541,-768.265 900.089,-761.396 893.81,-763.81 896.079,-759.354 896.079,-759.354 896.079,-759.354 893.81,-763.81 892.069,-757.312 891.541,-768.265 891.541,-768.265"/>
</g>
<!-- FriendlyId::Slug -->
<g id="node23" class="node"><title>FriendlyId::Slug</title>
<ellipse fill="none" stroke="black" cx="741" cy="-679" rx="86.9741" ry="18.3848"/>
<text text-anchor="middle" x="741" y="-675.4" font-family="Times Roman,serif" font-size="14.00">FriendlyId::Slug</text>
</g>
<!-- Program&#45;&gt;FriendlyId::Slug -->
<g id="edge2" class="edge"><title>Program&#45;&gt;FriendlyId::Slug</title>
<path fill="none" stroke="#4be707" d="M792.101,-807.348C777.831,-771.505 762.325,-732.561 752.182,-707.085"/>
<ellipse fill="none" stroke="#4be707" cx="793.619" cy="-811.16" rx="4.00001" ry="4.00001"/>
<polygon fill="#4be707" stroke="#4be707" points="752.141,-706.981 752.622,-696.026 750.291,-702.336 748.441,-697.69 748.441,-697.69 748.441,-697.69 750.291,-702.336 744.261,-699.355 752.141,-706.981 752.141,-706.981"/>
<text text-anchor="middle" x="803.5" y="-783.4" font-family="Times Roman,serif" font-size="14.00">slugs</text>
</g>
<!-- Inspection -->
<g id="node3" class="node"><title>Inspection</title>
<polygon fill="none" stroke="black" stroke-dasharray="1,5" points="1096,-1149 1010,-1149 1010,-1113 1096,-1113 1096,-1149"/>
<text text-anchor="middle" x="1053" y="-1127.4" font-family="Times Roman,serif" font-size="14.00">Inspection</text>
</g>
<!-- ResponseSet -->
<g id="node4" class="node"><title>ResponseSet</title>
<polyline fill="none" stroke="black" points="855.5,-102 1068.5,-102 "/>
<path fill="none" stroke="black" d="M1068.5,-102C1074.5,-102 1080.5,-108 1080.5,-114"/>
<polyline fill="none" stroke="black" points="1080.5,-114 1080.5,-250 "/>
<path fill="none" stroke="black" d="M1080.5,-250C1080.5,-256 1074.5,-262 1068.5,-262"/>
<polyline fill="none" stroke="black" points="1068.5,-262 855.5,-262 "/>
<path fill="none" stroke="black" d="M855.5,-262C849.5,-262 843.5,-256 843.5,-250"/>
<polyline fill="none" stroke="black" points="843.5,-250 843.5,-114 "/>
<path fill="none" stroke="black" d="M843.5,-114C843.5,-108 849.5,-102 855.5,-102"/>
<text text-anchor="middle" x="962" y="-245.4" font-family="Times Roman,serif" font-size="14.00">ResponseSet</text>
<polyline fill="none" stroke="black" points="843.5,-236 1080.5,-236 "/>
<text text-anchor="start" x="851.5" y="-219.4" font-family="Times Roman,serif" font-size="14.00">access_code :string</text>
<text text-anchor="start" x="851.5" y="-201.4" font-family="Times Roman,serif" font-size="14.00">started_at :datetime</text>
<text text-anchor="start" x="851.5" y="-183.4" font-family="Times Roman,serif" font-size="14.00">completed_at :datetime</text>
<text text-anchor="start" x="851.5" y="-165.4" font-family="Times Roman,serif" font-size="14.00">created_at :datetime</text>
<text text-anchor="start" x="851.5" y="-147.4" font-family="Times Roman,serif" font-size="14.00">updated_at :datetime</text>
<text text-anchor="start" x="851.5" y="-129.4" font-family="Times Roman,serif" font-size="14.00">surveyable_type :string</text>
<text text-anchor="start" x="851.5" y="-111.4" font-family="Times Roman,serif" font-size="14.00">surveyable_process_type :string</text>
</g>
<!-- Response -->
<g id="node26" class="node"><title>Response</title>
<ellipse fill="none" stroke="black" cx="962" cy="-19" rx="56.7776" ry="18.3848"/>
<text text-anchor="middle" x="962" y="-15.4" font-family="Times Roman,serif" font-size="14.00">Response</text>
</g>
<!-- ResponseSet&#45;&gt;Response -->
<g id="edge6" class="edge"><title>ResponseSet&#45;&gt;Response</title>
<path fill="none" stroke="#6d6bbb" d="M962,-93.7846C962,-77.2119 962,-61.012 962,-47.9511"/>
<ellipse fill="none" stroke="#6d6bbb" cx="962" cy="-97.9326" rx="4" ry="4"/>
<polygon fill="#6d6bbb" stroke="#6d6bbb" points="962,-47.779 966.5,-37.7789 962,-42.779 962,-37.779 962,-37.779 962,-37.779 962,-42.779 957.5,-37.779 962,-47.779 962,-47.779"/>
</g>
<!-- Bike -->
<g id="node5" class="node"><title>Bike</title>
<polyline fill="none" stroke="black" points="980.5,-327 1133.5,-327 "/>
<path fill="none" stroke="black" d="M1133.5,-327C1139.5,-327 1145.5,-333 1145.5,-339"/>
<polyline fill="none" stroke="black" points="1145.5,-339 1145.5,-547 "/>
<path fill="none" stroke="black" d="M1145.5,-547C1145.5,-553 1139.5,-559 1133.5,-559"/>
<polyline fill="none" stroke="black" points="1133.5,-559 980.5,-559 "/>
<path fill="none" stroke="black" d="M980.5,-559C974.5,-559 968.5,-553 968.5,-547"/>
<polyline fill="none" stroke="black" points="968.5,-547 968.5,-339 "/>
<path fill="none" stroke="black" d="M968.5,-339C968.5,-333 974.5,-327 980.5,-327"/>
<text text-anchor="middle" x="1057" y="-542.4" font-family="Times Roman,serif" font-size="14.00">Bike</text>
<polyline fill="none" stroke="black" points="968.5,-533 1145.5,-533 "/>
<text text-anchor="start" x="976.5" y="-516.4" font-family="Times Roman,serif" font-size="14.00">color :string</text>
<text text-anchor="start" x="976.5" y="-498.4" font-family="Times Roman,serif" font-size="14.00">value :float</text>
<text text-anchor="start" x="976.5" y="-480.4" font-family="Times Roman,serif" font-size="14.00">seat_tube_height :float</text>
<text text-anchor="start" x="976.5" y="-462.4" font-family="Times Roman,serif" font-size="14.00">top_tube_length :float</text>
<text text-anchor="start" x="976.5" y="-444.4" font-family="Times Roman,serif" font-size="14.00">created_at :datetime</text>
<text text-anchor="start" x="976.5" y="-426.4" font-family="Times Roman,serif" font-size="14.00">updated_at :datetime</text>
<text text-anchor="start" x="976.5" y="-408.4" font-family="Times Roman,serif" font-size="14.00">departed_at :datetime</text>
<text text-anchor="start" x="976.5" y="-390.4" font-family="Times Roman,serif" font-size="14.00">mfg :string</text>
<text text-anchor="start" x="976.5" y="-372.4" font-family="Times Roman,serif" font-size="14.00">model :string</text>
<text text-anchor="start" x="976.5" y="-354.4" font-family="Times Roman,serif" font-size="14.00">number :string</text>
<text text-anchor="start" x="976.5" y="-336.4" font-family="Times Roman,serif" font-size="14.00">location_state :string</text>
</g>
<!-- Bike&#45;&gt;ResponseSet -->
<g id="edge12" class="edge"><title>Bike&#45;&gt;ResponseSet</title>
<path fill="none" stroke="#e7e415" d="M971.027,-319.185C969.562,-315.47 968.213,-311.738 967,-308 963.33,-296.694 960.993,-284.515 959.587,-272.344"/>
<ellipse fill="none" stroke="#e7e415" cx="972.654" cy="-323.092" rx="4.00001" ry="4.00001"/>
<polygon fill="#e7e415" stroke="#e7e415" points="959.563,-272.095 963.096,-261.714 959.09,-267.118 958.616,-262.14 958.616,-262.14 958.616,-262.14 959.09,-267.118 954.136,-262.566 959.563,-272.095 959.563,-272.095"/>
<text text-anchor="middle" x="1005.5" y="-295.4" font-family="Times Roman,serif" font-size="14.00">inspections</text>
</g>
<!-- Hook -->
<g id="node13" class="node"><title>Hook</title>
<polyline fill="none" stroke="black" points="1109.5,-138 1250.5,-138 "/>
<path fill="none" stroke="black" d="M1250.5,-138C1256.5,-138 1262.5,-144 1262.5,-150"/>
<polyline fill="none" stroke="black" points="1262.5,-150 1262.5,-214 "/>
<path fill="none" stroke="black" d="M1262.5,-214C1262.5,-220 1256.5,-226 1250.5,-226"/>
<polyline fill="none" stroke="black" points="1250.5,-226 1109.5,-226 "/>
<path fill="none" stroke="black" d="M1109.5,-226C1103.5,-226 1097.5,-220 1097.5,-214"/>
<polyline fill="none" stroke="black" points="1097.5,-214 1097.5,-150 "/>
<path fill="none" stroke="black" d="M1097.5,-150C1097.5,-144 1103.5,-138 1109.5,-138"/>
<text text-anchor="middle" x="1180" y="-209.4" font-family="Times Roman,serif" font-size="14.00">Hook</text>
<polyline fill="none" stroke="black" points="1097.5,-200 1262.5,-200 "/>
<text text-anchor="start" x="1105.5" y="-183.4" font-family="Times Roman,serif" font-size="14.00">number :string</text>
<text text-anchor="start" x="1105.5" y="-165.4" font-family="Times Roman,serif" font-size="14.00">created_at :datetime</text>
<text text-anchor="start" x="1105.5" y="-147.4" font-family="Times Roman,serif" font-size="14.00">updated_at :datetime</text>
</g>
<!-- Bike&#45;&gt;Hook -->
<g id="edge10" class="edge"><title>Bike&#45;&gt;Hook</title>
<path fill="none" stroke="#2677d9" d="M1061.78,-318.647C1064.38,-308.719 1067.72,-299.044 1072,-290 1072.94,-288.021 1101.66,-259.325 1129.25,-232.013"/>
<ellipse fill="none" stroke="#2677d9" cx="1060.8" cy="-322.767" rx="4.00001" ry="4.00001"/>
<ellipse fill="#2677d9" stroke="#2677d9" cx="1132.27" cy="-229.03" rx="4.00002" ry="4.00002"/>
</g>
<!-- Comment -->
<g id="node16" class="node"><title>Comment</title>
<polyline fill="none" stroke="black" points="1292,-93 1464,-93 "/>
<path fill="none" stroke="black" d="M1464,-93C1470,-93 1476,-99 1476,-105"/>
<polyline fill="none" stroke="black" points="1476,-105 1476,-259 "/>
<path fill="none" stroke="black" d="M1476,-259C1476,-265 1470,-271 1464,-271"/>
<polyline fill="none" stroke="black" points="1464,-271 1292,-271 "/>
<path fill="none" stroke="black" d="M1292,-271C1286,-271 1280,-265 1280,-259"/>
<polyline fill="none" stroke="black" points="1280,-259 1280,-105 "/>
<path fill="none" stroke="black" d="M1280,-105C1280,-99 1286,-93 1292,-93"/>
<text text-anchor="middle" x="1378" y="-254.4" font-family="Times Roman,serif" font-size="14.00">Comment</text>
<polyline fill="none" stroke="black" points="1280,-245 1476,-245 "/>
<text text-anchor="start" x="1288" y="-228.4" font-family="Times Roman,serif" font-size="14.00">commentable_type :string</text>
<text text-anchor="start" x="1288" y="-210.4" font-family="Times Roman,serif" font-size="14.00">title :string</text>
<text text-anchor="start" x="1288" y="-192.4" font-family="Times Roman,serif" font-size="14.00">body :text</text>
<text text-anchor="start" x="1288" y="-174.4" font-family="Times Roman,serif" font-size="14.00">subject :string</text>
<text text-anchor="start" x="1288" y="-156.4" font-family="Times Roman,serif" font-size="14.00">lft :integer</text>
<text text-anchor="start" x="1288" y="-138.4" font-family="Times Roman,serif" font-size="14.00">rgt :integer</text>
<text text-anchor="start" x="1288" y="-120.4" font-family="Times Roman,serif" font-size="14.00">created_at :datetime</text>
<text text-anchor="start" x="1288" y="-102.4" font-family="Times Roman,serif" font-size="14.00">updated_at :datetime</text>
</g>
<!-- Bike&#45;&gt;Comment -->
<g id="edge8" class="edge"><title>Bike&#45;&gt;Comment</title>
<path fill="none" stroke="#2257f4" d="M1070.21,-319.442C1075.6,-308.337 1082.7,-298.209 1092,-290 1120.04,-265.252 1220.05,-284.674 1270.34,-271.135"/>
<ellipse fill="none" stroke="#2257f4" cx="1068.54" cy="-323.214" rx="4.00002" ry="4.00002"/>
<polygon fill="#2257f4" stroke="#2257f4" points="1270.52,-271.073 1281.44,-272.101 1275.26,-269.458 1279.99,-267.842 1279.99,-267.842 1279.99,-267.842 1275.26,-269.458 1278.53,-263.583 1270.52,-271.073 1270.52,-271.073"/>
<text text-anchor="middle" x="1154" y="-295.4" font-family="Times Roman,serif" font-size="14.00">comment_threads</text>
</g>
<!-- Project::Youth -->
<g id="node6" class="node"><title>Project::Youth</title>
<polyline fill="none" stroke="black" points="573.5,-363 732.5,-363 "/>
<path fill="none" stroke="black" d="M732.5,-363C738.5,-363 744.5,-369 744.5,-375"/>
<polyline fill="none" stroke="black" points="744.5,-375 744.5,-511 "/>
<path fill="none" stroke="black" d="M744.5,-511C744.5,-517 738.5,-523 732.5,-523"/>
<polyline fill="none" stroke="black" points="732.5,-523 573.5,-523 "/>
<path fill="none" stroke="black" d="M573.5,-523C567.5,-523 561.5,-517 561.5,-511"/>
<polyline fill="none" stroke="black" points="561.5,-511 561.5,-375 "/>
<path fill="none" stroke="black" d="M561.5,-375C561.5,-369 567.5,-363 573.5,-363"/>
<text text-anchor="middle" x="653" y="-506.4" font-family="Times Roman,serif" font-size="14.00">Project::Youth</text>
<polyline fill="none" stroke="black" points="561.5,-497 744.5,-497 "/>
<text text-anchor="start" x="569.5" y="-480.4" font-family="Times Roman,serif" font-size="14.00">prog_type :string</text>
<text text-anchor="start" x="569.5" y="-462.4" font-family="Times Roman,serif" font-size="14.00">label :string</text>
<text text-anchor="start" x="569.5" y="-444.4" font-family="Times Roman,serif" font-size="14.00">created_at :datetime</text>
<text text-anchor="start" x="569.5" y="-426.4" font-family="Times Roman,serif" font-size="14.00">updated_at :datetime</text>
<text text-anchor="start" x="569.5" y="-408.4" font-family="Times Roman,serif" font-size="14.00">closed_at :datetime</text>
<text text-anchor="start" x="569.5" y="-390.4" font-family="Times Roman,serif" font-size="14.00">state :string</text>
<text text-anchor="start" x="569.5" y="-372.4" font-family="Times Roman,serif" font-size="14.00">completion_state :string</text>
</g>
<!-- Project::YouthDetail -->
<g id="node11" class="node"><title>Project::YouthDetail</title>
<polyline fill="none" stroke="black" points="431.5,-120 632.5,-120 "/>
<path fill="none" stroke="black" d="M632.5,-120C638.5,-120 644.5,-126 644.5,-132"/>
<polyline fill="none" stroke="black" points="644.5,-132 644.5,-232 "/>
<path fill="none" stroke="black" d="M644.5,-232C644.5,-238 638.5,-244 632.5,-244"/>
<polyline fill="none" stroke="black" points="632.5,-244 431.5,-244 "/>
<path fill="none" stroke="black" d="M431.5,-244C425.5,-244 419.5,-238 419.5,-232"/>
<polyline fill="none" stroke="black" points="419.5,-232 419.5,-132 "/>
<path fill="none" stroke="black" d="M419.5,-132C419.5,-126 425.5,-120 431.5,-120"/>
<text text-anchor="middle" x="532" y="-227.4" font-family="Times Roman,serif" font-size="14.00">Project::YouthDetail</text>
<polyline fill="none" stroke="black" points="419.5,-218 644.5,-218 "/>
<text text-anchor="start" x="427.5" y="-201.4" font-family="Times Roman,serif" font-size="14.00">proj_type :string</text>
<text text-anchor="start" x="427.5" y="-183.4" font-family="Times Roman,serif" font-size="14.00">state :string</text>
<text text-anchor="start" x="427.5" y="-165.4" font-family="Times Roman,serif" font-size="14.00">created_at :datetime</text>
<text text-anchor="start" x="427.5" y="-147.4" font-family="Times Roman,serif" font-size="14.00">updated_at :datetime</text>
<text text-anchor="start" x="427.5" y="-129.4" font-family="Times Roman,serif" font-size="14.00">inspection_access_code :string</text>
</g>
<!-- Project::Youth&#45;&gt;Project::YouthDetail -->
<g id="edge14" class="edge"><title>Project::Youth&#45;&gt;Project::YouthDetail</title>
<path fill="none" stroke="#fbf6db" d="M612.305,-355.22C596.66,-321.474 579.029,-283.443 564.281,-251.632"/>
<ellipse fill="none" stroke="#fbf6db" cx="614.191" cy="-359.289" rx="4.00002" ry="4.00002"/>
<ellipse fill="#fbf6db" stroke="#fbf6db" cx="562.475" cy="-247.735" rx="4.00002" ry="4.00002"/>
<text text-anchor="middle" x="607.5" y="-295.4" font-family="Times Roman,serif" font-size="14.00">detail</text>
</g>
<!-- Project::Scrap -->
<g id="node7" class="node"><title>Project::Scrap</title>
<polyline fill="none" stroke="black" points="778.5,-363 937.5,-363 "/>
<path fill="none" stroke="black" d="M937.5,-363C943.5,-363 949.5,-369 949.5,-375"/>
<polyline fill="none" stroke="black" points="949.5,-375 949.5,-511 "/>
<path fill="none" stroke="black" d="M949.5,-511C949.5,-517 943.5,-523 937.5,-523"/>
<polyline fill="none" stroke="black" points="937.5,-523 778.5,-523 "/>
<path fill="none" stroke="black" d="M778.5,-523C772.5,-523 766.5,-517 766.5,-511"/>
<polyline fill="none" stroke="black" points="766.5,-511 766.5,-375 "/>
<path fill="none" stroke="black" d="M766.5,-375C766.5,-369 772.5,-363 778.5,-363"/>
<text text-anchor="middle" x="858" y="-506.4" font-family="Times Roman,serif" font-size="14.00">Project::Scrap</text>
<polyline fill="none" stroke="black" points="766.5,-497 949.5,-497 "/>
<text text-anchor="start" x="774.5" y="-480.4" font-family="Times Roman,serif" font-size="14.00">prog_type :string</text>
<text text-anchor="start" x="774.5" y="-462.4" font-family="Times Roman,serif" font-size="14.00">label :string</text>
<text text-anchor="start" x="774.5" y="-444.4" font-family="Times Roman,serif" font-size="14.00">created_at :datetime</text>
<text text-anchor="start" x="774.5" y="-426.4" font-family="Times Roman,serif" font-size="14.00">updated_at :datetime</text>
<text text-anchor="start" x="774.5" y="-408.4" font-family="Times Roman,serif" font-size="14.00">closed_at :datetime</text>
<text text-anchor="start" x="774.5" y="-390.4" font-family="Times Roman,serif" font-size="14.00">state :string</text>
<text text-anchor="start" x="774.5" y="-372.4" font-family="Times Roman,serif" font-size="14.00">completion_state :string</text>
</g>
<!-- Project::ScrapDetail -->
<g id="node10" class="node"><title>Project::ScrapDetail</title>
<polyline fill="none" stroke="black" points="673.5,-120 814.5,-120 "/>
<path fill="none" stroke="black" d="M814.5,-120C820.5,-120 826.5,-126 826.5,-132"/>
<polyline fill="none" stroke="black" points="826.5,-132 826.5,-232 "/>
<path fill="none" stroke="black" d="M826.5,-232C826.5,-238 820.5,-244 814.5,-244"/>
<polyline fill="none" stroke="black" points="814.5,-244 673.5,-244 "/>
<path fill="none" stroke="black" d="M673.5,-244C667.5,-244 661.5,-238 661.5,-232"/>
<polyline fill="none" stroke="black" points="661.5,-232 661.5,-132 "/>
<path fill="none" stroke="black" d="M661.5,-132C661.5,-126 667.5,-120 673.5,-120"/>
<text text-anchor="middle" x="744" y="-227.4" font-family="Times Roman,serif" font-size="14.00">Project::ScrapDetail</text>
<polyline fill="none" stroke="black" points="661.5,-218 826.5,-218 "/>
<text text-anchor="start" x="669.5" y="-201.4" font-family="Times Roman,serif" font-size="14.00">proj_type :string</text>
<text text-anchor="start" x="669.5" y="-183.4" font-family="Times Roman,serif" font-size="14.00">state :string</text>
<text text-anchor="start" x="669.5" y="-165.4" font-family="Times Roman,serif" font-size="14.00">description :string</text>
<text text-anchor="start" x="669.5" y="-147.4" font-family="Times Roman,serif" font-size="14.00">created_at :datetime</text>
<text text-anchor="start" x="669.5" y="-129.4" font-family="Times Roman,serif" font-size="14.00">updated_at :datetime</text>
</g>
<!-- Project::Scrap&#45;&gt;Project::ScrapDetail -->
<g id="edge18" class="edge"><title>Project::Scrap&#45;&gt;Project::ScrapDetail</title>
<path fill="none" stroke="#f63f2f" d="M819.659,-355.22C804.919,-321.474 788.309,-283.443 774.414,-251.632"/>
<ellipse fill="none" stroke="#f63f2f" cx="821.42" cy="-359.252" rx="4.00002" ry="4.00002"/>
<ellipse fill="#f63f2f" stroke="#f63f2f" cx="772.728" cy="-247.772" rx="4.00002" ry="4.00002"/>
<text text-anchor="middle" x="816.5" y="-295.4" font-family="Times Roman,serif" font-size="14.00">detail</text>
</g>
<!-- Project::Eab -->
<g id="node8" class="node"><title>Project::Eab</title>
<polyline fill="none" stroke="black" points="71.5,-363 230.5,-363 "/>
<path fill="none" stroke="black" d="M230.5,-363C236.5,-363 242.5,-369 242.5,-375"/>
<polyline fill="none" stroke="black" points="242.5,-375 242.5,-511 "/>
<path fill="none" stroke="black" d="M242.5,-511C242.5,-517 236.5,-523 230.5,-523"/>
<polyline fill="none" stroke="black" points="230.5,-523 71.5,-523 "/>
<path fill="none" stroke="black" d="M71.5,-523C65.5,-523 59.5,-517 59.5,-511"/>
<polyline fill="none" stroke="black" points="59.5,-511 59.5,-375 "/>
<path fill="none" stroke="black" d="M59.5,-375C59.5,-369 65.5,-363 71.5,-363"/>
<text text-anchor="middle" x="151" y="-506.4" font-family="Times Roman,serif" font-size="14.00">Project::Eab</text>
<polyline fill="none" stroke="black" points="59.5,-497 242.5,-497 "/>
<text text-anchor="start" x="67.5" y="-480.4" font-family="Times Roman,serif" font-size="14.00">prog_type :string</text>
<text text-anchor="start" x="67.5" y="-462.4" font-family="Times Roman,serif" font-size="14.00">label :string</text>
<text text-anchor="start" x="67.5" y="-444.4" font-family="Times Roman,serif" font-size="14.00">created_at :datetime</text>
<text text-anchor="start" x="67.5" y="-426.4" font-family="Times Roman,serif" font-size="14.00">updated_at :datetime</text>
<text text-anchor="start" x="67.5" y="-408.4" font-family="Times Roman,serif" font-size="14.00">closed_at :datetime</text>
<text text-anchor="start" x="67.5" y="-390.4" font-family="Times Roman,serif" font-size="14.00">state :string</text>
<text text-anchor="start" x="67.5" y="-372.4" font-family="Times Roman,serif" font-size="14.00">completion_state :string</text>
</g>
<!-- Project::EabDetail -->
<g id="node9" class="node"><title>Project::EabDetail</title>
<polyline fill="none" stroke="black" points="11.5,-111 212.5,-111 "/>
<path fill="none" stroke="black" d="M212.5,-111C218.5,-111 224.5,-117 224.5,-123"/>
<polyline fill="none" stroke="black" points="224.5,-123 224.5,-241 "/>
<path fill="none" stroke="black" d="M224.5,-241C224.5,-247 218.5,-253 212.5,-253"/>
<polyline fill="none" stroke="black" points="212.5,-253 11.5,-253 "/>
<path fill="none" stroke="black" d="M11.5,-253C5.5,-253 -0.5,-247 -0.5,-241"/>
<polyline fill="none" stroke="black" points="-0.5,-241 -0.5,-123 "/>
<path fill="none" stroke="black" d="M-0.5,-123C-0.5,-117 5.5,-111 11.5,-111"/>
<text text-anchor="middle" x="112" y="-236.4" font-family="Times Roman,serif" font-size="14.00">Project::EabDetail</text>
<polyline fill="none" stroke="black" points="-0.5,-227 224.5,-227 "/>
<text text-anchor="start" x="7.5" y="-210.4" font-family="Times Roman,serif" font-size="14.00">proj_type :string</text>
<text text-anchor="start" x="7.5" y="-192.4" font-family="Times Roman,serif" font-size="14.00">state :string</text>
<text text-anchor="start" x="7.5" y="-174.4" font-family="Times Roman,serif" font-size="14.00">status_state :string</text>
<text text-anchor="start" x="7.5" y="-156.4" font-family="Times Roman,serif" font-size="14.00">created_at :datetime</text>
<text text-anchor="start" x="7.5" y="-138.4" font-family="Times Roman,serif" font-size="14.00">updated_at :datetime</text>
<text text-anchor="start" x="7.5" y="-120.4" font-family="Times Roman,serif" font-size="14.00">inspection_access_code :string</text>
</g>
<!-- Project::Eab&#45;&gt;Project::EabDetail -->
<g id="edge22" class="edge"><title>Project::Eab&#45;&gt;Project::EabDetail</title>
<path fill="none" stroke="#bbb933" d="M137.791,-354.6C133.273,-324.362 128.25,-290.747 123.846,-261.275"/>
<ellipse fill="none" stroke="#bbb933" cx="138.442" cy="-358.962" rx="4.00001" ry="4.00001"/>
<ellipse fill="#bbb933" stroke="#bbb933" cx="123.212" cy="-257.034" rx="4.00001" ry="4.00001"/>
<text text-anchor="middle" x="150.5" y="-295.4" font-family="Times Roman,serif" font-size="14.00">detail</text>
</g>
<!-- Project::ResponseSet -->
<g id="node37" class="node"><title>Project::ResponseSet</title>
<ellipse fill="none" stroke="black" cx="252" cy="-19" rx="113.844" ry="18.3848"/>
<text text-anchor="middle" x="252" y="-15.4" font-family="Times Roman,serif" font-size="14.00">Project::ResponseSet</text>
</g>
<!-- Project::EabDetail&#45;&gt;Project::ResponseSet -->
<g id="edge26" class="edge"><title>Project::EabDetail&#45;&gt;Project::ResponseSet</title>
<path fill="none" stroke="#510a8d" d="M178.441,-104.644C196.719,-83.3631 215.321,-61.705 229.246,-45.4927"/>
<ellipse fill="none" stroke="#510a8d" cx="175.605" cy="-107.946" rx="4.00002" ry="4.00002"/>
<polygon fill="#510a8d" stroke="#510a8d" points="229.559,-45.128 239.488,-40.474 232.817,-41.335 236.074,-37.542 236.074,-37.542 236.074,-37.542 232.817,-41.335 232.661,-34.6099 229.559,-45.128 229.559,-45.128"/>
<text text-anchor="middle" x="257.5" y="-61.4" font-family="Times Roman,serif" font-size="14.00">inspections</text>
</g>
<!-- Project::YouthDetail&#45;&gt;Project::ResponseSet -->
<g id="edge32" class="edge"><title>Project::YouthDetail&#45;&gt;Project::ResponseSet</title>
<path fill="none" stroke="#5122fc" d="M446.425,-114.968C434.771,-106.849 422.767,-98.9734 411,-92 377.136,-71.932 336.812,-53.4746 305.246,-40.1398"/>
<ellipse fill="none" stroke="#5122fc" cx="449.972" cy="-117.468" rx="4.00002" ry="4.00002"/>
<polygon fill="#5122fc" stroke="#5122fc" points="304.974,-40.0263 297.483,-32.0179 300.361,-38.098 295.748,-36.1698 295.748,-36.1698 295.748,-36.1698 300.361,-38.098 294.012,-40.3217 304.974,-40.0263 304.974,-40.0263"/>
<text text-anchor="middle" x="416.5" y="-61.4" font-family="Times Roman,serif" font-size="14.00">inspections</text>
</g>
<!-- Project::TimeEntry -->
<g id="node42" class="node"><title>Project::TimeEntry</title>
<ellipse fill="none" stroke="black" cx="532" cy="-19" rx="102.03" ry="18.3848"/>
<text text-anchor="middle" x="532" y="-15.4" font-family="Times Roman,serif" font-size="14.00">Project::TimeEntry</text>
</g>
<!-- Project::YouthDetail&#45;&gt;Project::TimeEntry -->
<g id="edge34" class="edge"><title>Project::YouthDetail&#45;&gt;Project::TimeEntry</title>
<path fill="none" stroke="#4e3af3" d="M532,-111.582C532,-89.178 532,-65.6352 532,-47.897"/>
<ellipse fill="none" stroke="#4e3af3" cx="532" cy="-115.912" rx="4" ry="4"/>
<polygon fill="#4e3af3" stroke="#4e3af3" points="532,-47.6647 536.5,-37.6646 532,-42.6647 532,-37.6647 532,-37.6647 532,-37.6647 532,-42.6647 527.5,-37.6647 532,-47.6647 532,-47.6647"/>
<text text-anchor="middle" x="600" y="-61.4" font-family="Times Roman,serif" font-size="14.00">time_entry_threads</text>
</g>
<!-- ProjectDetail -->
<g id="node12" class="node"><title>ProjectDetail</title>
<ellipse fill="none" stroke="black" cx="467" cy="-443" rx="74.9533" ry="18.3848"/>
<text text-anchor="middle" x="467" y="-439.4" font-family="Times Roman,serif" font-size="14.00">ProjectDetail</text>
</g>
<!-- ProjectDetail&#45;&gt;Project::EabDetail -->
<g id="edge28" class="edge"><title>ProjectDetail&#45;&gt;Project::EabDetail</title>
<path fill="none" stroke="black" d="M457.576,-424.56C443.656,-399.031 415.286,-353.022 379,-326 323.511,-284.678 293.818,-304.98 233,-272 222.643,-266.384 212.189,-259.961 201.991,-253.189"/>
</g>
<!-- ProjectDetail&#45;&gt;Project::ScrapDetail -->
<g id="edge30" class="edge"><title>ProjectDetail&#45;&gt;Project::ScrapDetail</title>
<path fill="none" stroke="black" d="M480.254,-424.647C497.015,-401.512 526.847,-360.585 553,-326 565.226,-309.832 564.016,-301.064 581,-290 608.638,-271.996 624.252,-288.172 653,-272 666.266,-264.537 678.948,-254.625 690.409,-244.107"/>
</g>
<!-- ProjectDetail&#45;&gt;Project::YouthDetail -->
<g id="edge36" class="edge"><title>ProjectDetail&#45;&gt;Project::YouthDetail</title>
<path fill="none" stroke="black" d="M471.675,-424.23C480.917,-387.119 501.894,-302.886 516.499,-244.244"/>
</g>
<!-- ProjectDetailVersion -->
<g id="node15" class="node"><title>ProjectDetailVersion</title>
<polyline fill="none" stroke="black" points="253.5,-111 390.5,-111 "/>
<path fill="none" stroke="black" d="M390.5,-111C396.5,-111 402.5,-117 402.5,-123"/>
<polyline fill="none" stroke="black" points="402.5,-123 402.5,-241 "/>
<path fill="none" stroke="black" d="M402.5,-241C402.5,-247 396.5,-253 390.5,-253"/>
<polyline fill="none" stroke="black" points="390.5,-253 253.5,-253 "/>
<path fill="none" stroke="black" d="M253.5,-253C247.5,-253 241.5,-247 241.5,-241"/>
<polyline fill="none" stroke="black" points="241.5,-241 241.5,-123 "/>
<path fill="none" stroke="black" d="M241.5,-123C241.5,-117 247.5,-111 253.5,-111"/>
<text text-anchor="middle" x="322" y="-236.4" font-family="Times Roman,serif" font-size="14.00">ProjectDetailVersion</text>
<polyline fill="none" stroke="black" points="241.5,-227 402.5,-227 "/>
<text text-anchor="start" x="249.5" y="-210.4" font-family="Times Roman,serif" font-size="14.00">item_type :string</text>
<text text-anchor="start" x="249.5" y="-192.4" font-family="Times Roman,serif" font-size="14.00">event :string</text>
<text text-anchor="start" x="249.5" y="-174.4" font-family="Times Roman,serif" font-size="14.00">whodunnit :string</text>
<text text-anchor="start" x="249.5" y="-156.4" font-family="Times Roman,serif" font-size="14.00">object :text</text>
<text text-anchor="start" x="249.5" y="-138.4" font-family="Times Roman,serif" font-size="14.00">created_at :datetime</text>
<text text-anchor="start" x="249.5" y="-120.4" font-family="Times Roman,serif" font-size="14.00">state :string</text>
</g>
<!-- ProjectDetail&#45;&gt;ProjectDetailVersion -->
<g id="edge38" class="edge"><title>ProjectDetail&#45;&gt;ProjectDetailVersion</title>
<path fill="none" stroke="#6e99df" d="M456.69,-416.807C444.096,-385.771 421.431,-332.865 397,-290 391.678,-280.662 385.776,-271.105 379.688,-261.726"/>
<ellipse fill="none" stroke="#6e99df" cx="458.325" cy="-420.87" rx="4.00001" ry="4.00001"/>
<polygon fill="#6e99df" stroke="#6e99df" points="379.556,-261.526 377.814,-250.699 376.806,-257.35 374.056,-253.174 374.056,-253.174 374.056,-253.174 376.806,-257.35 370.297,-255.649 379.556,-261.526 379.556,-261.526"/>
<text text-anchor="middle" x="435" y="-295.4" font-family="Times Roman,serif" font-size="14.00">versions</text>
</g>
<!-- User -->
<g id="node14" class="node"><title>User</title>
<polyline fill="none" stroke="black" points="1126,-1015 1356,-1015 "/>
<path fill="none" stroke="black" d="M1356,-1015C1362,-1015 1368,-1021 1368,-1027"/>
<polyline fill="none" stroke="black" points="1368,-1027 1368,-1235 "/>
<path fill="none" stroke="black" d="M1368,-1235C1368,-1241 1362,-1247 1356,-1247"/>
<polyline fill="none" stroke="black" points="1356,-1247 1126,-1247 "/>
<path fill="none" stroke="black" d="M1126,-1247C1120,-1247 1114,-1241 1114,-1235"/>
<polyline fill="none" stroke="black" points="1114,-1235 1114,-1027 "/>
<path fill="none" stroke="black" d="M1114,-1027C1114,-1021 1120,-1015 1126,-1015"/>
<text text-anchor="middle" x="1241" y="-1230.4" font-family="Times Roman,serif" font-size="14.00">User</text>
<polyline fill="none" stroke="black" points="1114,-1221 1368,-1221 "/>
<text text-anchor="start" x="1122" y="-1204.4" font-family="Times Roman,serif" font-size="14.00">email :string</text>
<text text-anchor="start" x="1122" y="-1186.4" font-family="Times Roman,serif" font-size="14.00">encrypted_password :string</text>
<text text-anchor="start" x="1122" y="-1168.4" font-family="Times Roman,serif" font-size="14.00">reset_password_token :string</text>
<text text-anchor="start" x="1122" y="-1150.4" font-family="Times Roman,serif" font-size="14.00">reset_password_sent_at :datetime</text>
<text text-anchor="start" x="1122" y="-1132.4" font-family="Times Roman,serif" font-size="14.00">remember_created_at :datetime</text>
<text text-anchor="start" x="1122" y="-1114.4" font-family="Times Roman,serif" font-size="14.00">current_sign_in_at :datetime</text>
<text text-anchor="start" x="1122" y="-1096.4" font-family="Times Roman,serif" font-size="14.00">last_sign_in_at :datetime</text>
<text text-anchor="start" x="1122" y="-1078.4" font-family="Times Roman,serif" font-size="14.00">current_sign_in_ip :string</text>
<text text-anchor="start" x="1122" y="-1060.4" font-family="Times Roman,serif" font-size="14.00">last_sign_in_ip :string</text>
<text text-anchor="start" x="1122" y="-1042.4" font-family="Times Roman,serif" font-size="14.00">created_at :datetime</text>
<text text-anchor="start" x="1122" y="-1024.4" font-family="Times Roman,serif" font-size="14.00">updated_at :datetime</text>
</g>
<!-- Comment&#45;&gt;Comment -->
<g id="edge42" class="edge"><title>Comment&#45;&gt;Comment</title>
<path fill="none" stroke="#92d576" d="M1483.93,-196.972C1490.23,-193.396 1494,-188.406 1494,-182 1494,-176.139 1490.84,-171.463 1485.48,-167.971"/>
<ellipse fill="none" stroke="#92d576" cx="1479.84" cy="-198.722" rx="4.00001" ry="4.00001"/>
<polygon fill="#92d576" stroke="#92d576" points="1485.26,-167.869 1478.04,-159.612 1480.71,-165.786 1476.17,-163.703 1476.17,-163.703 1476.17,-163.703 1480.71,-165.786 1474.29,-167.794 1485.26,-167.869 1485.26,-167.869"/>
<text text-anchor="middle" x="1521.5" y="-178.4" font-family="Times Roman,serif" font-size="14.00">children</text>
</g>
<!-- Project&#45;&gt;Bike -->
<g id="edge44" class="edge"><title>Project&#45;&gt;Bike</title>
<path fill="none" stroke="#c9316c" d="M981.458,-591.567C985.584,-583.451 989.817,-575.127 994.068,-566.765"/>
<ellipse fill="none" stroke="#c9316c" cx="979.607" cy="-595.206" rx="4.00002" ry="4.00002"/>
<ellipse fill="#c9316c" stroke="#c9316c" cx="995.995" cy="-562.977" rx="4.00002" ry="4.00002"/>
</g>
<!-- Project&#45;&gt;Project::Youth -->
<g id="edge16" class="edge"><title>Project&#45;&gt;Project::Youth</title>
<path fill="none" stroke="black" d="M845.233,-603.378C842.484,-601.53 839.737,-599.733 837,-598 804.084,-577.153 789.161,-583.389 758,-560 743.703,-549.269 729.848,-536.369 717.145,-523.114"/>
</g>
<!-- Project&#45;&gt;Project::Scrap -->
<g id="edge20" class="edge"><title>Project&#45;&gt;Project::Scrap</title>
<path fill="none" stroke="black" d="M910.144,-598.772C901.958,-574.318 892.963,-547.445 884.782,-523.006"/>
</g>
<!-- Project&#45;&gt;Project::Eab -->
<g id="edge24" class="edge"><title>Project&#45;&gt;Project::Eab</title>
<path fill="none" stroke="black" d="M845.364,-601.615C842.598,-600.311 839.808,-599.101 837,-598 718.395,-551.509 380.669,-613.379 265,-560 246.073,-551.266 228.617,-537.902 213.348,-523.288"/>
</g>
<!-- Project&#45;&gt;Comment -->
<g id="edge48" class="edge"><title>Project&#45;&gt;Comment</title>
<path fill="none" stroke="#3aef3c" d="M1035.98,-643.091C1077.21,-623.887 1122.67,-596.539 1154,-560 1226.02,-476.002 1180.4,-419.86 1239,-326 1249.11,-309.811 1261.28,-293.94 1274.16,-278.995"/>
<ellipse fill="none" stroke="#3aef3c" cx="1032.24" cy="-644.799" rx="4.00002" ry="4.00002"/>
<polygon fill="#3aef3c" stroke="#3aef3c" points="1274.35,-278.778 1284.33,-274.239 1277.65,-275.023 1280.95,-271.268 1280.95,-271.268 1280.95,-271.268 1277.65,-275.023 1277.57,-268.297 1274.35,-278.778 1274.35,-278.778"/>
<text text-anchor="middle" x="1301" y="-439.4" font-family="Times Roman,serif" font-size="14.00">comment_threads</text>
</g>
<!-- Detail -->
<g id="node50" class="node"><title>Detail</title>
<ellipse fill="none" stroke="black" cx="1413" cy="-443" rx="41.0122" ry="18.3848"/>
<text text-anchor="middle" x="1413" y="-439.4" font-family="Times Roman,serif" font-size="14.00">Detail</text>
</g>
<!-- Project&#45;&gt;Detail -->
<g id="edge46" class="edge"><title>Project&#45;&gt;Detail</title>
<path fill="none" stroke="#4b4ebb" d="M1036.6,-660.753C1145.08,-639.196 1309.61,-601.04 1358,-560 1385.61,-536.581 1400.26,-496.22 1407.33,-469.567"/>
<ellipse fill="none" stroke="#4b4ebb" cx="1032.49" cy="-661.565" rx="4.00001" ry="4.00001"/>
<ellipse fill="#4b4ebb" stroke="#4b4ebb" cx="1408.31" cy="-465.649" rx="4.00001" ry="4.00001"/>
</g>
<!-- SurveyorUtil -->
<g id="node18" class="node"><title>SurveyorUtil</title>
<polygon fill="none" stroke="black" stroke-dasharray="1,5" points="1490,-1149 1386,-1149 1386,-1113 1490,-1113 1490,-1149"/>
<text text-anchor="middle" x="1438" y="-1127.4" font-family="Times Roman,serif" font-size="14.00">SurveyorUtil</text>
</g>
<!-- PaperTrailContext -->
<g id="node19" class="node"><title>PaperTrailContext</title>
<polygon fill="none" stroke="black" stroke-dasharray="1,5" points="1648,-1149 1508,-1149 1508,-1113 1648,-1113 1648,-1149"/>
<text text-anchor="middle" x="1578" y="-1127.4" font-family="Times Roman,serif" font-size="14.00">PaperTrailContext</text>
</g>
<!-- ProjectCategory -->
<g id="node20" class="node"><title>ProjectCategory</title>
<polyline fill="none" stroke="black" points="828,-1060 980,-1060 "/>
<path fill="none" stroke="black" d="M980,-1060C986,-1060 992,-1066 992,-1072"/>
<polyline fill="none" stroke="black" points="992,-1072 992,-1190 "/>
<path fill="none" stroke="black" d="M992,-1190C992,-1196 986,-1202 980,-1202"/>
<polyline fill="none" stroke="black" points="980,-1202 828,-1202 "/>
<path fill="none" stroke="black" d="M828,-1202C822,-1202 816,-1196 816,-1190"/>
<polyline fill="none" stroke="black" points="816,-1190 816,-1072 "/>
<path fill="none" stroke="black" d="M816,-1072C816,-1066 822,-1060 828,-1060"/>
<text text-anchor="middle" x="904" y="-1185.4" font-family="Times Roman,serif" font-size="14.00">ProjectCategory</text>
<polyline fill="none" stroke="black" points="816,-1176 992,-1176 "/>
<text text-anchor="start" x="824" y="-1159.4" font-family="Times Roman,serif" font-size="14.00">name :string</text>
<text text-anchor="start" x="824" y="-1141.4" font-family="Times Roman,serif" font-size="14.00">project_type :string</text>
<text text-anchor="start" x="824" y="-1123.4" font-family="Times Roman,serif" font-size="14.00">max_programs :integer</text>
<text text-anchor="start" x="824" y="-1105.4" font-family="Times Roman,serif" font-size="14.00">slug :string</text>
<text text-anchor="start" x="824" y="-1087.4" font-family="Times Roman,serif" font-size="14.00">created_at :datetime</text>
<text text-anchor="start" x="824" y="-1069.4" font-family="Times Roman,serif" font-size="14.00">updated_at :datetime</text>
</g>
<!-- ProjectCategory&#45;&gt;Program -->
<g id="edge52" class="edge"><title>ProjectCategory&#45;&gt;Program</title>
<path fill="none" stroke="#4c0f39" d="M878.308,-1052.26C871.252,-1030.63 863.549,-1007.02 856.306,-984.82"/>
<ellipse fill="none" stroke="#4c0f39" cx="879.552" cy="-1056.07" rx="4.00001" ry="4.00001"/>
<polygon fill="#4c0f39" stroke="#4c0f39" points="856.226,-984.576 857.402,-973.673 854.675,-979.823 853.124,-975.069 853.124,-975.069 853.124,-975.069 854.675,-979.823 848.846,-976.465 856.226,-984.576 856.226,-984.576"/>
</g>
<!-- ProjectCategory&#45;&gt;Project -->
<g id="edge50" class="edge"><title>ProjectCategory&#45;&gt;Project</title>
<path fill="none" stroke="#dcead7" d="M911.58,-1051.54C913.784,-1027.3 916.105,-1000.57 918,-976 923.353,-906.606 928.333,-828.007 931.851,-769.105"/>
<ellipse fill="none" stroke="#dcead7" cx="911.202" cy="-1055.67" rx="4" ry="4"/>
<polygon fill="#dcead7" stroke="#dcead7" points="931.853,-769.068 936.939,-759.352 932.15,-764.076 932.446,-759.085 932.446,-759.085 932.446,-759.085 932.15,-764.076 927.954,-758.818 931.853,-769.068 931.853,-769.068"/>
</g>
<!-- TimeEntry -->
<g id="node21" class="node"><title>TimeEntry</title>
<polyline fill="none" stroke="black" points="1678,-1024 1860,-1024 "/>
<path fill="none" stroke="black" d="M1860,-1024C1866,-1024 1872,-1030 1872,-1036"/>
<polyline fill="none" stroke="black" points="1872,-1036 1872,-1226 "/>
<path fill="none" stroke="black" d="M1872,-1226C1872,-1232 1866,-1238 1860,-1238"/>
<polyline fill="none" stroke="black" points="1860,-1238 1678,-1238 "/>
<path fill="none" stroke="black" d="M1678,-1238C1672,-1238 1666,-1232 1666,-1226"/>
<polyline fill="none" stroke="black" points="1666,-1226 1666,-1036 "/>
<path fill="none" stroke="black" d="M1666,-1036C1666,-1030 1672,-1024 1678,-1024"/>
<text text-anchor="middle" x="1769" y="-1221.4" font-family="Times Roman,serif" font-size="14.00">TimeEntry</text>
<polyline fill="none" stroke="black" points="1666,-1212 1872,-1212 "/>
<text text-anchor="start" x="1674" y="-1195.4" font-family="Times Roman,serif" font-size="14.00">time_trackable_type :string</text>
<text text-anchor="start" x="1674" y="-1177.4" font-family="Times Roman,serif" font-size="14.00">title :string</text>
<text text-anchor="start" x="1674" y="-1159.4" font-family="Times Roman,serif" font-size="14.00">description :text</text>
<text text-anchor="start" x="1674" y="-1141.4" font-family="Times Roman,serif" font-size="14.00">context_type :string</text>
<text text-anchor="start" x="1674" y="-1123.4" font-family="Times Roman,serif" font-size="14.00">lft :integer</text>
<text text-anchor="start" x="1674" y="-1105.4" font-family="Times Roman,serif" font-size="14.00">rgt :integer</text>
<text text-anchor="start" x="1674" y="-1087.4" font-family="Times Roman,serif" font-size="14.00">started_on :datetime</text>
<text text-anchor="start" x="1674" y="-1069.4" font-family="Times Roman,serif" font-size="14.00">ended_on :datetime</text>
<text text-anchor="start" x="1674" y="-1051.4" font-family="Times Roman,serif" font-size="14.00">created_at :datetime</text>
<text text-anchor="start" x="1674" y="-1033.4" font-family="Times Roman,serif" font-size="14.00">updated_at :datetime</text>
</g>
<!-- TimeEntry&#45;&gt;TimeEntry -->
<g id="edge54" class="edge"><title>TimeEntry&#45;&gt;TimeEntry</title>
<path fill="none" stroke="#410a2a" d="M1879.6,-1148.49C1886.11,-1144.3 1890,-1138.47 1890,-1131 1890,-1124.15 1886.73,-1118.68 1881.17,-1114.59"/>
<ellipse fill="none" stroke="#410a2a" cx="1875.85" cy="-1150.35" rx="4.00002" ry="4.00002"/>
<polygon fill="#410a2a" stroke="#410a2a" points="1881.11,-1114.56 1874.38,-1105.9 1876.69,-1112.22 1872.27,-1109.87 1872.27,-1109.87 1872.27,-1109.87 1876.69,-1112.22 1870.16,-1113.85 1881.11,-1114.56 1881.11,-1114.56"/>
<text text-anchor="middle" x="1917.5" y="-1127.4" font-family="Times Roman,serif" font-size="14.00">children</text>
</g>
<!-- Version -->
<g id="node45" class="node"><title>Version</title>
<ellipse fill="none" stroke="black" cx="322" cy="-443" rx="48.0833" ry="18.3848"/>
<text text-anchor="middle" x="322" y="-439.4" font-family="Times Roman,serif" font-size="14.00">Version</text>
</g>
<!-- Version&#45;&gt;ProjectDetailVersion -->
<g id="edge40" class="edge"><title>Version&#45;&gt;ProjectDetailVersion</title>
<path fill="none" stroke="black" d="M322,-424.23C322,-388.93 322,-310.998 322,-253.007"/>
</g>
</g>
</svg>
