<?xml version="1.0" encoding="UTF-8" standalone="no"?>
<!DOCTYPE svg PUBLIC "-//W3C//DTD SVG 1.1//EN"
 "http://www.w3.org/Graphics/SVG/1.1/DTD/svg11.dtd">
<!-- Generated by graphviz version 2.26.3 (20100126.1600)
 -->
<!-- Title: models_diagram Pages: 1 -->
<svg width="699pt" height="378pt"
 viewBox="0.00 0.00 699.00 378.00" xmlns="http://www.w3.org/2000/svg" xmlns:xlink="http://www.w3.org/1999/xlink">
<g id="graph1" class="graph" transform="scale(1 1) rotate(0) translate(4 374)">
<title>models_diagram</title>
<polygon fill="white" stroke="white" points="-4,5 -4,-374 696,-374 696,5 -4,5"/>
<!-- _diagram_info -->
<g id="node1" class="node"><title>_diagram_info</title>
<text text-anchor="start" x="8" y="-353.8" font-family="Times Roman,serif" font-size="13.00">Models diagram</text>
<text text-anchor="start" x="8" y="-336.8" font-family="Times Roman,serif" font-size="13.00">Date: Mar 18 2012 &#45; 01:57</text>
<text text-anchor="start" x="8" y="-319.8" font-family="Times Roman,serif" font-size="13.00">Migration version: 20120317082740</text>
<text text-anchor="start" x="8" y="-302.8" font-family="Times Roman,serif" font-size="13.00">Generated by RailRoady 1.0.4</text>
<text text-anchor="start" x="8" y="-285.8" font-family="Times Roman,serif" font-size="13.00">http://railroady.prestonlee.com</text>
</g>
<!-- Program -->
<g id="node2" class="node"><title>Program</title>
<ellipse fill="none" stroke="black" cx="321" cy="-323" rx="53.033" ry="18.3848"/>
<text text-anchor="middle" x="321" y="-319.4" font-family="Times Roman,serif" font-size="14.00">Program</text>
</g>
<!-- Project -->
<g id="node12" class="node"><title>Project</title>
<ellipse fill="none" stroke="black" cx="348" cy="-203" rx="45.9619" ry="18.3848"/>
<text text-anchor="middle" x="348" y="-199.4" font-family="Times Roman,serif" font-size="14.00">Project</text>
</g>
<!-- Program&#45;&gt;Project -->
<g id="edge4" class="edge"><title>Program&#45;&gt;Project</title>
<path fill="none" stroke="black" d="M326.934,-296.628C331.258,-277.408 337.112,-251.39 341.552,-231.659"/>
<ellipse fill="none" stroke="black" cx="326.038" cy="-300.611" rx="4.00001" ry="4.00001"/>
<polygon fill="black" stroke="black" points="341.596,-231.462 348.181,-222.694 342.694,-226.584 343.791,-221.706 343.791,-221.706 343.791,-221.706 342.694,-226.584 339.401,-220.718 341.596,-231.462 341.596,-231.462"/>
</g>
<!-- FriendlyId::Slug -->
<g id="node14" class="node"><title>FriendlyId::Slug</title>
<ellipse fill="none" stroke="black" cx="197" cy="-203" rx="86.9741" ry="18.3848"/>
<text text-anchor="middle" x="197" y="-199.4" font-family="Times Roman,serif" font-size="14.00">FriendlyId::Slug</text>
</g>
<!-- Program&#45;&gt;FriendlyId::Slug -->
<g id="edge2" class="edge"><title>Program&#45;&gt;FriendlyId::Slug</title>
<path fill="none" stroke="black" d="M296.926,-299.702C275.739,-279.199 244.958,-249.411 223.168,-228.323"/>
<ellipse fill="none" stroke="black" cx="300.095" cy="-302.769" rx="4.00002" ry="4.00002"/>
<polygon fill="black" stroke="black" points="223.052,-228.211 218.995,-218.023 219.459,-224.734 215.866,-221.257 215.866,-221.257 215.866,-221.257 219.459,-224.734 212.736,-224.491 223.052,-228.211 223.052,-228.211"/>
<text text-anchor="middle" x="268.5" y="-245.4" font-family="Times Roman,serif" font-size="14.00">slugs</text>
</g>
<!-- Bike -->
<g id="node3" class="node"><title>Bike</title>
<ellipse fill="none" stroke="black" cx="449" cy="-323" rx="32.0265" ry="18.3848"/>
<text text-anchor="middle" x="449" y="-319.4" font-family="Times Roman,serif" font-size="14.00">Bike</text>
</g>
<!-- Hook -->
<g id="node9" class="node"><title>Hook</title>
<ellipse fill="none" stroke="black" cx="449" cy="-203" rx="36.7696" ry="18.3848"/>
<text text-anchor="middle" x="449" y="-199.4" font-family="Times Roman,serif" font-size="14.00">Hook</text>
</g>
<!-- Bike&#45;&gt;Hook -->
<g id="edge8" class="edge"><title>Bike&#45;&gt;Hook</title>
<path fill="none" stroke="black" d="M449,-296.053C449,-276.303 449,-249.609 449,-229.876"/>
<ellipse fill="none" stroke="black" cx="449" cy="-300.25" rx="4" ry="4"/>
<ellipse fill="black" stroke="black" cx="449" cy="-225.618" rx="4" ry="4"/>
</g>
<!-- Comment -->
<g id="node11" class="node"><title>Comment</title>
<ellipse fill="none" stroke="black" cx="513" cy="-111" rx="58.1882" ry="18.3848"/>
<text text-anchor="middle" x="513" y="-107.4" font-family="Times Roman,serif" font-size="14.00">Comment</text>
</g>
<!-- Bike&#45;&gt;Comment -->
<g id="edge6" class="edge"><title>Bike&#45;&gt;Comment</title>
<path fill="none" stroke="black" d="M462.101,-297.962C472.198,-277.862 485.925,-248.69 495,-222 503.225,-197.809 503.945,-191.227 508,-166 509.359,-157.547 510.378,-148.299 511.129,-139.839"/>
<ellipse fill="none" stroke="black" cx="460.237" cy="-301.63" rx="4.00002" ry="4.00002"/>
<polygon fill="black" stroke="black" points="511.146,-139.632 516.429,-130.023 511.544,-134.648 511.943,-129.664 511.943,-129.664 511.943,-129.664 511.544,-134.648 507.457,-129.305 511.146,-139.632 511.146,-139.632"/>
<text text-anchor="middle" x="567" y="-199.4" font-family="Times Roman,serif" font-size="14.00">comment_threads</text>
</g>
<!-- Bike&#45;&gt;Project -->
<g id="edge10" class="edge"><title>Bike&#45;&gt;Project</title>
<path fill="none" stroke="black" d="M429.758,-300.138C412.128,-279.191 386.119,-248.29 368.195,-226.994"/>
<ellipse fill="none" stroke="black" cx="432.381" cy="-303.254" rx="4.00002" ry="4.00002"/>
<ellipse fill="black" stroke="black" cx="365.485" cy="-223.775" rx="4.00002" ry="4.00002"/>
</g>
<!-- Project::Youth -->
<g id="node4" class="node"><title>Project::Youth</title>
<ellipse fill="none" stroke="black" cx="353" cy="-111" rx="79.9031" ry="18.3848"/>
<text text-anchor="middle" x="353" y="-107.4" font-family="Times Roman,serif" font-size="14.00">Project::Youth</text>
</g>
<!-- Project::Spec::Youth -->
<g id="node5" class="node"><title>Project::Spec::Youth</title>
<ellipse fill="none" stroke="black" cx="367" cy="-19" rx="109.101" ry="18.3848"/>
<text text-anchor="middle" x="367" y="-15.4" font-family="Times Roman,serif" font-size="14.00">Project::Spec::Youth</text>
</g>
<!-- Project::Youth&#45;&gt;Project::Spec::Youth -->
<g id="edge12" class="edge"><title>Project::Youth&#45;&gt;Project::Spec::Youth</title>
<path fill="none" stroke="black" d="M357.041,-84.4467C358.896,-72.2543 361.091,-57.828 362.948,-45.6267"/>
<ellipse fill="none" stroke="black" cx="356.435" cy="-88.428" rx="4.00001" ry="4.00001"/>
<ellipse fill="black" stroke="black" cx="363.569" cy="-41.5444" rx="4.00001" ry="4.00001"/>
<text text-anchor="middle" x="376.5" y="-61.4" font-family="Times Roman,serif" font-size="14.00">spec</text>
</g>
<!-- Project::Spec::Eab -->
<g id="node6" class="node"><title>Project::Spec::Eab</title>
<ellipse fill="none" stroke="black" cx="141" cy="-19" rx="98.9949" ry="18.3848"/>
<text text-anchor="middle" x="141" y="-15.4" font-family="Times Roman,serif" font-size="14.00">Project::Spec::Eab</text>
</g>
<!-- Project::Spec -->
<g id="node7" class="node"><title>Project::Spec</title>
<polygon fill="none" stroke="black" stroke-dasharray="1,5" points="605,-341 499,-341 499,-305 605,-305 605,-341"/>
<text text-anchor="middle" x="552" y="-319.4" font-family="Times Roman,serif" font-size="14.00">Project::Spec</text>
</g>
<!-- Project::Eab -->
<g id="node8" class="node"><title>Project::Eab</title>
<ellipse fill="none" stroke="black" cx="170" cy="-111" rx="70.0036" ry="18.3848"/>
<text text-anchor="middle" x="170" y="-107.4" font-family="Times Roman,serif" font-size="14.00">Project::Eab</text>
</g>
<!-- Project::Eab&#45;&gt;Project::Spec::Eab -->
<g id="edge16" class="edge"><title>Project::Eab&#45;&gt;Project::Spec::Eab</title>
<path fill="none" stroke="black" d="M161.63,-84.4467C157.75,-72.1371 153.152,-57.5504 149.282,-45.2753"/>
<ellipse fill="none" stroke="black" cx="162.929" cy="-88.5675" rx="4.00001" ry="4.00001"/>
<ellipse fill="black" stroke="black" cx="148.062" cy="-41.4048" rx="4.00001" ry="4.00001"/>
<text text-anchor="middle" x="173.5" y="-61.4" font-family="Times Roman,serif" font-size="14.00">spec</text>
</g>
<!-- User -->
<g id="node10" class="node"><title>User</title>
<ellipse fill="none" stroke="black" cx="657" cy="-323" rx="33.9411" ry="18.3848"/>
<text text-anchor="middle" x="657" y="-319.4" font-family="Times Roman,serif" font-size="14.00">User</text>
</g>
<!-- Comment&#45;&gt;Comment -->
<g id="edge20" class="edge"><title>Comment&#45;&gt;Comment</title>
<path fill="none" stroke="black" d="M572.51,-118.989C582.28,-117.851 589,-115.188 589,-111 589,-107.099 583.17,-104.522 574.477,-103.267"/>
<ellipse fill="none" stroke="black" cx="568.496" cy="-119.276" rx="4" ry="4"/>
<polygon fill="black" stroke="black" points="574.472,-103.267 564.878,-97.9541 569.489,-102.853 564.506,-102.439 564.506,-102.439 564.506,-102.439 569.489,-102.853 564.133,-106.923 574.472,-103.267 574.472,-103.267"/>
<text text-anchor="middle" x="616.5" y="-107.4" font-family="Times Roman,serif" font-size="14.00">children</text>
</g>
<!-- Project&#45;&gt;Project::Youth -->
<g id="edge14" class="edge"><title>Project&#45;&gt;Project::Youth</title>
<path fill="none" stroke="black" d="M349.012,-184.382C349.879,-168.421 351.123,-145.543 351.99,-129.59"/>
</g>
<!-- Project&#45;&gt;Project::Eab -->
<g id="edge18" class="edge"><title>Project&#45;&gt;Project::Eab</title>
<path fill="none" stroke="black" d="M319.401,-188.219C287.364,-171.66 235.555,-144.882 202.141,-127.612"/>
</g>
<!-- Project&#45;&gt;Comment -->
<g id="edge22" class="edge"><title>Project&#45;&gt;Comment</title>
<path fill="none" stroke="black" d="M359.572,-177.605C365.517,-167.086 373.7,-155.593 384,-148 387.254,-145.601 424.9,-134.927 458.689,-125.656"/>
<ellipse fill="none" stroke="black" cx="357.693" cy="-181.141" rx="4.00002" ry="4.00002"/>
<polygon fill="black" stroke="black" points="458.9,-125.599 469.732,-127.302 463.722,-124.28 468.545,-122.961 468.545,-122.961 468.545,-122.961 463.722,-124.28 467.358,-118.62 458.9,-125.599 458.9,-125.599"/>
<text text-anchor="middle" x="446" y="-153.4" font-family="Times Roman,serif" font-size="14.00">comment_threads</text>
</g>
</g>
</svg>
