<?xml version="1.0" encoding="UTF-8" standalone="no"?>
<!DOCTYPE svg PUBLIC "-//W3C//DTD SVG 1.1//EN"
 "http://www.w3.org/Graphics/SVG/1.1/DTD/svg11.dtd">
<!-- Generated by graphviz version 2.26.3 (20100126.1600)
 -->
<!-- Title: models_diagram Pages: 1 -->
<svg width="1280pt" height="1164pt"
 viewBox="0.00 0.00 1280.00 1164.00" xmlns="http://www.w3.org/2000/svg" xmlns:xlink="http://www.w3.org/1999/xlink">
<g id="graph1" class="graph" transform="scale(1 1) rotate(0) translate(4 1160)">
<title>models_diagram</title>
<polygon fill="white" stroke="white" points="-4,5 -4,-1160 1277,-1160 1277,5 -4,5"/>
<!-- _diagram_info -->
<g id="node1" class="node"><title>_diagram_info</title>
<text text-anchor="start" x="274" y="-1069.8" font-family="Times Roman,serif" font-size="13.00">Models diagram</text>
<text text-anchor="start" x="274" y="-1052.8" font-family="Times Roman,serif" font-size="13.00">Date: Apr 09 2012 &#45; 02:15</text>
<text text-anchor="start" x="274" y="-1035.8" font-family="Times Roman,serif" font-size="13.00">Migration version: 20120408043657</text>
<text text-anchor="start" x="274" y="-1018.8" font-family="Times Roman,serif" font-size="13.00">Generated by RailRoady 1.0.7</text>
<text text-anchor="start" x="274" y="-1001.8" font-family="Times Roman,serif" font-size="13.00">http://railroady.prestonlee.com</text>
</g>
<!-- Program -->
<g id="node2" class="node"><title>Program</title>
<polyline fill="none" stroke="black" points="474.5,-723 615.5,-723 "/>
<path fill="none" stroke="black" d="M615.5,-723C621.5,-723 627.5,-729 627.5,-735"/>
<polyline fill="none" stroke="black" points="627.5,-735 627.5,-871 "/>
<path fill="none" stroke="black" d="M627.5,-871C627.5,-877 621.5,-883 615.5,-883"/>
<polyline fill="none" stroke="black" points="615.5,-883 474.5,-883 "/>
<path fill="none" stroke="black" d="M474.5,-883C468.5,-883 462.5,-877 462.5,-871"/>
<polyline fill="none" stroke="black" points="462.5,-871 462.5,-735 "/>
<path fill="none" stroke="black" d="M462.5,-735C462.5,-729 468.5,-723 474.5,-723"/>
<text text-anchor="middle" x="545" y="-866.4" font-family="Times Roman,serif" font-size="14.00">Program</text>
<polyline fill="none" stroke="black" points="462.5,-857 627.5,-857 "/>
<text text-anchor="start" x="470.5" y="-840.4" font-family="Times Roman,serif" font-size="14.00">title :string</text>
<text text-anchor="start" x="470.5" y="-822.4" font-family="Times Roman,serif" font-size="14.00">created_at :datetime</text>
<text text-anchor="start" x="470.5" y="-804.4" font-family="Times Roman,serif" font-size="14.00">updated_at :datetime</text>
<text text-anchor="start" x="470.5" y="-786.4" font-family="Times Roman,serif" font-size="14.00">cosed_at :datetime</text>
<text text-anchor="start" x="470.5" y="-768.4" font-family="Times Roman,serif" font-size="14.00">slug :string</text>
<text text-anchor="start" x="470.5" y="-750.4" font-family="Times Roman,serif" font-size="14.00">max_open :integer</text>
<text text-anchor="start" x="470.5" y="-732.4" font-family="Times Roman,serif" font-size="14.00">max_total :integer</text>
</g>
<!-- Project -->
<g id="node14" class="node"><title>Project</title>
<polyline fill="none" stroke="black" points="575.5,-507 734.5,-507 "/>
<path fill="none" stroke="black" d="M734.5,-507C740.5,-507 746.5,-513 746.5,-519"/>
<polyline fill="none" stroke="black" points="746.5,-519 746.5,-655 "/>
<path fill="none" stroke="black" d="M746.5,-655C746.5,-661 740.5,-667 734.5,-667"/>
<polyline fill="none" stroke="black" points="734.5,-667 575.5,-667 "/>
<path fill="none" stroke="black" d="M575.5,-667C569.5,-667 563.5,-661 563.5,-655"/>
<polyline fill="none" stroke="black" points="563.5,-655 563.5,-519 "/>
<path fill="none" stroke="black" d="M563.5,-519C563.5,-513 569.5,-507 575.5,-507"/>
<text text-anchor="middle" x="655" y="-650.4" font-family="Times Roman,serif" font-size="14.00">Project</text>
<polyline fill="none" stroke="black" points="563.5,-641 746.5,-641 "/>
<text text-anchor="start" x="571.5" y="-624.4" font-family="Times Roman,serif" font-size="14.00">prog_type :string</text>
<text text-anchor="start" x="571.5" y="-606.4" font-family="Times Roman,serif" font-size="14.00">label :string</text>
<text text-anchor="start" x="571.5" y="-588.4" font-family="Times Roman,serif" font-size="14.00">created_at :datetime</text>
<text text-anchor="start" x="571.5" y="-570.4" font-family="Times Roman,serif" font-size="14.00">updated_at :datetime</text>
<text text-anchor="start" x="571.5" y="-552.4" font-family="Times Roman,serif" font-size="14.00">closed_at :datetime</text>
<text text-anchor="start" x="571.5" y="-534.4" font-family="Times Roman,serif" font-size="14.00">state :string</text>
<text text-anchor="start" x="571.5" y="-516.4" font-family="Times Roman,serif" font-size="14.00">completion_state :string</text>
</g>
<!-- Program&#45;&gt;Project -->
<g id="edge4" class="edge"><title>Program&#45;&gt;Project</title>
<path fill="none" stroke="#1cf683" d="M589.51,-715.599C596.108,-702.642 602.915,-689.275 609.533,-676.281"/>
<ellipse fill="none" stroke="#1cf683" cx="587.619" cy="-719.312" rx="4.00002" ry="4.00002"/>
<polygon fill="#1cf683" stroke="#1cf683" points="609.541,-676.265 618.089,-669.396 611.81,-671.81 614.079,-667.354 614.079,-667.354 614.079,-667.354 611.81,-671.81 610.069,-665.312 609.541,-676.265 609.541,-676.265"/>
</g>
<!-- FriendlyId::Slug -->
<g id="node17" class="node"><title>FriendlyId::Slug</title>
<ellipse fill="none" stroke="black" cx="459" cy="-587" rx="86.9741" ry="18.3848"/>
<text text-anchor="middle" x="459" y="-583.4" font-family="Times Roman,serif" font-size="14.00">FriendlyId::Slug</text>
</g>
<!-- Program&#45;&gt;FriendlyId::Slug -->
<g id="edge2" class="edge"><title>Program&#45;&gt;FriendlyId::Slug</title>
<path fill="none" stroke="#ccf67f" d="M510.101,-715.348C495.831,-679.505 480.325,-640.561 470.182,-615.085"/>
<ellipse fill="none" stroke="#ccf67f" cx="511.619" cy="-719.16" rx="4.00001" ry="4.00001"/>
<polygon fill="#ccf67f" stroke="#ccf67f" points="470.141,-614.981 470.622,-604.026 468.291,-610.336 466.441,-605.69 466.441,-605.69 466.441,-605.69 468.291,-610.336 462.261,-607.355 470.141,-614.981 470.141,-614.981"/>
<text text-anchor="middle" x="521.5" y="-691.4" font-family="Times Roman,serif" font-size="14.00">slugs</text>
</g>
<!-- Bike -->
<g id="node3" class="node"><title>Bike</title>
<polyline fill="none" stroke="black" points="64.5,-235 217.5,-235 "/>
<path fill="none" stroke="black" d="M217.5,-235C223.5,-235 229.5,-241 229.5,-247"/>
<polyline fill="none" stroke="black" points="229.5,-247 229.5,-455 "/>
<path fill="none" stroke="black" d="M229.5,-455C229.5,-461 223.5,-467 217.5,-467"/>
<polyline fill="none" stroke="black" points="217.5,-467 64.5,-467 "/>
<path fill="none" stroke="black" d="M64.5,-467C58.5,-467 52.5,-461 52.5,-455"/>
<polyline fill="none" stroke="black" points="52.5,-455 52.5,-247 "/>
<path fill="none" stroke="black" d="M52.5,-247C52.5,-241 58.5,-235 64.5,-235"/>
<text text-anchor="middle" x="141" y="-450.4" font-family="Times Roman,serif" font-size="14.00">Bike</text>
<polyline fill="none" stroke="black" points="52.5,-441 229.5,-441 "/>
<text text-anchor="start" x="60.5" y="-424.4" font-family="Times Roman,serif" font-size="14.00">color :string</text>
<text text-anchor="start" x="60.5" y="-406.4" font-family="Times Roman,serif" font-size="14.00">value :float</text>
<text text-anchor="start" x="60.5" y="-388.4" font-family="Times Roman,serif" font-size="14.00">seat_tube_height :float</text>
<text text-anchor="start" x="60.5" y="-370.4" font-family="Times Roman,serif" font-size="14.00">top_tube_length :float</text>
<text text-anchor="start" x="60.5" y="-352.4" font-family="Times Roman,serif" font-size="14.00">created_at :datetime</text>
<text text-anchor="start" x="60.5" y="-334.4" font-family="Times Roman,serif" font-size="14.00">updated_at :datetime</text>
<text text-anchor="start" x="60.5" y="-316.4" font-family="Times Roman,serif" font-size="14.00">departed_at :datetime</text>
<text text-anchor="start" x="60.5" y="-298.4" font-family="Times Roman,serif" font-size="14.00">mfg :string</text>
<text text-anchor="start" x="60.5" y="-280.4" font-family="Times Roman,serif" font-size="14.00">model :string</text>
<text text-anchor="start" x="60.5" y="-262.4" font-family="Times Roman,serif" font-size="14.00">number :string</text>
<text text-anchor="start" x="60.5" y="-244.4" font-family="Times Roman,serif" font-size="14.00">location_state :string</text>
</g>
<!-- Hook -->
<g id="node11" class="node"><title>Hook</title>
<polyline fill="none" stroke="black" points="11.5,-46 152.5,-46 "/>
<path fill="none" stroke="black" d="M152.5,-46C158.5,-46 164.5,-52 164.5,-58"/>
<polyline fill="none" stroke="black" points="164.5,-58 164.5,-122 "/>
<path fill="none" stroke="black" d="M164.5,-122C164.5,-128 158.5,-134 152.5,-134"/>
<polyline fill="none" stroke="black" points="152.5,-134 11.5,-134 "/>
<path fill="none" stroke="black" d="M11.5,-134C5.5,-134 -0.5,-128 -0.5,-122"/>
<polyline fill="none" stroke="black" points="-0.5,-122 -0.5,-58 "/>
<path fill="none" stroke="black" d="M-0.5,-58C-0.5,-52 5.5,-46 11.5,-46"/>
<text text-anchor="middle" x="82" y="-117.4" font-family="Times Roman,serif" font-size="14.00">Hook</text>
<polyline fill="none" stroke="black" points="-0.5,-108 164.5,-108 "/>
<text text-anchor="start" x="7.5" y="-91.4" font-family="Times Roman,serif" font-size="14.00">number :string</text>
<text text-anchor="start" x="7.5" y="-73.4" font-family="Times Roman,serif" font-size="14.00">created_at :datetime</text>
<text text-anchor="start" x="7.5" y="-55.4" font-family="Times Roman,serif" font-size="14.00">updated_at :datetime</text>
</g>
<!-- Bike&#45;&gt;Hook -->
<g id="edge8" class="edge"><title>Bike&#45;&gt;Hook</title>
<path fill="none" stroke="#c2300d" d="M112.895,-226.672C106.17,-196.923 99.3484,-166.745 93.8318,-142.341"/>
<ellipse fill="none" stroke="#c2300d" cx="113.81" cy="-230.72" rx="4.00001" ry="4.00001"/>
<ellipse fill="#c2300d" stroke="#c2300d" cx="92.895" cy="-138.196" rx="4.00001" ry="4.00001"/>
</g>
<!-- Comment -->
<g id="node13" class="node"><title>Comment</title>
<polyline fill="none" stroke="black" points="194,-1 366,-1 "/>
<path fill="none" stroke="black" d="M366,-1C372,-1 378,-7 378,-13"/>
<polyline fill="none" stroke="black" points="378,-13 378,-167 "/>
<path fill="none" stroke="black" d="M378,-167C378,-173 372,-179 366,-179"/>
<polyline fill="none" stroke="black" points="366,-179 194,-179 "/>
<path fill="none" stroke="black" d="M194,-179C188,-179 182,-173 182,-167"/>
<polyline fill="none" stroke="black" points="182,-167 182,-13 "/>
<path fill="none" stroke="black" d="M182,-13C182,-7 188,-1 194,-1"/>
<text text-anchor="middle" x="280" y="-162.4" font-family="Times Roman,serif" font-size="14.00">Comment</text>
<polyline fill="none" stroke="black" points="182,-153 378,-153 "/>
<text text-anchor="start" x="190" y="-136.4" font-family="Times Roman,serif" font-size="14.00">commentable_type :string</text>
<text text-anchor="start" x="190" y="-118.4" font-family="Times Roman,serif" font-size="14.00">title :string</text>
<text text-anchor="start" x="190" y="-100.4" font-family="Times Roman,serif" font-size="14.00">body :text</text>
<text text-anchor="start" x="190" y="-82.4" font-family="Times Roman,serif" font-size="14.00">subject :string</text>
<text text-anchor="start" x="190" y="-64.4" font-family="Times Roman,serif" font-size="14.00">lft :integer</text>
<text text-anchor="start" x="190" y="-46.4" font-family="Times Roman,serif" font-size="14.00">rgt :integer</text>
<text text-anchor="start" x="190" y="-28.4" font-family="Times Roman,serif" font-size="14.00">created_at :datetime</text>
<text text-anchor="start" x="190" y="-10.4" font-family="Times Roman,serif" font-size="14.00">updated_at :datetime</text>
</g>
<!-- Bike&#45;&gt;Comment -->
<g id="edge6" class="edge"><title>Bike&#45;&gt;Comment</title>
<path fill="none" stroke="#5b6b1f" d="M130.796,-226.625C133.227,-216.574 136.847,-206.884 142,-198 149.994,-184.219 159.966,-189.162 173,-180 173.279,-179.804 173.559,-179.607 173.838,-179.409"/>
<ellipse fill="none" stroke="#5b6b1f" cx="129.914" cy="-230.839" rx="4.00001" ry="4.00001"/>
<polygon fill="#5b6b1f" stroke="#5b6b1f" points="173.866,-179.389 184.61,-177.193 177.923,-176.466 181.979,-173.542 181.979,-173.542 181.979,-173.542 177.923,-176.466 179.348,-169.892 173.866,-179.389 173.866,-179.389"/>
<text text-anchor="middle" x="204" y="-203.4" font-family="Times Roman,serif" font-size="14.00">comment_threads</text>
</g>
<!-- Project::Youth -->
<g id="node4" class="node"><title>Project::Youth</title>
<polyline fill="none" stroke="black" points="433.5,-271 592.5,-271 "/>
<path fill="none" stroke="black" d="M592.5,-271C598.5,-271 604.5,-277 604.5,-283"/>
<polyline fill="none" stroke="black" points="604.5,-283 604.5,-419 "/>
<path fill="none" stroke="black" d="M604.5,-419C604.5,-425 598.5,-431 592.5,-431"/>
<polyline fill="none" stroke="black" points="592.5,-431 433.5,-431 "/>
<path fill="none" stroke="black" d="M433.5,-431C427.5,-431 421.5,-425 421.5,-419"/>
<polyline fill="none" stroke="black" points="421.5,-419 421.5,-283 "/>
<path fill="none" stroke="black" d="M421.5,-283C421.5,-277 427.5,-271 433.5,-271"/>
<text text-anchor="middle" x="513" y="-414.4" font-family="Times Roman,serif" font-size="14.00">Project::Youth</text>
<polyline fill="none" stroke="black" points="421.5,-405 604.5,-405 "/>
<text text-anchor="start" x="429.5" y="-388.4" font-family="Times Roman,serif" font-size="14.00">prog_type :string</text>
<text text-anchor="start" x="429.5" y="-370.4" font-family="Times Roman,serif" font-size="14.00">label :string</text>
<text text-anchor="start" x="429.5" y="-352.4" font-family="Times Roman,serif" font-size="14.00">created_at :datetime</text>
<text text-anchor="start" x="429.5" y="-334.4" font-family="Times Roman,serif" font-size="14.00">updated_at :datetime</text>
<text text-anchor="start" x="429.5" y="-316.4" font-family="Times Roman,serif" font-size="14.00">closed_at :datetime</text>
<text text-anchor="start" x="429.5" y="-298.4" font-family="Times Roman,serif" font-size="14.00">state :string</text>
<text text-anchor="start" x="429.5" y="-280.4" font-family="Times Roman,serif" font-size="14.00">completion_state :string</text>
</g>
<!-- Project::YouthDetail -->
<g id="node9" class="node"><title>Project::YouthDetail</title>
<polyline fill="none" stroke="black" points="523.5,-37 664.5,-37 "/>
<path fill="none" stroke="black" d="M664.5,-37C670.5,-37 676.5,-43 676.5,-49"/>
<polyline fill="none" stroke="black" points="676.5,-49 676.5,-131 "/>
<path fill="none" stroke="black" d="M676.5,-131C676.5,-137 670.5,-143 664.5,-143"/>
<polyline fill="none" stroke="black" points="664.5,-143 523.5,-143 "/>
<path fill="none" stroke="black" d="M523.5,-143C517.5,-143 511.5,-137 511.5,-131"/>
<polyline fill="none" stroke="black" points="511.5,-131 511.5,-49 "/>
<path fill="none" stroke="black" d="M511.5,-49C511.5,-43 517.5,-37 523.5,-37"/>
<text text-anchor="middle" x="594" y="-126.4" font-family="Times Roman,serif" font-size="14.00">Project::YouthDetail</text>
<polyline fill="none" stroke="black" points="511.5,-117 676.5,-117 "/>
<text text-anchor="start" x="519.5" y="-100.4" font-family="Times Roman,serif" font-size="14.00">proj_type :string</text>
<text text-anchor="start" x="519.5" y="-82.4" font-family="Times Roman,serif" font-size="14.00">state :string</text>
<text text-anchor="start" x="519.5" y="-64.4" font-family="Times Roman,serif" font-size="14.00">created_at :datetime</text>
<text text-anchor="start" x="519.5" y="-46.4" font-family="Times Roman,serif" font-size="14.00">updated_at :datetime</text>
</g>
<!-- Project::Youth&#45;&gt;Project::YouthDetail -->
<g id="edge10" class="edge"><title>Project::Youth&#45;&gt;Project::YouthDetail</title>
<path fill="none" stroke="#30c716" d="M540.296,-263.046C551.725,-226.219 564.73,-184.316 575.079,-150.968"/>
<ellipse fill="none" stroke="#30c716" cx="539.039" cy="-267.097" rx="4.00001" ry="4.00001"/>
<ellipse fill="#30c716" stroke="#30c716" cx="576.329" cy="-146.94" rx="4.00001" ry="4.00001"/>
<text text-anchor="middle" x="577.5" y="-203.4" font-family="Times Roman,serif" font-size="14.00">detail</text>
</g>
<!-- Project::Scrap -->
<g id="node5" class="node"><title>Project::Scrap</title>
<polyline fill="none" stroke="black" points="1001.5,-271 1160.5,-271 "/>
<path fill="none" stroke="black" d="M1160.5,-271C1166.5,-271 1172.5,-277 1172.5,-283"/>
<polyline fill="none" stroke="black" points="1172.5,-283 1172.5,-419 "/>
<path fill="none" stroke="black" d="M1172.5,-419C1172.5,-425 1166.5,-431 1160.5,-431"/>
<polyline fill="none" stroke="black" points="1160.5,-431 1001.5,-431 "/>
<path fill="none" stroke="black" d="M1001.5,-431C995.5,-431 989.5,-425 989.5,-419"/>
<polyline fill="none" stroke="black" points="989.5,-419 989.5,-283 "/>
<path fill="none" stroke="black" d="M989.5,-283C989.5,-277 995.5,-271 1001.5,-271"/>
<text text-anchor="middle" x="1081" y="-414.4" font-family="Times Roman,serif" font-size="14.00">Project::Scrap</text>
<polyline fill="none" stroke="black" points="989.5,-405 1172.5,-405 "/>
<text text-anchor="start" x="997.5" y="-388.4" font-family="Times Roman,serif" font-size="14.00">prog_type :string</text>
<text text-anchor="start" x="997.5" y="-370.4" font-family="Times Roman,serif" font-size="14.00">label :string</text>
<text text-anchor="start" x="997.5" y="-352.4" font-family="Times Roman,serif" font-size="14.00">created_at :datetime</text>
<text text-anchor="start" x="997.5" y="-334.4" font-family="Times Roman,serif" font-size="14.00">updated_at :datetime</text>
<text text-anchor="start" x="997.5" y="-316.4" font-family="Times Roman,serif" font-size="14.00">closed_at :datetime</text>
<text text-anchor="start" x="997.5" y="-298.4" font-family="Times Roman,serif" font-size="14.00">state :string</text>
<text text-anchor="start" x="997.5" y="-280.4" font-family="Times Roman,serif" font-size="14.00">completion_state :string</text>
</g>
<!-- Project::ScrapDetail -->
<g id="node8" class="node"><title>Project::ScrapDetail</title>
<polyline fill="none" stroke="black" points="943.5,-28 1084.5,-28 "/>
<path fill="none" stroke="black" d="M1084.5,-28C1090.5,-28 1096.5,-34 1096.5,-40"/>
<polyline fill="none" stroke="black" points="1096.5,-40 1096.5,-140 "/>
<path fill="none" stroke="black" d="M1096.5,-140C1096.5,-146 1090.5,-152 1084.5,-152"/>
<polyline fill="none" stroke="black" points="1084.5,-152 943.5,-152 "/>
<path fill="none" stroke="black" d="M943.5,-152C937.5,-152 931.5,-146 931.5,-140"/>
<polyline fill="none" stroke="black" points="931.5,-140 931.5,-40 "/>
<path fill="none" stroke="black" d="M931.5,-40C931.5,-34 937.5,-28 943.5,-28"/>
<text text-anchor="middle" x="1014" y="-135.4" font-family="Times Roman,serif" font-size="14.00">Project::ScrapDetail</text>
<polyline fill="none" stroke="black" points="931.5,-126 1096.5,-126 "/>
<text text-anchor="start" x="939.5" y="-109.4" font-family="Times Roman,serif" font-size="14.00">proj_type :string</text>
<text text-anchor="start" x="939.5" y="-91.4" font-family="Times Roman,serif" font-size="14.00">state :string</text>
<text text-anchor="start" x="939.5" y="-73.4" font-family="Times Roman,serif" font-size="14.00">description :string</text>
<text text-anchor="start" x="939.5" y="-55.4" font-family="Times Roman,serif" font-size="14.00">created_at :datetime</text>
<text text-anchor="start" x="939.5" y="-37.4" font-family="Times Roman,serif" font-size="14.00">updated_at :datetime</text>
</g>
<!-- Project::Scrap&#45;&gt;Project::ScrapDetail -->
<g id="edge14" class="edge"><title>Project::Scrap&#45;&gt;Project::ScrapDetail</title>
<path fill="none" stroke="#07a95e" d="M1058.35,-262.762C1049.75,-229.261 1040.08,-191.593 1031.97,-160.001"/>
<ellipse fill="none" stroke="#07a95e" cx="1059.45" cy="-267.043" rx="4.00001" ry="4.00001"/>
<ellipse fill="#07a95e" stroke="#07a95e" cx="1030.94" cy="-155.981" rx="4.00001" ry="4.00001"/>
<text text-anchor="middle" x="1064.5" y="-203.4" font-family="Times Roman,serif" font-size="14.00">detail</text>
</g>
<!-- Project::Eab -->
<g id="node6" class="node"><title>Project::Eab</title>
<polyline fill="none" stroke="black" points="801.5,-271 960.5,-271 "/>
<path fill="none" stroke="black" d="M960.5,-271C966.5,-271 972.5,-277 972.5,-283"/>
<polyline fill="none" stroke="black" points="972.5,-283 972.5,-419 "/>
<path fill="none" stroke="black" d="M972.5,-419C972.5,-425 966.5,-431 960.5,-431"/>
<polyline fill="none" stroke="black" points="960.5,-431 801.5,-431 "/>
<path fill="none" stroke="black" d="M801.5,-431C795.5,-431 789.5,-425 789.5,-419"/>
<polyline fill="none" stroke="black" points="789.5,-419 789.5,-283 "/>
<path fill="none" stroke="black" d="M789.5,-283C789.5,-277 795.5,-271 801.5,-271"/>
<text text-anchor="middle" x="881" y="-414.4" font-family="Times Roman,serif" font-size="14.00">Project::Eab</text>
<polyline fill="none" stroke="black" points="789.5,-405 972.5,-405 "/>
<text text-anchor="start" x="797.5" y="-388.4" font-family="Times Roman,serif" font-size="14.00">prog_type :string</text>
<text text-anchor="start" x="797.5" y="-370.4" font-family="Times Roman,serif" font-size="14.00">label :string</text>
<text text-anchor="start" x="797.5" y="-352.4" font-family="Times Roman,serif" font-size="14.00">created_at :datetime</text>
<text text-anchor="start" x="797.5" y="-334.4" font-family="Times Roman,serif" font-size="14.00">updated_at :datetime</text>
<text text-anchor="start" x="797.5" y="-316.4" font-family="Times Roman,serif" font-size="14.00">closed_at :datetime</text>
<text text-anchor="start" x="797.5" y="-298.4" font-family="Times Roman,serif" font-size="14.00">state :string</text>
<text text-anchor="start" x="797.5" y="-280.4" font-family="Times Roman,serif" font-size="14.00">completion_state :string</text>
</g>
<!-- Project::EabDetail -->
<g id="node7" class="node"><title>Project::EabDetail</title>
<polyline fill="none" stroke="black" points="735.5,-28 876.5,-28 "/>
<path fill="none" stroke="black" d="M876.5,-28C882.5,-28 888.5,-34 888.5,-40"/>
<polyline fill="none" stroke="black" points="888.5,-40 888.5,-140 "/>
<path fill="none" stroke="black" d="M888.5,-140C888.5,-146 882.5,-152 876.5,-152"/>
<polyline fill="none" stroke="black" points="876.5,-152 735.5,-152 "/>
<path fill="none" stroke="black" d="M735.5,-152C729.5,-152 723.5,-146 723.5,-140"/>
<polyline fill="none" stroke="black" points="723.5,-140 723.5,-40 "/>
<path fill="none" stroke="black" d="M723.5,-40C723.5,-34 729.5,-28 735.5,-28"/>
<text text-anchor="middle" x="806" y="-135.4" font-family="Times Roman,serif" font-size="14.00">Project::EabDetail</text>
<polyline fill="none" stroke="black" points="723.5,-126 888.5,-126 "/>
<text text-anchor="start" x="731.5" y="-109.4" font-family="Times Roman,serif" font-size="14.00">proj_type :string</text>
<text text-anchor="start" x="731.5" y="-91.4" font-family="Times Roman,serif" font-size="14.00">state :string</text>
<text text-anchor="start" x="731.5" y="-73.4" font-family="Times Roman,serif" font-size="14.00">status_state :string</text>
<text text-anchor="start" x="731.5" y="-55.4" font-family="Times Roman,serif" font-size="14.00">created_at :datetime</text>
<text text-anchor="start" x="731.5" y="-37.4" font-family="Times Roman,serif" font-size="14.00">updated_at :datetime</text>
</g>
<!-- Project::Eab&#45;&gt;Project::EabDetail -->
<g id="edge18" class="edge"><title>Project::Eab&#45;&gt;Project::EabDetail</title>
<path fill="none" stroke="#11e0ec" d="M855.776,-263.22C846.12,-229.616 835.243,-191.764 826.125,-160.035"/>
<ellipse fill="none" stroke="#11e0ec" cx="856.883" cy="-267.073" rx="4.00001" ry="4.00001"/>
<ellipse fill="#11e0ec" stroke="#11e0ec" cx="824.951" cy="-155.951" rx="4.00001" ry="4.00001"/>
<text text-anchor="middle" x="860.5" y="-203.4" font-family="Times Roman,serif" font-size="14.00">detail</text>
</g>
<!-- ProjectDetail -->
<g id="node10" class="node"><title>ProjectDetail</title>
<ellipse fill="none" stroke="black" cx="697" cy="-351" rx="74.9533" ry="18.3848"/>
<text text-anchor="middle" x="697" y="-347.4" font-family="Times Roman,serif" font-size="14.00">ProjectDetail</text>
</g>
<!-- ProjectDetail&#45;&gt;Project::EabDetail -->
<g id="edge22" class="edge"><title>ProjectDetail&#45;&gt;Project::EabDetail</title>
<path fill="none" stroke="black" d="M704.839,-332.23C720.337,-295.119 755.515,-210.886 780.005,-152.244"/>
</g>
<!-- ProjectDetail&#45;&gt;Project::ScrapDetail -->
<g id="edge24" class="edge"><title>ProjectDetail&#45;&gt;Project::ScrapDetail</title>
<path fill="none" stroke="black" d="M704.735,-332.515C716.837,-306.052 742.879,-257.93 781,-234 820.359,-209.293 842.597,-237.104 884,-216 914.243,-200.585 942.106,-175.751 964.214,-152.189"/>
</g>
<!-- ProjectDetail&#45;&gt;Project::YouthDetail -->
<g id="edge26" class="edge"><title>ProjectDetail&#45;&gt;Project::YouthDetail</title>
<path fill="none" stroke="black" d="M689.592,-332.23C674.163,-293.132 638.093,-201.73 614.938,-143.056"/>
</g>
<!-- User -->
<g id="node12" class="node"><title>User</title>
<polyline fill="none" stroke="black" points="740,-923 970,-923 "/>
<path fill="none" stroke="black" d="M970,-923C976,-923 982,-929 982,-935"/>
<polyline fill="none" stroke="black" points="982,-935 982,-1143 "/>
<path fill="none" stroke="black" d="M982,-1143C982,-1149 976,-1155 970,-1155"/>
<polyline fill="none" stroke="black" points="970,-1155 740,-1155 "/>
<path fill="none" stroke="black" d="M740,-1155C734,-1155 728,-1149 728,-1143"/>
<polyline fill="none" stroke="black" points="728,-1143 728,-935 "/>
<path fill="none" stroke="black" d="M728,-935C728,-929 734,-923 740,-923"/>
<text text-anchor="middle" x="855" y="-1138.4" font-family="Times Roman,serif" font-size="14.00">User</text>
<polyline fill="none" stroke="black" points="728,-1129 982,-1129 "/>
<text text-anchor="start" x="736" y="-1112.4" font-family="Times Roman,serif" font-size="14.00">email :string</text>
<text text-anchor="start" x="736" y="-1094.4" font-family="Times Roman,serif" font-size="14.00">encrypted_password :string</text>
<text text-anchor="start" x="736" y="-1076.4" font-family="Times Roman,serif" font-size="14.00">reset_password_token :string</text>
<text text-anchor="start" x="736" y="-1058.4" font-family="Times Roman,serif" font-size="14.00">reset_password_sent_at :datetime</text>
<text text-anchor="start" x="736" y="-1040.4" font-family="Times Roman,serif" font-size="14.00">remember_created_at :datetime</text>
<text text-anchor="start" x="736" y="-1022.4" font-family="Times Roman,serif" font-size="14.00">current_sign_in_at :datetime</text>
<text text-anchor="start" x="736" y="-1004.4" font-family="Times Roman,serif" font-size="14.00">last_sign_in_at :datetime</text>
<text text-anchor="start" x="736" y="-986.4" font-family="Times Roman,serif" font-size="14.00">current_sign_in_ip :string</text>
<text text-anchor="start" x="736" y="-968.4" font-family="Times Roman,serif" font-size="14.00">last_sign_in_ip :string</text>
<text text-anchor="start" x="736" y="-950.4" font-family="Times Roman,serif" font-size="14.00">created_at :datetime</text>
<text text-anchor="start" x="736" y="-932.4" font-family="Times Roman,serif" font-size="14.00">updated_at :datetime</text>
</g>
<!-- Comment&#45;&gt;Comment -->
<g id="edge28" class="edge"><title>Comment&#45;&gt;Comment</title>
<path fill="none" stroke="#309bf2" d="M385.931,-104.972C392.227,-101.396 396,-96.4057 396,-90 396,-84.1395 392.842,-79.4633 387.483,-75.9714"/>
<ellipse fill="none" stroke="#309bf2" cx="381.845" cy="-106.722" rx="4.00001" ry="4.00001"/>
<polygon fill="#309bf2" stroke="#309bf2" points="387.259,-75.8688 380.042,-67.6119 382.713,-73.7858 378.168,-71.7029 378.168,-71.7029 378.168,-71.7029 382.713,-73.7858 376.293,-75.7938 387.259,-75.8688 387.259,-75.8688"/>
<text text-anchor="middle" x="423.5" y="-86.4" font-family="Times Roman,serif" font-size="14.00">children</text>
</g>
<!-- Project&#45;&gt;Bike -->
<g id="edge30" class="edge"><title>Project&#45;&gt;Bike</title>
<path fill="none" stroke="#4d1333" d="M555.79,-506.311C555.527,-506.206 555.263,-506.103 555,-506 495.043,-482.641 324.033,-515.796 266,-488 255.501,-482.971 245.474,-476.63 235.995,-469.448"/>
<ellipse fill="none" stroke="#4d1333" cx="559.701" cy="-508.007" rx="4.00002" ry="4.00002"/>
<ellipse fill="#4d1333" stroke="#4d1333" cx="232.664" cy="-466.822" rx="4.00002" ry="4.00002"/>
</g>
<!-- Project&#45;&gt;Project::Youth -->
<g id="edge12" class="edge"><title>Project&#45;&gt;Project::Youth</title>
<path fill="none" stroke="black" d="M606.727,-506.772C592.013,-482.318 575.844,-455.445 561.139,-431.006"/>
</g>
<!-- Project&#45;&gt;Project::Scrap -->
<g id="edge16" class="edge"><title>Project&#45;&gt;Project::Scrap</title>
<path fill="none" stroke="black" d="M746.671,-567.007C815.489,-548.942 909.728,-517.474 981,-468 995.817,-457.715 1009.77,-444.719 1022.29,-431.158"/>
</g>
<!-- Project&#45;&gt;Project::Eab -->
<g id="edge20" class="edge"><title>Project&#45;&gt;Project::Eab</title>
<path fill="none" stroke="black" d="M742.267,-506.896C755.473,-494.114 768.762,-480.86 781,-468 792.052,-456.386 803.417,-443.788 814.34,-431.307"/>
</g>
<!-- Project&#45;&gt;Comment -->
<g id="edge34" class="edge"><title>Project&#45;&gt;Comment</title>
<path fill="none" stroke="#5649c3" d="M555.777,-506.342C555.518,-506.227 555.259,-506.113 555,-506 500.27,-482.124 328.657,-512.64 289,-468 253.683,-428.245 259.464,-287.409 268.468,-189.358"/>
<ellipse fill="none" stroke="#5649c3" cx="559.635" cy="-508.179" rx="4.00002" ry="4.00002"/>
<polygon fill="#5649c3" stroke="#5649c3" points="268.495,-189.071 273.915,-179.538 268.965,-184.093 269.435,-179.116 269.435,-179.116 269.435,-179.116 268.965,-184.093 264.955,-178.693 268.495,-189.071 268.495,-189.071"/>
<text text-anchor="middle" x="351" y="-347.4" font-family="Times Roman,serif" font-size="14.00">comment_threads</text>
</g>
<!-- Detail -->
<g id="node33" class="node"><title>Detail</title>
<ellipse fill="none" stroke="black" cx="1231" cy="-351" rx="41.0122" ry="18.3848"/>
<text text-anchor="middle" x="1231" y="-347.4" font-family="Times Roman,serif" font-size="14.00">Detail</text>
</g>
<!-- Project&#45;&gt;Detail -->
<g id="edge32" class="edge"><title>Project&#45;&gt;Detail</title>
<path fill="none" stroke="#d130bb" d="M754.963,-575.309C888.893,-557.845 1117.15,-521.204 1181,-468 1208.41,-445.16 1221.14,-404.565 1226.8,-377.713"/>
<ellipse fill="none" stroke="#d130bb" cx="750.644" cy="-575.868" rx="4.00001" ry="4.00001"/>
<ellipse fill="#d130bb" stroke="#d130bb" cx="1227.63" cy="-373.443" rx="4.00001" ry="4.00001"/>
</g>
<!-- ProjectCategory -->
<g id="node15" class="node"><title>ProjectCategory</title>
<polyline fill="none" stroke="black" points="546,-968 698,-968 "/>
<path fill="none" stroke="black" d="M698,-968C704,-968 710,-974 710,-980"/>
<polyline fill="none" stroke="black" points="710,-980 710,-1098 "/>
<path fill="none" stroke="black" d="M710,-1098C710,-1104 704,-1110 698,-1110"/>
<polyline fill="none" stroke="black" points="698,-1110 546,-1110 "/>
<path fill="none" stroke="black" d="M546,-1110C540,-1110 534,-1104 534,-1098"/>
<polyline fill="none" stroke="black" points="534,-1098 534,-980 "/>
<path fill="none" stroke="black" d="M534,-980C534,-974 540,-968 546,-968"/>
<text text-anchor="middle" x="622" y="-1093.4" font-family="Times Roman,serif" font-size="14.00">ProjectCategory</text>
<polyline fill="none" stroke="black" points="534,-1084 710,-1084 "/>
<text text-anchor="start" x="542" y="-1067.4" font-family="Times Roman,serif" font-size="14.00">name :string</text>
<text text-anchor="start" x="542" y="-1049.4" font-family="Times Roman,serif" font-size="14.00">project_type :string</text>
<text text-anchor="start" x="542" y="-1031.4" font-family="Times Roman,serif" font-size="14.00">max_programs :integer</text>
<text text-anchor="start" x="542" y="-1013.4" font-family="Times Roman,serif" font-size="14.00">slug :string</text>
<text text-anchor="start" x="542" y="-995.4" font-family="Times Roman,serif" font-size="14.00">created_at :datetime</text>
<text text-anchor="start" x="542" y="-977.4" font-family="Times Roman,serif" font-size="14.00">updated_at :datetime</text>
</g>
<!-- ProjectCategory&#45;&gt;Program -->
<g id="edge38" class="edge"><title>ProjectCategory&#45;&gt;Program</title>
<path fill="none" stroke="#0a44d2" d="M596.308,-960.257C589.252,-938.631 581.549,-915.019 574.306,-892.82"/>
<ellipse fill="none" stroke="#0a44d2" cx="597.552" cy="-964.069" rx="4.00001" ry="4.00001"/>
<polygon fill="#0a44d2" stroke="#0a44d2" points="574.226,-892.576 575.402,-881.673 572.675,-887.823 571.124,-883.069 571.124,-883.069 571.124,-883.069 572.675,-887.823 566.846,-884.465 574.226,-892.576 574.226,-892.576"/>
</g>
<!-- ProjectCategory&#45;&gt;Project -->
<g id="edge36" class="edge"><title>ProjectCategory&#45;&gt;Project</title>
<path fill="none" stroke="#3d8949" d="M629.58,-959.537C631.784,-935.299 634.105,-908.566 636,-884 641.353,-814.606 646.333,-736.007 649.851,-677.105"/>
<ellipse fill="none" stroke="#3d8949" cx="629.202" cy="-963.671" rx="4" ry="4"/>
<polygon fill="#3d8949" stroke="#3d8949" points="649.853,-677.068 654.939,-667.352 650.15,-672.076 650.446,-667.085 650.446,-667.085 650.446,-667.085 650.15,-672.076 645.954,-666.818 649.853,-677.068 649.853,-677.068"/>
</g>
</g>
</svg>
