<?xml version="1.0" encoding="UTF-8" standalone="no"?>
<!DOCTYPE svg PUBLIC "-//W3C//DTD SVG 1.1//EN"
 "http://www.w3.org/Graphics/SVG/1.1/DTD/svg11.dtd">
<!-- Generated by graphviz version 2.26.3 (20100126.1600)
 -->
<!-- Title: models_diagram Pages: 1 -->
<svg width="888pt" height="378pt"
 viewBox="0.00 0.00 888.00 378.00" xmlns="http://www.w3.org/2000/svg" xmlns:xlink="http://www.w3.org/1999/xlink">
<g id="graph1" class="graph" transform="scale(1 1) rotate(0) translate(4 374)">
<title>models_diagram</title>
<polygon fill="white" stroke="white" points="-4,5 -4,-374 885,-374 885,5 -4,5"/>
<!-- _diagram_info -->
<g id="node1" class="node"><title>_diagram_info</title>
<text text-anchor="start" x="8" y="-353.8" font-family="Times Roman,serif" font-size="13.00">Models diagram</text>
<text text-anchor="start" x="8" y="-336.8" font-family="Times Roman,serif" font-size="13.00">Date: Mar 21 2012 &#45; 09:10</text>
<text text-anchor="start" x="8" y="-319.8" font-family="Times Roman,serif" font-size="13.00">Migration version: 20120321122710</text>
<text text-anchor="start" x="8" y="-302.8" font-family="Times Roman,serif" font-size="13.00">Generated by RailRoady 1.0.4</text>
<text text-anchor="start" x="8" y="-285.8" font-family="Times Roman,serif" font-size="13.00">http://railroady.prestonlee.com</text>
</g>
<!-- Program -->
<g id="node2" class="node"><title>Program</title>
<ellipse fill="none" stroke="black" cx="321" cy="-323" rx="53.033" ry="18.3848"/>
<text text-anchor="middle" x="321" y="-319.4" font-family="Times Roman,serif" font-size="14.00">Program</text>
</g>
<!-- Project -->
<g id="node12" class="node"><title>Project</title>
<ellipse fill="none" stroke="black" cx="477" cy="-203" rx="45.9619" ry="18.3848"/>
<text text-anchor="middle" x="477" y="-199.4" font-family="Times Roman,serif" font-size="14.00">Project</text>
</g>
<!-- Program&#45;&gt;Project -->
<g id="edge4" class="edge"><title>Program&#45;&gt;Project</title>
<path fill="none" stroke="black" d="M349.655,-300.958C377.4,-279.616 419.278,-247.402 447.354,-225.805"/>
<ellipse fill="none" stroke="black" cx="346.191" cy="-303.623" rx="4.00002" ry="4.00002"/>
<polygon fill="black" stroke="black" points="447.666,-225.564 458.336,-223.034 451.63,-222.516 455.593,-219.467 455.593,-219.467 455.593,-219.467 451.63,-222.516 452.849,-215.9 447.666,-225.564 447.666,-225.564"/>
</g>
<!-- FriendlyId::Slug -->
<g id="node15" class="node"><title>FriendlyId::Slug</title>
<ellipse fill="none" stroke="black" cx="321" cy="-203" rx="86.9741" ry="18.3848"/>
<text text-anchor="middle" x="321" y="-199.4" font-family="Times Roman,serif" font-size="14.00">FriendlyId::Slug</text>
</g>
<!-- Program&#45;&gt;FriendlyId::Slug -->
<g id="edge2" class="edge"><title>Program&#45;&gt;FriendlyId::Slug</title>
<path fill="none" stroke="black" d="M321,-296.053C321,-276.923 321,-251.278 321,-231.755"/>
<ellipse fill="none" stroke="black" cx="321" cy="-300.25" rx="4" ry="4"/>
<polygon fill="black" stroke="black" points="321,-231.618 325.5,-221.618 321,-226.618 321,-221.618 321,-221.618 321,-221.618 321,-226.618 316.5,-221.618 321,-231.618 321,-231.618"/>
<text text-anchor="middle" x="338.5" y="-245.4" font-family="Times Roman,serif" font-size="14.00">slugs</text>
</g>
<!-- Bike -->
<g id="node3" class="node"><title>Bike</title>
<ellipse fill="none" stroke="black" cx="638" cy="-323" rx="32.0265" ry="18.3848"/>
<text text-anchor="middle" x="638" y="-319.4" font-family="Times Roman,serif" font-size="14.00">Bike</text>
</g>
<!-- Hook -->
<g id="node9" class="node"><title>Hook</title>
<ellipse fill="none" stroke="black" cx="817" cy="-203" rx="36.7696" ry="18.3848"/>
<text text-anchor="middle" x="817" y="-199.4" font-family="Times Roman,serif" font-size="14.00">Hook</text>
</g>
<!-- Bike&#45;&gt;Hook -->
<g id="edge8" class="edge"><title>Bike&#45;&gt;Hook</title>
<path fill="none" stroke="black" d="M655.981,-299.026C662.654,-291.097 670.645,-282.619 679,-276 710.3,-251.201 751.282,-230.768 780.433,-217.888"/>
<ellipse fill="none" stroke="black" cx="653.233" cy="-302.402" rx="4.00002" ry="4.00002"/>
<ellipse fill="black" stroke="black" cx="784.282" cy="-216.214" rx="4.00002" ry="4.00002"/>
</g>
<!-- Comment -->
<g id="node11" class="node"><title>Comment</title>
<ellipse fill="none" stroke="black" cx="634" cy="-111" rx="58.1882" ry="18.3848"/>
<text text-anchor="middle" x="634" y="-107.4" font-family="Times Roman,serif" font-size="14.00">Comment</text>
</g>
<!-- Bike&#45;&gt;Comment -->
<g id="edge6" class="edge"><title>Bike&#45;&gt;Comment</title>
<path fill="none" stroke="black" d="M637.491,-296.039C636.736,-255.995 635.323,-181.114 634.546,-139.95"/>
<ellipse fill="none" stroke="black" cx="637.57" cy="-300.187" rx="4" ry="4"/>
<polygon fill="black" stroke="black" points="634.543,-139.77 638.853,-129.686 634.449,-134.771 634.354,-129.771 634.354,-129.771 634.354,-129.771 634.449,-134.771 629.855,-129.856 634.543,-139.77 634.543,-139.77"/>
<text text-anchor="middle" x="698" y="-199.4" font-family="Times Roman,serif" font-size="14.00">comment_threads</text>
</g>
<!-- Bike&#45;&gt;Project -->
<g id="edge10" class="edge"><title>Bike&#45;&gt;Project</title>
<path fill="none" stroke="black" d="M613.775,-302.326C603.769,-293.971 591.966,-284.35 581,-276 556.874,-257.63 528.672,-237.94 507.727,-223.645"/>
<ellipse fill="none" stroke="black" cx="617" cy="-305.034" rx="4.00002" ry="4.00002"/>
<ellipse fill="black" stroke="black" cx="504.226" cy="-221.263" rx="4.00002" ry="4.00002"/>
</g>
<!-- Project::Youth -->
<g id="node4" class="node"><title>Project::Youth</title>
<ellipse fill="none" stroke="black" cx="470" cy="-111" rx="79.9031" ry="18.3848"/>
<text text-anchor="middle" x="470" y="-107.4" font-family="Times Roman,serif" font-size="14.00">Project::Youth</text>
</g>
<!-- Project::Spec::Youth -->
<g id="node5" class="node"><title>Project::Spec::Youth</title>
<ellipse fill="none" stroke="black" cx="484" cy="-19" rx="109.101" ry="18.3848"/>
<text text-anchor="middle" x="484" y="-15.4" font-family="Times Roman,serif" font-size="14.00">Project::Spec::Youth</text>
</g>
<!-- Project::Youth&#45;&gt;Project::Spec::Youth -->
<g id="edge12" class="edge"><title>Project::Youth&#45;&gt;Project::Spec::Youth</title>
<path fill="none" stroke="black" d="M474.041,-84.4467C475.896,-72.2543 478.091,-57.828 479.948,-45.6267"/>
<ellipse fill="none" stroke="black" cx="473.435" cy="-88.428" rx="4.00001" ry="4.00001"/>
<ellipse fill="black" stroke="black" cx="480.569" cy="-41.5444" rx="4.00001" ry="4.00001"/>
<text text-anchor="middle" x="493.5" y="-61.4" font-family="Times Roman,serif" font-size="14.00">spec</text>
</g>
<!-- Project::Spec::Eab -->
<g id="node6" class="node"><title>Project::Spec::Eab</title>
<ellipse fill="none" stroke="black" cx="258" cy="-19" rx="98.9949" ry="18.3848"/>
<text text-anchor="middle" x="258" y="-15.4" font-family="Times Roman,serif" font-size="14.00">Project::Spec::Eab</text>
</g>
<!-- Project::Spec -->
<g id="node7" class="node"><title>Project::Spec</title>
<polygon fill="none" stroke="black" stroke-dasharray="1,5" points="794,-341 688,-341 688,-305 794,-305 794,-341"/>
<text text-anchor="middle" x="741" y="-319.4" font-family="Times Roman,serif" font-size="14.00">Project::Spec</text>
</g>
<!-- Project::Eab -->
<g id="node8" class="node"><title>Project::Eab</title>
<ellipse fill="none" stroke="black" cx="287" cy="-111" rx="70.0036" ry="18.3848"/>
<text text-anchor="middle" x="287" y="-107.4" font-family="Times Roman,serif" font-size="14.00">Project::Eab</text>
</g>
<!-- Project::Eab&#45;&gt;Project::Spec::Eab -->
<g id="edge16" class="edge"><title>Project::Eab&#45;&gt;Project::Spec::Eab</title>
<path fill="none" stroke="black" d="M278.63,-84.4467C274.75,-72.1371 270.152,-57.5504 266.282,-45.2753"/>
<ellipse fill="none" stroke="black" cx="279.929" cy="-88.5675" rx="4.00001" ry="4.00001"/>
<ellipse fill="black" stroke="black" cx="265.062" cy="-41.4048" rx="4.00001" ry="4.00001"/>
<text text-anchor="middle" x="290.5" y="-61.4" font-family="Times Roman,serif" font-size="14.00">spec</text>
</g>
<!-- User -->
<g id="node10" class="node"><title>User</title>
<ellipse fill="none" stroke="black" cx="846" cy="-323" rx="33.9411" ry="18.3848"/>
<text text-anchor="middle" x="846" y="-319.4" font-family="Times Roman,serif" font-size="14.00">User</text>
</g>
<!-- Comment&#45;&gt;Comment -->
<g id="edge20" class="edge"><title>Comment&#45;&gt;Comment</title>
<path fill="none" stroke="black" d="M693.51,-118.989C703.28,-117.851 710,-115.188 710,-111 710,-107.099 704.17,-104.522 695.477,-103.267"/>
<ellipse fill="none" stroke="black" cx="689.496" cy="-119.276" rx="4" ry="4"/>
<polygon fill="black" stroke="black" points="695.472,-103.267 685.878,-97.9541 690.489,-102.853 685.506,-102.439 685.506,-102.439 685.506,-102.439 690.489,-102.853 685.133,-106.923 695.472,-103.267 695.472,-103.267"/>
<text text-anchor="middle" x="737.5" y="-107.4" font-family="Times Roman,serif" font-size="14.00">children</text>
</g>
<!-- Project&#45;&gt;Project::Youth -->
<g id="edge14" class="edge"><title>Project&#45;&gt;Project::Youth</title>
<path fill="none" stroke="black" d="M475.583,-184.382C474.369,-168.421 472.628,-145.543 471.414,-129.59"/>
</g>
<!-- Project&#45;&gt;Project::Eab -->
<g id="edge18" class="edge"><title>Project&#45;&gt;Project::Eab</title>
<path fill="none" stroke="black" d="M447.312,-188.625C412.975,-171.998 356.572,-144.688 320.64,-127.289"/>
</g>
<!-- Project&#45;&gt;Comment -->
<g id="edge22" class="edge"><title>Project&#45;&gt;Comment</title>
<path fill="none" stroke="black" d="M482.753,-176.544C486.197,-166.352 491.604,-155.395 500,-148 503.177,-145.202 543.124,-134.357 578.581,-125.126"/>
<ellipse fill="none" stroke="black" cx="481.533" cy="-180.637" rx="4.00001" ry="4.00001"/>
<polygon fill="black" stroke="black" points="578.748,-125.082 589.557,-126.929 583.588,-123.828 588.428,-122.573 588.428,-122.573 588.428,-122.573 583.588,-123.828 587.299,-118.217 578.748,-125.082 578.748,-125.082"/>
<text text-anchor="middle" x="562" y="-153.4" font-family="Times Roman,serif" font-size="14.00">comment_threads</text>
</g>
<!-- ProjectCategory -->
<g id="node13" class="node"><title>ProjectCategory</title>
<ellipse fill="none" stroke="black" cx="482" cy="-323" rx="90.0096" ry="18.3848"/>
<text text-anchor="middle" x="482" y="-319.4" font-family="Times Roman,serif" font-size="14.00">ProjectCategory</text>
</g>
<!-- ProjectCategory&#45;&gt;Project -->
<g id="edge24" class="edge"><title>ProjectCategory&#45;&gt;Project</title>
<path fill="none" stroke="black" d="M480.877,-296.053C480.08,-276.923 479.012,-251.278 478.198,-231.755"/>
<ellipse fill="none" stroke="black" cx="481.052" cy="-300.253" rx="4" ry="4"/>
<polygon fill="black" stroke="black" points="478.192,-231.61 482.272,-221.431 477.984,-226.614 477.776,-221.618 477.776,-221.618 477.776,-221.618 477.984,-226.614 473.28,-221.806 478.192,-231.61 478.192,-231.61"/>
</g>
</g>
</svg>
